<svg width="6457" height="3400" viewBox="0 0 6457 3400" fill="none" xmlns="http://www.w3.org/2000/svg">
<g clip-path="url(#clip0_235_422)">
<rect width="6457" height="3400" transform="matrix(1 0 0 -1 0 3400)" fill="#06081F"/>
<g style="mix-blend-mode:screen" opacity="0.4" clip-path="url(#clip1_235_422)">
<path style="mix-blend-mode:screen" d="M3939.88 3280.23C2720.62 2836.46 2092.78 1486.08 2537.55 264.078C2982.33 -957.926 4331.29 -1588.81 5550.55 -1145.03C6769.8 -701.26 7397.65 649.119 6952.87 1871.12C6508.1 3093.13 5159.14 3724.01 3939.88 3280.23Z" fill="url(#paint0_radial_235_422)"/>
<path style="mix-blend-mode:screen" d="M3463.06 3275.07C2391.21 2884.95 1839.27 1697.82 2230.27 623.555C2621.27 -450.714 3807.15 -1005.32 4879 -615.201C5950.86 -225.078 6502.8 962.046 6111.8 2036.31C5720.79 3110.58 4534.91 3665.19 3463.06 3275.07Z" fill="url(#paint1_radial_235_422)"/>
<path style="mix-blend-mode:screen" d="M2240.91 2964.8C1787.47 2799.76 1553.98 2297.56 1719.39 1843.11C1884.8 1388.65 2386.47 1154.03 2839.9 1319.07C3293.34 1484.1 3526.83 1986.3 3361.42 2440.76C3196.01 2895.21 2694.34 3129.83 2240.91 2964.8Z" fill="url(#paint2_radial_235_422)"/>
<path style="mix-blend-mode:color-dodge" d="M2433.99 2952.8C2052.64 2814 1876.66 2335.6 2040.93 1884.27C2205.2 1432.94 2647.51 1179.59 3028.87 1318.39C3410.22 1457.19 3586.2 1935.59 3421.93 2386.92C3257.66 2838.25 2815.34 3091.6 2433.99 2952.8Z" fill="url(#paint3_radial_235_422)"/>
<path style="mix-blend-mode:screen" d="M1822.64 2568.31C1705.04 2525.51 1644.49 2395.27 1687.39 2277.4C1730.29 2159.54 1860.39 2098.69 1977.99 2141.49C2095.59 2184.3 2156.15 2314.54 2113.25 2432.4C2070.35 2550.27 1940.24 2611.12 1822.64 2568.31Z" fill="url(#paint4_radial_235_422)"/>
<path style="mix-blend-mode:screen" d="M559.29 3455.3C130.424 3299.2 -90.4162 2824.22 66.03 2394.38C222.476 1964.55 696.966 1742.64 1125.83 1898.74C1554.7 2054.83 1775.54 2529.82 1619.09 2959.65C1462.65 3389.48 988.157 3611.39 559.29 3455.3Z" fill="url(#paint5_radial_235_422)"/>
<path style="mix-blend-mode:screen" d="M118.561 3766.2C-400.468 3577.29 -667.736 3002.45 -478.399 2482.25C-289.063 1962.05 285.181 1693.49 804.21 1882.4C1323.24 2071.31 1590.51 2646.16 1401.17 3166.35C1211.83 3686.55 637.591 3955.11 118.561 3766.2Z" fill="url(#paint6_radial_235_422)"/>
<path style="mix-blend-mode:screen" d="M1419.88 2682.88C1318.61 2646.02 1266.47 2533.87 1303.41 2432.38C1340.35 2330.89 1452.38 2278.49 1553.65 2315.35C1654.91 2352.21 1707.05 2464.36 1670.11 2565.85C1633.17 2667.34 1521.14 2719.73 1419.88 2682.88Z" fill="url(#paint7_radial_235_422)"/>
<path style="mix-blend-mode:screen" d="M2607.8 2971.98C2006.96 2753.29 1697.57 2087.84 1916.75 1485.65C2135.93 883.462 2800.68 572.571 3401.52 791.257C4002.35 1009.94 4311.75 1675.4 4092.57 2277.59C3873.39 2879.78 3208.64 3190.67 2607.8 2971.98Z" fill="url(#paint8_radial_235_422)"/>
<path style="mix-blend-mode:screen" d="M3326.51 3736.67C2254.65 3346.54 1702.71 2159.42 2093.71 1085.15C2484.72 10.8835 3670.6 -543.726 4742.45 -153.603C5814.3 236.52 6366.24 1423.64 5975.24 2497.91C5584.24 3572.18 4398.36 4126.79 3326.51 3736.67Z" fill="url(#paint9_radial_235_422)"/>
<path style="mix-blend-mode:screen" d="M3926.97 2000.49C3575.92 1872.72 3395.15 1483.92 3523.21 1132.08C3651.27 780.238 4039.66 598.594 4390.71 726.366C4741.76 854.137 4922.53 1242.94 4794.47 1594.78C4666.41 1946.62 4278.02 2128.26 3926.97 2000.49Z" fill="url(#paint10_radial_235_422)"/>
<path style="mix-blend-mode:screen" d="M4179.92 1276.2C4014.05 768.936 4219.7 246.263 4639.26 108.783C5058.82 -28.6965 5533.41 271.077 5699.29 778.346C5865.17 1285.62 5659.52 1808.29 5239.95 1945.77C4820.39 2083.25 4345.8 1783.47 4179.92 1276.2Z" fill="url(#paint11_radial_235_422)"/>
<path style="mix-blend-mode:screen" d="M5242.55 961.466C5101.76 633.234 5092.64 321.828 5222.18 265.922C5351.72 210.015 5570.86 430.778 5711.65 759.009C5852.43 1087.24 5861.55 1398.65 5732.01 1454.55C5602.47 1510.46 5383.33 1289.7 5242.55 961.466Z" fill="url(#paint12_radial_235_422)"/>
<path style="mix-blend-mode:screen" d="M5143.4 1700.51C4707.55 1541.87 4483.11 1059.15 4642.11 622.316C4801.1 185.484 5283.31 -40.038 5719.16 118.598C6155.01 277.235 6379.45 759.957 6220.46 1196.79C6061.46 1633.62 5579.25 1859.14 5143.4 1700.51Z" fill="url(#paint13_radial_235_422)"/>
<path style="mix-blend-mode:color-dodge" d="M5230.79 1460.39C4927.26 1349.91 4770.96 1013.73 4881.68 709.514C4992.41 405.294 5328.24 248.235 5631.77 358.713C5935.31 469.191 6091.61 805.37 5980.88 1109.59C5870.16 1413.81 5534.33 1570.87 5230.79 1460.39Z" fill="url(#paint14_radial_235_422)"/>
<path style="mix-blend-mode:screen" d="M4977.37 1235.27C4822.36 989.914 4846.12 696.499 5030.42 579.909C5214.72 463.319 5489.78 567.704 5644.79 813.06C5799.79 1058.42 5776.04 1351.83 5591.74 1468.42C5407.43 1585.01 5132.37 1480.62 4977.37 1235.27Z" fill="url(#paint15_radial_235_422)"/>
<path style="mix-blend-mode:screen" d="M4370.16 1331.03C4341.3 1250.18 4854.15 991.863 5515.65 754.055C6177.15 516.247 6736.8 389.006 6765.67 469.854C6794.53 550.701 6281.68 809.021 5620.17 1046.83C4958.67 1284.64 4399.02 1411.88 4370.16 1331.03Z" fill="url(#paint16_radial_235_422)"/>
<path style="mix-blend-mode:screen" d="M4089.32 1436.35C4082.71 1417.83 4762.56 1156.48 5607.81 852.619C6453.06 548.753 7143.64 317.438 7150.25 335.96C7156.86 354.482 6477.01 615.829 5631.76 919.694C4786.51 1223.56 4095.94 1454.88 4089.32 1436.35Z" fill="url(#paint17_radial_235_422)"/>
<path style="mix-blend-mode:screen" d="M4805.9 1124.26C4788.96 1076.83 5089.77 925.302 5477.77 785.816C5865.77 646.331 6194.04 571.707 6210.97 619.139C6227.9 666.572 5927.09 818.099 5539.09 957.584C5151.09 1097.07 4822.83 1171.69 4805.9 1124.26Z" fill="url(#paint18_radial_235_422)"/>
<path style="mix-blend-mode:screen" d="M4641.2 1186.09C4637.31 1175.2 5036.04 1021.9 5531.8 843.674C6027.55 665.453 6432.58 529.803 6436.47 540.691C6440.36 551.579 6041.62 704.882 5545.87 883.103C5050.12 1061.32 4645.08 1196.97 4641.2 1186.09Z" fill="url(#paint19_radial_235_422)"/>
<path style="mix-blend-mode:screen" d="M4609.54 1769.15C3189.88 1252.44 2173.11 465.149 2338.51 10.6937C2503.92 -443.761 3788.88 -393.29 5208.54 123.424C6628.2 640.139 7644.97 1427.43 7479.56 1881.88C7314.15 2336.34 6029.2 2285.87 4609.54 1769.15Z" fill="url(#paint20_radial_235_422)"/>
<path style="mix-blend-mode:screen" d="M1612.5 2651.76C1483.93 2604.96 1417.73 2462.56 1464.63 2333.7C1511.53 2204.83 1653.78 2138.31 1782.35 2185.1C1910.92 2231.9 1977.13 2374.3 1930.23 2503.16C1883.33 2632.02 1741.08 2698.55 1612.5 2651.76Z" fill="url(#paint21_radial_235_422)"/>
</g>
<circle cx="1700" cy="1700" r="1700" transform="matrix(1 0 0 -1 -1700 3400)" fill="url(#paint22_radial_235_422)" fill-opacity="0.4"/>
<circle cx="1700" cy="1700" r="1700" transform="matrix(1 0 0 -1 5100 3400)" fill="url(#paint23_radial_235_422)" fill-opacity="0.4"/>
</g>
<defs>
<radialGradient id="paint0_radial_235_422" cx="0" cy="0" r="1" gradientUnits="userSpaceOnUse" gradientTransform="translate(4745.21 1067.6) rotate(-160) scale(2349.34 2354.64)">
<stop/>
<stop offset="0.63" stop-color="#020201"/>
<stop offset="0.64" stop-color="#020201"/>
<stop offset="0.7" stop-color="#020304"/>
<stop offset="0.73" stop-color="#04070C"/>
<stop offset="0.76" stop-color="#060D1A"/>
<stop offset="0.79" stop-color="#03070F"/>
<stop offset="0.83" stop-color="#010204"/>
<stop offset="0.87"/>
</radialGradient>
<radialGradient id="paint1_radial_235_422" cx="0" cy="0" r="1" gradientUnits="userSpaceOnUse" gradientTransform="translate(4171.03 1329.93) rotate(-160) scale(2065.32 2069.97)">
<stop/>
<stop offset="0.63" stop-color="#020201"/>
<stop offset="0.64" stop-color="#020201"/>
<stop offset="0.7" stop-color="#020304"/>
<stop offset="0.75" stop-color="#03070C"/>
<stop offset="0.76" stop-color="#040912"/>
<stop offset="0.77" stop-color="#03070F"/>
<stop offset="0.82" stop-color="#010204"/>
<stop offset="0.87"/>
</radialGradient>
<radialGradient id="paint2_radial_235_422" cx="0" cy="0" r="1" gradientUnits="userSpaceOnUse" gradientTransform="translate(2540.41 2141.93) rotate(-160) scale(873.705 875.673)">
<stop/>
<stop offset="0.09" stop-color="#020201"/>
<stop offset="0.4" stop-color="#020304"/>
<stop offset="0.6" stop-color="#04070C"/>
<stop offset="0.76" stop-color="#060D1A"/>
<stop offset="0.79" stop-color="#03070F"/>
<stop offset="0.83" stop-color="#010204"/>
<stop offset="0.87"/>
</radialGradient>
<radialGradient id="paint3_radial_235_422" cx="0" cy="0" r="1" gradientUnits="userSpaceOnUse" gradientTransform="translate(2771.64 2084.14) rotate(-160) scale(733.912 866.916)">
<stop/>
<stop offset="0.09" stop-color="#020201"/>
<stop offset="0.25" stop-color="#040304"/>
<stop offset="0.36" stop-color="#0C080C"/>
<stop offset="0.45" stop-color="#18101B"/>
<stop offset="0.53" stop-color="#2A1B30"/>
<stop offset="0.6" stop-color="#412A4B"/>
<stop offset="0.67" stop-color="#5D3B6D"/>
<stop offset="0.73" stop-color="#7E5093"/>
<stop offset="0.76" stop-color="#8E5AA6"/>
<stop offset="0.77" stop-color="#744987"/>
<stop offset="0.79" stop-color="#51335E"/>
<stop offset="0.8" stop-color="#33213C"/>
<stop offset="0.82" stop-color="#1D1222"/>
<stop offset="0.84" stop-color="#0D080F"/>
<stop offset="0.85" stop-color="#030204"/>
<stop offset="0.87"/>
</radialGradient>
<radialGradient id="paint4_radial_235_422" cx="0" cy="0" r="1" gradientUnits="userSpaceOnUse" gradientTransform="translate(1900.32 2354.9) rotate(-160) scale(226.596 227.107)">
<stop/>
<stop offset="0.09" stop-color="#020201"/>
<stop offset="0.4" stop-color="#020304"/>
<stop offset="0.6" stop-color="#04070C"/>
<stop offset="0.76" stop-color="#060D1A"/>
<stop offset="0.79" stop-color="#03070F"/>
<stop offset="0.83" stop-color="#010204"/>
<stop offset="0.87"/>
</radialGradient>
<radialGradient id="paint5_radial_235_422" cx="0" cy="0" r="1" gradientUnits="userSpaceOnUse" gradientTransform="translate(842.561 2677.02) rotate(-160) scale(826.367 828.229)">
<stop/>
<stop offset="0.09" stop-color="#020201"/>
<stop offset="0.41" stop-color="#050203"/>
<stop offset="0.61" stop-color="#0D0409"/>
<stop offset="0.76" stop-color="#1A0612"/>
<stop offset="0.79" stop-color="#0F030A"/>
<stop offset="0.83" stop-color="#040103"/>
<stop offset="0.87"/>
</radialGradient>
<radialGradient id="paint6_radial_235_422" cx="0" cy="0" r="1" gradientUnits="userSpaceOnUse" gradientTransform="translate(461.386 2824.3) rotate(-160) scale(1000.1 1002.35)">
<stop/>
<stop offset="0.09" stop-color="#020201"/>
<stop offset="0.41" stop-color="#050303"/>
<stop offset="0.61" stop-color="#0D080A"/>
<stop offset="0.76" stop-color="#1A0E15"/>
<stop offset="0.79" stop-color="#0F080C"/>
<stop offset="0.83" stop-color="#040203"/>
<stop offset="0.87"/>
</radialGradient>
<radialGradient id="paint7_radial_235_422" cx="0" cy="0" r="1" gradientUnits="userSpaceOnUse" gradientTransform="translate(1486.76 2499.11) rotate(-160) scale(195.118 195.557)">
<stop/>
<stop offset="0.09" stop-color="#020201"/>
<stop offset="0.41" stop-color="#050303"/>
<stop offset="0.61" stop-color="#0D080A"/>
<stop offset="0.76" stop-color="#1A0E15"/>
<stop offset="0.79" stop-color="#0F080C"/>
<stop offset="0.83" stop-color="#040203"/>
<stop offset="0.87"/>
</radialGradient>
<radialGradient id="paint8_radial_235_422" cx="0" cy="0" r="1" gradientUnits="userSpaceOnUse" gradientTransform="translate(3004.66 1881.62) rotate(-160) scale(1157.73 1160.34)">
<stop/>
<stop offset="0.63" stop-color="#020201"/>
<stop offset="0.64" stop-color="#020201"/>
<stop offset="0.7" stop-color="#030204"/>
<stop offset="0.73" stop-color="#05040C"/>
<stop offset="0.76" stop-color="#08061A"/>
<stop offset="0.79" stop-color="#05030F"/>
<stop offset="0.83" stop-color="#010104"/>
<stop offset="0.87"/>
</radialGradient>
<radialGradient id="paint9_radial_235_422" cx="0" cy="0" r="1" gradientUnits="userSpaceOnUse" gradientTransform="translate(4034.48 1791.53) rotate(-160) scale(2065.32 2069.97)">
<stop/>
<stop offset="0.47" stop-color="#010102"/>
<stop offset="0.64" stop-color="#070309"/>
<stop offset="0.71" stop-color="#0C050F"/>
<stop offset="0.74" stop-color="#09060E"/>
<stop offset="0.76" stop-color="#03080D"/>
<stop offset="0.81" stop-color="#010204"/>
<stop offset="0.87"/>
</radialGradient>
<radialGradient id="paint10_radial_235_422" cx="0" cy="0" r="1" gradientUnits="userSpaceOnUse" gradientTransform="translate(4158.84 1363.43) rotate(-160) scale(676.424 677.948)">
<stop/>
<stop offset="0.47" stop-color="#010202"/>
<stop offset="0.64" stop-color="#030907"/>
<stop offset="0.71" stop-color="#050F0D"/>
<stop offset="0.74" stop-color="#060D10"/>
<stop offset="0.76" stop-color="#08061A"/>
<stop offset="0.79" stop-color="#05030F"/>
<stop offset="0.83" stop-color="#010104"/>
<stop offset="0.87"/>
</radialGradient>
<radialGradient id="paint11_radial_235_422" cx="0" cy="0" r="1" gradientUnits="userSpaceOnUse" gradientTransform="translate(4896.72 920.921) rotate(161.857) scale(799.862 965.868)">
<stop offset="0.74" stop-color="#162F3B"/>
<stop offset="0.8" stop-color="#0F2129"/>
<stop offset="0.93" stop-color="#04090B"/>
<stop offset="1"/>
</radialGradient>
<radialGradient id="paint12_radial_235_422" cx="0" cy="0" r="1" gradientUnits="userSpaceOnUse" gradientTransform="translate(5437.19 883.666) rotate(-113.216) scale(646.503 257.31)">
<stop stop-color="#4CD4E0"/>
<stop offset="0.19" stop-color="#33738A"/>
<stop offset="0.38" stop-color="#224C5B"/>
<stop offset="0.57" stop-color="#132B34"/>
<stop offset="0.74" stop-color="#091317"/>
<stop offset="0.89" stop-color="#020506"/>
<stop offset="1"/>
</radialGradient>
<radialGradient id="paint13_radial_235_422" cx="0" cy="0" r="1" gradientUnits="userSpaceOnUse" gradientTransform="translate(5432.63 910.642) rotate(-167.316) scale(839.854 841.685)">
<stop stop-color="#99EBFF"/>
<stop offset="0.12" stop-color="#76B5C4"/>
<stop offset="0.25" stop-color="#578591"/>
<stop offset="0.37" stop-color="#3C5D64"/>
<stop offset="0.5" stop-color="#263B40"/>
<stop offset="0.62" stop-color="#162124"/>
<stop offset="0.75" stop-color="#0A0F10"/>
<stop offset="0.87" stop-color="#020404"/>
<stop offset="1"/>
</radialGradient>
<radialGradient id="paint14_radial_235_422" cx="0" cy="0" r="1" gradientUnits="userSpaceOnUse" gradientTransform="translate(5432.63 910.642) rotate(-167.316) scale(584.894 586.169)">
<stop offset="0.06" stop-color="#99EBFF"/>
<stop offset="0.11" stop-color="#87CFE1"/>
<stop offset="0.2" stop-color="#689FAD"/>
<stop offset="0.3" stop-color="#4C757E"/>
<stop offset="0.41" stop-color="#355158"/>
<stop offset="0.51" stop-color="#213338"/>
<stop offset="0.62" stop-color="#131D1F"/>
<stop offset="0.73" stop-color="#080D0E"/>
<stop offset="0.86" stop-color="#020303"/>
<stop offset="1"/>
</radialGradient>
<radialGradient id="paint15_radial_235_422" cx="0" cy="0" r="1" gradientUnits="userSpaceOnUse" gradientTransform="translate(5251.63 962.736) rotate(147.683) scale(395.779 527.406)">
<stop offset="0.15"/>
<stop offset="0.33" stop-color="#010202"/>
<stop offset="0.39" stop-color="#050809"/>
<stop offset="0.44" stop-color="#0C1314"/>
<stop offset="0.47" stop-color="#162225"/>
<stop offset="0.51" stop-color="#24373B"/>
<stop offset="0.53" stop-color="#345057"/>
<stop offset="0.56" stop-color="#476E77"/>
<stop offset="0.58" stop-color="#5E909D"/>
<stop offset="0.6" stop-color="#78B8C8"/>
<stop offset="0.62" stop-color="#93E2F6"/>
<stop offset="0.63" stop-color="#99EBFF"/>
<stop offset="0.68" stop-color="#59A4CF"/>
<stop offset="0.73" stop-color="#4682A4"/>
<stop offset="0.8" stop-color="#2E546A"/>
<stop offset="0.86" stop-color="#1A303C"/>
<stop offset="0.92" stop-color="#0C161B"/>
<stop offset="0.97" stop-color="#030607"/>
<stop offset="1"/>
</radialGradient>
<radialGradient id="paint16_radial_235_422" cx="0" cy="0" r="1" gradientUnits="userSpaceOnUse" gradientTransform="translate(5707.03 1318.36) rotate(-109.647) scale(151.115 1273.15)">
<stop stop-color="#42A3C9"/>
<stop offset="0.11" stop-color="#3685A4"/>
<stop offset="0.27" stop-color="#265D72"/>
<stop offset="0.43" stop-color="#183B49"/>
<stop offset="0.58" stop-color="#0E2129"/>
<stop offset="0.73" stop-color="#060F12"/>
<stop offset="0.88" stop-color="#020405"/>
<stop offset="1"/>
</radialGradient>
<radialGradient id="paint17_radial_235_422" cx="0" cy="0" r="1" gradientUnits="userSpaceOnUse" gradientTransform="translate(5452.67 710.013) rotate(-109.647) scale(32.382 1629.2)">
<stop stop-color="#42A3C9"/>
<stop offset="0.01" stop-color="#99EBFF"/>
<stop offset="0.08" stop-color="#86CEDF"/>
<stop offset="0.22" stop-color="#6398A5"/>
<stop offset="0.37" stop-color="#456972"/>
<stop offset="0.51" stop-color="#2C4449"/>
<stop offset="0.64" stop-color="#192629"/>
<stop offset="0.77" stop-color="#0B1112"/>
<stop offset="0.89" stop-color="#030405"/>
<stop offset="1"/>
</radialGradient>
<radialGradient id="paint18_radial_235_422" cx="0" cy="0" r="1" gradientUnits="userSpaceOnUse" gradientTransform="translate(5648.15 1290.83) rotate(-109.647) scale(88.6277 746.693)">
<stop stop-color="#42A3C9"/>
<stop offset="0.11" stop-color="#3685A4"/>
<stop offset="0.27" stop-color="#265D72"/>
<stop offset="0.43" stop-color="#183B49"/>
<stop offset="0.58" stop-color="#0E2129"/>
<stop offset="0.73" stop-color="#060F12"/>
<stop offset="0.88" stop-color="#020405"/>
<stop offset="1"/>
</radialGradient>
<radialGradient id="paint19_radial_235_422" cx="0" cy="0" r="1" gradientUnits="userSpaceOnUse" gradientTransform="translate(5373.04 691.248) rotate(-109.647) scale(18.9915 955.513)">
<stop stop-color="#42A3C9"/>
<stop offset="0.01" stop-color="#99EBFF"/>
<stop offset="0.08" stop-color="#86CEDF"/>
<stop offset="0.22" stop-color="#6398A5"/>
<stop offset="0.37" stop-color="#456972"/>
<stop offset="0.51" stop-color="#2C4449"/>
<stop offset="0.64" stop-color="#192629"/>
<stop offset="0.77" stop-color="#0B1112"/>
<stop offset="0.89" stop-color="#030405"/>
<stop offset="1"/>
</radialGradient>
<radialGradient id="paint20_radial_235_422" cx="0" cy="0" r="1" gradientUnits="userSpaceOnUse" gradientTransform="translate(4954.96 947.844) rotate(-160) scale(2729.95 873.713)">
<stop/>
<stop offset="0.38" stop-color="#000102"/>
<stop offset="0.52" stop-color="#020209"/>
<stop offset="0.62" stop-color="#050614"/>
<stop offset="0.7" stop-color="#080B25"/>
<stop offset="0.76" stop-color="#0D113B"/>
<stop offset="0.79" stop-color="#0B0E30"/>
<stop offset="0.87" stop-color="#050616"/>
<stop offset="0.94" stop-color="#010206"/>
<stop offset="1"/>
</radialGradient>
<radialGradient id="paint21_radial_235_422" cx="0" cy="0" r="1" gradientUnits="userSpaceOnUse" gradientTransform="translate(1697.43 2418.43) rotate(-160) scale(247.742 248.3)">
<stop stop-color="#DD6DC5"/>
<stop offset="0.16" stop-color="#843E8F"/>
<stop offset="0.24" stop-color="#602B7A"/>
<stop offset="0.32" stop-color="#4C2261"/>
<stop offset="0.45" stop-color="#31163E"/>
<stop offset="0.58" stop-color="#1B0C23"/>
<stop offset="0.72" stop-color="#0C050F"/>
<stop offset="0.86" stop-color="#030104"/>
<stop offset="1"/>
</radialGradient>
<radialGradient id="paint22_radial_235_422" cx="0" cy="0" r="1" gradientUnits="userSpaceOnUse" gradientTransform="translate(1700 1700) rotate(90) scale(1700)">
<stop stop-color="#00C9FF"/>
<stop offset="1" stop-color="#00C9FF" stop-opacity="0"/>
</radialGradient>
<radialGradient id="paint23_radial_235_422" cx="0" cy="0" r="1" gradientUnits="userSpaceOnUse" gradientTransform="translate(1700 1700) rotate(90) scale(1700)">
<stop stop-color="#F74299"/>
<stop offset="1" stop-color="#FF449E" stop-opacity="0"/>
</radialGradient>
<clipPath id="clip0_235_422">
<rect width="6457" height="3400" fill="white" transform="matrix(1 0 0 -1 0 3400)"/>
</clipPath>
<clipPath id="clip1_235_422">
<rect width="7272.46" height="6472.9" fill="white" transform="matrix(-0.939693 -0.34202 -0.34202 0.939693 8226.74 -170.977)"/>
</clipPath>
</defs>
</svg>
