<svg width="1440" height="955" viewBox="0 0 1440 955" fill="none" xmlns="http://www.w3.org/2000/svg">
<g opacity="0.3" clip-path="url(#clip0_235_17)">
<path d="M1440.63 -5.22266H0.633789V954.852H1440.63V-5.22266Z" fill="url(#paint0_linear_235_17)"/>
<g opacity="0.5">
<path opacity="0.5" d="M55.719 39.5936C55.719 41.4754 54.183 43.0115 52.3014 43.0115C50.4198 43.0115 48.8838 41.4754 48.8838 39.5936C48.8838 37.7119 50.4198 36.1758 52.3014 36.1758C54.183 36.1758 55.719 37.7119 55.719 39.5936Z" fill="white"/>
<path opacity="0.5" d="M81.6969 43.0115C83.5844 43.0115 85.1145 41.4813 85.1145 39.5936C85.1145 37.706 83.5844 36.1758 81.6969 36.1758C79.8094 36.1758 78.2793 37.706 78.2793 39.5936C78.2793 41.4813 79.8094 43.0115 81.6969 43.0115Z" fill="white"/>
<path opacity="0.5" d="M111.073 43.0115C112.96 43.0115 114.49 41.4813 114.49 39.5936C114.49 37.706 112.96 36.1758 111.073 36.1758C109.185 36.1758 107.655 37.706 107.655 39.5936C107.655 41.4813 109.185 43.0115 111.073 43.0115Z" fill="white"/>
<path opacity="0.5" d="M143.885 39.5936C143.885 41.4754 142.349 43.0115 140.467 43.0115C138.586 43.0115 137.05 41.4754 137.05 39.5936C137.05 37.7119 138.586 36.1758 140.467 36.1758C142.349 36.1758 143.885 37.7119 143.885 39.5936Z" fill="white"/>
<path opacity="0.5" d="M169.843 43.0115C171.731 43.0115 173.261 41.4813 173.261 39.5936C173.261 37.706 171.731 36.1758 169.843 36.1758C167.956 36.1758 166.426 37.706 166.426 39.5936C166.426 41.4813 167.956 43.0115 169.843 43.0115Z" fill="white"/>
<path opacity="0.5" d="M199.24 43.0115C201.127 43.0115 202.657 41.4813 202.657 39.5936C202.657 37.706 201.127 36.1758 199.24 36.1758C197.352 36.1758 195.822 37.706 195.822 39.5936C195.822 41.4813 197.352 43.0115 199.24 43.0115Z" fill="white"/>
<path opacity="0.5" d="M228.615 43.0115C230.502 43.0115 232.032 41.4813 232.032 39.5936C232.032 37.706 230.502 36.1758 228.615 36.1758C226.727 36.1758 225.197 37.706 225.197 39.5936C225.197 41.4813 226.727 43.0115 228.615 43.0115Z" fill="white"/>
<path opacity="0.5" d="M258.009 43.0115C259.897 43.0115 261.427 41.4813 261.427 39.5936C261.427 37.706 259.897 36.1758 258.009 36.1758C256.122 36.1758 254.592 37.706 254.592 39.5936C254.592 41.4813 256.122 43.0115 258.009 43.0115Z" fill="white"/>
<path opacity="0.5" d="M55.719 68.9721C55.719 70.8538 54.183 72.3899 52.3014 72.3899C50.4198 72.3899 48.8838 70.8538 48.8838 68.9721C48.8838 67.0903 50.4198 65.5542 52.3014 65.5542C54.183 65.5734 55.719 67.0903 55.719 68.9721Z" fill="white"/>
<path opacity="0.5" d="M81.6969 72.3899C83.5844 72.3899 85.1145 70.8597 85.1145 68.9721C85.1145 67.0844 83.5844 65.5542 81.6969 65.5542C79.8094 65.5542 78.2793 67.0844 78.2793 68.9721C78.2793 70.8597 79.8094 72.3899 81.6969 72.3899Z" fill="white"/>
<path opacity="0.5" d="M111.073 72.3899C112.96 72.3899 114.49 70.8597 114.49 68.9721C114.49 67.0844 112.96 65.5542 111.073 65.5542C109.185 65.5542 107.655 67.0844 107.655 68.9721C107.655 70.8597 109.185 72.3899 111.073 72.3899Z" fill="white"/>
<path opacity="0.5" d="M143.885 68.9721C143.885 70.8538 142.349 72.3899 140.467 72.3899C138.586 72.3899 137.05 70.8538 137.05 68.9721C137.05 67.0903 138.586 65.5542 140.467 65.5542C142.349 65.5734 143.885 67.0903 143.885 68.9721Z" fill="white"/>
<path opacity="0.5" d="M169.843 72.3899C171.731 72.3899 173.261 70.8597 173.261 68.9721C173.261 67.0844 171.731 65.5542 169.843 65.5542C167.956 65.5542 166.426 67.0844 166.426 68.9721C166.426 70.8597 167.956 72.3899 169.843 72.3899Z" fill="white"/>
<path opacity="0.5" d="M199.24 72.3899C201.127 72.3899 202.657 70.8597 202.657 68.9721C202.657 67.0844 201.127 65.5542 199.24 65.5542C197.352 65.5542 195.822 67.0844 195.822 68.9721C195.822 70.8597 197.352 72.3899 199.24 72.3899Z" fill="white"/>
<path opacity="0.5" d="M228.615 72.3899C230.502 72.3899 232.032 70.8597 232.032 68.9721C232.032 67.0844 230.502 65.5542 228.615 65.5542C226.727 65.5542 225.197 67.0844 225.197 68.9721C225.197 70.8597 226.727 72.3899 228.615 72.3899Z" fill="white"/>
<path opacity="0.5" d="M258.009 72.3899C259.897 72.3899 261.427 70.8597 261.427 68.9721C261.427 67.0844 259.897 65.5542 258.009 65.5542C256.122 65.5542 254.592 67.0844 254.592 68.9721C254.592 70.8597 256.122 72.3899 258.009 72.3899Z" fill="white"/>
<path opacity="0.5" d="M55.719 98.3695C55.719 100.251 54.183 101.787 52.3014 101.787C50.4198 101.787 48.8838 100.251 48.8838 98.3695C48.8838 96.4878 50.4198 94.9517 52.3014 94.9517C54.183 94.9517 55.719 96.4878 55.719 98.3695Z" fill="white"/>
<path opacity="0.5" d="M81.6969 101.787C83.5844 101.787 85.1145 100.257 85.1145 98.3695C85.1145 96.4819 83.5844 94.9517 81.6969 94.9517C79.8094 94.9517 78.2793 96.4819 78.2793 98.3695C78.2793 100.257 79.8094 101.787 81.6969 101.787Z" fill="white"/>
<path opacity="0.5" d="M111.073 101.787C112.96 101.787 114.49 100.257 114.49 98.3695C114.49 96.4819 112.96 94.9517 111.073 94.9517C109.185 94.9517 107.655 96.4819 107.655 98.3695C107.655 100.257 109.185 101.787 111.073 101.787Z" fill="white"/>
<path opacity="0.5" d="M143.885 98.3695C143.885 100.251 142.349 101.787 140.467 101.787C138.586 101.787 137.05 100.251 137.05 98.3695C137.05 96.4878 138.586 94.9517 140.467 94.9517C142.349 94.9517 143.885 96.4878 143.885 98.3695Z" fill="white"/>
<path opacity="0.5" d="M169.843 101.787C171.731 101.787 173.261 100.257 173.261 98.3695C173.261 96.4819 171.731 94.9517 169.843 94.9517C167.956 94.9517 166.426 96.4819 166.426 98.3695C166.426 100.257 167.956 101.787 169.843 101.787Z" fill="white"/>
<path opacity="0.5" d="M199.24 101.787C201.127 101.787 202.657 100.257 202.657 98.3695C202.657 96.4819 201.127 94.9517 199.24 94.9517C197.352 94.9517 195.822 96.4819 195.822 98.3695C195.822 100.257 197.352 101.787 199.24 101.787Z" fill="white"/>
<path opacity="0.5" d="M228.615 101.787C230.502 101.787 232.032 100.257 232.032 98.3695C232.032 96.4819 230.502 94.9517 228.615 94.9517C226.727 94.9517 225.197 96.4819 225.197 98.3695C225.197 100.257 226.727 101.787 228.615 101.787Z" fill="white"/>
<path opacity="0.5" d="M258.009 101.787C259.897 101.787 261.427 100.257 261.427 98.3695C261.427 96.4819 259.897 94.9517 258.009 94.9517C256.122 94.9517 254.592 96.4819 254.592 98.3695C254.592 100.257 256.122 101.787 258.009 101.787Z" fill="white"/>
<path opacity="0.5" d="M55.719 127.748C55.719 129.63 54.183 131.166 52.3014 131.166C50.4198 131.166 48.8838 129.63 48.8838 127.748C48.8838 125.866 50.4198 124.33 52.3014 124.33C54.183 124.349 55.719 125.866 55.719 127.748Z" fill="white"/>
<path opacity="0.5" d="M81.6969 131.166C83.5844 131.166 85.1145 129.636 85.1145 127.748C85.1145 125.86 83.5844 124.33 81.6969 124.33C79.8094 124.33 78.2793 125.86 78.2793 127.748C78.2793 129.636 79.8094 131.166 81.6969 131.166Z" fill="white"/>
<path opacity="0.5" d="M111.073 131.166C112.96 131.166 114.49 129.636 114.49 127.748C114.49 125.86 112.96 124.33 111.073 124.33C109.185 124.33 107.655 125.86 107.655 127.748C107.655 129.636 109.185 131.166 111.073 131.166Z" fill="white"/>
<path opacity="0.5" d="M143.885 127.748C143.885 129.63 142.349 131.166 140.467 131.166C138.586 131.166 137.05 129.63 137.05 127.748C137.05 125.866 138.586 124.33 140.467 124.33C142.349 124.349 143.885 125.866 143.885 127.748Z" fill="white"/>
<path opacity="0.5" d="M169.843 131.166C171.731 131.166 173.261 129.636 173.261 127.748C173.261 125.86 171.731 124.33 169.843 124.33C167.956 124.33 166.426 125.86 166.426 127.748C166.426 129.636 167.956 131.166 169.843 131.166Z" fill="white"/>
<path opacity="0.5" d="M199.24 131.166C201.127 131.166 202.657 129.636 202.657 127.748C202.657 125.86 201.127 124.33 199.24 124.33C197.352 124.33 195.822 125.86 195.822 127.748C195.822 129.636 197.352 131.166 199.24 131.166Z" fill="white"/>
<path opacity="0.5" d="M228.615 131.166C230.502 131.166 232.032 129.636 232.032 127.748C232.032 125.86 230.502 124.33 228.615 124.33C226.727 124.33 225.197 125.86 225.197 127.748C225.197 129.636 226.727 131.166 228.615 131.166Z" fill="white"/>
<path opacity="0.5" d="M258.009 131.166C259.897 131.166 261.427 129.636 261.427 127.748C261.427 125.86 259.897 124.33 258.009 124.33C256.122 124.33 254.592 125.86 254.592 127.748C254.592 129.636 256.122 131.166 258.009 131.166Z" fill="white"/>
<path opacity="0.5" d="M55.719 157.145C55.719 159.027 54.183 160.563 52.3014 160.563C50.4198 160.563 48.8838 159.027 48.8838 157.145C48.8838 155.264 50.4198 153.728 52.3014 153.728C54.183 153.728 55.719 155.264 55.719 157.145Z" fill="white"/>
<path opacity="0.5" d="M81.6969 160.563C83.5844 160.563 85.1145 159.033 85.1145 157.145C85.1145 155.258 83.5844 153.728 81.6969 153.728C79.8094 153.728 78.2793 155.258 78.2793 157.145C78.2793 159.033 79.8094 160.563 81.6969 160.563Z" fill="white"/>
<path opacity="0.5" d="M111.073 160.563C112.96 160.563 114.49 159.033 114.49 157.145C114.49 155.258 112.96 153.728 111.073 153.728C109.185 153.728 107.655 155.258 107.655 157.145C107.655 159.033 109.185 160.563 111.073 160.563Z" fill="white"/>
<path opacity="0.5" d="M143.885 157.145C143.885 159.027 142.349 160.563 140.467 160.563C138.586 160.563 137.05 159.027 137.05 157.145C137.05 155.264 138.586 153.728 140.467 153.728C142.349 153.728 143.885 155.264 143.885 157.145Z" fill="white"/>
<path opacity="0.5" d="M169.843 160.563C171.731 160.563 173.261 159.033 173.261 157.145C173.261 155.258 171.731 153.728 169.843 153.728C167.956 153.728 166.426 155.258 166.426 157.145C166.426 159.033 167.956 160.563 169.843 160.563Z" fill="white"/>
<path opacity="0.5" d="M199.24 160.563C201.127 160.563 202.657 159.033 202.657 157.145C202.657 155.258 201.127 153.728 199.24 153.728C197.352 153.728 195.822 155.258 195.822 157.145C195.822 159.033 197.352 160.563 199.24 160.563Z" fill="white"/>
<path opacity="0.5" d="M228.615 160.563C230.502 160.563 232.032 159.033 232.032 157.145C232.032 155.258 230.502 153.728 228.615 153.728C226.727 153.728 225.197 155.258 225.197 157.145C225.197 159.033 226.727 160.563 228.615 160.563Z" fill="white"/>
<path opacity="0.5" d="M258.009 160.563C259.897 160.563 261.427 159.033 261.427 157.145C261.427 155.258 259.897 153.728 258.009 153.728C256.122 153.728 254.592 155.258 254.592 157.145C254.592 159.033 256.122 160.563 258.009 160.563Z" fill="white"/>
<path opacity="0.5" d="M55.719 186.543C55.719 188.425 54.183 189.961 52.3014 189.961C50.4198 189.961 48.8838 188.425 48.8838 186.543C48.8838 184.661 50.4198 183.125 52.3014 183.125C54.183 183.125 55.719 184.642 55.719 186.543Z" fill="white"/>
<path opacity="0.5" d="M81.6969 189.961C83.5844 189.961 85.1145 188.43 85.1145 186.543C85.1145 184.655 83.5844 183.125 81.6969 183.125C79.8094 183.125 78.2793 184.655 78.2793 186.543C78.2793 188.43 79.8094 189.961 81.6969 189.961Z" fill="white"/>
<path opacity="0.5" d="M111.073 189.961C112.96 189.961 114.49 188.43 114.49 186.543C114.49 184.655 112.96 183.125 111.073 183.125C109.185 183.125 107.655 184.655 107.655 186.543C107.655 188.43 109.185 189.961 111.073 189.961Z" fill="white"/>
<path opacity="0.5" d="M143.885 186.543C143.885 188.425 142.349 189.961 140.467 189.961C138.586 189.961 137.05 188.425 137.05 186.543C137.05 184.661 138.586 183.125 140.467 183.125C142.349 183.125 143.885 184.642 143.885 186.543Z" fill="white"/>
<path opacity="0.5" d="M169.843 189.961C171.731 189.961 173.261 188.43 173.261 186.543C173.261 184.655 171.731 183.125 169.843 183.125C167.956 183.125 166.426 184.655 166.426 186.543C166.426 188.43 167.956 189.961 169.843 189.961Z" fill="white"/>
<path opacity="0.5" d="M199.24 189.961C201.127 189.961 202.657 188.43 202.657 186.543C202.657 184.655 201.127 183.125 199.24 183.125C197.352 183.125 195.822 184.655 195.822 186.543C195.822 188.43 197.352 189.961 199.24 189.961Z" fill="white"/>
<path opacity="0.5" d="M228.615 189.961C230.502 189.961 232.032 188.43 232.032 186.543C232.032 184.655 230.502 183.125 228.615 183.125C226.727 183.125 225.197 184.655 225.197 186.543C225.197 188.43 226.727 189.961 228.615 189.961Z" fill="white"/>
<path opacity="0.5" d="M258.009 189.961C259.897 189.961 261.427 188.43 261.427 186.543C261.427 184.655 259.897 183.125 258.009 183.125C256.122 183.125 254.592 184.655 254.592 186.543C254.592 188.43 256.122 189.961 258.009 189.961Z" fill="white"/>
</g>
<g opacity="0.5">
<path opacity="0.5" d="M1222.87 553.925C1224.75 553.925 1226.28 552.395 1226.28 550.507C1226.28 548.62 1224.75 547.089 1222.87 547.089C1220.98 547.089 1219.45 548.62 1219.45 550.507C1219.45 552.395 1220.98 553.925 1222.87 553.925Z" fill="white"/>
<path opacity="0.5" d="M1222.87 583.323C1224.75 583.323 1226.28 581.792 1226.28 579.905C1226.28 578.017 1224.75 576.487 1222.87 576.487C1220.98 576.487 1219.45 578.017 1219.45 579.905C1219.45 581.792 1220.98 583.323 1222.87 583.323Z" fill="white"/>
<path opacity="0.5" d="M1222.87 612.701C1224.75 612.701 1226.28 611.171 1226.28 609.283C1226.28 607.395 1224.75 605.865 1222.87 605.865C1220.98 605.865 1219.45 607.395 1219.45 609.283C1219.45 611.171 1220.98 612.701 1222.87 612.701Z" fill="white"/>
<path opacity="0.5" d="M1222.87 642.098C1224.75 642.098 1226.28 640.568 1226.28 638.681C1226.28 636.793 1224.75 635.263 1222.87 635.263C1220.98 635.263 1219.45 636.793 1219.45 638.681C1219.45 640.568 1220.98 642.098 1222.87 642.098Z" fill="white"/>
<path opacity="0.5" d="M1222.87 671.477C1224.75 671.477 1226.28 669.947 1226.28 668.059C1226.28 666.171 1224.75 664.641 1222.87 664.641C1220.98 664.641 1219.45 666.171 1219.45 668.059C1219.45 669.947 1220.98 671.477 1222.87 671.477Z" fill="white"/>
<path opacity="0.5" d="M1222.87 700.874C1224.75 700.874 1226.28 699.344 1226.28 697.456C1226.28 695.569 1224.75 694.039 1222.87 694.039C1220.98 694.039 1219.45 695.569 1219.45 697.456C1219.45 699.344 1220.98 700.874 1222.87 700.874Z" fill="white"/>
<path opacity="0.5" d="M1222.87 730.252C1224.75 730.252 1226.28 728.722 1226.28 726.834C1226.28 724.947 1224.75 723.417 1222.87 723.417C1220.98 723.417 1219.45 724.947 1219.45 726.834C1219.45 728.722 1220.98 730.252 1222.87 730.252Z" fill="white"/>
<path opacity="0.5" d="M1222.87 759.631C1220.99 759.631 1219.45 758.095 1219.45 756.213C1219.45 754.331 1220.99 752.795 1222.87 752.795C1224.75 752.795 1226.28 754.331 1226.28 756.213C1226.28 758.114 1224.75 759.631 1222.87 759.631Z" fill="white"/>
<path opacity="0.5" d="M1193.49 553.925C1191.61 553.925 1190.07 552.389 1190.07 550.507C1190.07 548.625 1191.61 547.089 1193.49 547.089C1195.37 547.089 1196.91 548.625 1196.91 550.507C1196.89 552.389 1195.37 553.925 1193.49 553.925Z" fill="white"/>
<path opacity="0.5" d="M1193.49 583.304C1191.61 583.304 1190.07 581.767 1190.07 579.886C1190.07 578.004 1191.61 576.468 1193.49 576.468C1195.37 576.468 1196.91 578.004 1196.91 579.886C1196.89 581.787 1195.37 583.304 1193.49 583.304Z" fill="white"/>
<path opacity="0.5" d="M1193.49 612.701C1191.61 612.701 1190.07 611.165 1190.07 609.283C1190.07 607.401 1191.61 605.865 1193.49 605.865C1195.37 605.865 1196.91 607.401 1196.91 609.283C1196.89 611.165 1195.37 612.701 1193.49 612.701Z" fill="white"/>
<path opacity="0.5" d="M1193.49 642.079C1191.61 642.079 1190.07 640.543 1190.07 638.661C1190.07 636.779 1191.61 635.243 1193.49 635.243C1195.37 635.243 1196.91 636.779 1196.91 638.661C1196.89 640.562 1195.37 642.079 1193.49 642.079Z" fill="white"/>
<path opacity="0.5" d="M1193.49 671.477C1191.61 671.477 1190.07 669.941 1190.07 668.059C1190.07 666.177 1191.61 664.641 1193.49 664.641C1195.37 664.641 1196.91 666.177 1196.91 668.059C1196.89 669.941 1195.37 671.477 1193.49 671.477Z" fill="white"/>
<path opacity="0.5" d="M1193.49 700.855C1191.61 700.855 1190.07 699.319 1190.07 697.437C1190.07 695.555 1191.61 694.019 1193.49 694.019C1195.37 694.019 1196.91 695.555 1196.91 697.437C1196.91 699.319 1195.37 700.855 1193.49 700.855Z" fill="white"/>
<path opacity="0.5" d="M1193.49 730.252C1191.61 730.252 1190.07 728.716 1190.07 726.834C1190.07 724.953 1191.61 723.417 1193.49 723.417C1195.37 723.417 1196.91 724.953 1196.91 726.834C1196.91 728.716 1195.37 730.252 1193.49 730.252Z" fill="white"/>
<path opacity="0.5" d="M1193.49 759.631C1191.61 759.631 1190.07 758.095 1190.07 756.213C1190.07 754.331 1191.61 752.795 1193.49 752.795C1195.37 752.795 1196.91 754.331 1196.91 756.213C1196.89 758.114 1195.37 759.631 1193.49 759.631Z" fill="white"/>
<path opacity="0.5" d="M1164.1 553.925C1165.98 553.925 1167.51 552.395 1167.51 550.507C1167.51 548.62 1165.98 547.089 1164.1 547.089C1162.21 547.089 1160.68 548.62 1160.68 550.507C1160.68 552.395 1162.21 553.925 1164.1 553.925Z" fill="white"/>
<path opacity="0.5" d="M1164.1 583.323C1165.98 583.323 1167.51 581.792 1167.51 579.905C1167.51 578.017 1165.98 576.487 1164.1 576.487C1162.21 576.487 1160.68 578.017 1160.68 579.905C1160.68 581.792 1162.21 583.323 1164.1 583.323Z" fill="white"/>
<path opacity="0.5" d="M1164.1 612.701C1165.98 612.701 1167.51 611.171 1167.51 609.283C1167.51 607.395 1165.98 605.865 1164.1 605.865C1162.21 605.865 1160.68 607.395 1160.68 609.283C1160.68 611.171 1162.21 612.701 1164.1 612.701Z" fill="white"/>
<path opacity="0.5" d="M1164.1 642.098C1165.98 642.098 1167.51 640.568 1167.51 638.681C1167.51 636.793 1165.98 635.263 1164.1 635.263C1162.21 635.263 1160.68 636.793 1160.68 638.681C1160.68 640.568 1162.21 642.098 1164.1 642.098Z" fill="white"/>
<path opacity="0.5" d="M1164.1 671.477C1165.98 671.477 1167.51 669.947 1167.51 668.059C1167.51 666.171 1165.98 664.641 1164.1 664.641C1162.21 664.641 1160.68 666.171 1160.68 668.059C1160.68 669.947 1162.21 671.477 1164.1 671.477Z" fill="white"/>
<path opacity="0.5" d="M1164.1 700.874C1165.98 700.874 1167.51 699.344 1167.51 697.456C1167.51 695.569 1165.98 694.039 1164.1 694.039C1162.21 694.039 1160.68 695.569 1160.68 697.456C1160.68 699.344 1162.21 700.874 1164.1 700.874Z" fill="white"/>
<path opacity="0.5" d="M1164.1 730.252C1165.98 730.252 1167.51 728.722 1167.51 726.834C1167.51 724.947 1165.98 723.417 1164.1 723.417C1162.21 723.417 1160.68 724.947 1160.68 726.834C1160.68 728.722 1162.21 730.252 1164.1 730.252Z" fill="white"/>
<path opacity="0.5" d="M1164.1 759.631C1162.21 759.631 1160.68 758.095 1160.68 756.213C1160.68 754.331 1162.21 752.795 1164.1 752.795C1165.98 752.795 1167.51 754.331 1167.51 756.213C1167.51 758.114 1165.98 759.631 1164.1 759.631Z" fill="white"/>
<path opacity="0.5" d="M1134.7 553.925C1136.59 553.925 1138.12 552.395 1138.12 550.507C1138.12 548.62 1136.59 547.089 1134.7 547.089C1132.81 547.089 1131.28 548.62 1131.28 550.507C1131.28 552.395 1132.81 553.925 1134.7 553.925Z" fill="white"/>
<path opacity="0.5" d="M1134.7 583.323C1136.59 583.323 1138.12 581.792 1138.12 579.905C1138.12 578.017 1136.59 576.487 1134.7 576.487C1132.81 576.487 1131.28 578.017 1131.28 579.905C1131.28 581.792 1132.81 583.323 1134.7 583.323Z" fill="white"/>
<path opacity="0.5" d="M1134.7 612.701C1136.59 612.701 1138.12 611.171 1138.12 609.283C1138.12 607.395 1136.59 605.865 1134.7 605.865C1132.81 605.865 1131.28 607.395 1131.28 609.283C1131.28 611.171 1132.81 612.701 1134.7 612.701Z" fill="white"/>
<path opacity="0.5" d="M1134.7 642.098C1136.59 642.098 1138.12 640.568 1138.12 638.681C1138.12 636.793 1136.59 635.263 1134.7 635.263C1132.81 635.263 1131.28 636.793 1131.28 638.681C1131.28 640.568 1132.81 642.098 1134.7 642.098Z" fill="white"/>
<path opacity="0.5" d="M1134.7 671.477C1136.59 671.477 1138.12 669.947 1138.12 668.059C1138.12 666.171 1136.59 664.641 1134.7 664.641C1132.81 664.641 1131.28 666.171 1131.28 668.059C1131.28 669.947 1132.81 671.477 1134.7 671.477Z" fill="white"/>
<path opacity="0.5" d="M1134.7 700.874C1136.59 700.874 1138.12 699.344 1138.12 697.456C1138.12 695.569 1136.59 694.039 1134.7 694.039C1132.81 694.039 1131.28 695.569 1131.28 697.456C1131.28 699.344 1132.81 700.874 1134.7 700.874Z" fill="white"/>
<path opacity="0.5" d="M1134.7 730.252C1136.59 730.252 1138.12 728.722 1138.12 726.834C1138.12 724.947 1136.59 723.417 1134.7 723.417C1132.81 723.417 1131.28 724.947 1131.28 726.834C1131.28 728.722 1132.81 730.252 1134.7 730.252Z" fill="white"/>
<path opacity="0.5" d="M1134.7 759.631C1132.82 759.631 1131.28 758.095 1131.28 756.213C1131.28 754.331 1132.82 752.795 1134.7 752.795C1136.58 752.795 1138.12 754.331 1138.12 756.213C1138.12 758.114 1136.6 759.631 1134.7 759.631Z" fill="white"/>
<path opacity="0.5" d="M1105.32 553.925C1107.21 553.925 1108.74 552.395 1108.74 550.507C1108.74 548.62 1107.21 547.089 1105.32 547.089C1103.44 547.089 1101.91 548.62 1101.91 550.507C1101.91 552.395 1103.44 553.925 1105.32 553.925Z" fill="white"/>
<path opacity="0.5" d="M1105.32 583.323C1107.21 583.323 1108.74 581.792 1108.74 579.905C1108.74 578.017 1107.21 576.487 1105.32 576.487C1103.44 576.487 1101.91 578.017 1101.91 579.905C1101.91 581.792 1103.44 583.323 1105.32 583.323Z" fill="white"/>
<path opacity="0.5" d="M1105.32 612.701C1107.21 612.701 1108.74 611.171 1108.74 609.283C1108.74 607.395 1107.21 605.865 1105.32 605.865C1103.44 605.865 1101.91 607.395 1101.91 609.283C1101.91 611.171 1103.44 612.701 1105.32 612.701Z" fill="white"/>
<path opacity="0.5" d="M1105.32 642.098C1107.21 642.098 1108.74 640.568 1108.74 638.681C1108.74 636.793 1107.21 635.263 1105.32 635.263C1103.44 635.263 1101.91 636.793 1101.91 638.681C1101.91 640.568 1103.44 642.098 1105.32 642.098Z" fill="white"/>
<path opacity="0.5" d="M1105.32 671.477C1107.21 671.477 1108.74 669.947 1108.74 668.059C1108.74 666.171 1107.21 664.641 1105.32 664.641C1103.44 664.641 1101.91 666.171 1101.91 668.059C1101.91 669.947 1103.44 671.477 1105.32 671.477Z" fill="white"/>
<path opacity="0.5" d="M1105.32 700.874C1107.21 700.874 1108.74 699.344 1108.74 697.456C1108.74 695.569 1107.21 694.039 1105.32 694.039C1103.44 694.039 1101.91 695.569 1101.91 697.456C1101.91 699.344 1103.44 700.874 1105.32 700.874Z" fill="white"/>
<path opacity="0.5" d="M1105.32 730.252C1107.21 730.252 1108.74 728.722 1108.74 726.834C1108.74 724.947 1107.21 723.417 1105.32 723.417C1103.44 723.417 1101.91 724.947 1101.91 726.834C1101.91 728.722 1103.44 730.252 1105.32 730.252Z" fill="white"/>
<path opacity="0.5" d="M1105.32 759.631C1103.44 759.631 1101.91 758.095 1101.91 756.213C1101.91 754.331 1103.44 752.795 1105.32 752.795C1107.21 752.795 1108.74 754.331 1108.74 756.213C1108.74 758.114 1107.21 759.631 1105.32 759.631Z" fill="white"/>
<path opacity="0.5" d="M1075.93 553.925C1077.82 553.925 1079.35 552.395 1079.35 550.507C1079.35 548.62 1077.82 547.089 1075.93 547.089C1074.04 547.089 1072.51 548.62 1072.51 550.507C1072.51 552.395 1074.04 553.925 1075.93 553.925Z" fill="white"/>
<path opacity="0.5" d="M1075.93 583.323C1077.82 583.323 1079.35 581.792 1079.35 579.905C1079.35 578.017 1077.82 576.487 1075.93 576.487C1074.04 576.487 1072.51 578.017 1072.51 579.905C1072.51 581.792 1074.04 583.323 1075.93 583.323Z" fill="white"/>
<path opacity="0.5" d="M1075.93 612.701C1077.82 612.701 1079.35 611.171 1079.35 609.283C1079.35 607.395 1077.82 605.865 1075.93 605.865C1074.04 605.865 1072.51 607.395 1072.51 609.283C1072.51 611.171 1074.04 612.701 1075.93 612.701Z" fill="white"/>
<path opacity="0.5" d="M1075.93 642.098C1077.82 642.098 1079.35 640.568 1079.35 638.681C1079.35 636.793 1077.82 635.263 1075.93 635.263C1074.04 635.263 1072.51 636.793 1072.51 638.681C1072.51 640.568 1074.04 642.098 1075.93 642.098Z" fill="white"/>
<path opacity="0.5" d="M1075.93 671.477C1077.82 671.477 1079.35 669.947 1079.35 668.059C1079.35 666.171 1077.82 664.641 1075.93 664.641C1074.04 664.641 1072.51 666.171 1072.51 668.059C1072.51 669.947 1074.04 671.477 1075.93 671.477Z" fill="white"/>
<path opacity="0.5" d="M1075.93 700.874C1077.82 700.874 1079.35 699.344 1079.35 697.456C1079.35 695.569 1077.82 694.039 1075.93 694.039C1074.04 694.039 1072.51 695.569 1072.51 697.456C1072.51 699.344 1074.04 700.874 1075.93 700.874Z" fill="white"/>
<path opacity="0.5" d="M1075.93 730.252C1077.82 730.252 1079.35 728.722 1079.35 726.834C1079.35 724.947 1077.82 723.417 1075.93 723.417C1074.04 723.417 1072.51 724.947 1072.51 726.834C1072.51 728.722 1074.04 730.252 1075.93 730.252Z" fill="white"/>
<path opacity="0.5" d="M1075.93 759.631C1074.05 759.631 1072.51 758.095 1072.51 756.213C1072.51 754.331 1074.05 752.795 1075.93 752.795C1077.81 752.795 1079.35 754.331 1079.35 756.213C1079.35 758.114 1077.81 759.631 1075.93 759.631Z" fill="white"/>
</g>
<g opacity="0.5">
<path opacity="0.5" d="M847.718 110.486C847.718 112.367 846.182 113.904 844.3 113.904C842.419 113.904 840.883 112.367 840.883 110.486C840.883 108.604 842.419 107.068 844.3 107.068C846.182 107.068 847.718 108.604 847.718 110.486Z" fill="white"/>
<path opacity="0.5" d="M877.113 110.486C877.113 112.367 875.576 113.904 873.695 113.904C871.813 113.904 870.277 112.367 870.277 110.486C870.277 108.604 871.813 107.068 873.695 107.068C875.576 107.087 877.113 108.604 877.113 110.486Z" fill="white"/>
<path opacity="0.5" d="M906.489 110.486C906.489 112.367 904.953 113.904 903.072 113.904C901.19 113.904 899.654 112.367 899.654 110.486C899.654 108.604 901.19 107.068 903.072 107.068C904.953 107.068 906.489 108.604 906.489 110.486Z" fill="white"/>
<path opacity="0.5" d="M847.718 139.883C847.718 141.765 846.182 143.301 844.3 143.301C842.419 143.301 840.883 141.765 840.883 139.883C840.883 138.001 842.419 136.465 844.3 136.465C846.182 136.465 847.718 138.001 847.718 139.883Z" fill="white"/>
<path opacity="0.5" d="M877.113 139.883C877.113 141.765 875.576 143.301 873.695 143.301C871.813 143.301 870.277 141.765 870.277 139.883C870.277 138.001 871.813 136.465 873.695 136.465C875.576 136.465 877.113 138.001 877.113 139.883Z" fill="white"/>
<path opacity="0.5" d="M906.489 139.883C906.489 141.765 904.953 143.301 903.072 143.301C901.19 143.301 899.654 141.765 899.654 139.883C899.654 138.001 901.19 136.465 903.072 136.465C904.953 136.465 906.489 138.001 906.489 139.883Z" fill="white"/>
<path opacity="0.5" d="M847.718 169.262C847.718 171.143 846.182 172.679 844.3 172.679C842.419 172.679 840.883 171.143 840.883 169.262C840.883 167.38 842.419 165.844 844.3 165.844C846.182 165.844 847.718 167.38 847.718 169.262Z" fill="white"/>
<path opacity="0.5" d="M877.113 169.262C877.113 171.143 875.576 172.679 873.695 172.679C871.813 172.679 870.277 171.143 870.277 169.262C870.277 167.38 871.813 165.844 873.695 165.844C875.576 165.863 877.113 167.38 877.113 169.262Z" fill="white"/>
<path opacity="0.5" d="M906.489 169.262C906.489 171.143 904.953 172.679 903.072 172.679C901.19 172.679 899.654 171.143 899.654 169.262C899.654 167.38 901.19 165.844 903.072 165.844C904.953 165.844 906.489 167.38 906.489 169.262Z" fill="white"/>
</g>
<g opacity="0.5">
<path opacity="0.5" d="M573.351 371.607C573.351 373.489 571.815 375.025 569.933 375.025C568.052 375.025 566.516 373.489 566.516 371.607C566.516 369.725 568.052 368.189 569.933 368.189C571.834 368.189 573.351 369.706 573.351 371.607Z" fill="white"/>
<path opacity="0.5" d="M599.328 375.025C601.215 375.025 602.745 373.494 602.745 371.607C602.745 369.719 601.215 368.189 599.328 368.189C597.44 368.189 595.91 369.719 595.91 371.607C595.91 373.494 597.44 375.025 599.328 375.025Z" fill="white"/>
<path opacity="0.5" d="M628.705 375.025C630.592 375.025 632.122 373.494 632.122 371.607C632.122 369.719 630.592 368.189 628.705 368.189C626.817 368.189 625.287 369.719 625.287 371.607C625.287 373.494 626.817 375.025 628.705 375.025Z" fill="white"/>
<path opacity="0.5" d="M573.351 400.985C573.351 402.867 571.815 404.403 569.933 404.403C568.052 404.403 566.516 402.867 566.516 400.985C566.516 399.103 568.052 397.567 569.933 397.567C571.834 397.567 573.351 399.103 573.351 400.985Z" fill="white"/>
<path opacity="0.5" d="M599.328 404.403C601.215 404.403 602.745 402.873 602.745 400.985C602.745 399.098 601.215 397.567 599.328 397.567C597.44 397.567 595.91 399.098 595.91 400.985C595.91 402.873 597.44 404.403 599.328 404.403Z" fill="white"/>
<path opacity="0.5" d="M628.705 404.403C630.592 404.403 632.122 402.873 632.122 400.985C632.122 399.098 630.592 397.567 628.705 397.567C626.817 397.567 625.287 399.098 625.287 400.985C625.287 402.873 626.817 404.403 628.705 404.403Z" fill="white"/>
<path opacity="0.5" d="M573.351 430.383C573.351 432.265 571.815 433.801 569.933 433.801C568.052 433.801 566.516 432.265 566.516 430.383C566.516 428.501 568.052 426.965 569.933 426.965C571.834 426.965 573.351 428.501 573.351 430.383Z" fill="white"/>
<path opacity="0.5" d="M602.745 430.383C602.745 432.265 601.209 433.801 599.328 433.801C597.446 433.801 595.91 432.265 595.91 430.383C595.91 428.501 597.446 426.965 599.328 426.965C601.209 426.965 602.745 428.501 602.745 430.383Z" fill="white"/>
<path opacity="0.5" d="M632.122 430.383C632.122 432.265 630.586 433.801 628.705 433.801C626.823 433.801 625.287 432.265 625.287 430.383C625.287 428.501 626.823 426.965 628.705 426.965C630.606 426.965 632.122 428.501 632.122 430.383Z" fill="white"/>
</g>
<g opacity="0.5">
<path opacity="0.5" d="M1123.43 -2.76514L999.629 121.046" stroke="white" stroke-width="2.1221" stroke-miterlimit="10"/>
<path opacity="0.5" d="M1115.39 -10.8105L991.584 113.001" stroke="white" stroke-width="2.1221" stroke-miterlimit="10"/>
<path opacity="0.5" d="M1107.34 -18.856L983.539 104.955" stroke="white" stroke-width="2.1221" stroke-miterlimit="10"/>
<path opacity="0.5" d="M1099.3 -26.9014L975.494 96.9099" stroke="white" stroke-width="2.1221" stroke-miterlimit="10"/>
<path opacity="0.5" d="M1091.25 -34.9468L967.449 88.8644" stroke="white" stroke-width="2.1221" stroke-miterlimit="10"/>
<path opacity="0.5" d="M1083.21 -42.9922L959.404 80.819" stroke="white" stroke-width="2.1221" stroke-miterlimit="10"/>
<path opacity="0.5" d="M1075.16 -51.0376L951.359 72.7736" stroke="white" stroke-width="2.1221" stroke-miterlimit="10"/>
<path opacity="0.5" d="M1067.12 -59.083L943.314 64.7282" stroke="white" stroke-width="2.1221" stroke-miterlimit="10"/>
<path opacity="0.5" d="M1059.07 -67.1284L935.27 56.6828" stroke="white" stroke-width="2.1221" stroke-miterlimit="10"/>
<path opacity="0.5" d="M1051.03 -75.1738L927.227 48.6374" stroke="white" stroke-width="2.1221" stroke-miterlimit="10"/>
<path opacity="0.5" d="M1042.98 -83.2192L919.182 40.592" stroke="white" stroke-width="2.1221" stroke-miterlimit="10"/>
<path opacity="0.5" d="M1034.94 -91.2456L911.154 32.5464" stroke="white" stroke-width="2.1221" stroke-miterlimit="10"/>
<path opacity="0.5" d="M1026.91 -99.291L903.111 24.5202" stroke="white" stroke-width="2.1221" stroke-miterlimit="10"/>
<path opacity="0.5" d="M1018.87 -107.336L895.066 16.4748" stroke="white" stroke-width="2.1221" stroke-miterlimit="10"/>
<path opacity="0.5" d="M1010.82 -115.382L887.021 8.42938" stroke="white" stroke-width="2.1221" stroke-miterlimit="10"/>
<path opacity="0.5" d="M1002.78 -123.427L878.977 0.383974" stroke="white" stroke-width="2.1221" stroke-miterlimit="10"/>
</g>
<g opacity="0.5">
<path opacity="0.5" d="M832.339 951.223L708.537 1075.03" stroke="white" stroke-width="2.1221" stroke-miterlimit="10"/>
<path opacity="0.5" d="M824.294 943.177L700.492 1066.99" stroke="white" stroke-width="2.1221" stroke-miterlimit="10"/>
<path opacity="0.5" d="M816.249 935.132L692.447 1058.94" stroke="white" stroke-width="2.1221" stroke-miterlimit="10"/>
<path opacity="0.5" d="M808.204 927.086L684.402 1050.9" stroke="white" stroke-width="2.1221" stroke-miterlimit="10"/>
<path opacity="0.5" d="M800.161 919.041L676.359 1042.85" stroke="white" stroke-width="2.1221" stroke-miterlimit="10"/>
<path opacity="0.5" d="M792.116 910.996L668.314 1034.81" stroke="white" stroke-width="2.1221" stroke-miterlimit="10"/>
<path opacity="0.5" d="M784.071 902.95L660.27 1026.76" stroke="white" stroke-width="2.1221" stroke-miterlimit="10"/>
<path opacity="0.5" d="M776.026 894.905L652.225 1018.72" stroke="white" stroke-width="2.1221" stroke-miterlimit="10"/>
<path opacity="0.5" d="M767.981 886.859L644.18 1010.67" stroke="white" stroke-width="2.1221" stroke-miterlimit="10"/>
<path opacity="0.5" d="M759.936 878.814L636.135 1002.63" stroke="white" stroke-width="2.1221" stroke-miterlimit="10"/>
<path opacity="0.5" d="M751.891 870.769L628.09 994.58" stroke="white" stroke-width="2.1221" stroke-miterlimit="10"/>
<path opacity="0.5" d="M743.847 862.723L620.064 986.534" stroke="white" stroke-width="2.1221" stroke-miterlimit="10"/>
<path opacity="0.5" d="M735.821 854.697L612.02 978.489" stroke="white" stroke-width="2.1221" stroke-miterlimit="10"/>
<path opacity="0.5" d="M727.776 846.651L603.975 970.443" stroke="white" stroke-width="2.1221" stroke-miterlimit="10"/>
<path opacity="0.5" d="M719.731 838.606L595.93 962.417" stroke="white" stroke-width="2.1221" stroke-miterlimit="10"/>
</g>
<g opacity="0.8">
<path opacity="0.8" d="M754.505 151.471C860.197 45.7707 860.197 -125.603 754.505 -231.303C648.813 -337.003 477.453 -337.003 371.761 -231.303C266.07 -125.603 266.07 45.7707 371.761 151.471C477.453 257.171 648.813 257.171 754.505 151.471Z" stroke="white" stroke-width="0.5" stroke-miterlimit="10"/>
<path opacity="0.8" d="M744.866 141.831C845.234 41.4548 845.234 -121.287 744.866 -221.663C644.498 -322.039 481.769 -322.039 381.401 -221.663C281.032 -121.287 281.032 41.4548 381.401 141.831C481.769 242.207 644.498 242.207 744.866 141.831Z" stroke="white" stroke-width="0.6562" stroke-miterlimit="10"/>
<path opacity="0.8" d="M563.135 203.459C697.539 203.459 806.495 94.4946 806.495 -39.9199C806.495 -174.334 697.539 -283.299 563.135 -283.299C428.731 -283.299 319.775 -174.334 319.775 -39.9199C319.775 94.4946 428.731 203.459 563.135 203.459Z" stroke="white" stroke-width="0.8125" stroke-miterlimit="10"/>
<path opacity="0.8" d="M563.136 189.826C690.011 189.826 792.864 86.9655 792.864 -39.9196C792.864 -166.805 690.011 -269.666 563.136 -269.666C436.261 -269.666 333.408 -166.805 333.408 -39.9196C333.408 86.9655 436.261 189.826 563.136 189.826Z" stroke="white" stroke-width="0.9688" stroke-miterlimit="10"/>
<path opacity="0.8" d="M715.936 112.897C800.326 28.5009 800.326 -108.333 715.936 -192.729C631.546 -277.126 494.723 -277.126 410.333 -192.729C325.943 -108.333 325.943 28.5009 410.333 112.897C494.723 197.294 631.546 197.294 715.936 112.897Z" stroke="white" stroke-width="1.125" stroke-miterlimit="10"/>
<path opacity="0.8" d="M706.295 103.257C785.362 24.185 785.362 -104.017 706.295 -183.089C627.229 -262.162 499.037 -262.162 419.971 -183.089C340.905 -104.017 340.905 24.1849 419.971 103.257C499.037 182.33 627.229 182.33 706.295 103.257Z" stroke="white" stroke-width="1.2812" stroke-miterlimit="10"/>
<path opacity="0.8" d="M696.657 93.6175C770.4 19.869 770.4 -99.701 696.657 -173.45C622.914 -247.198 503.354 -247.198 429.611 -173.449C355.868 -99.701 355.868 19.869 429.611 93.6175C503.354 167.366 622.914 167.366 696.657 93.6175Z" stroke="white" stroke-width="1.4375" stroke-miterlimit="10"/>
<path opacity="0.8" d="M687.017 83.9775C755.436 15.553 755.436 -95.385 687.017 -163.81C618.598 -232.234 507.668 -232.234 439.249 -163.81C370.83 -95.385 370.83 15.553 439.249 83.9775C507.668 152.402 618.598 152.402 687.017 83.9775Z" stroke="white" stroke-width="1.5938" stroke-miterlimit="10"/>
<path opacity="0.8" d="M722.671 -14.1392C736.886 -102.235 676.999 -185.176 588.909 -199.391C500.82 -213.607 417.886 -153.715 403.671 -65.6188C389.457 22.4775 449.344 105.418 537.434 119.633C625.523 133.849 708.457 73.957 722.671 -14.1392Z" stroke="white" stroke-width="1.75" stroke-miterlimit="10"/>
<path opacity="0.8" d="M563.135 108.028C644.838 108.028 711.071 41.7895 711.071 -39.9197C711.071 -121.629 644.838 -187.867 563.135 -187.867C481.432 -187.867 415.199 -121.629 415.199 -39.9197C415.199 41.7895 481.432 108.028 563.135 108.028Z" stroke="white" stroke-width="1.9062" stroke-miterlimit="10"/>
<path opacity="0.8" d="M658.1 55.0577C710.549 2.60519 710.549 -82.4372 658.1 -134.89C605.652 -187.342 520.616 -187.342 468.168 -134.89C415.719 -82.4372 415.719 2.60519 468.168 55.0577C520.616 107.51 605.652 107.51 658.1 55.0577Z" stroke="white" stroke-width="2.0625" stroke-miterlimit="10"/>
<path opacity="0.8" d="M648.447 45.4042C695.564 -1.71686 695.564 -78.1152 648.447 -125.236C601.329 -172.357 524.937 -172.357 477.819 -125.236C430.702 -78.1152 430.702 -1.71685 477.819 45.4042C524.937 92.5253 601.329 92.5253 648.447 45.4042Z" stroke="white" stroke-width="2.2188" stroke-miterlimit="10"/>
<path opacity="0.8" d="M638.808 35.7643C680.602 -6.03279 680.602 -73.7992 638.808 -115.596C597.015 -157.393 529.253 -157.393 487.46 -115.596C445.666 -73.7992 445.666 -6.03279 487.46 35.7643C529.253 77.5613 597.015 77.5613 638.808 35.7643Z" stroke="white" stroke-width="2.375" stroke-miterlimit="10"/>
<path opacity="0.8" d="M629.168 26.1244C665.638 -10.3487 665.638 -69.4833 629.168 -105.956C592.698 -142.429 533.568 -142.429 497.098 -105.956C460.627 -69.4833 460.627 -10.3487 497.098 26.1243C533.568 62.5974 592.698 62.5974 629.168 26.1244Z" stroke="white" stroke-width="2.5312" stroke-miterlimit="10"/>
<path opacity="0.8" d="M642.317 -30.5811C647.48 -74.329 616.203 -113.979 572.458 -119.142C528.714 -124.305 489.067 -93.0255 483.904 -49.2775C478.742 -5.52961 510.019 34.1204 553.763 39.2833C597.508 44.4462 637.155 13.1668 642.317 -30.5811Z" stroke="white" stroke-width="2.6875" stroke-miterlimit="10"/>
<path opacity="0.8" d="M563.137 26.2101C599.656 26.2101 629.261 -3.39728 629.261 -39.9198C629.261 -76.4424 599.656 -106.05 563.137 -106.05C526.617 -106.05 497.012 -76.4424 497.012 -39.9198C497.012 -3.39728 526.617 26.2101 563.137 26.2101Z" stroke="white" stroke-width="2.8438" stroke-miterlimit="10"/>
<path opacity="0.8" d="M615.501 -35.6989C617.803 -64.5994 596.242 -89.894 567.344 -92.1961C538.446 -94.4982 513.153 -72.9359 510.852 -44.0354C508.55 -15.135 530.11 10.1596 559.008 12.4617C587.907 14.7638 613.199 -6.79847 615.501 -35.6989Z" stroke="white" stroke-width="3" stroke-miterlimit="10"/>
</g>
<g opacity="0.79">
<path opacity="0.79" d="M989.11 573.658C1058.26 504.499 1058.26 392.369 989.11 323.21C919.956 254.051 807.835 254.051 738.681 323.21C669.527 392.369 669.527 504.499 738.681 573.658C807.835 642.818 919.956 642.818 989.11 573.658Z" stroke="white" stroke-width="0.5" stroke-miterlimit="10"/>
<path opacity="0.79" d="M980.285 564.833C1044.56 500.548 1044.56 396.321 980.285 332.035C916.004 267.75 811.785 267.75 747.505 332.035C683.225 396.32 683.225 500.548 747.505 564.833C811.785 629.118 916.004 629.118 980.285 564.833Z" stroke="white" stroke-width="0.7273" stroke-miterlimit="10"/>
<path opacity="0.79" d="M863.903 600.565C947.917 600.565 1016.02 532.453 1016.02 448.432C1016.02 364.411 947.917 296.298 863.903 296.298C779.888 296.298 711.781 364.411 711.781 448.432C711.781 532.453 779.888 600.565 863.903 600.565Z" stroke="white" stroke-width="0.9545" stroke-miterlimit="10"/>
<path opacity="0.79" d="M863.903 588.103C941.035 588.103 1003.56 525.57 1003.56 448.431C1003.56 371.293 941.035 308.76 863.903 308.76C786.77 308.76 724.242 371.293 724.242 448.431C724.242 525.57 786.77 588.103 863.903 588.103Z" stroke="white" stroke-width="1.1818" stroke-miterlimit="10"/>
<path opacity="0.79" d="M863.903 575.622C934.143 575.622 991.084 518.677 991.084 448.431C991.084 378.186 934.143 321.241 863.903 321.241C793.663 321.241 736.723 378.186 736.723 448.431C736.723 518.677 793.663 575.622 863.903 575.622Z" stroke="white" stroke-width="1.4091" stroke-miterlimit="10"/>
<path opacity="0.79" d="M863.904 563.141C927.251 563.141 978.605 511.784 978.605 448.431C978.605 385.079 927.251 333.722 863.904 333.722C800.556 333.722 749.203 385.079 749.203 448.431C749.203 511.784 800.556 563.141 863.904 563.141Z" stroke="white" stroke-width="1.6364" stroke-miterlimit="10"/>
<path opacity="0.79" d="M863.902 550.66C920.357 550.66 966.123 504.891 966.123 448.431C966.123 391.972 920.357 346.203 863.902 346.203C807.447 346.203 761.682 391.972 761.682 448.431C761.682 504.891 807.447 550.66 863.902 550.66Z" stroke="white" stroke-width="1.8636" stroke-miterlimit="10"/>
<path opacity="0.79" d="M863.903 538.179C913.465 538.179 953.644 497.998 953.644 448.431C953.644 398.865 913.465 358.684 863.903 358.684C814.34 358.684 774.162 398.865 774.162 448.431C774.162 497.998 814.34 538.179 863.903 538.179Z" stroke="white" stroke-width="2.0909" stroke-miterlimit="10"/>
<path opacity="0.79" d="M863.903 525.699C906.573 525.699 941.164 491.105 941.164 448.432C941.164 405.759 906.573 371.165 863.903 371.165C821.233 371.165 786.643 405.759 786.643 448.432C786.643 491.105 821.233 525.699 863.903 525.699Z" stroke="white" stroke-width="2.3182" stroke-miterlimit="10"/>
<path opacity="0.79" d="M863.904 513.217C899.681 513.217 928.685 484.212 928.685 448.431C928.685 412.651 899.681 383.646 863.904 383.646C828.126 383.646 799.123 412.651 799.123 448.431C799.123 484.212 828.126 513.217 863.904 513.217Z" stroke="white" stroke-width="2.5454" stroke-miterlimit="10"/>
<path opacity="0.79" d="M863.902 500.737C892.787 500.737 916.203 477.319 916.203 448.432C916.203 419.545 892.787 396.127 863.902 396.127C835.017 396.127 811.602 419.545 811.602 448.432C811.602 477.319 835.017 500.737 863.902 500.737Z" stroke="white" stroke-width="2.7727" stroke-miterlimit="10"/>
<path opacity="0.79" d="M863.903 488.256C885.895 488.256 903.724 470.426 903.724 448.432C903.724 426.438 885.895 408.608 863.903 408.608C841.91 408.608 824.082 426.438 824.082 448.432C824.082 470.426 841.91 488.256 863.903 488.256Z" stroke="white" stroke-width="3" stroke-miterlimit="10"/>
</g>
<g opacity="0.89">
<g opacity="0.89">
<path opacity="0.89" d="M347.117 525.372C432.902 525.372 502.445 455.824 502.445 370.032C502.445 284.24 432.902 214.692 347.117 214.692C261.332 214.692 191.789 284.24 191.789 370.032C191.789 455.824 261.332 525.372 347.117 525.372Z" stroke="white" stroke-width="0.8127" stroke-linecap="round" stroke-linejoin="round"/>
</g>
<g opacity="0.89">
<path opacity="0.89" d="M347.117 514.043C426.646 514.043 491.117 449.567 491.117 370.032C491.117 290.497 426.646 226.021 347.117 226.021C267.588 226.021 203.117 290.497 203.117 370.032C203.117 449.567 267.588 514.043 347.117 514.043Z" stroke="white" stroke-width="0.9493" stroke-linecap="round" stroke-linejoin="round"/>
</g>
<g opacity="0.89">
<path opacity="0.89" d="M347.117 502.714C420.39 502.714 479.789 443.31 479.789 370.032C479.789 296.754 420.39 237.35 347.117 237.35C273.845 237.35 214.445 296.754 214.445 370.032C214.445 443.31 273.845 502.714 347.117 502.714Z" stroke="white" stroke-width="1.0859" stroke-linecap="round" stroke-linejoin="round"/>
</g>
<g opacity="0.89">
<path opacity="0.89" d="M347.117 491.386C414.134 491.386 468.461 437.054 468.461 370.032C468.461 303.01 414.134 248.679 347.117 248.679C280.101 248.679 225.773 303.01 225.773 370.032C225.773 437.054 280.101 491.386 347.117 491.386Z" stroke="white" stroke-width="1.2225" stroke-linecap="round" stroke-linejoin="round"/>
</g>
<g opacity="0.89">
<path opacity="0.89" d="M347.118 480.056C407.878 480.056 457.134 430.797 457.134 370.032C457.134 309.267 407.878 260.007 347.118 260.007C286.357 260.007 237.102 309.267 237.102 370.032C237.102 430.797 286.357 480.056 347.118 480.056Z" stroke="white" stroke-width="1.3591" stroke-linecap="round" stroke-linejoin="round"/>
</g>
<g opacity="0.89">
<path opacity="0.89" d="M347.118 468.728C401.622 468.728 445.806 424.54 445.806 370.032C445.806 315.524 401.622 271.336 347.118 271.336C292.614 271.336 248.43 315.524 248.43 370.032C248.43 424.54 292.614 468.728 347.118 468.728Z" stroke="white" stroke-width="1.4956" stroke-linecap="round" stroke-linejoin="round"/>
</g>
<g opacity="0.89">
<path opacity="0.89" d="M347.118 457.399C395.365 457.399 434.478 418.283 434.478 370.032C434.478 321.78 395.365 282.665 347.118 282.665C298.87 282.665 259.758 321.78 259.758 370.032C259.758 418.283 298.87 457.399 347.118 457.399Z" stroke="white" stroke-width="1.6322" stroke-linecap="round" stroke-linejoin="round"/>
</g>
<g opacity="0.89">
<path opacity="0.89" d="M347.118 446.07C389.109 446.07 423.15 412.027 423.15 370.032C423.15 328.037 389.109 293.994 347.118 293.994C305.127 293.994 271.086 328.037 271.086 370.032C271.086 412.027 305.127 446.07 347.118 446.07Z" stroke="white" stroke-width="1.7688" stroke-linecap="round" stroke-linejoin="round"/>
</g>
<g opacity="0.89">
<path opacity="0.89" d="M347.118 434.76C382.863 434.76 411.841 405.78 411.841 370.032C411.841 334.284 382.863 305.304 347.118 305.304C311.372 305.304 282.395 334.284 282.395 370.032C282.395 405.78 311.372 434.76 347.118 434.76Z" stroke="white" stroke-width="1.9054" stroke-linecap="round" stroke-linejoin="round"/>
</g>
<g opacity="0.89">
<path opacity="0.89" d="M347.118 423.432C376.607 423.432 400.513 399.524 400.513 370.032C400.513 340.541 376.607 316.633 347.118 316.633C317.628 316.633 293.723 340.541 293.723 370.032C293.723 399.524 317.628 423.432 347.118 423.432Z" stroke="white" stroke-width="2.042" stroke-linecap="round" stroke-linejoin="round"/>
</g>
<g opacity="0.89">
<path opacity="0.89" d="M347.118 412.102C370.351 412.102 389.185 393.267 389.185 370.032C389.185 346.797 370.351 327.961 347.118 327.961C323.885 327.961 305.051 346.797 305.051 370.032C305.051 393.267 323.885 412.102 347.118 412.102Z" stroke="white" stroke-width="2.1786" stroke-linecap="round" stroke-linejoin="round"/>
</g>
<g opacity="0.89">
<path opacity="0.89" d="M347.116 400.774C364.093 400.774 377.855 387.01 377.855 370.032C377.855 353.054 364.093 339.291 347.116 339.291C330.139 339.291 316.377 353.054 316.377 370.032C316.377 387.01 330.139 400.774 347.116 400.774Z" stroke="white" stroke-width="2.3152" stroke-linecap="round" stroke-linejoin="round"/>
</g>
</g>
<g opacity="0.81">
<g opacity="0.81">
<path opacity="0.81" d="M1644.14 200.787C1756.55 88.3758 1756.55 -93.8787 1644.14 -206.29C1531.74 -318.701 1349.5 -318.701 1237.1 -206.29C1124.7 -93.8788 1124.7 88.3758 1237.1 200.787C1349.5 313.198 1531.74 313.198 1644.14 200.787Z" stroke="white" stroke-width="1.0531" stroke-linecap="round" stroke-linejoin="round"/>
</g>
<g opacity="0.81">
<path opacity="0.81" d="M1440.63 274.082C1593.52 274.082 1717.46 150.133 1717.46 -2.7652C1717.46 -155.664 1593.52 -279.612 1440.63 -279.612C1287.75 -279.612 1163.81 -155.664 1163.81 -2.7652C1163.81 150.133 1287.75 274.082 1440.63 274.082Z" stroke="white" stroke-width="1.1458" stroke-linecap="round" stroke-linejoin="round"/>
</g>
<g opacity="0.81">
<path opacity="0.81" d="M1628.6 185.241C1732.42 81.416 1732.42 -86.9181 1628.6 -190.743C1524.78 -294.569 1356.46 -294.569 1252.64 -190.743C1148.83 -86.918 1148.83 81.416 1252.64 185.241C1356.46 289.067 1524.78 289.067 1628.6 185.241Z" stroke="white" stroke-width="1.2385" stroke-linecap="round" stroke-linejoin="round"/>
</g>
<g opacity="0.81">
<path opacity="0.81" d="M1440.63 252.096C1581.38 252.096 1695.47 137.991 1695.47 -2.76506C1695.47 -143.521 1581.38 -257.626 1440.63 -257.626C1299.89 -257.626 1185.79 -143.521 1185.79 -2.76506C1185.79 137.991 1299.89 252.096 1440.63 252.096Z" stroke="white" stroke-width="1.3312" stroke-linecap="round" stroke-linejoin="round"/>
</g>
<g opacity="0.81">
<path opacity="0.81" d="M1440.63 241.113C1575.31 241.113 1684.49 131.925 1684.49 -2.76538C1684.49 -137.456 1575.31 -246.644 1440.63 -246.644C1305.95 -246.644 1196.77 -137.456 1196.77 -2.76538C1196.77 131.925 1305.95 241.113 1440.63 241.113Z" stroke="white" stroke-width="1.4239" stroke-linecap="round" stroke-linejoin="round"/>
</g>
<g opacity="0.81">
<path opacity="0.81" d="M1440.63 230.11C1569.24 230.11 1673.49 125.848 1673.49 -2.7654C1673.49 -131.379 1569.24 -235.641 1440.63 -235.641C1312.03 -235.641 1207.78 -131.379 1207.78 -2.7654C1207.78 125.848 1312.03 230.11 1440.63 230.11Z" stroke="white" stroke-width="1.5166" stroke-linecap="round" stroke-linejoin="round"/>
</g>
<g opacity="0.81">
<path opacity="0.81" d="M1440.63 219.108C1563.16 219.108 1662.49 119.772 1662.49 -2.76492C1662.49 -125.302 1563.16 -224.638 1440.63 -224.638C1318.11 -224.638 1218.78 -125.302 1218.78 -2.76492C1218.78 119.772 1318.11 219.108 1440.63 219.108Z" stroke="white" stroke-width="1.6093" stroke-linecap="round" stroke-linejoin="round"/>
</g>
<g opacity="0.81">
<path opacity="0.81" d="M1440.63 208.125C1557.1 208.125 1651.51 113.706 1651.51 -2.76527C1651.51 -119.237 1557.1 -213.655 1440.63 -213.655C1324.17 -213.655 1229.76 -119.237 1229.76 -2.76527C1229.76 113.706 1324.17 208.125 1440.63 208.125Z" stroke="white" stroke-width="1.702" stroke-linecap="round" stroke-linejoin="round"/>
</g>
<g opacity="0.81">
<path opacity="0.81" d="M1440.63 197.122C1551.02 197.122 1640.5 107.63 1640.5 -2.76529C1640.5 -113.16 1551.02 -202.653 1440.63 -202.653C1330.25 -202.653 1240.76 -113.16 1240.76 -2.76529C1240.76 107.63 1330.25 197.122 1440.63 197.122Z" stroke="white" stroke-width="1.7948" stroke-linecap="round" stroke-linejoin="round"/>
</g>
<g opacity="0.81">
<path opacity="0.81" d="M1440.63 186.139C1544.95 186.139 1629.52 101.564 1629.52 -2.76515C1629.52 -107.094 1544.95 -191.669 1440.63 -191.669C1336.31 -191.669 1251.74 -107.094 1251.74 -2.76515C1251.74 101.564 1336.31 186.139 1440.63 186.139Z" stroke="white" stroke-width="1.8875" stroke-linecap="round" stroke-linejoin="round"/>
</g>
<g opacity="0.81">
<path opacity="0.81" d="M1440.63 175.137C1538.88 175.137 1618.52 95.4873 1618.52 -2.76517C1618.52 -101.018 1538.88 -180.667 1440.63 -180.667C1342.39 -180.667 1262.74 -101.018 1262.74 -2.76517C1262.74 95.4873 1342.39 175.137 1440.63 175.137Z" stroke="white" stroke-width="1.9802" stroke-linecap="round" stroke-linejoin="round"/>
</g>
<g opacity="0.81">
<path opacity="0.81" d="M1440.63 164.134C1532.8 164.134 1607.52 89.4108 1607.52 -2.76517C1607.52 -94.9411 1532.8 -169.665 1440.63 -169.665C1348.46 -169.665 1273.75 -94.9411 1273.75 -2.76517C1273.75 89.4108 1348.46 164.134 1440.63 164.134Z" stroke="white" stroke-width="2.0729" stroke-linecap="round" stroke-linejoin="round"/>
</g>
<g opacity="0.81">
<path opacity="0.81" d="M1446.23 153.154C1532.28 150.088 1599.56 77.8389 1596.49 -8.21957C1593.43 -94.278 1521.18 -161.557 1435.13 -158.492C1349.08 -155.426 1281.81 -83.1768 1284.87 2.88166C1287.94 88.9401 1360.18 156.219 1446.23 153.154Z" stroke="white" stroke-width="2.1656" stroke-linecap="round" stroke-linejoin="round"/>
</g>
<g opacity="0.81">
<path opacity="0.81" d="M1440.63 142.149C1520.66 142.149 1585.54 77.2686 1585.54 -2.76505C1585.54 -82.7987 1520.66 -147.679 1440.63 -147.679C1360.61 -147.679 1295.73 -82.7987 1295.73 -2.76505C1295.73 77.2686 1360.61 142.149 1440.63 142.149Z" stroke="white" stroke-width="2.2583" stroke-linecap="round" stroke-linejoin="round"/>
</g>
<g opacity="0.81">
<path opacity="0.81" d="M1445.45 131.181C1519.37 128.547 1577.16 66.4861 1574.52 -7.43724C1571.89 -81.3606 1509.83 -139.153 1435.92 -136.519C1362 -133.886 1304.21 -71.8247 1306.84 2.0986C1309.48 76.022 1371.53 133.814 1445.45 131.181Z" stroke="white" stroke-width="2.351" stroke-linecap="round" stroke-linejoin="round"/>
</g>
<g opacity="0.81">
<path opacity="0.81" d="M1440.63 120.163C1508.52 120.163 1563.55 65.1258 1563.55 -2.7654C1563.55 -70.6566 1508.52 -125.693 1440.63 -125.693C1372.75 -125.693 1317.71 -70.6566 1317.71 -2.7654C1317.71 65.1258 1372.75 120.163 1440.63 120.163Z" stroke="white" stroke-width="2.4437" stroke-linecap="round" stroke-linejoin="round"/>
</g>
<g opacity="0.81">
<path opacity="0.81" d="M1444.67 109.19C1506.44 106.989 1554.73 55.1244 1552.53 -6.65322C1550.33 -68.4309 1498.47 -116.728 1436.7 -114.527C1374.93 -112.326 1326.63 -60.4618 1328.83 1.31588C1331.03 63.0935 1382.89 111.39 1444.67 109.19Z" stroke="white" stroke-width="2.5364" stroke-linecap="round" stroke-linejoin="round"/>
</g>
<g opacity="0.81">
<path opacity="0.81" d="M1440.63 98.177C1496.38 98.177 1541.57 52.9836 1541.57 -2.76527C1541.57 -58.5141 1496.38 -103.708 1440.63 -103.708C1384.89 -103.708 1339.7 -58.5141 1339.7 -2.76527C1339.7 52.9836 1384.89 98.177 1440.63 98.177Z" stroke="white" stroke-width="2.6292" stroke-linecap="round" stroke-linejoin="round"/>
</g>
<g opacity="0.81">
<path opacity="0.81" d="M1443.89 87.2168C1493.52 85.4484 1532.33 43.7717 1530.56 -5.87091C1528.79 -55.5135 1487.12 -94.3232 1437.48 -92.5549C1387.84 -90.7865 1349.04 -49.1098 1350.81 0.532802C1352.57 50.1754 1394.25 88.9851 1443.89 87.2168Z" stroke="white" stroke-width="2.7219" stroke-linecap="round" stroke-linejoin="round"/>
</g>
<g opacity="0.81">
<path opacity="0.81" d="M1440.63 76.1914C1484.24 76.1914 1519.58 40.8413 1519.58 -2.76515C1519.58 -46.3716 1484.24 -81.7217 1440.63 -81.7217C1397.03 -81.7217 1361.68 -46.3716 1361.68 -2.76515C1361.68 40.8413 1397.03 76.1914 1440.63 76.1914Z" stroke="white" stroke-width="2.8146" stroke-linecap="round" stroke-linejoin="round"/>
</g>
<g opacity="0.81">
<path opacity="0.81" d="M1443.1 65.2444C1480.61 63.9083 1509.93 32.4194 1508.59 -5.0881C1507.26 -42.5956 1475.77 -71.9183 1438.27 -70.5823C1400.76 -69.2462 1371.44 -37.7573 1372.78 -0.24977C1374.11 37.2577 1405.6 66.5804 1443.1 65.2444Z" stroke="white" stroke-width="2.9073" stroke-linecap="round" stroke-linejoin="round"/>
</g>
<g opacity="0.81">
<path opacity="0.81" d="M1440.63 54.1865C1472.08 54.1865 1497.58 28.6883 1497.58 -2.76516C1497.58 -34.2187 1472.08 -59.7168 1440.63 -59.7168C1409.18 -59.7168 1383.69 -34.2187 1383.69 -2.76516C1383.69 28.6883 1409.18 54.1865 1440.63 54.1865Z" stroke="white" stroke-width="3" stroke-linecap="round" stroke-linejoin="round"/>
</g>
</g>
<g opacity="0.77">
<g opacity="0.77">
<path opacity="0.77" d="M526.348 466.155L258.508 734.016" stroke="white" stroke-width="2" stroke-miterlimit="10"/>
<path opacity="0.77" d="M541.746 466.155L273.906 734.016" stroke="white" stroke-width="2" stroke-miterlimit="10"/>
<path opacity="0.77" d="M557.125 466.155L289.285 734.016" stroke="white" stroke-width="2" stroke-miterlimit="10"/>
<path opacity="0.77" d="M572.524 466.155L304.684 734.016" stroke="white" stroke-width="2" stroke-miterlimit="10"/>
<path opacity="0.77" d="M587.922 466.155L320.082 734.016" stroke="white" stroke-width="2" stroke-miterlimit="10"/>
<path opacity="0.77" d="M603.32 466.155L335.48 734.016" stroke="white" stroke-width="2" stroke-miterlimit="10"/>
<path opacity="0.77" d="M618.699 466.155L350.859 734.016" stroke="white" stroke-width="2" stroke-miterlimit="10"/>
<path opacity="0.77" d="M634.098 466.155L366.258 734.016" stroke="white" stroke-width="2" stroke-miterlimit="10"/>
<path opacity="0.77" d="M649.496 466.155L381.656 734.016" stroke="white" stroke-width="2" stroke-miterlimit="10"/>
<path opacity="0.77" d="M664.895 466.155L397.055 734.016" stroke="white" stroke-width="2" stroke-miterlimit="10"/>
<path opacity="0.77" d="M680.274 466.155L412.434 734.016" stroke="white" stroke-width="2" stroke-miterlimit="10"/>
<path opacity="0.77" d="M695.672 466.155L427.832 734.016" stroke="white" stroke-width="2" stroke-miterlimit="10"/>
<path opacity="0.77" d="M711.07 466.155L443.23 734.016" stroke="white" stroke-width="2" stroke-miterlimit="10"/>
<path opacity="0.77" d="M726.449 466.155L458.609 734.016" stroke="white" stroke-width="2" stroke-miterlimit="10"/>
<path opacity="0.77" d="M741.848 466.155L474.008 734.016" stroke="white" stroke-width="2" stroke-miterlimit="10"/>
<path opacity="0.77" d="M757.246 466.155L489.406 734.016" stroke="white" stroke-width="2" stroke-miterlimit="10"/>
<path opacity="0.77" d="M772.645 466.155L504.805 734.016" stroke="white" stroke-width="2" stroke-miterlimit="10"/>
<path opacity="0.77" d="M788.024 466.155L520.184 734.016" stroke="white" stroke-width="2" stroke-miterlimit="10"/>
<path opacity="0.77" d="M803.422 466.155L535.582 734.016" stroke="white" stroke-width="2" stroke-miterlimit="10"/>
<path opacity="0.77" d="M818.82 466.155L550.98 734.016" stroke="white" stroke-width="2" stroke-miterlimit="10"/>
<path opacity="0.77" d="M834.201 466.155L566.361 734.016" stroke="white" stroke-width="2" stroke-miterlimit="10"/>
<path opacity="0.77" d="M849.6 466.155L581.76 734.016" stroke="white" stroke-width="2" stroke-miterlimit="10"/>
<path opacity="0.77" d="M864.998 466.155L597.158 734.016" stroke="white" stroke-width="2" stroke-miterlimit="10"/>
<path opacity="0.77" d="M880.397 466.155L612.557 734.016" stroke="white" stroke-width="2" stroke-miterlimit="10"/>
<path opacity="0.77" d="M895.776 466.155L627.936 734.016" stroke="white" stroke-width="2" stroke-miterlimit="10"/>
<path opacity="0.77" d="M911.174 466.155L643.334 734.016" stroke="white" stroke-width="2" stroke-miterlimit="10"/>
<path opacity="0.77" d="M926.572 466.155L658.732 734.016" stroke="white" stroke-width="2" stroke-miterlimit="10"/>
<path opacity="0.77" d="M941.971 466.155L674.131 734.016" stroke="white" stroke-width="2" stroke-miterlimit="10"/>
<path opacity="0.77" d="M957.35 466.155L689.51 734.016" stroke="white" stroke-width="2" stroke-miterlimit="10"/>
<path opacity="0.77" d="M972.748 466.155L704.908 734.016" stroke="white" stroke-width="2" stroke-miterlimit="10"/>
</g>
</g>
<g opacity="0.81">
<g opacity="0.81">
<path opacity="0.81" d="M1265.43 653.427L629.779 1289.13" stroke="white" stroke-width="2" stroke-miterlimit="10"/>
<path opacity="0.81" d="M1280.64 653.427L644.986 1289.13" stroke="white" stroke-width="2" stroke-miterlimit="10"/>
<path opacity="0.81" d="M1295.87 653.427L660.191 1289.13" stroke="white" stroke-width="2" stroke-miterlimit="10"/>
<path opacity="0.81" d="M1311.07 653.427L675.418 1289.13" stroke="white" stroke-width="2" stroke-miterlimit="10"/>
<path opacity="0.81" d="M1326.28 653.427L690.625 1289.13" stroke="white" stroke-width="2" stroke-miterlimit="10"/>
<path opacity="0.81" d="M1341.5 653.427L705.83 1289.13" stroke="white" stroke-width="2" stroke-miterlimit="10"/>
<path opacity="0.81" d="M1356.71 653.427L721.057 1289.13" stroke="white" stroke-width="2" stroke-miterlimit="10"/>
<path opacity="0.81" d="M1371.92 653.427L736.262 1289.13" stroke="white" stroke-width="2" stroke-miterlimit="10"/>
<path opacity="0.81" d="M1387.14 653.427L751.488 1289.13" stroke="white" stroke-width="2" stroke-miterlimit="10"/>
<path opacity="0.81" d="M1402.35 653.427L766.695 1289.13" stroke="white" stroke-width="2" stroke-miterlimit="10"/>
<path opacity="0.81" d="M1417.57 653.427L781.9 1289.13" stroke="white" stroke-width="2" stroke-miterlimit="10"/>
<path opacity="0.81" d="M1432.78 653.427L797.127 1289.13" stroke="white" stroke-width="2" stroke-miterlimit="10"/>
<path opacity="0.81" d="M1447.99 653.427L812.332 1289.13" stroke="white" stroke-width="2" stroke-miterlimit="10"/>
<path opacity="0.81" d="M1463.21 653.427L827.539 1289.13" stroke="white" stroke-width="2" stroke-miterlimit="10"/>
<path opacity="0.81" d="M1478.42 653.427L842.766 1289.13" stroke="white" stroke-width="2" stroke-miterlimit="10"/>
<path opacity="0.81" d="M1493.63 653.427L857.971 1289.13" stroke="white" stroke-width="2" stroke-miterlimit="10"/>
<path opacity="0.81" d="M1508.85 653.427L873.178 1289.13" stroke="white" stroke-width="2" stroke-miterlimit="10"/>
<path opacity="0.81" d="M1524.06 653.427L888.402 1289.13" stroke="white" stroke-width="2" stroke-miterlimit="10"/>
<path opacity="0.81" d="M1539.26 653.427L903.609 1289.13" stroke="white" stroke-width="2" stroke-miterlimit="10"/>
<path opacity="0.81" d="M1554.49 653.427L918.836 1289.13" stroke="white" stroke-width="2" stroke-miterlimit="10"/>
<path opacity="0.81" d="M1569.7 653.427L934.041 1289.13" stroke="white" stroke-width="2" stroke-miterlimit="10"/>
<path opacity="0.81" d="M1584.92 653.427L949.248 1289.13" stroke="white" stroke-width="2" stroke-miterlimit="10"/>
<path opacity="0.81" d="M1600.13 653.427L964.475 1289.13" stroke="white" stroke-width="2" stroke-miterlimit="10"/>
<path opacity="0.81" d="M1615.33 653.427L979.68 1289.13" stroke="white" stroke-width="2" stroke-miterlimit="10"/>
<path opacity="0.81" d="M1630.56 653.427L994.887 1289.13" stroke="white" stroke-width="2" stroke-miterlimit="10"/>
<path opacity="0.81" d="M1645.77 653.427L1010.11 1289.13" stroke="white" stroke-width="2" stroke-miterlimit="10"/>
<path opacity="0.81" d="M1660.97 653.427L1025.32 1289.13" stroke="white" stroke-width="2" stroke-miterlimit="10"/>
<path opacity="0.81" d="M1676.2 653.427L1040.53 1289.13" stroke="white" stroke-width="2" stroke-miterlimit="10"/>
<path opacity="0.81" d="M1691.4 653.427L1055.75 1289.13" stroke="white" stroke-width="2" stroke-miterlimit="10"/>
<path opacity="0.81" d="M1706.61 653.427L1070.96 1289.13" stroke="white" stroke-width="2" stroke-miterlimit="10"/>
<path opacity="0.81" d="M1721.84 653.427L1086.18 1289.13" stroke="white" stroke-width="2" stroke-miterlimit="10"/>
<path opacity="0.81" d="M1737.04 653.427L1101.39 1289.13" stroke="white" stroke-width="2" stroke-miterlimit="10"/>
<path opacity="0.81" d="M1752.27 653.427L1116.6 1289.13" stroke="white" stroke-width="2" stroke-miterlimit="10"/>
<path opacity="0.81" d="M1767.47 653.427L1131.82 1289.13" stroke="white" stroke-width="2" stroke-miterlimit="10"/>
<path opacity="0.81" d="M1782.68 653.427L1147.03 1289.13" stroke="white" stroke-width="2" stroke-miterlimit="10"/>
<path opacity="0.81" d="M1797.91 653.427L1162.23 1289.13" stroke="white" stroke-width="2" stroke-miterlimit="10"/>
<path opacity="0.81" d="M1813.11 653.427L1177.46 1289.13" stroke="white" stroke-width="2" stroke-miterlimit="10"/>
<path opacity="0.81" d="M1828.32 653.427L1192.67 1289.13" stroke="white" stroke-width="2" stroke-miterlimit="10"/>
<path opacity="0.81" d="M1843.54 653.427L1207.87 1289.13" stroke="white" stroke-width="2" stroke-miterlimit="10"/>
<path opacity="0.81" d="M1858.75 653.427L1223.1 1289.13" stroke="white" stroke-width="2" stroke-miterlimit="10"/>
<path opacity="0.81" d="M1873.96 653.427L1238.3 1289.13" stroke="white" stroke-width="2" stroke-miterlimit="10"/>
<path opacity="0.81" d="M1889.18 653.427L1253.53 1289.13" stroke="white" stroke-width="2" stroke-miterlimit="10"/>
<path opacity="0.81" d="M1904.39 653.427L1268.74 1289.13" stroke="white" stroke-width="2" stroke-miterlimit="10"/>
<path opacity="0.81" d="M1919.62 653.427L1283.94 1289.13" stroke="white" stroke-width="2" stroke-miterlimit="10"/>
<path opacity="0.81" d="M1934.82 653.427L1299.17 1289.13" stroke="white" stroke-width="2" stroke-miterlimit="10"/>
</g>
</g>
<g opacity="0.72">
<path opacity="0.5" d="M-30.0911 324.109L-331.485 625.527L-30.091 926.945L271.303 625.527L-30.0911 324.109Z" stroke="white" stroke-width="50" stroke-miterlimit="10"/>
<path opacity="0.5" d="M1440.62 22.6976L1139.22 324.115L1440.62 625.533L1742.01 324.115L1440.62 22.6976Z" stroke="white" stroke-width="50" stroke-miterlimit="10"/>
<path opacity="0.5" d="M720.617 738.519L419.223 1039.94L720.617 1341.35L1022.01 1039.94L720.617 738.519Z" stroke="white" stroke-width="30" stroke-miterlimit="10"/>
</g>
<path opacity="0.5" d="M153.658 653.062C182.285 681.691 182.285 728.121 153.658 756.769L-165.369 1075.82C-193.997 1104.45 -240.422 1104.45 -269.069 1075.82C-297.696 1047.19 -297.696 1000.76 -269.069 972.114L49.9585 653.062C78.6049 624.432 125.031 624.432 153.658 653.062Z" fill="url(#paint1_linear_235_17)"/>
<path opacity="0.5" d="M488.16 623.876C519.283 655.002 519.283 705.444 488.16 736.569L159.283 1065.45C128.16 1096.58 77.7215 1096.58 46.5983 1065.45C15.4751 1034.33 15.4751 983.885 46.5983 952.759L375.456 623.876C406.579 592.75 457.037 592.75 488.16 623.876Z" fill="url(#paint2_linear_235_17)"/>
<path opacity="0.5" d="M476.198 840.392C491.02 855.215 491.02 879.236 476.198 894.041L327.129 1043.12C312.306 1057.94 288.287 1057.94 273.484 1043.12C258.662 1028.3 258.662 1004.28 273.484 989.472L422.553 840.392C437.375 825.587 461.394 825.587 476.198 840.392Z" fill="url(#paint3_linear_235_17)"/>
<path opacity="0.5" d="M353.991 760.61C373.805 780.445 373.805 812.588 353.991 832.404L57.7541 1128.66C37.9205 1148.5 5.77969 1148.5 -14.0347 1128.66C-33.8491 1108.83 -33.8491 1076.69 -14.0347 1056.87L282.202 760.61C302.017 740.775 334.157 740.775 353.991 760.61Z" fill="url(#paint4_linear_235_17)"/>
<path opacity="0.5" d="M1121.93 443.113C1090.81 411.987 1090.81 361.545 1121.93 330.419L1450.79 1.53611C1481.91 -29.5895 1532.35 -29.5895 1563.47 1.53611C1594.6 32.6617 1594.6 83.1041 1563.47 114.23L1234.62 443.113C1203.49 474.219 1153.06 474.219 1121.93 443.113Z" fill="url(#paint5_linear_235_17)"/>
<path opacity="0.5" d="M1115.85 169.588C1101.02 154.764 1101.02 130.743 1115.85 115.939L1264.92 -33.1416C1279.74 -47.9652 1303.76 -47.9652 1318.56 -33.1416C1333.38 -18.3181 1333.38 5.70299 1318.56 20.5073L1169.49 169.588C1154.69 184.392 1130.67 184.392 1115.85 169.588Z" fill="url(#paint6_linear_235_17)"/>
<path opacity="0.5" d="M1358.55 444.745C1343.73 429.921 1343.73 405.9 1358.55 391.096L1507.62 242.016C1522.45 227.192 1546.46 227.192 1561.27 242.016C1576.09 256.839 1576.09 280.86 1561.27 295.665L1412.2 444.745C1397.38 459.569 1373.36 459.569 1358.55 444.745Z" fill="url(#paint7_linear_235_17)"/>
<g opacity="0.49">
<path opacity="0.49" d="M317.07 168.896C321.396 168.896 324.904 165.389 324.904 161.062C324.904 156.736 321.396 153.228 317.07 153.228C312.744 153.228 309.236 156.736 309.236 161.062C309.236 165.389 312.744 168.896 317.07 168.896Z" stroke="white" stroke-width="2" stroke-miterlimit="10" stroke-linecap="round" stroke-linejoin="round"/>
<path opacity="0.49" d="M853.019 693.021C853.019 697.341 849.505 700.855 845.185 700.855C840.865 700.855 837.352 697.341 837.352 693.021C837.352 688.7 840.865 685.187 845.185 685.187C849.505 685.187 853.019 688.7 853.019 693.021Z" stroke="white" stroke-width="2" stroke-miterlimit="10" stroke-linecap="round" stroke-linejoin="round"/>
<path opacity="0.49" d="M608.066 305.976C608.066 310.296 604.552 313.81 600.232 313.81C595.912 313.81 592.398 310.296 592.398 305.976C592.398 301.656 595.912 298.142 600.232 298.142C604.571 298.142 608.066 301.636 608.066 305.976Z" stroke="white" stroke-width="2" stroke-miterlimit="10" stroke-linecap="round" stroke-linejoin="round"/>
<path opacity="0.49" d="M57.4856 561.221C57.4856 565.542 53.972 569.056 49.652 569.056C45.332 569.056 41.8184 565.542 41.8184 561.221C41.8184 556.901 45.332 553.387 49.652 553.387C53.9912 553.387 57.4856 556.901 57.4856 561.221Z" stroke="white" stroke-width="2" stroke-miterlimit="10" stroke-linecap="round" stroke-linejoin="round"/>
<path opacity="0.49" d="M136.781 331.648C136.781 335.968 133.268 339.482 128.948 339.482C124.628 339.482 121.114 335.968 121.114 331.648C121.114 327.328 124.628 323.814 128.948 323.814C133.268 323.814 136.781 327.328 136.781 331.648Z" stroke="white" stroke-width="2" stroke-miterlimit="10" stroke-linecap="round" stroke-linejoin="round"/>
<g opacity="0.49">
<path opacity="0.49" d="M754.293 228.171V241.881" stroke="white" stroke-width="2" stroke-miterlimit="10" stroke-linecap="round" stroke-linejoin="round"/>
<path opacity="0.49" d="M761.147 235.026H747.457" stroke="white" stroke-width="2" stroke-miterlimit="10" stroke-linecap="round" stroke-linejoin="round"/>
</g>
<g opacity="0.49">
<path opacity="0.49" d="M1330.37 686.185V699.875" stroke="white" stroke-width="2" stroke-miterlimit="10" stroke-linecap="round" stroke-linejoin="round"/>
<path opacity="0.49" d="M1337.22 693.021H1323.53" stroke="white" stroke-width="2" stroke-miterlimit="10" stroke-linecap="round" stroke-linejoin="round"/>
</g>
<g opacity="0.49">
<path opacity="0.49" d="M364.053 562.143V575.834" stroke="white" stroke-width="2" stroke-miterlimit="10" stroke-linecap="round" stroke-linejoin="round"/>
<path opacity="0.49" d="M370.906 568.979H357.217" stroke="white" stroke-width="2" stroke-miterlimit="10" stroke-linecap="round" stroke-linejoin="round"/>
</g>
<g opacity="0.49">
<g opacity="0.49">
<path opacity="0.49" d="M1064.16 849.935V863.626" stroke="white" stroke-width="2" stroke-miterlimit="10" stroke-linecap="round" stroke-linejoin="round"/>
<path opacity="0.49" d="M1071 856.771H1057.31" stroke="white" stroke-width="2" stroke-miterlimit="10" stroke-linecap="round" stroke-linejoin="round"/>
</g>
<g opacity="0.49">
<path opacity="0.49" d="M1022.76 849.935V863.626" stroke="white" stroke-width="2" stroke-miterlimit="10" stroke-linecap="round" stroke-linejoin="round"/>
<path opacity="0.49" d="M1029.6 856.771H1015.91" stroke="white" stroke-width="2" stroke-miterlimit="10" stroke-linecap="round" stroke-linejoin="round"/>
</g>
<g opacity="0.49">
<path opacity="0.49" d="M981.369 849.935V863.626" stroke="white" stroke-width="2" stroke-miterlimit="10" stroke-linecap="round" stroke-linejoin="round"/>
<path opacity="0.49" d="M988.205 856.771H974.516" stroke="white" stroke-width="2" stroke-miterlimit="10" stroke-linecap="round" stroke-linejoin="round"/>
</g>
</g>
<g opacity="0.49">
<g opacity="0.49">
<path opacity="0.49" d="M136.782 237.407V251.098" stroke="white" stroke-width="2" stroke-miterlimit="10" stroke-linecap="round" stroke-linejoin="round"/>
<path opacity="0.49" d="M143.617 244.262H129.928" stroke="white" stroke-width="2" stroke-miterlimit="10" stroke-linecap="round" stroke-linejoin="round"/>
</g>
<g opacity="0.49">
<path opacity="0.49" d="M95.3867 237.407V251.098" stroke="white" stroke-width="2" stroke-miterlimit="10" stroke-linecap="round" stroke-linejoin="round"/>
<path opacity="0.49" d="M102.241 244.262H88.5322" stroke="white" stroke-width="2" stroke-miterlimit="10" stroke-linecap="round" stroke-linejoin="round"/>
</g>
<g opacity="0.49">
<path opacity="0.49" d="M53.9912 237.407V251.098" stroke="white" stroke-width="2" stroke-miterlimit="10" stroke-linecap="round" stroke-linejoin="round"/>
<path opacity="0.49" d="M60.8459 244.262H47.1562" stroke="white" stroke-width="2" stroke-miterlimit="10" stroke-linecap="round" stroke-linejoin="round"/>
</g>
</g>
<path opacity="0.49" d="M526.849 522.549L537.505 504.097H516.193L526.849 522.549Z" stroke="white" stroke-width="2" stroke-miterlimit="10" stroke-linecap="round" stroke-linejoin="round"/>
<path opacity="0.49" d="M1036.45 241.881L1025.8 260.334H1047.11L1036.45 241.881Z" stroke="white" stroke-width="2" stroke-miterlimit="10" stroke-linecap="round" stroke-linejoin="round"/>
<path opacity="0.49" d="M510.299 802.104C514.945 797.457 523.086 805.599 527.732 800.952C532.379 796.305 524.238 788.164 528.884 783.517C533.531 778.87 541.672 787.012 546.318 782.365C550.964 777.718 542.824 769.577 547.451 764.93C552.097 760.283 560.238 768.425 564.884 763.778C569.531 759.131 561.39 750.99 566.036 746.324C570.683 741.677 578.824 749.819 583.489 745.172" stroke="white" stroke-width="2" stroke-miterlimit="10" stroke-linecap="round" stroke-linejoin="round"/>
<path opacity="0.49" d="M915.016 764.143C919.662 759.496 927.803 767.638 932.449 762.991C937.096 758.344 928.955 750.203 933.601 745.556C938.248 740.909 946.388 749.051 951.035 744.404C955.681 739.757 947.54 731.616 952.168 726.969C956.814 722.322 964.955 730.463 969.601 725.817C974.248 721.17 966.107 713.028 970.753 708.363C975.4 703.716 983.54 711.857 988.206 707.21" stroke="white" stroke-width="2" stroke-miterlimit="10" stroke-linecap="round" stroke-linejoin="round"/>
<path opacity="0.49" d="M937.92 237.062C942.566 232.415 950.707 240.556 955.354 235.91C960 231.263 951.859 223.122 956.506 218.475C961.152 213.828 969.293 221.969 973.939 217.323C978.586 212.676 970.445 204.534 975.072 199.888C979.718 195.241 987.859 203.382 992.506 198.736C997.152 194.089 989.011 185.947 993.658 181.281C998.304 176.635 1006.44 184.776 1011.11 180.129" stroke="white" stroke-width="2" stroke-miterlimit="10" stroke-linecap="round" stroke-linejoin="round"/>
</g>
</g>
<defs>
<linearGradient id="paint0_linear_235_17" x1="0.749682" y1="-14.9189" x2="1444.18" y2="-10.3878" gradientUnits="userSpaceOnUse">
<stop stop-color="#6642F6"/>
<stop offset="1" stop-color="#F74299"/>
</linearGradient>
<linearGradient id="paint1_linear_235_17" x1="153.667" y1="653.067" x2="-269.091" y2="1075.79" gradientUnits="userSpaceOnUse">
<stop stop-color="#6343E2" stop-opacity="0.7"/>
<stop offset="1" stop-opacity="0"/>
</linearGradient>
<linearGradient id="paint2_linear_235_17" x1="488.151" y1="623.871" x2="46.5708" y2="1065.42" gradientUnits="userSpaceOnUse">
<stop stop-color="#6343E2" stop-opacity="0.7"/>
<stop offset="1" stop-opacity="0"/>
</linearGradient>
<linearGradient id="paint3_linear_235_17" x1="476.204" y1="840.397" x2="273.463" y2="1043.12" gradientUnits="userSpaceOnUse">
<stop stop-color="#6343E2" stop-opacity="0.7"/>
<stop offset="1" stop-opacity="0"/>
</linearGradient>
<linearGradient id="paint4_linear_235_17" x1="378.417" y1="736.181" x2="212.861" y2="901.725" gradientUnits="userSpaceOnUse">
<stop stop-color="#6343E2" stop-opacity="0.7"/>
<stop offset="1" stop-opacity="0"/>
</linearGradient>
<linearGradient id="paint5_linear_235_17" x1="1121.93" y1="443.104" x2="1563.51" y2="1.55822" gradientUnits="userSpaceOnUse">
<stop stop-color="white"/>
<stop offset="1" stop-color="#6343E2" stop-opacity="0.7"/>
</linearGradient>
<linearGradient id="paint6_linear_235_17" x1="1115.85" y1="169.579" x2="1318.59" y2="-33.1465" gradientUnits="userSpaceOnUse">
<stop stop-color="white"/>
<stop offset="1" stop-color="#6642F7"/>
</linearGradient>
<linearGradient id="paint7_linear_235_17" x1="1358.54" y1="444.742" x2="1561.29" y2="242.017" gradientUnits="userSpaceOnUse">
<stop stop-color="#6343E2" stop-opacity="0.7"/>
<stop offset="1" stop-opacity="0"/>
</linearGradient>
<clipPath id="clip0_235_17">
<rect width="1440" height="954.314" fill="white"/>
</clipPath>
</defs>
</svg>
