<svg width="877" height="662" viewBox="0 0 877 662" fill="none" xmlns="http://www.w3.org/2000/svg">
<g clip-path="url(#clip0_34_2)">
<path opacity="0.2" d="M690 317C690 450.101 460.262 615 270 615C79.7379 615 1 450.101 1 317C1 183.899 155.238 76 345.5 76C535.762 76 690 183.899 690 317Z" fill="url(#paint0_linear_34_2)"/>
<path opacity="0.2" d="M853.993 197.367C896.935 367.093 709.562 604.425 565 641C420.438 677.575 268.436 569.635 225.494 399.909C182.552 230.183 264.931 62.9423 409.493 26.3671C554.055 -10.2081 811.051 27.6409 853.993 197.367Z" fill="url(#paint1_linear_34_2)"/>
<ellipse opacity="0.1" cx="778" cy="645" rx="92" ry="15" fill="url(#paint2_linear_34_2)"/>
<ellipse opacity="0.1" cx="92" cy="655" rx="92" ry="15" fill="url(#paint3_linear_34_2)"/>
<path d="M504.97 32.194C512.486 48.1892 496.559 52.7198 478.315 61.293C460.07 69.8662 446.417 79.2355 438.901 63.2404C431.385 47.2452 425.286 15.4977 451.096 3.36944C477.795 -9.17666 497.454 16.1989 504.97 32.194Z" fill="#2F2E41"/>
<g filter="url(#filter0_i_34_2)">
<path d="M467.746 63.6501C481.311 63.6501 492.307 52.6538 492.307 39.0891C492.307 25.5244 481.311 14.5281 467.746 14.5281C454.182 14.5281 443.185 25.5244 443.185 39.0891C443.185 52.6538 454.182 63.6501 467.746 63.6501Z" fill="white"/>
</g>
<path d="M589.426 148.012C588.576 146.902 587.726 145.812 586.866 144.752C585.756 143.372 584.64 142.036 583.516 140.742C570.786 126.052 557.246 116.802 542.336 115.812H542.316L542.096 115.792L512.386 144.752L502.286 154.592L502.506 155.132L507.956 168.702H603.446C599.144 161.562 594.464 154.655 589.426 148.012Z" fill="#2F2E41"/>
<path d="M441.038 48.9773L449.83 44.8459L448.605 32.1625L454.484 42.6588L458.686 40.6841L457.972 33.2855L461.402 39.4082L492.626 24.7357C489.693 18.4947 484.402 13.6744 477.915 11.3351C471.428 8.99583 464.278 9.32917 458.037 12.2618L453.512 14.3883C447.271 17.321 442.45 22.6127 440.111 29.0994C437.772 35.5861 438.105 42.7364 441.038 48.9773Z" fill="#2F2E41"/>
<g filter="url(#filter1_dd_34_2)">
<path d="M644.526 494.8H131.687C127.313 494.795 123.119 493.055 120.026 489.962C116.932 486.869 115.192 482.675 115.188 478.3V161.058C115.188 151.669 122.799 144.058 132.187 144.058L644.026 144.058C653.415 144.058 661.026 151.669 661.026 161.058V478.3C661.021 482.675 659.281 486.869 656.188 489.962C653.095 493.055 648.901 494.795 644.526 494.8Z" fill="#E4DDFF"/>
</g>
<path d="M147.688 478.3H628.526C632.77 478.3 636.839 476.614 639.84 473.614C642.84 470.613 644.526 466.544 644.526 462.3V200.752C644.526 196.509 642.84 192.439 639.84 189.439C636.839 186.438 632.77 184.752 628.526 184.752H147.688C143.444 184.752 139.374 186.438 136.374 189.439C133.373 192.439 131.688 196.509 131.688 200.752V462.3C131.688 466.544 133.373 470.613 136.374 473.614C139.374 476.614 143.444 478.3 147.688 478.3Z" fill="white"/>
<path d="M660.796 169.202H114.956V160.802C114.962 156.413 116.709 152.206 119.814 149.103C122.919 146 127.127 144.256 131.516 144.252H644.236C648.625 144.256 652.834 146 655.938 149.103C659.043 152.206 660.79 156.413 660.796 160.802V169.202Z" fill="url(#paint4_linear_34_2)"/>
<path d="M145.051 161.036C147.417 161.036 149.335 159.118 149.335 156.752C149.335 154.387 147.417 152.469 145.051 152.469C142.686 152.469 140.768 154.387 140.768 156.752C140.768 159.118 142.686 161.036 145.051 161.036Z" fill="white"/>
<path d="M161.31 161.036C163.676 161.036 165.594 159.118 165.594 156.752C165.594 154.387 163.676 152.469 161.31 152.469C158.945 152.469 157.027 154.387 157.027 156.752C157.027 159.118 158.945 161.036 161.31 161.036Z" fill="white"/>
<path d="M177.569 161.036C179.935 161.036 181.852 159.118 181.852 156.752C181.852 154.387 179.935 152.469 177.569 152.469C175.203 152.469 173.286 154.387 173.286 156.752C173.286 159.118 175.203 161.036 177.569 161.036Z" fill="white"/>
<path d="M403.11 421.579H360.11C357.592 421.576 355.177 420.574 353.396 418.793C351.615 417.012 350.613 414.598 350.61 412.079V369.079C350.613 366.56 351.615 364.146 353.396 362.365C355.177 360.584 357.592 359.582 360.11 359.579H403.11C405.629 359.582 408.044 360.584 409.825 362.365C411.606 364.146 412.607 366.56 412.61 369.079V412.079C412.607 414.598 411.606 417.012 409.825 418.793C408.044 420.574 405.629 421.576 403.11 421.579ZM360.11 361.579C358.122 361.581 356.215 362.372 354.809 363.778C353.403 365.184 352.613 367.091 352.61 369.079V412.079C352.613 414.068 353.403 415.974 354.809 417.38C356.215 418.786 358.122 419.577 360.11 419.579H403.11C405.099 419.577 407.005 418.786 408.411 417.38C409.817 415.974 410.608 414.068 410.61 412.079V369.079C410.608 367.091 409.817 365.184 408.411 363.778C407.005 362.372 405.099 361.581 403.11 361.579H360.11Z" fill="#CCCCCC"/>
<path d="M394.61 409.579H368.61C367.815 409.578 367.052 409.262 366.49 408.699C365.928 408.137 365.611 407.374 365.61 406.579V374.579C365.611 373.784 365.928 373.021 366.49 372.459C367.052 371.896 367.815 371.58 368.61 371.579H387.45C388.133 371.58 388.796 371.813 389.329 372.241L396.489 377.995C396.84 378.275 397.123 378.631 397.317 379.036C397.511 379.441 397.611 379.884 397.61 380.333V406.579C397.609 407.374 397.293 408.137 396.731 408.699C396.168 409.262 395.406 409.578 394.61 409.579ZM368.61 373.579C368.345 373.579 368.091 373.685 367.904 373.872C367.716 374.06 367.611 374.314 367.61 374.579V406.579C367.611 406.844 367.716 407.098 367.904 407.286C368.091 407.473 368.345 407.579 368.61 407.579H394.61C394.875 407.579 395.13 407.473 395.317 407.286C395.505 407.098 395.61 406.844 395.61 406.579V380.333C395.611 380.183 395.577 380.036 395.513 379.901C395.448 379.766 395.354 379.647 395.237 379.554L388.076 373.799C387.898 373.657 387.677 373.579 387.45 373.579H368.61Z" fill="#CCCCCC"/>
<path d="M389.61 385.579H373.61C373.345 385.579 373.091 385.474 372.903 385.286C372.716 385.099 372.61 384.844 372.61 384.579C372.61 384.314 372.716 384.06 372.903 383.872C373.091 383.684 373.345 383.579 373.61 383.579H389.61C389.876 383.579 390.13 383.684 390.317 383.872C390.505 384.06 390.61 384.314 390.61 384.579C390.61 384.844 390.505 385.099 390.317 385.286C390.13 385.474 389.876 385.579 389.61 385.579Z" fill="#CCCCCC"/>
<path d="M389.61 391.579H373.61C373.345 391.579 373.091 391.474 372.903 391.286C372.716 391.099 372.61 390.844 372.61 390.579C372.61 390.314 372.716 390.06 372.903 389.872C373.091 389.684 373.345 389.579 373.61 389.579H389.61C389.876 389.579 390.13 389.684 390.317 389.872C390.505 390.06 390.61 390.314 390.61 390.579C390.61 390.844 390.505 391.099 390.317 391.286C390.13 391.474 389.876 391.579 389.61 391.579Z" fill="#CCCCCC"/>
<path d="M389.61 397.579H373.61C373.345 397.579 373.091 397.474 372.903 397.286C372.716 397.099 372.61 396.844 372.61 396.579C372.61 396.314 372.716 396.06 372.903 395.872C373.091 395.684 373.345 395.579 373.61 395.579H389.61C389.876 395.579 390.13 395.684 390.317 395.872C390.505 396.06 390.61 396.314 390.61 396.579C390.61 396.844 390.505 397.099 390.317 397.286C390.13 397.474 389.876 397.579 389.61 397.579Z" fill="#CCCCCC"/>
<path d="M505.11 421.579H462.11C459.592 421.576 457.177 420.574 455.396 418.793C453.615 417.012 452.613 414.598 452.61 412.079V369.079C452.613 366.56 453.615 364.146 455.396 362.365C457.177 360.584 459.592 359.582 462.11 359.579H505.11C507.629 359.582 510.044 360.584 511.825 362.365C513.606 364.146 514.607 366.56 514.61 369.079V412.079C514.607 414.598 513.606 417.012 511.825 418.793C510.044 420.574 507.629 421.576 505.11 421.579ZM462.11 361.579C460.122 361.581 458.215 362.372 456.809 363.778C455.403 365.184 454.613 367.091 454.61 369.079V412.079C454.613 414.068 455.403 415.974 456.809 417.38C458.215 418.786 460.122 419.577 462.11 419.579H505.11C507.099 419.577 509.005 418.786 510.411 417.38C511.817 415.974 512.608 414.068 512.61 412.079V369.079C512.608 367.091 511.817 365.184 510.411 363.778C509.005 362.372 507.099 361.581 505.11 361.579H462.11Z" fill="#CCCCCC"/>
<path d="M497.61 401.579H469.61C468.815 401.578 468.052 401.262 467.49 400.699C466.928 400.137 466.611 399.374 466.61 398.579V382.579C466.611 381.784 466.928 381.021 467.49 380.459C468.052 379.896 468.815 379.58 469.61 379.579H497.61C498.406 379.58 499.168 379.896 499.731 380.459C500.293 381.021 500.609 381.784 500.61 382.579V398.579C500.609 399.374 500.293 400.137 499.731 400.699C499.168 401.262 498.406 401.578 497.61 401.579ZM469.61 381.579C469.345 381.579 469.091 381.685 468.904 381.872C468.716 382.06 468.611 382.314 468.61 382.579V398.579C468.611 398.844 468.716 399.098 468.904 399.286C469.091 399.473 469.345 399.579 469.61 399.579H497.61C497.875 399.579 498.13 399.473 498.317 399.286C498.505 399.098 498.61 398.844 498.61 398.579V382.579C498.61 382.314 498.505 382.06 498.317 381.872C498.13 381.685 497.875 381.579 497.61 381.579H469.61Z" fill="#CCCCCC"/>
<path d="M483.61 393.217C483.048 393.218 482.498 393.061 482.02 392.765L467.08 383.427C466.856 383.286 466.696 383.062 466.637 382.804C466.578 382.546 466.623 382.275 466.764 382.05C466.904 381.825 467.128 381.665 467.386 381.606C467.644 381.546 467.916 381.591 468.14 381.731L483.081 391.068C483.24 391.167 483.423 391.219 483.611 391.219C483.798 391.219 483.981 391.167 484.14 391.068L499.08 381.731C499.305 381.591 499.576 381.546 499.834 381.606C500.092 381.665 500.316 381.825 500.457 382.05C500.597 382.275 500.643 382.546 500.583 382.804C500.524 383.062 500.365 383.286 500.14 383.427L485.201 392.765C484.724 393.061 484.172 393.218 483.61 393.217Z" fill="#CCCCCC"/>
<path d="M301.11 421.579H258.11C255.592 421.576 253.177 420.574 251.396 418.793C249.615 417.012 248.613 414.598 248.61 412.079V369.079C248.613 366.56 249.615 364.146 251.396 362.365C253.177 360.584 255.592 359.582 258.11 359.579H301.11C303.629 359.582 306.044 360.584 307.825 362.365C309.606 364.146 310.607 366.56 310.61 369.079V412.079C310.607 414.598 309.606 417.012 307.825 418.793C306.044 420.574 303.629 421.576 301.11 421.579ZM258.11 361.579C256.122 361.581 254.216 362.372 252.81 363.778C251.403 365.184 250.613 367.091 250.61 369.079V412.079C250.613 414.068 251.403 415.974 252.81 417.38C254.216 418.786 256.122 419.577 258.11 419.579H301.11C303.099 419.577 305.005 418.786 306.411 417.38C307.817 415.974 308.608 414.068 308.61 412.079V369.079C308.608 367.091 307.817 365.184 306.411 363.778C305.005 362.372 303.099 361.581 301.11 361.579H258.11Z" fill="#CCCCCC"/>
<path d="M293.61 401.579H265.61C264.815 401.578 264.052 401.262 263.49 400.699C262.928 400.137 262.611 399.374 262.61 398.579V382.579C262.611 381.784 262.928 381.021 263.49 380.459C264.052 379.896 264.815 379.58 265.61 379.579H293.61C294.406 379.58 295.168 379.896 295.731 380.459C296.293 381.021 296.609 381.784 296.61 382.579V398.579C296.609 399.374 296.293 400.137 295.731 400.699C295.168 401.262 294.406 401.578 293.61 401.579ZM265.61 381.579C265.345 381.579 265.091 381.685 264.904 381.872C264.716 382.06 264.611 382.314 264.61 382.579V398.579C264.611 398.844 264.716 399.098 264.904 399.286C265.091 399.473 265.345 399.579 265.61 399.579H293.61C293.875 399.579 294.13 399.473 294.317 399.286C294.505 399.098 294.61 398.844 294.61 398.579V382.579C294.61 382.314 294.505 382.06 294.317 381.872C294.13 381.685 293.875 381.579 293.61 381.579H265.61Z" fill="#CCCCCC"/>
<path d="M289.172 401.579H269.048C268.697 401.579 268.352 401.487 268.048 401.311C267.744 401.136 267.491 400.883 267.316 400.579C267.14 400.275 267.048 399.93 267.048 399.579C267.048 399.228 267.141 398.883 267.316 398.579L273.378 388.079C273.553 387.775 273.806 387.523 274.11 387.347C274.414 387.172 274.759 387.079 275.11 387.079C275.461 387.079 275.806 387.172 276.11 387.347C276.414 387.523 276.667 387.775 276.842 388.079L280.757 394.86L283.025 390.932C283.201 390.628 283.453 390.375 283.757 390.2C284.061 390.024 284.406 389.932 284.757 389.932C285.109 389.932 285.453 390.024 285.758 390.2C286.062 390.375 286.314 390.628 286.49 390.932L290.905 398.579C291.08 398.883 291.173 399.228 291.173 399.579C291.173 399.93 291.08 400.275 290.905 400.579C290.729 400.883 290.476 401.136 290.172 401.311C289.868 401.487 289.523 401.579 289.172 401.579ZM289.172 399.579L284.757 391.932L281.624 397.36C281.536 397.512 281.409 397.639 281.257 397.726C281.105 397.814 280.933 397.86 280.757 397.86C280.582 397.86 280.409 397.814 280.257 397.726C280.105 397.639 279.979 397.512 279.891 397.36L275.11 389.079L269.048 399.579H289.172Z" fill="#CCCCCC"/>
<path d="M290.61 387.579C291.715 387.579 292.61 386.683 292.61 385.579C292.61 384.474 291.715 383.579 290.61 383.579C289.506 383.579 288.61 384.474 288.61 385.579C288.61 386.683 289.506 387.579 290.61 387.579Z" fill="#CCCCCC"/>
<path d="M768.825 648.15L756.565 648.149L750.733 600.861L768.827 600.862L768.825 648.15Z" fill="white"/>
<path d="M771.951 650.034C771.951 651.139 771.056 652.034 769.951 652.034L738.953 652.033C735.345 652.033 732.212 648.977 733.592 645.644C734.365 643.778 735.499 642.081 736.927 640.653C738.356 639.224 740.052 638.091 741.919 637.317C743.786 636.544 745.787 636.146 747.807 636.146H747.808L771.952 636.147L771.951 650.034Z" fill="url(#paint5_linear_34_2)"/>
<path d="M818.825 648.15L806.565 648.149L800.733 600.861L818.827 600.862L818.825 648.15Z" fill="white"/>
<path d="M821.951 650.034C821.951 651.139 821.056 652.034 819.951 652.034L788.953 652.033C785.345 652.033 782.212 648.977 783.592 645.644C784.365 643.778 785.499 642.081 786.927 640.653C788.356 639.224 790.052 638.091 791.919 637.317C793.786 636.544 795.787 636.146 797.807 636.146H797.808L821.952 636.147L821.951 650.034Z" fill="url(#paint6_linear_34_2)"/>
<path d="M815.15 627.65L803.795 624.196C802.949 623.94 802.197 623.439 801.634 622.758C801.071 622.076 800.721 621.243 800.63 620.363L790.044 520.037C790.035 519.916 789.981 519.802 789.893 519.719C789.804 519.636 789.687 519.59 789.565 519.59C789.443 519.578 789.322 519.614 789.227 519.691C789.131 519.767 789.07 519.878 789.055 519.999L771.324 617.198C771.216 617.788 770.991 618.35 770.663 618.852C770.335 619.354 769.911 619.785 769.414 620.12C768.917 620.456 768.358 620.688 767.77 620.805C767.182 620.921 766.576 620.919 765.989 620.798L751.477 617.809C750.413 617.586 749.465 616.987 748.807 616.121C748.149 615.256 747.825 614.182 747.896 613.097L758.681 453.784L831.819 445.893L820.951 623.619C820.881 624.762 820.378 625.835 819.545 626.62C818.712 627.405 817.611 627.844 816.467 627.847C816.02 627.847 815.577 627.78 815.15 627.65Z" fill="url(#paint7_linear_34_2)"/>
<path d="M815.08 315.048C828.645 315.048 839.641 304.052 839.641 290.487C839.641 276.922 828.645 265.926 815.08 265.926C801.516 265.926 790.519 276.922 790.519 290.487C790.519 304.052 801.516 315.048 815.08 315.048Z" fill="white"/>
<g filter="url(#filter2_dd_34_2)">
<path d="M777.887 455.291C767.642 454.988 759.992 445.755 761.6 435.632L774.427 354.869C775.27 349.56 777.234 344.491 780.188 340C783.143 335.51 787.02 331.7 791.561 328.824C796.103 325.948 801.205 324.072 806.528 323.321C811.85 322.57 817.272 322.962 822.432 324.469C831.453 327.078 839.178 332.957 844.097 340.957C849.016 348.957 850.776 358.503 849.033 367.731L835.105 442.59C833.572 450.828 826.265 456.721 817.889 456.473L777.887 455.291Z" fill="#EBE6FF"/>
</g>
<g filter="url(#filter3_i_34_2)">
<path d="M821.861 472.586C823.087 471.776 824.122 470.706 824.891 469.453C825.659 468.201 826.144 466.794 826.311 465.334C826.477 463.873 826.322 462.394 825.855 461C825.388 459.606 824.621 458.331 823.608 457.266L840.004 425.514L821.539 427.485L808.8 457.334C807.123 459.155 806.172 461.527 806.127 464.002C806.082 466.476 806.946 468.881 808.556 470.761C810.166 472.641 812.41 473.865 814.862 474.202C817.314 474.538 819.804 473.963 821.861 472.586Z" fill="white"/>
</g>
<g filter="url(#filter4_dd_34_2)">
<path d="M825.372 451.665C824.465 451.537 823.618 451.136 822.945 450.514L816.672 444.718C815.994 444.088 815.526 443.266 815.331 442.362C815.136 441.458 815.223 440.516 815.58 439.663L826.676 413.362C827.626 411.111 828.079 408.681 828.005 406.239L826.382 352.63C826.353 351.695 826.38 350.755 826.595 349.845C826.923 348.452 827.456 347.114 828.179 345.873C829.138 344.228 830.412 342.787 831.928 341.634C833.444 340.48 835.172 339.637 837.015 339.152C838.857 338.668 840.776 338.55 842.664 338.808C844.551 339.065 846.369 339.692 848.014 340.653C849.659 341.613 851.099 342.889 852.25 344.406C853.402 345.923 854.244 347.652 854.727 349.495C855.052 350.734 855.21 352.008 855.2 353.284C855.191 354.524 855.117 355.768 855.219 357.004L858.107 392.056C859.032 403.259 855.855 414.417 849.169 423.453L829.617 449.886C829.241 450.394 828.762 450.817 828.212 451.127C827.661 451.438 827.051 451.63 826.422 451.689C826.072 451.723 825.72 451.715 825.372 451.665Z" fill="#EBE6FF"/>
</g>
<g filter="url(#filter5_i_34_2)">
<path d="M673.641 277.105C673.908 278.551 674.49 279.92 675.344 281.116C676.198 282.313 677.304 283.308 678.584 284.031C679.864 284.753 681.287 285.187 682.753 285.3C684.219 285.414 685.691 285.204 687.067 284.687L709.913 312.165L715.298 294.393L692.778 271.024C691.755 268.77 689.942 266.969 687.68 265.963C685.419 264.957 682.867 264.815 680.508 265.565C678.149 266.314 676.147 267.903 674.882 270.03C673.616 272.157 673.174 274.674 673.641 277.105Z" fill="white"/>
</g>
<g filter="url(#filter6_dd_34_2)">
<path d="M691.537 288.495C692.008 287.71 692.708 287.087 693.543 286.709L701.327 283.193C702.17 282.814 703.11 282.703 704.018 282.876C704.927 283.048 705.76 283.496 706.406 284.158L726.3 304.631C728.003 306.383 730.063 307.747 732.341 308.632L782.343 328.039C783.213 328.377 784.068 328.768 784.821 329.319C785.976 330.164 787.002 331.177 787.863 332.327C789.005 333.852 789.836 335.587 790.307 337.433C790.778 339.279 790.881 341.2 790.609 343.085C790.337 344.971 789.697 346.784 788.723 348.422C787.75 350.06 786.464 351.49 784.938 352.631C783.412 353.771 781.676 354.599 779.829 355.068C777.983 355.537 776.062 355.638 774.177 355.364C772.909 355.18 771.674 354.829 770.504 354.322C769.364 353.829 768.247 353.276 767.067 352.887L733.665 341.881C722.988 338.364 713.952 331.089 708.238 321.409L691.52 293.098C691.199 292.554 690.996 291.948 690.925 291.32C690.853 290.692 690.915 290.056 691.105 289.453C691.211 289.118 691.356 288.796 691.537 288.495Z" fill="#EBE6FF"/>
</g>
<path opacity="0.1" d="M835.002 375.652L834.002 407.652L815.58 439.663L830.962 403.99L835.002 375.652Z" fill="black"/>
<path d="M812.266 295.103C810.724 295.303 809.161 294.937 807.868 294.072C806.575 293.207 805.64 291.903 805.236 290.4C804.846 288.671 803.994 287.081 802.769 285.8C801.545 284.518 799.995 283.594 798.285 283.127C793.78 282.097 788.273 284.218 784.972 280.805C784.265 280.025 783.753 279.089 783.479 278.073C783.205 277.057 783.177 275.991 783.396 274.962C784.004 271.645 786.377 269.139 788.959 267.135C794.394 262.936 800.97 260.479 807.826 260.084C811.374 259.981 814.925 260.158 818.446 260.612C822.133 260.845 825.779 261.511 829.31 262.598C833.332 264.116 836.907 266.623 839.704 269.888C842.501 273.153 844.43 277.07 845.312 281.278C846.119 285.499 845.995 289.844 844.949 294.012C843.902 298.18 841.959 302.069 839.255 305.408C836.017 309.44 831.842 312.619 827.094 314.667C825.963 315.201 824.667 315.267 823.488 314.85C820.531 313.674 821.014 310.011 822.362 307.567C823.805 304.953 826.026 302.421 824.865 299.239C824.283 297.763 823.167 296.561 821.738 295.873C818.798 294.373 815.51 294.728 812.349 295.093L812.266 295.103Z" fill="#2F2E41"/>
<path d="M665.433 308.973H361.433C357.059 308.968 352.865 307.228 349.772 304.134C346.678 301.041 344.938 296.847 344.933 292.473V227.473C344.938 223.098 346.678 218.904 349.772 215.811C352.865 212.718 357.059 210.978 361.433 210.973H665.433C669.808 210.978 674.002 212.718 677.095 215.811C680.188 218.904 681.928 223.098 681.933 227.473V292.473C681.928 296.847 680.188 301.041 677.095 304.134C674.002 307.228 669.808 308.968 665.433 308.973Z" fill="white"/>
<path d="M665.433 309.473H361.433C356.926 309.468 352.605 307.675 349.418 304.488C346.231 301.301 344.438 296.98 344.433 292.473V227.473C344.438 222.966 346.231 218.645 349.418 215.458C352.605 212.271 356.926 210.478 361.433 210.473H665.433C669.94 210.478 674.261 212.271 677.448 215.458C680.635 218.645 682.428 222.966 682.433 227.473V292.473C682.428 296.98 680.635 301.301 677.448 304.488C674.261 307.675 669.94 309.468 665.433 309.473ZM361.433 212.473C357.456 212.477 353.644 214.059 350.831 216.871C348.019 219.683 346.438 223.496 346.433 227.473V292.473C346.438 296.45 348.019 300.262 350.831 303.074C353.644 305.887 357.456 307.468 361.433 307.473H665.433C669.41 307.468 673.223 305.887 676.035 303.074C678.847 300.262 680.429 296.45 680.433 292.473V227.473C680.429 223.496 678.847 219.683 676.035 216.871C673.223 214.059 669.41 212.477 665.433 212.473H361.433Z" fill="#3F3D56"/>
<path d="M628.433 292.973H398.433C394.059 292.968 389.865 291.228 386.771 288.135C383.678 285.041 381.938 280.847 381.933 276.473V242.473C381.938 238.098 383.678 233.904 386.771 230.811C389.865 227.718 394.059 225.978 398.433 225.973H628.433C632.808 225.978 637.002 227.718 640.095 230.811C643.188 233.904 644.928 238.098 644.933 242.473V276.473C644.928 280.847 643.188 285.041 640.095 288.135C637.002 291.228 632.808 292.968 628.433 292.973Z" fill="#E4DDFF"/>
<path d="M447.928 274.647C458.826 274.647 467.66 265.813 467.66 254.915C467.66 244.017 458.826 235.183 447.928 235.183C437.03 235.183 428.196 244.017 428.196 254.915C428.196 265.813 437.03 274.647 447.928 274.647Z" fill="#FF6584"/>
<path d="M614.14 290.981L586.287 267.622L558.916 244.665C558.194 244.06 557.28 243.728 556.338 243.73C555.395 243.732 554.483 244.067 553.763 244.675L526.48 267.737L519.816 273.37L509.767 264.943L479.23 239.332C478.508 238.726 477.595 238.395 476.652 238.397C475.71 238.399 474.798 238.733 474.078 239.342L443.64 265.07L412.723 291.204C412.566 291.336 412.454 291.514 412.402 291.712C412.349 291.91 412.359 292.12 412.43 292.312C412.5 292.505 412.629 292.671 412.797 292.788C412.965 292.905 413.165 292.968 413.37 292.968L476.757 292.845L496.821 292.807L496.625 292.973L556.432 292.858L613.499 292.748C613.704 292.747 613.905 292.684 614.072 292.566C614.24 292.448 614.368 292.281 614.438 292.089C614.508 291.896 614.517 291.686 614.463 291.488C614.41 291.29 614.297 291.113 614.14 290.981Z" fill="#3F3D56"/>
<g filter="url(#filter7_i_34_2)">
<path d="M604.056 131.912C603.257 130.614 602.203 129.493 600.956 128.616C599.71 127.739 598.298 127.125 596.806 126.812C596.26 126.697 595.705 126.627 595.147 126.602L518.956 58.4823C517.46 56.944 515.463 55.9902 513.326 55.7923C512.905 55.7438 512.48 55.7305 512.056 55.7523C510.298 55.8322 508.602 56.4225 507.174 57.4512C505.746 58.4798 504.649 59.9022 504.017 61.5444C503.385 63.1866 503.245 64.9774 503.614 66.698C503.983 68.4185 504.846 69.9941 506.096 71.2323L535.266 96.6623L583.166 138.412C583.205 139.199 583.323 139.979 583.516 140.742C584.09 142.953 585.321 144.938 587.048 146.432C588.775 147.927 590.916 148.862 593.186 149.112C595.257 149.354 597.354 149.008 599.236 148.112C600.729 147.414 602.053 146.401 603.116 145.142C603.226 145.012 603.326 144.892 603.426 144.752C604.825 142.93 605.634 140.725 605.747 138.431C605.859 136.137 605.27 133.863 604.056 131.912Z" fill="white"/>
</g>
<g filter="url(#filter8_i_34_2)">
<path d="M473.736 197.562L473.026 168.702L472.426 144.752L472.016 127.992L471.206 95.3223C471.046 93.5731 470.38 91.9084 469.289 90.5315C468.199 89.1545 466.731 88.1248 465.065 87.5681C463.399 87.0113 461.607 86.9517 459.908 87.3964C458.209 87.8411 456.676 88.7709 455.496 90.0723C455.218 90.3696 454.967 90.6909 454.746 91.0323C453.515 92.7955 452.961 94.9436 453.186 97.0823L454.966 144.752L455.856 168.702L456.996 199.252C456.667 199.701 456.37 200.172 456.106 200.662C455.395 202.011 454.965 203.49 454.843 205.009C454.721 206.529 454.91 208.058 455.396 209.502C455.904 211.017 456.728 212.408 457.812 213.581C458.896 214.755 460.217 215.686 461.687 216.312C463.157 216.939 464.743 217.247 466.341 217.216C467.938 217.185 469.511 216.815 470.956 216.132C472.634 215.339 474.091 214.144 475.197 212.654C476.304 211.164 477.027 209.425 477.302 207.589C477.577 205.754 477.395 203.879 476.773 202.13C476.151 200.381 475.108 198.812 473.736 197.562Z" fill="white"/>
</g>
<g filter="url(#filter9_dd_34_2)">
<path d="M542.336 115.812L535.266 96.6623L523.826 65.6423C523.001 63.3853 521.678 61.3432 519.955 59.6674C518.233 57.9916 516.155 56.7253 513.876 55.9623C513.696 55.9023 513.506 55.8423 513.326 55.7923C511.119 55.1222 508.792 54.938 506.507 55.2521C504.222 55.5663 502.031 56.3714 500.086 57.6122L461.556 82.0522C458.028 84.2854 455.505 87.8027 454.522 91.8613C453.538 95.9198 454.171 100.202 456.286 103.802C461.105 112.134 466.355 120.208 472.016 127.992C473.666 130.237 475.839 131.745 477.999 133.251C484.928 138.08 492.583 144.752 501.029 144.752H508.215C512.407 144.752 516.452 143.203 519.571 140.402L541.012 121.154C542.506 119.812 543.031 117.696 542.336 115.812Z" fill="#EBE6FF"/>
</g>
<g filter="url(#filter10_di_34_2)">
<path d="M101.165 349.854C113.962 349.854 124.336 339.48 124.336 326.682C124.336 313.885 113.962 303.511 101.165 303.511C88.3672 303.511 77.9929 313.885 77.9929 326.682C77.9929 339.48 88.3672 349.854 101.165 349.854Z" fill="white"/>
</g>
<g filter="url(#filter11_i_34_2)">
<path d="M158.051 310.732C158.28 310.914 158.501 311.106 158.715 311.31C159.78 312.313 160.62 313.529 161.182 314.879C161.743 316.23 162.013 317.683 161.974 319.145C161.935 320.607 161.587 322.044 160.953 323.362C160.32 324.68 159.415 325.85 158.298 326.794C158.038 327.012 157.766 327.217 157.484 327.407L159.053 380.352C159.097 382.085 158.582 383.787 157.583 385.204C156.584 386.621 155.155 387.678 153.508 388.219L153.412 388.24L110.423 392.818C109.255 392.942 108.073 392.833 106.946 392.498C105.82 392.163 104.771 391.609 103.86 390.866C102.949 390.123 102.194 389.207 101.639 388.172C101.084 387.136 100.739 386 100.626 384.83C100.512 383.66 100.631 382.479 100.976 381.356C101.321 380.232 101.885 379.188 102.636 378.284C103.387 377.38 104.31 376.633 105.351 376.088C106.392 375.542 107.53 375.208 108.701 375.105L139.345 372.406L144.645 326.555C144.298 326.248 143.974 325.917 143.673 325.565C142.012 323.598 141.14 321.084 141.228 318.511C141.316 315.938 142.357 313.49 144.149 311.641C145.941 309.792 148.356 308.676 150.925 308.508C153.494 308.34 156.034 309.133 158.051 310.732Z" fill="white"/>
</g>
<path d="M139.328 649.174H150.895L156.397 604.561H139.326L139.328 649.174Z" fill="white"/>
<path d="M136.378 645.398L159.156 645.397C161.062 645.397 162.951 645.772 164.712 646.502C166.473 647.231 168.074 648.301 169.422 649.648C170.77 650.996 171.839 652.597 172.568 654.358C173.298 656.119 173.673 658.007 173.673 659.913V660.385L136.379 660.386L136.378 645.398Z" fill="url(#paint8_linear_34_2)"/>
<path d="M24.366 633.182L34.304 639.099L61.857 603.582L47.189 594.849L24.366 633.182Z" fill="white"/>
<path d="M23.763 628.428L43.3347 640.081C44.9726 641.056 46.4032 642.345 47.5432 643.873C48.6832 645.401 49.5111 647.138 49.9797 648.986C50.4482 650.834 50.5482 652.756 50.274 654.642C49.9997 656.529 49.3566 658.343 48.3813 659.981L48.14 660.386L16.0955 641.307L23.763 628.428Z" fill="url(#paint9_linear_34_2)"/>
<path d="M153.624 633.417H140.672C139.624 633.418 138.611 633.031 137.832 632.33C137.052 631.628 136.56 630.663 136.451 629.62L123.394 506.882C123.361 506.573 123.227 506.284 123.013 506.058C122.799 505.833 122.517 505.684 122.211 505.635C121.904 505.586 121.589 505.639 121.316 505.786C121.042 505.933 120.824 506.166 120.696 506.449L97.1411 558.608L55.4375 626.611C54.8977 627.483 54.062 628.131 53.0834 628.437C52.1048 628.743 51.0487 628.686 50.1086 628.277L33.4483 620.947C32.8975 620.704 32.4045 620.347 32.002 619.9C31.5995 619.452 31.2967 618.924 31.1138 618.351C30.9308 617.777 30.8719 617.171 30.9408 616.574C31.0097 615.976 31.2049 615.399 31.5135 614.882L69.8506 550.69L81.6083 496.605C77.9103 473.15 93.7633 438.279 93.924 437.929L94.0026 437.759L137.67 420.691L137.889 420.959C155.11 477.473 165.604 538.291 157.856 629.527C157.76 630.585 157.274 631.57 156.491 632.289C155.709 633.008 154.687 633.41 153.624 633.417Z" fill="url(#paint10_linear_34_2)"/>
<g filter="url(#filter12_dd_34_2)">
<path d="M92.6702 443.269C92.4346 443.382 92.1521 443.282 92.0399 443.046C91.9427 442.842 82.2329 422.362 74.7479 400.475C73.3094 396.242 72.7656 391.757 73.1509 387.303C73.5363 382.849 74.8424 378.524 76.9865 374.601C79.1585 370.638 82.1299 367.169 85.7125 364.414C89.2952 361.659 93.4109 359.678 97.7991 358.597C105.417 356.771 113.438 357.743 120.399 361.335C127.361 364.927 132.8 370.9 135.727 378.167C141.664 393.014 139.772 408.861 137.991 421.324C137.969 421.48 137.87 421.614 137.729 421.682L92.6702 443.269Z" fill="#EBE6FF"/>
</g>
<path d="M129.26 313.593H92.4658V297.555C100.542 294.346 108.444 291.618 113.221 297.555C117.475 297.555 121.554 299.245 124.562 302.252C127.57 305.26 129.26 309.34 129.26 313.593Z" fill="#2F2E41"/>
<path d="M90.4286 294.724C68.4326 294.724 62.2759 322.296 62.2759 337.85C62.2759 346.524 66.1989 349.627 72.3634 350.677L74.5405 339.066L79.6395 351.176C81.3711 351.185 83.1903 351.152 85.0762 351.117L86.8051 347.557L90.6604 351.053C106.101 351.076 118.581 353.327 118.581 337.85C118.581 322.296 113.182 294.724 90.4286 294.724Z" fill="#2F2E41"/>
<path d="M196.61 332.473H153.61C151.092 332.47 148.677 331.468 146.896 329.687C145.115 327.906 144.113 325.491 144.11 322.973V279.973C144.113 277.454 145.115 275.039 146.896 273.258C148.677 271.477 151.092 270.476 153.61 270.473H196.61C199.129 270.476 201.544 271.477 203.325 273.258C205.106 275.039 206.107 277.454 206.11 279.973V322.973C206.107 325.491 205.106 327.906 203.325 329.687C201.544 331.468 199.129 332.47 196.61 332.473Z" fill="white"/>
<path d="M196.61 332.473H153.61C151.092 332.47 148.677 331.468 146.896 329.687C145.115 327.906 144.113 325.491 144.11 322.973V279.973C144.113 277.454 145.115 275.039 146.896 273.258C148.677 271.477 151.092 270.476 153.61 270.473H196.61C199.129 270.476 201.544 271.477 203.325 273.258C205.106 275.039 206.107 277.454 206.11 279.973V322.973C206.107 325.491 205.106 327.906 203.325 329.687C201.544 331.468 199.129 332.47 196.61 332.473ZM153.61 272.473C151.622 272.475 149.716 273.266 148.31 274.672C146.903 276.078 146.113 277.984 146.11 279.973V322.973C146.113 324.961 146.903 326.868 148.31 328.274C149.716 329.68 151.622 330.471 153.61 330.473H196.61C198.599 330.471 200.505 329.68 201.911 328.274C203.317 326.868 204.108 324.961 204.11 322.973V279.973C204.108 277.984 203.317 276.078 201.911 274.672C200.505 273.266 198.599 272.475 196.61 272.473H153.61Z" fill="#3F3D56"/>
<path d="M189.11 314.973H161.11C160.315 314.972 159.552 314.656 158.99 314.093C158.428 313.531 158.111 312.768 158.11 311.973V290.973C158.111 290.177 158.428 289.415 158.99 288.852C159.552 288.29 160.315 287.974 161.11 287.973H168.993C169.505 287.971 170.01 288.101 170.457 288.351C170.905 288.601 171.281 288.963 171.548 289.4L173.746 292.973H189.11C189.906 292.974 190.668 293.29 191.231 293.852C191.793 294.415 192.109 295.177 192.11 295.973V311.973C192.109 312.768 191.793 313.531 191.231 314.093C190.668 314.656 189.906 314.972 189.11 314.973Z" fill="url(#paint11_linear_34_2)"/>
<g filter="url(#filter13_i_34_2)">
<path d="M188.199 325.582C188.339 325.838 188.469 326.101 188.587 326.372C189.179 327.709 189.482 329.157 189.475 330.619C189.469 332.081 189.154 333.526 188.55 334.858C187.947 336.19 187.068 337.38 185.973 338.349C184.878 339.318 183.59 340.044 182.194 340.481C181.87 340.581 181.54 340.664 181.206 340.73L162.107 390.135C161.476 391.75 160.34 393.118 158.87 394.037C157.399 394.955 155.672 395.375 153.944 395.234L153.848 395.216L112.451 382.754C111.326 382.415 110.278 381.856 109.37 381.11C108.461 380.365 107.71 379.446 107.158 378.408C106.607 377.37 106.266 376.233 106.157 375.063C106.047 373.893 106.17 372.712 106.52 371.59C106.869 370.467 107.437 369.425 108.191 368.524C108.945 367.622 109.87 366.879 110.913 366.337C111.956 365.795 113.096 365.465 114.268 365.366C115.439 365.267 116.618 365.401 117.737 365.761L147.027 375.164L169.704 334.963C169.503 334.545 169.333 334.114 169.193 333.673C168.424 331.216 168.597 328.561 169.676 326.224C170.756 323.886 172.665 322.034 175.034 321.025C177.403 320.017 180.062 319.925 182.495 320.767C184.928 321.609 186.961 323.325 188.199 325.582Z" fill="white"/>
</g>
</g>
<defs>
<filter id="filter0_i_34_2" x="443.185" y="8.52808" width="49.1221" height="55.1221" filterUnits="userSpaceOnUse" color-interpolation-filters="sRGB">
<feFlood flood-opacity="0" result="BackgroundImageFix"/>
<feBlend mode="normal" in="SourceGraphic" in2="BackgroundImageFix" result="shape"/>
<feColorMatrix in="SourceAlpha" type="matrix" values="0 0 0 0 0 0 0 0 0 0 0 0 0 0 0 0 0 0 127 0" result="hardAlpha"/>
<feOffset dy="-6"/>
<feGaussianBlur stdDeviation="5"/>
<feComposite in2="hardAlpha" operator="arithmetic" k2="-1" k3="1"/>
<feColorMatrix type="matrix" values="0 0 0 0 0 0 0 0 0 0 0 0 0 0 0 0 0 0 0.25 0"/>
<feBlend mode="normal" in2="shape" result="effect1_innerShadow_34_2"/>
</filter>
<filter id="filter1_dd_34_2" x="65.1875" y="96.058" width="645.839" height="450.742" filterUnits="userSpaceOnUse" color-interpolation-filters="sRGB">
<feFlood flood-opacity="0" result="BackgroundImageFix"/>
<feColorMatrix in="SourceAlpha" type="matrix" values="0 0 0 0 0 0 0 0 0 0 0 0 0 0 0 0 0 0 127 0" result="hardAlpha"/>
<feOffset dy="2"/>
<feGaussianBlur stdDeviation="25"/>
<feComposite in2="hardAlpha" operator="out"/>
<feColorMatrix type="matrix" values="0 0 0 0 0.386851 0 0 0 0 0.262552 0 0 0 0 0.8875 0 0 0 0.7 0"/>
<feBlend mode="normal" in2="BackgroundImageFix" result="effect1_dropShadow_34_2"/>
<feColorMatrix in="SourceAlpha" type="matrix" values="0 0 0 0 0 0 0 0 0 0 0 0 0 0 0 0 0 0 127 0" result="hardAlpha"/>
<feOffset dy="4"/>
<feGaussianBlur stdDeviation="1"/>
<feComposite in2="hardAlpha" operator="out"/>
<feColorMatrix type="matrix" values="0 0 0 0 1 0 0 0 0 1 0 0 0 0 1 0 0 0 0.25 0"/>
<feBlend mode="normal" in2="effect1_dropShadow_34_2" result="effect2_dropShadow_34_2"/>
<feBlend mode="normal" in="SourceGraphic" in2="effect2_dropShadow_34_2" result="shape"/>
</filter>
<filter id="filter2_dd_34_2" x="747.386" y="310.95" width="116.303" height="161.531" filterUnits="userSpaceOnUse" color-interpolation-filters="sRGB">
<feFlood flood-opacity="0" result="BackgroundImageFix"/>
<feColorMatrix in="SourceAlpha" type="matrix" values="0 0 0 0 0 0 0 0 0 0 0 0 0 0 0 0 0 0 127 0" result="hardAlpha"/>
<feOffset dy="2"/>
<feGaussianBlur stdDeviation="7"/>
<feComposite in2="hardAlpha" operator="out"/>
<feColorMatrix type="matrix" values="0 0 0 0 0.386851 0 0 0 0 0.262552 0 0 0 0 0.8875 0 0 0 0.7 0"/>
<feBlend mode="normal" in2="BackgroundImageFix" result="effect1_dropShadow_34_2"/>
<feColorMatrix in="SourceAlpha" type="matrix" values="0 0 0 0 0 0 0 0 0 0 0 0 0 0 0 0 0 0 127 0" result="hardAlpha"/>
<feOffset dy="4"/>
<feGaussianBlur stdDeviation="2"/>
<feComposite in2="hardAlpha" operator="out"/>
<feColorMatrix type="matrix" values="0 0 0 0 1 0 0 0 0 1 0 0 0 0 1 0 0 0 0.25 0"/>
<feBlend mode="normal" in2="effect1_dropShadow_34_2" result="effect2_dropShadow_34_2"/>
<feBlend mode="normal" in="SourceGraphic" in2="effect2_dropShadow_34_2" result="shape"/>
</filter>
<filter id="filter3_i_34_2" x="806.125" y="425.514" width="33.8789" height="52.7809" filterUnits="userSpaceOnUse" color-interpolation-filters="sRGB">
<feFlood flood-opacity="0" result="BackgroundImageFix"/>
<feBlend mode="normal" in="SourceGraphic" in2="BackgroundImageFix" result="shape"/>
<feColorMatrix in="SourceAlpha" type="matrix" values="0 0 0 0 0 0 0 0 0 0 0 0 0 0 0 0 0 0 127 0" result="hardAlpha"/>
<feOffset dy="4"/>
<feGaussianBlur stdDeviation="5"/>
<feComposite in2="hardAlpha" operator="arithmetic" k2="-1" k3="1"/>
<feColorMatrix type="matrix" values="0 0 0 0 0 0 0 0 0 0 0 0 0 0 0 0 0 0 0.25 0"/>
<feBlend mode="normal" in2="shape" result="effect1_innerShadow_34_2"/>
</filter>
<filter id="filter4_dd_34_2" x="801.229" y="326.675" width="71.0352" height="141.035" filterUnits="userSpaceOnUse" color-interpolation-filters="sRGB">
<feFlood flood-opacity="0" result="BackgroundImageFix"/>
<feColorMatrix in="SourceAlpha" type="matrix" values="0 0 0 0 0 0 0 0 0 0 0 0 0 0 0 0 0 0 127 0" result="hardAlpha"/>
<feOffset dy="2"/>
<feGaussianBlur stdDeviation="7"/>
<feComposite in2="hardAlpha" operator="out"/>
<feColorMatrix type="matrix" values="0 0 0 0 0.386851 0 0 0 0 0.262552 0 0 0 0 0.8875 0 0 0 0.7 0"/>
<feBlend mode="normal" in2="BackgroundImageFix" result="effect1_dropShadow_34_2"/>
<feColorMatrix in="SourceAlpha" type="matrix" values="0 0 0 0 0 0 0 0 0 0 0 0 0 0 0 0 0 0 127 0" result="hardAlpha"/>
<feOffset dy="4"/>
<feGaussianBlur stdDeviation="2"/>
<feComposite in2="hardAlpha" operator="out"/>
<feColorMatrix type="matrix" values="0 0 0 0 1 0 0 0 0 1 0 0 0 0 1 0 0 0 0.25 0"/>
<feBlend mode="normal" in2="effect1_dropShadow_34_2" result="effect2_dropShadow_34_2"/>
<feBlend mode="normal" in="SourceGraphic" in2="effect2_dropShadow_34_2" result="shape"/>
</filter>
<filter id="filter5_i_34_2" x="673.46" y="265.09" width="41.8381" height="51.0753" filterUnits="userSpaceOnUse" color-interpolation-filters="sRGB">
<feFlood flood-opacity="0" result="BackgroundImageFix"/>
<feBlend mode="normal" in="SourceGraphic" in2="BackgroundImageFix" result="shape"/>
<feColorMatrix in="SourceAlpha" type="matrix" values="0 0 0 0 0 0 0 0 0 0 0 0 0 0 0 0 0 0 127 0" result="hardAlpha"/>
<feOffset dy="4"/>
<feGaussianBlur stdDeviation="5"/>
<feComposite in2="hardAlpha" operator="arithmetic" k2="-1" k3="1"/>
<feColorMatrix type="matrix" values="0 0 0 0 0 0 0 0 0 0 0 0 0 0 0 0 0 0 0.25 0"/>
<feBlend mode="normal" in2="shape" result="effect1_innerShadow_34_2"/>
</filter>
<filter id="filter6_dd_34_2" x="676.896" y="270.797" width="127.861" height="100.718" filterUnits="userSpaceOnUse" color-interpolation-filters="sRGB">
<feFlood flood-opacity="0" result="BackgroundImageFix"/>
<feColorMatrix in="SourceAlpha" type="matrix" values="0 0 0 0 0 0 0 0 0 0 0 0 0 0 0 0 0 0 127 0" result="hardAlpha"/>
<feOffset dy="2"/>
<feGaussianBlur stdDeviation="7"/>
<feComposite in2="hardAlpha" operator="out"/>
<feColorMatrix type="matrix" values="0 0 0 0 0.386851 0 0 0 0 0.262552 0 0 0 0 0.8875 0 0 0 0.7 0"/>
<feBlend mode="normal" in2="BackgroundImageFix" result="effect1_dropShadow_34_2"/>
<feColorMatrix in="SourceAlpha" type="matrix" values="0 0 0 0 0 0 0 0 0 0 0 0 0 0 0 0 0 0 127 0" result="hardAlpha"/>
<feOffset dy="4"/>
<feGaussianBlur stdDeviation="2"/>
<feComposite in2="hardAlpha" operator="out"/>
<feColorMatrix type="matrix" values="0 0 0 0 1 0 0 0 0 1 0 0 0 0 1 0 0 0 0.25 0"/>
<feBlend mode="normal" in2="effect1_dropShadow_34_2" result="effect2_dropShadow_34_2"/>
<feBlend mode="normal" in="SourceGraphic" in2="effect2_dropShadow_34_2" result="shape"/>
</filter>
<filter id="filter7_i_34_2" x="503.412" y="55.7421" width="102.348" height="97.4451" filterUnits="userSpaceOnUse" color-interpolation-filters="sRGB">
<feFlood flood-opacity="0" result="BackgroundImageFix"/>
<feBlend mode="normal" in="SourceGraphic" in2="BackgroundImageFix" result="shape"/>
<feColorMatrix in="SourceAlpha" type="matrix" values="0 0 0 0 0 0 0 0 0 0 0 0 0 0 0 0 0 0 127 0" result="hardAlpha"/>
<feOffset dy="4"/>
<feGaussianBlur stdDeviation="5"/>
<feComposite in2="hardAlpha" operator="arithmetic" k2="-1" k3="1"/>
<feColorMatrix type="matrix" values="0 0 0 0 0 0 0 0 0 0 0 0 0 0 0 0 0 0 0.25 0"/>
<feBlend mode="normal" in2="shape" result="effect1_innerShadow_34_2"/>
</filter>
<filter id="filter8_i_34_2" x="453.137" y="87.1017" width="24.2893" height="134.116" filterUnits="userSpaceOnUse" color-interpolation-filters="sRGB">
<feFlood flood-opacity="0" result="BackgroundImageFix"/>
<feBlend mode="normal" in="SourceGraphic" in2="BackgroundImageFix" result="shape"/>
<feColorMatrix in="SourceAlpha" type="matrix" values="0 0 0 0 0 0 0 0 0 0 0 0 0 0 0 0 0 0 127 0" result="hardAlpha"/>
<feOffset dy="4"/>
<feGaussianBlur stdDeviation="5"/>
<feComposite in2="hardAlpha" operator="arithmetic" k2="-1" k3="1"/>
<feColorMatrix type="matrix" values="0 0 0 0 0 0 0 0 0 0 0 0 0 0 0 0 0 0 0.25 0"/>
<feBlend mode="normal" in2="shape" result="effect1_innerShadow_34_2"/>
</filter>
<filter id="filter9_dd_34_2" x="440.069" y="43.1032" width="116.57" height="117.649" filterUnits="userSpaceOnUse" color-interpolation-filters="sRGB">
<feFlood flood-opacity="0" result="BackgroundImageFix"/>
<feColorMatrix in="SourceAlpha" type="matrix" values="0 0 0 0 0 0 0 0 0 0 0 0 0 0 0 0 0 0 127 0" result="hardAlpha"/>
<feOffset dy="2"/>
<feGaussianBlur stdDeviation="7"/>
<feComposite in2="hardAlpha" operator="out"/>
<feColorMatrix type="matrix" values="0 0 0 0 0.386851 0 0 0 0 0.262552 0 0 0 0 0.8875 0 0 0 0.7 0"/>
<feBlend mode="normal" in2="BackgroundImageFix" result="effect1_dropShadow_34_2"/>
<feColorMatrix in="SourceAlpha" type="matrix" values="0 0 0 0 0 0 0 0 0 0 0 0 0 0 0 0 0 0 127 0" result="hardAlpha"/>
<feOffset dy="4"/>
<feGaussianBlur stdDeviation="2"/>
<feComposite in2="hardAlpha" operator="out"/>
<feColorMatrix type="matrix" values="0 0 0 0 1 0 0 0 0 1 0 0 0 0 1 0 0 0 0.25 0"/>
<feBlend mode="normal" in2="effect1_dropShadow_34_2" result="effect2_dropShadow_34_2"/>
<feBlend mode="normal" in="SourceGraphic" in2="effect2_dropShadow_34_2" result="shape"/>
</filter>
<filter id="filter10_di_34_2" x="66.9929" y="289.511" width="74.3433" height="74.3433" filterUnits="userSpaceOnUse" color-interpolation-filters="sRGB">
<feFlood flood-opacity="0" result="BackgroundImageFix"/>
<feColorMatrix in="SourceAlpha" type="matrix" values="0 0 0 0 0 0 0 0 0 0 0 0 0 0 0 0 0 0 127 0" result="hardAlpha"/>
<feOffset dx="3"/>
<feGaussianBlur stdDeviation="7"/>
<feComposite in2="hardAlpha" operator="out"/>
<feColorMatrix type="matrix" values="0 0 0 0 0 0 0 0 0 0 0 0 0 0 0 0 0 0 0.21 0"/>
<feBlend mode="normal" in2="BackgroundImageFix" result="effect1_dropShadow_34_2"/>
<feBlend mode="normal" in="SourceGraphic" in2="effect1_dropShadow_34_2" result="shape"/>
<feColorMatrix in="SourceAlpha" type="matrix" values="0 0 0 0 0 0 0 0 0 0 0 0 0 0 0 0 0 0 127 0" result="hardAlpha"/>
<feOffset dy="4"/>
<feGaussianBlur stdDeviation="5"/>
<feComposite in2="hardAlpha" operator="arithmetic" k2="-1" k3="1"/>
<feColorMatrix type="matrix" values="0 0 0 0 0 0 0 0 0 0 0 0 0 0 0 0 0 0 0.25 0"/>
<feBlend mode="normal" in2="shape" result="effect2_innerShadow_34_2"/>
</filter>
<filter id="filter11_i_34_2" x="100.584" y="308.486" width="61.394" height="88.3818" filterUnits="userSpaceOnUse" color-interpolation-filters="sRGB">
<feFlood flood-opacity="0" result="BackgroundImageFix"/>
<feBlend mode="normal" in="SourceGraphic" in2="BackgroundImageFix" result="shape"/>
<feColorMatrix in="SourceAlpha" type="matrix" values="0 0 0 0 0 0 0 0 0 0 0 0 0 0 0 0 0 0 127 0" result="hardAlpha"/>
<feOffset dy="4"/>
<feGaussianBlur stdDeviation="5"/>
<feComposite in2="hardAlpha" operator="arithmetic" k2="-1" k3="1"/>
<feColorMatrix type="matrix" values="0 0 0 0 0 0 0 0 0 0 0 0 0 0 0 0 0 0 0.25 0"/>
<feBlend mode="normal" in2="shape" result="effect1_innerShadow_34_2"/>
</filter>
<filter id="filter12_dd_34_2" x="59.0308" y="345.697" width="94.7241" height="113.619" filterUnits="userSpaceOnUse" color-interpolation-filters="sRGB">
<feFlood flood-opacity="0" result="BackgroundImageFix"/>
<feColorMatrix in="SourceAlpha" type="matrix" values="0 0 0 0 0 0 0 0 0 0 0 0 0 0 0 0 0 0 127 0" result="hardAlpha"/>
<feOffset dy="2"/>
<feGaussianBlur stdDeviation="7"/>
<feComposite in2="hardAlpha" operator="out"/>
<feColorMatrix type="matrix" values="0 0 0 0 0.386851 0 0 0 0 0.262552 0 0 0 0 0.8875 0 0 0 0.7 0"/>
<feBlend mode="normal" in2="BackgroundImageFix" result="effect1_dropShadow_34_2"/>
<feColorMatrix in="SourceAlpha" type="matrix" values="0 0 0 0 0 0 0 0 0 0 0 0 0 0 0 0 0 0 127 0" result="hardAlpha"/>
<feOffset dy="4"/>
<feGaussianBlur stdDeviation="2"/>
<feComposite in2="hardAlpha" operator="out"/>
<feColorMatrix type="matrix" values="0 0 0 0 1 0 0 0 0 1 0 0 0 0 1 0 0 0 0.25 0"/>
<feBlend mode="normal" in2="effect1_dropShadow_34_2" result="effect2_dropShadow_34_2"/>
<feBlend mode="normal" in="SourceGraphic" in2="effect2_dropShadow_34_2" result="shape"/>
</filter>
<filter id="filter13_i_34_2" x="106.118" y="320.196" width="83.3577" height="79.0646" filterUnits="userSpaceOnUse" color-interpolation-filters="sRGB">
<feFlood flood-opacity="0" result="BackgroundImageFix"/>
<feBlend mode="normal" in="SourceGraphic" in2="BackgroundImageFix" result="shape"/>
<feColorMatrix in="SourceAlpha" type="matrix" values="0 0 0 0 0 0 0 0 0 0 0 0 0 0 0 0 0 0 127 0" result="hardAlpha"/>
<feOffset dy="4"/>
<feGaussianBlur stdDeviation="5"/>
<feComposite in2="hardAlpha" operator="arithmetic" k2="-1" k3="1"/>
<feColorMatrix type="matrix" values="0 0 0 0 0 0 0 0 0 0 0 0 0 0 0 0 0 0 0.25 0"/>
<feBlend mode="normal" in2="shape" result="effect1_innerShadow_34_2"/>
</filter>
<linearGradient id="paint0_linear_34_2" x1="315.5" y1="591" x2="146" y2="118" gradientUnits="userSpaceOnUse">
<stop stop-color="#E4DDFF"/>
<stop offset="1" stop-color="#E4DDFF" stop-opacity="0"/>
</linearGradient>
<linearGradient id="paint1_linear_34_2" x1="467.165" y1="11.7756" x2="622.672" y2="626.409" gradientUnits="userSpaceOnUse">
<stop stop-color="#E4DDFF"/>
<stop offset="1" stop-color="#E4DDFF" stop-opacity="0"/>
</linearGradient>
<linearGradient id="paint2_linear_34_2" x1="686.015" y1="629.697" x2="870.424" y2="632.064" gradientUnits="userSpaceOnUse">
<stop stop-color="#CEC1FF"/>
<stop offset="1" stop-color="#FFB9DB"/>
</linearGradient>
<linearGradient id="paint3_linear_34_2" x1="0.0148085" y1="639.697" x2="184.424" y2="642.064" gradientUnits="userSpaceOnUse">
<stop stop-color="#CEC1FF"/>
<stop offset="1" stop-color="#FFB9DB"/>
</linearGradient>
<linearGradient id="paint4_linear_34_2" x1="115" y1="144" x2="661" y2="169" gradientUnits="userSpaceOnUse">
<stop stop-color="#6642F6"/>
<stop offset="1" stop-color="#F74299"/>
</linearGradient>
<linearGradient id="paint5_linear_34_2" x1="755" y1="637" x2="748.5" y2="652" gradientUnits="userSpaceOnUse">
<stop stop-color="#2F2E41"/>
<stop offset="1" stop-color="#747476"/>
</linearGradient>
<linearGradient id="paint6_linear_34_2" x1="805" y1="637" x2="798.5" y2="652" gradientUnits="userSpaceOnUse">
<stop stop-color="#2F2E41"/>
<stop offset="1" stop-color="#747476"/>
</linearGradient>
<linearGradient id="paint7_linear_34_2" x1="789.853" y1="445.893" x2="789.853" y2="627.847" gradientUnits="userSpaceOnUse">
<stop stop-color="#2F2E41"/>
<stop offset="1" stop-color="#B8B8B8"/>
</linearGradient>
<linearGradient id="paint8_linear_34_2" x1="157.68" y1="646.202" x2="151.548" y2="660.354" gradientUnits="userSpaceOnUse">
<stop stop-color="#2F2E41"/>
<stop offset="1" stop-color="#747476"/>
</linearGradient>
<linearGradient id="paint9_linear_34_2" x1="35.7035" y1="630.146" x2="17.7848" y2="647.998" gradientUnits="userSpaceOnUse">
<stop stop-color="#2F2E41"/>
<stop offset="1" stop-color="#747476"/>
</linearGradient>
<linearGradient id="paint10_linear_34_2" x1="95.68" y1="420.691" x2="95.68" y2="633.417" gradientUnits="userSpaceOnUse">
<stop stop-color="#2F2E41"/>
<stop offset="1" stop-color="#B8B8B8"/>
</linearGradient>
<linearGradient id="paint11_linear_34_2" x1="158.113" y1="287.7" x2="192.194" y2="287.79" gradientUnits="userSpaceOnUse">
<stop stop-color="#6642F6"/>
<stop offset="1" stop-color="#F74299"/>
</linearGradient>
<clipPath id="clip0_34_2">
<rect width="876.272" height="661.473" fill="white"/>
</clipPath>
</defs>
</svg>
