<svg width="1650" height="800" viewBox="0 0 1650 800" fill="none" xmlns="http://www.w3.org/2000/svg">
<g clip-path="url(#clip0_572_58)">
<path fill-rule="evenodd" clip-rule="evenodd" d="M400.573 400.354L1.28918 799.637L1.99629 800.344L401.28 401.061L612.756 612.537L425.656 799.637L426.363 800.344L613.463 613.244L800.563 800.344L801.27 799.637L614.17 612.537L825.647 401.061L1037.12 612.537L850.023 799.637L850.73 800.344L1037.83 613.244L1224.93 800.344L1225.64 799.637L1038.54 612.537L1250.01 401.061L1649.3 800.344L1650 799.637L1250.72 400.354L1650 1.07039L1649.3 0.363281L1250.01 399.647L1038.54 188.17L1225.64 1.07039L1224.93 0.363281L1037.83 187.463L850.73 0.363281L850.023 1.07039L1037.12 188.17L825.647 399.647L614.17 188.17L801.27 1.07039L800.563 0.363281L613.463 187.463L426.363 0.363281L425.656 1.07039L612.756 188.17L401.28 399.647L1.99641 0.363281L1.28932 1.07039L400.573 400.354ZM1249.31 400.354L1037.83 188.877L826.354 400.354L1037.83 611.83L1249.31 400.354ZM824.94 400.354L613.463 611.83L401.987 400.354L613.463 188.877L824.94 400.354Z" fill="url(#paint0_radial_572_58)" fill-opacity="0.7"/>
<path fill-rule="evenodd" clip-rule="evenodd" d="M400.573 400.354L1.28918 799.637L1.99629 800.344L401.28 401.061L612.756 612.537L425.656 799.637L426.363 800.344L613.463 613.244L800.563 800.344L801.27 799.637L614.17 612.537L825.647 401.061L1037.12 612.537L850.023 799.637L850.73 800.344L1037.83 613.244L1224.93 800.344L1225.64 799.637L1038.54 612.537L1250.01 401.061L1649.3 800.344L1650 799.637L1250.72 400.354L1650 1.07039L1649.3 0.363281L1250.01 399.647L1038.54 188.17L1225.64 1.07039L1224.93 0.363281L1037.83 187.463L850.73 0.363281L850.023 1.07039L1037.12 188.17L825.647 399.647L614.17 188.17L801.27 1.07039L800.563 0.363281L613.463 187.463L426.363 0.363281L425.656 1.07039L612.756 188.17L401.28 399.647L1.99641 0.363281L1.28932 1.07039L400.573 400.354ZM1249.31 400.354L1037.83 188.877L826.354 400.354L1037.83 611.83L1249.31 400.354ZM824.94 400.354L613.463 611.83L401.987 400.354L613.463 188.877L824.94 400.354Z" fill="url(#paint1_radial_572_58)" fill-opacity="0.7"/>
</g>
<defs>
<radialGradient id="paint0_radial_572_58" cx="0" cy="0" r="1" gradientUnits="userSpaceOnUse" gradientTransform="translate(1204.79 171.5) rotate(111.03) scale(544.787 544.787)">
<stop stop-color="white" stop-opacity="0.25"/>
<stop offset="1" stop-color="white" stop-opacity="0"/>
</radialGradient>
<radialGradient id="paint1_radial_572_58" cx="0" cy="0" r="1" gradientUnits="userSpaceOnUse" gradientTransform="translate(321.293 449.5) rotate(24.3115) scale(483.364 483.365)">
<stop stop-color="white" stop-opacity="0.25"/>
<stop offset="1" stop-color="white" stop-opacity="0"/>
</radialGradient>
<clipPath id="clip0_572_58">
<rect width="1650" height="800" fill="white" transform="matrix(-1 0 0 1 1650 0)"/>
</clipPath>
</defs>
</svg>
