<svg width="679" height="679" viewBox="0 0 679 679" fill="none" xmlns="http://www.w3.org/2000/svg">
<path d="M524.213 338.27H125.004C118.975 338.27 114.076 333.371 114.076 327.343V102.714C114.076 96.6852 118.975 91.7861 125.004 91.7861H524.222C530.25 91.7861 535.149 96.6852 535.149 102.714V327.343C535.149 333.371 530.25 338.27 524.222 338.27H524.213ZM125.004 98.8992C122.896 98.8992 121.189 100.606 121.189 102.714V327.343C121.189 329.45 122.896 331.157 125.004 331.157H524.222C526.329 331.157 528.036 329.45 528.036 327.343V102.714C528.036 100.606 526.329 98.8992 524.222 98.8992H125.004Z" fill="#D7D7D8"/>
<path d="M641 583.18C641 583.918 640.404 584.514 639.666 584.514H38.9538C38.2158 584.514 37.6201 583.918 37.6201 583.18C37.6201 582.442 38.2158 581.847 38.9538 581.847H639.666C640.404 581.847 641 582.442 641 583.18Z" fill="#2F2E43"/>
<path d="M324.231 337.247C326.952 343.338 325.849 349.766 321.777 351.625C317.705 353.474 312.192 350.042 309.471 343.951C308.351 341.533 307.853 338.866 308.022 336.172L296.837 310.227L309.747 304.848L319.403 330.997C321.519 332.651 323.173 334.793 324.222 337.247H324.231Z" fill="#A0616A"/>
<path d="M236.189 188.968C236.189 188.968 255.208 181.722 258.827 186.968C262.445 192.213 320.497 323.955 320.497 323.955L291.182 330.997L236.189 188.977V188.968Z" fill="#D7D7D8"/>
<path d="M241.924 199.993L264.703 207.479V174.697H244.04L241.924 199.993Z" fill="#A0616A"/>
<path d="M261.885 183.767C274.417 183.767 284.575 173.608 284.575 161.076C284.575 148.545 274.417 138.386 261.885 138.386C249.353 138.386 239.194 148.545 239.194 161.076C239.194 173.608 249.353 183.767 261.885 183.767Z" fill="#A0616A"/>
<path d="M256.105 162.854L259.235 166.651L264.89 156.746C264.89 156.746 272.109 157.119 272.109 151.758C272.109 146.397 278.733 146.245 278.733 146.245C278.733 146.245 288.114 129.868 268.686 134.18C268.686 134.18 255.207 124.951 248.512 132.837C248.512 132.837 227.964 143.187 233.841 161.201L243.613 179.774L245.827 175.569C245.827 175.569 244.484 157.92 256.105 162.837V162.854Z" fill="#2F2E43"/>
<path d="M253.723 540.227H235.104V566.643H253.723V540.227Z" fill="#A0616A"/>
<path d="M251.66 581.775C248.477 582.06 232.543 583.322 231.743 579.668C231.014 576.316 232.09 572.813 232.241 572.333C233.77 557.093 234.339 556.924 234.686 556.826C235.229 556.666 236.811 557.422 239.381 559.076L239.541 559.183L239.576 559.369C239.621 559.609 240.759 565.202 246.156 564.339C249.855 563.753 251.055 562.935 251.437 562.535C251.126 562.392 250.735 562.143 250.459 561.717C250.059 561.094 249.988 560.294 250.255 559.334C250.948 556.8 253.029 553.056 253.118 552.905L253.358 552.479L274.519 566.758L287.589 570.492C288.576 570.777 289.368 571.479 289.768 572.422C290.319 573.738 289.981 575.267 288.914 576.227C286.54 578.361 281.828 582.015 276.875 582.469C275.559 582.593 273.817 582.638 271.861 582.638C263.69 582.638 251.758 581.793 251.669 581.775H251.66Z" fill="#2F2E43"/>
<path d="M277.498 312.486L228.658 309.987C228.658 309.987 221.172 338.368 230.632 367.941L231.77 546.024H259.369L285.384 362.321L277.498 312.486Z" fill="#2F2E43"/>
<path d="M269.256 193.698L242.449 179.472C242.449 179.472 213.561 221.687 217.554 244.556C221.555 267.424 228.65 309.996 228.65 309.996L287.786 312.494L277.463 228.658L269.256 193.698Z" fill="#D7D7D8"/>
<path d="M266.962 540.227H248.344V566.643H266.962V540.227Z" fill="#A0616A"/>
<path d="M264.899 581.775C261.716 582.06 245.783 583.322 244.982 579.668C244.253 576.316 245.329 572.813 245.48 572.333C247.01 557.093 247.579 556.924 247.926 556.826C248.468 556.666 250.051 557.422 252.62 559.076L252.78 559.183L252.816 559.369C252.86 559.609 253.998 565.202 259.395 564.339C263.094 563.753 264.294 562.935 264.677 562.535C264.365 562.392 263.974 562.143 263.699 561.717C263.299 561.094 263.227 560.294 263.494 559.334C264.188 556.8 266.268 553.056 266.357 552.905L266.597 552.479L287.758 566.758L300.829 570.492C301.816 570.777 302.607 571.479 303.007 572.422C303.558 573.738 303.22 575.267 302.153 576.227C299.779 578.361 295.067 582.015 290.115 582.469C288.799 582.593 287.056 582.638 285.1 582.638C276.929 582.638 264.997 581.793 264.908 581.775H264.899Z" fill="#2F2E43"/>
<path d="M287.785 312.486L228.649 309.987C228.649 309.987 221.163 338.368 230.623 367.941L242.057 546.024H269.656L295.672 362.321L287.785 312.486Z" fill="#2F2E43"/>
<path d="M351.811 176.52L348.068 185.883C348.068 185.883 344.618 198.989 348.664 204.217C352.701 209.436 353.599 249.456 349.26 252.407C344.921 255.368 404.252 225.004 404.252 225.004C404.252 225.004 381.09 171.292 380.699 171.097C380.308 170.901 365.131 166.171 365.131 166.171L351.829 176.52H351.811Z" fill="#2F2E43"/>
<path d="M390.443 222.799L370.562 229.334V200.722H388.603L390.443 222.799Z" fill="#F3A3A6"/>
<path d="M329.682 385.252C328.606 391.805 324.231 396.508 319.919 395.752C315.607 394.997 312.975 389.066 314.06 382.504C314.451 379.881 315.491 377.392 317.092 375.267L322.017 347.553L335.425 350.362L329.139 377.383C329.966 379.944 330.153 382.638 329.682 385.252Z" fill="#F3A3A6"/>
<path d="M382.976 543.143H364.357V569.559H382.976V543.143Z" fill="#F3A3A6"/>
<path d="M346.219 585.555C344.263 585.555 342.52 585.51 341.204 585.386C336.261 584.932 331.54 581.278 329.166 579.144C328.099 578.184 327.761 576.655 328.312 575.339C328.712 574.396 329.504 573.685 330.49 573.409L343.561 569.675L364.722 555.396L364.962 555.822C365.051 555.982 367.131 559.726 367.825 562.251C368.092 563.211 368.021 564.011 367.62 564.634C367.345 565.06 366.954 565.309 366.642 565.452C367.025 565.852 368.225 566.67 371.924 567.256C377.321 568.11 378.459 562.517 378.503 562.286L378.539 562.1L378.699 561.993C381.269 560.339 382.851 559.583 383.394 559.743C383.731 559.841 384.3 560.019 385.839 575.25C385.99 575.73 387.066 579.233 386.337 582.585C385.545 586.23 369.612 584.977 366.42 584.692C366.331 584.701 354.399 585.555 346.228 585.555H346.219Z" fill="#2F2E43"/>
<path d="M435.991 522.392L420.193 532.244L434.172 554.658L449.97 544.806L435.991 522.392Z" fill="#F3A3A6"/>
<path d="M415.011 581.926C412.824 581.926 410.814 581.66 409.383 581.411C407.978 581.162 406.875 580.042 406.644 578.637C406.484 577.623 406.778 576.601 407.471 575.845L416.585 565.762L426.987 542.449L427.414 542.68C427.574 542.769 431.318 544.841 433.247 546.619C433.985 547.295 434.349 548.015 434.332 548.753C434.323 549.269 434.127 549.678 433.932 549.971C434.465 550.113 435.914 550.167 439.364 548.709C444.397 546.584 442.405 541.231 442.316 541.009L442.245 540.831L442.325 540.662C443.632 537.897 444.566 536.421 445.117 536.27C445.464 536.172 446.033 536.021 455.395 548.14C455.777 548.46 458.543 550.869 459.698 554.097C460.952 557.609 446.771 564.98 443.916 566.42C443.828 566.491 428.988 577.276 422.889 580.344C420.47 581.562 417.607 581.935 415.002 581.935L415.011 581.926Z" fill="#2F2E43"/>
<path d="M396.685 322.239H344.555L339.825 370.732L360.524 549.909H387.136L376.493 446.424L419.66 539.853L443.311 523.298L409.604 436.074C409.604 436.074 421.643 360.089 412.182 341.16C402.722 322.239 396.685 322.239 396.685 322.239Z" fill="#2F2E43"/>
<path d="M422.612 325.199H332.135L364.659 218.166H400.731L422.612 325.199Z" fill="#D7D7D8"/>
<path d="M370.35 218.185C370.35 218.185 347.882 217.589 345.517 223.511C343.152 229.423 315.357 370.163 315.357 370.163H333.691L370.359 218.185H370.35Z" fill="#D7D7D8"/>
<path d="M373.026 208.644C383.966 208.644 392.835 199.775 392.835 188.834C392.835 177.894 383.966 169.024 373.026 169.024C362.085 169.024 353.216 177.894 353.216 188.834C353.216 199.775 362.085 208.644 373.026 208.644Z" fill="#F3A3A6"/>
<path d="M376.867 158.053C376.867 158.053 400.713 151.945 408.013 183.678C408.013 183.678 408.209 191.955 412.352 195.307C416.495 198.659 415.108 216.006 415.108 216.006C415.108 216.006 422.995 229.014 416.291 234.927C416.291 234.927 413.33 246.948 417.669 253.848C422.008 260.747 438.368 298.695 411.161 301.007C411.161 301.007 397.361 292.676 403.87 267.843C410.378 243.009 403.079 229.29 403.079 229.29C403.079 229.29 382.184 221.715 383.367 205.55C384.549 189.386 369.959 173.417 368.98 173.622C368.002 173.826 357.742 167.905 353.207 186.043L348.353 185.216C348.353 185.216 346.308 154.701 376.867 158.053Z" fill="#2F2E43"/>
<path d="M438.057 382.068C439.382 388.577 436.954 394.525 432.651 395.352C428.347 396.179 423.786 391.564 422.47 385.056C421.91 382.46 421.999 379.774 422.728 377.214L417.491 349.553L431.024 347.41L434.749 374.902C436.43 377 437.559 379.454 438.057 382.068Z" fill="#F3A3A6"/>
<path d="M384.976 218.309C384.976 218.309 404.768 215.802 407.133 221.715C409.498 227.627 437.292 368.367 437.292 368.367H418.958L384.976 218.309Z" fill="#D7D7D8"/>
<path d="M378.974 405.329C423.606 405.329 459.787 369.148 459.787 324.516C459.787 279.884 423.606 243.703 378.974 243.703C334.342 243.703 298.161 279.884 298.161 324.516C298.161 369.148 334.342 405.329 378.974 405.329Z" fill="#FCFF7D"/>
<path d="M391.519 283.099C386.033 301.451 380.547 319.803 375.053 338.154C372.021 333.033 368.989 327.911 365.966 322.79C362.943 317.677 354.958 322.319 357.999 327.449C362.827 335.602 367.646 343.756 372.474 351.909C374.528 355.377 379.774 354.594 380.912 350.806C387.42 329.058 393.92 307.301 400.428 285.553C402.136 279.854 393.226 277.409 391.528 283.099H391.519Z" fill="white"/>
<path d="M332.908 349.322C336.394 354.977 336.171 361.396 332.419 363.654C328.667 365.913 322.799 363.157 319.314 357.502C317.891 355.261 317.046 352.7 316.851 350.051L302.402 325.893L314.37 319.216L327.342 343.738C329.645 345.125 331.557 347.046 332.917 349.322H332.908Z" fill="#A0616A"/>
<path d="M226.613 213.899C226.613 213.899 244.325 204.723 248.584 209.453C252.843 214.192 327.458 336.714 327.458 336.714L299.602 346.815L226.604 213.899H226.613Z" fill="#D7D7D8"/>
</svg>
