<svg width="679" height="679" viewBox="0 0 679 679" fill="none" xmlns="http://www.w3.org/2000/svg">
<path d="M562.846 119.59H29.5938C30.3469 115.319 31.8178 111.278 33.8736 107.619C40.4397 95.9218 52.9605 88 67.3066 88H525.133C539.471 88 552 95.9218 558.558 107.619C560.613 111.278 562.093 115.319 562.846 119.59Z" fill="#F2F2F2"/>
<path d="M420.855 275.093H171.579C169.262 275.093 167.378 272.708 167.378 269.777C167.378 266.845 169.262 264.46 171.579 264.46H420.855C423.171 264.46 425.056 266.845 425.056 269.777C425.056 272.708 423.171 275.093 420.855 275.093Z" fill="#E6E6E6"/>
<path d="M562.846 119.59C562.093 115.319 560.613 111.278 558.558 107.619C552 95.9218 539.471 88 525.133 88H67.3066C52.9605 88 40.4397 95.9218 33.8736 107.619C31.8178 111.278 30.3469 115.319 29.5937 119.59C29.2038 121.77 29 124.012 29 126.307V452.776C29 473.901 46.1817 491.083 67.3066 491.083H525.133C529.511 491.083 533.729 490.339 537.654 488.974C552.647 483.781 563.44 469.515 563.44 452.776V126.307C563.44 124.02 563.236 121.77 562.846 119.59ZM561.668 452.776C561.668 471.261 547.933 486.546 530.113 488.974C528.483 489.196 526.826 489.311 525.133 489.311H121.723C71.489 489.311 30.7722 448.585 30.7722 398.351V126.307C30.7722 124.012 30.9849 121.77 31.3925 119.59C32.19 115.283 33.7407 111.252 35.9117 107.619C42.2828 96.932 53.9618 89.7722 67.3066 89.7722H525.133C538.478 89.7722 550.157 96.932 556.528 107.619C558.699 111.252 560.25 115.283 561.047 119.59C561.455 121.77 561.668 124.012 561.668 126.307V452.776Z" fill="#3F3D56"/>
<path d="M539.333 279.47L536.335 268.475L549.828 263.478L551.328 273.473L539.333 279.47Z" fill="#FFB6B6"/>
<path opacity="0.1" d="M539.333 279.47L536.335 268.476L544.281 265.124L541.813 278.086L539.333 279.47Z" fill="black"/>
<path d="M499.834 373.697C497.257 372.164 497.121 367.638 499.531 363.588C500.585 361.815 501.953 360.427 503.374 359.556L504.789 357.244L522.69 325.152C522.69 325.152 530.526 294.886 533.716 291.227C536.907 287.567 541.519 288.429 541.519 288.429L545.61 292.063L531.008 334.931L512.988 360.308L510.573 363.839C510.485 365.504 509.919 367.368 508.864 369.14C506.454 373.19 502.411 375.231 499.834 373.697Z" fill="#FFB6B6"/>
<path d="M538.596 276.33C538.596 276.33 544.29 276.11 547.882 280.533C551.475 284.956 532.655 334.806 532.655 334.806L517.325 334.263L538.596 276.33Z" fill="#FF7DC3"/>
<path d="M540.083 270.225C547.811 270.225 554.076 263.96 554.076 256.232C554.076 248.504 547.811 242.239 540.083 242.239C532.355 242.239 526.09 248.504 526.09 256.232C526.09 263.96 532.355 270.225 540.083 270.225Z" fill="#FFB6B6"/>
<path d="M507.349 459.381L497.854 482.869L492.356 477.372L490.357 466.877L498.353 456.882L507.349 459.381Z" fill="#FFB6B6"/>
<path d="M596.306 450.885L605.801 461.879L601.303 470.875L591.308 469.376L586.311 455.383L596.306 450.885Z" fill="#FFB6B6"/>
<path d="M533.086 319.7L531.837 339.94L562.822 334.443L560.823 321.949L533.086 319.7Z" fill="#FFB6B6"/>
<path d="M531.587 340.19L562.821 329.945C562.821 329.945 574.315 352.934 561.822 367.427C549.328 381.92 507.848 464.379 507.848 464.379L495.354 458.382L513.346 405.908L533.336 357.432L531.587 340.19Z" fill="#2F2E41"/>
<path d="M561.822 358.932L573.816 411.406L598.804 451.886L585.81 459.382L550.827 411.406L539.333 374.424L561.822 358.932Z" fill="#2F2E41"/>
<path d="M485.86 464.878H477.205C477.205 464.878 467.106 460.88 464.739 464.878C462.372 468.876 475.299 480.215 475.299 480.215C475.299 480.215 493.356 490.366 495.855 489.866C498.354 489.366 499.353 483.369 499.353 483.369L502.352 476.373L497.854 477.872C497.854 477.872 491.857 474.374 493.356 468.377L485.86 464.878Z" fill="#2F2E41"/>
<path d="M603.802 463.379V458.382L609.612 463.379C609.612 463.379 619.294 466.878 611.798 474.374C604.302 481.87 594.806 489.866 594.806 489.866C594.806 489.866 579.814 493.864 578.814 489.366C577.815 484.869 578.814 483.049 578.814 483.049L584.312 480.371L589.309 467.377L597.305 468.377L603.802 463.379Z" fill="#2F2E41"/>
<path d="M544.331 258.98L539.833 258.481L531.587 250.235C531.587 250.235 524.091 254.233 524.091 251.234C524.091 237.241 532.587 237.741 539.583 236.742C546.58 235.742 545.83 235.492 548.079 239.24C549.107 240.954 552.827 241.989 552.827 241.989C552.827 241.989 559.823 232.494 563.321 243.988C566.82 255.482 562.322 290.965 565.82 293.963C569.318 296.962 551.456 299.956 553.391 288.214C555.325 276.472 558.824 258.481 556.825 254.483C554.826 250.485 554.326 251.484 554.326 251.484C556.803 250.473 558.422 268.289 549.081 269.161L548.829 260.48C548.829 260.48 547.329 255.982 544.331 258.98Z" fill="#2F2E41"/>
<path d="M538.084 276.222L553.076 270.225L573.066 330.195L531.937 328.697L528.234 310.797C528.234 310.797 524.618 301.482 527.616 295.984C530.615 290.487 538.084 276.222 538.084 276.222Z" fill="#FF7DC3"/>
<path d="M577.096 376.679C574.108 376.936 571.359 373.338 570.956 368.642C570.779 366.587 571.082 364.662 571.728 363.126L571.53 360.422L567.366 323.913C567.366 323.913 559.614 294.048 560.072 289.215C560.531 284.382 561.255 283.099 561.255 283.099L566.698 283.666L579.825 327.008L579.978 358.132L580.075 362.409C580.974 363.812 581.6 365.657 581.776 367.713C582.179 372.408 580.084 376.423 577.096 376.679Z" fill="#FFB6B6"/>
<path d="M551.827 274.972C551.827 274.972 556.325 271.474 561.822 272.973C567.319 274.472 581.09 325.947 581.09 325.947L568.319 334.443L551.827 274.972Z" fill="#FF7DC3"/>
<path d="M291.471 361.489H231.52C227.862 361.489 224.885 358.512 224.885 354.853V348.857C224.885 345.199 227.862 342.223 231.52 342.223H291.471C295.129 342.223 298.106 345.199 298.106 348.857V354.853C298.106 358.512 295.129 361.489 291.471 361.489Z" fill="#FF7DC3"/>
<path d="M521.859 165.544H461.909C458.25 165.544 455.273 162.568 455.273 158.909V152.913C455.273 149.254 458.25 146.278 461.909 146.278H521.859C525.518 146.278 528.495 149.254 528.495 152.913V158.909C528.495 162.568 525.518 165.544 521.859 165.544Z" fill="#FF7DC3"/>
<path d="M380.407 361.932H320.456C316.553 361.932 313.378 358.757 313.378 354.854V348.858C313.378 344.955 316.553 341.78 320.456 341.78H380.407C384.31 341.78 387.485 344.955 387.485 348.858V354.854C387.485 358.757 384.31 361.932 380.407 361.932ZM320.456 343.552C317.531 343.552 315.15 345.932 315.15 348.858V354.854C315.15 357.78 317.531 360.16 320.456 360.16H380.407C383.333 360.16 385.713 357.78 385.713 354.854V348.858C385.713 345.932 383.333 343.552 380.407 343.552H320.456Z" fill="#FF7DC3"/>
<path d="M453.945 247.624H138.49C135.558 247.624 133.173 245.239 133.173 242.307C133.173 239.375 135.558 236.99 138.49 236.99H453.945C456.877 236.99 459.262 239.375 459.262 242.307C459.262 245.239 456.877 247.624 453.945 247.624Z" fill="#E6E6E6"/>
<path d="M118.4 161.228H78.5247C75.5929 161.228 73.208 158.843 73.208 155.911C73.208 152.98 75.5929 150.595 78.5247 150.595H118.4C121.331 150.595 123.716 152.98 123.716 155.911C123.716 158.843 121.331 161.228 118.4 161.228Z" fill="#E6E6E6"/>
<path d="M356.763 161.228H316.888C313.956 161.228 311.571 158.843 311.571 155.911C311.571 152.98 313.956 150.595 316.888 150.595H356.763C359.695 150.595 362.08 152.98 362.08 155.911C362.08 158.843 359.695 161.228 356.763 161.228Z" fill="#E6E6E6"/>
<path d="M432.082 161.228H392.207C389.276 161.228 386.891 158.843 386.891 155.911C386.891 152.98 389.276 150.595 392.207 150.595H432.082C435.014 150.595 437.399 152.98 437.399 155.911C437.399 158.843 435.014 161.228 432.082 161.228Z" fill="#E6E6E6"/>
<path d="M383.942 302.563H208.492C205.561 302.563 203.176 300.178 203.176 297.246C203.176 294.315 205.561 291.93 208.492 291.93H383.942C386.874 291.93 389.259 294.315 389.259 297.246C389.259 300.178 386.874 302.563 383.942 302.563Z" fill="#E6E6E6"/>
<path d="M391.587 418.87H200.847C199.074 418.87 197.632 417.428 197.632 415.655C197.632 413.882 199.074 412.44 200.847 412.44H391.587C393.36 412.44 394.802 413.882 394.802 415.655C394.802 417.428 393.36 418.87 391.587 418.87Z" fill="#E6E6E6"/>
<path d="M393.362 106.959H202.622C200.849 106.959 199.407 105.517 199.407 103.744C199.407 101.971 200.849 100.529 202.622 100.529H393.362C395.135 100.529 396.577 101.971 396.577 103.744C396.577 105.517 395.135 106.959 393.362 106.959Z" fill="white"/>
<path d="M648.976 588.896C648.976 589.767 648.533 590.467 647.981 590.467H441.314C440.762 590.467 440.319 589.767 440.319 588.896C440.319 588.473 440.42 588.103 440.587 587.826H515.568C517.165 587.826 518.727 587.654 520.265 587.324H647.981C648.533 587.324 648.976 588.024 648.976 588.896Z" fill="#3F3D56"/>
</svg>
