<svg width="679" height="679" viewBox="0 0 679 679" fill="none" xmlns="http://www.w3.org/2000/svg">
<path d="M575.799 498.65H180.55C174.582 498.65 169.731 493.8 169.731 487.831V265.436C169.731 259.468 174.582 254.617 180.55 254.617H575.799C581.767 254.617 586.618 259.468 586.618 265.436V487.831C586.618 493.8 581.767 498.65 575.799 498.65ZM180.55 261.659C178.464 261.659 176.774 263.35 176.774 265.436V487.831C176.774 489.918 178.464 491.608 180.55 491.608H575.799C577.885 491.608 579.575 489.918 579.575 487.831V265.436C579.575 263.35 577.885 261.659 575.799 261.659H180.55Z" fill="#D5D5D6"/>
<path d="M279.565 363.508H260.498V411.994H279.565V363.508Z" fill="#7DD0FF"/>
<path d="M310.463 358.852H291.396V411.994H310.463V358.852Z" fill="#7DD0FF"/>
<path d="M341.362 377.038H322.295V411.994H341.362V377.038Z" fill="#7DD0FF"/>
<path d="M372.259 366.246H353.192V411.995H372.259V366.246Z" fill="#7DD0FF"/>
<path d="M403.157 375.489H384.09V411.986H403.157V375.489Z" fill="#7DD0FF"/>
<path d="M434.055 348.253H414.988V411.994H434.055V348.253Z" fill="#7DD0FF"/>
<path d="M464.954 358.852H445.887V411.994H464.954V358.852Z" fill="#7DD0FF"/>
<path d="M495.852 349.618H476.785V411.995H495.852V349.618Z" fill="#7DD0FF"/>
<path d="M196.291 285.453H337.013C338.281 285.453 339.311 286.483 339.311 287.751C339.311 289.018 338.281 290.048 337.013 290.048H196.291C195.023 290.048 193.993 289.018 193.993 287.751C193.993 286.483 195.023 285.453 196.291 285.453Z" fill="#D5D5D6"/>
<path d="M638 498.651C638 499.381 637.41 499.971 636.68 499.971H41.9405C41.2099 499.971 40.6201 499.381 40.6201 498.651C40.6201 497.92 41.2099 497.33 41.9405 497.33H636.68C637.41 497.33 638 497.92 638 498.651Z" fill="#2E2E41"/>
<path d="M158.314 231.315L175.612 237.002V212.099H159.917L158.314 231.315Z" fill="#F3A3A6"/>
<path d="M173.472 218.992C182.992 218.992 190.708 211.275 190.708 201.756C190.708 192.236 182.992 184.52 173.472 184.52C163.953 184.52 156.236 192.236 156.236 201.756C156.236 211.275 163.953 218.992 173.472 218.992Z" fill="#F3A3A6"/>
<path d="M169.081 203.102L171.458 205.99L175.754 198.472C175.754 198.472 181.238 198.754 181.238 194.687C181.238 190.62 186.273 190.506 186.273 190.506C186.273 190.506 193.394 178.067 178.641 181.342C178.641 181.342 168.403 174.326 163.315 180.321C163.315 180.321 147.708 188.182 152.171 201.87L159.591 215.972L161.273 212.777C161.273 212.777 160.252 199.37 169.081 203.102Z" fill="#2F2E43"/>
<path d="M167.487 467.224H153.561V486.977H167.487V467.224Z" fill="#F3A3A6"/>
<path d="M165.946 498.289C163.561 498.509 151.65 499.442 151.052 496.714C150.506 494.205 151.307 491.581 151.422 491.229C152.566 479.838 152.988 479.706 153.244 479.627C153.649 479.513 154.837 480.067 156.756 481.309L156.879 481.388L156.906 481.529C156.941 481.705 157.795 485.886 161.827 485.252C164.591 484.812 165.489 484.205 165.779 483.905C165.541 483.8 165.251 483.615 165.048 483.289C164.749 482.823 164.696 482.224 164.89 481.511C165.409 479.618 166.967 476.819 167.029 476.705L167.205 476.388L183.033 487.066L192.804 489.856C193.543 490.067 194.133 490.596 194.432 491.3C194.846 492.286 194.591 493.43 193.799 494.143C192.02 495.736 188.499 498.474 184.793 498.809C183.807 498.897 182.504 498.932 181.043 498.932C174.925 498.932 166.008 498.298 165.938 498.289H165.946Z" fill="#2F2E43"/>
<path d="M124.041 437.569L111.449 452.789L122.179 461.666L134.771 446.445L124.041 437.569Z" fill="#F3A3A6"/>
<path d="M113.798 469.406C111.826 468.051 102.046 461.184 103.322 458.702C104.502 456.422 106.791 454.917 107.108 454.714C115.25 446.669 115.664 446.836 115.911 446.941C116.298 447.109 116.852 448.297 117.548 450.471L117.592 450.603L117.521 450.727C117.433 450.885 115.426 454.653 118.939 456.73C121.351 458.156 122.433 458.253 122.838 458.209C122.724 457.98 122.618 457.646 122.662 457.267C122.724 456.721 123.067 456.22 123.683 455.797C125.294 454.67 128.27 453.508 128.402 453.456L128.736 453.324L134.124 471.642L139.872 480.023C140.303 480.656 140.427 481.44 140.206 482.179C139.898 483.2 138.974 483.922 137.9 483.966C135.515 484.063 131.06 483.922 127.988 481.818C127.178 481.264 126.148 480.463 125.022 479.53C120.312 475.63 113.842 469.459 113.789 469.406H113.798Z" fill="#2F2E43"/>
<path d="M190.515 314.855H142.751L153.367 472.744H169.292L190.524 314.855H190.515Z" fill="#2F2E43"/>
<path d="M180.788 323.553L190.516 314.855L185.648 401.696L131.255 453.439L117.689 442.233L149.389 401.106L180.788 323.553Z" fill="#2F2E43"/>
<path d="M180.788 221.985L157.196 218.156L149.873 230.964C140.559 247.25 136.765 266.105 139.045 284.724L142.751 314.873H190.515L180.788 221.994V221.985Z" fill="#7DD0FF"/>
<path d="M161.633 343.288C162.611 348.156 160.788 352.601 157.575 353.217C154.353 353.825 150.956 350.374 149.978 345.497C149.565 343.552 149.635 341.545 150.19 339.635L146.316 318.939L156.44 317.363L159.177 337.936C160.427 339.511 161.272 341.342 161.633 343.297V343.288Z" fill="#F3A3A6"/>
<path d="M149.318 337.681L134.45 291.748V291.677L140.066 244.379C140.929 237.135 147.074 231.677 154.362 231.677C158.825 231.677 162.963 233.693 165.709 237.214C168.456 240.735 169.415 245.233 168.332 249.573L158.412 289.247L160.78 334.274L149.309 337.681H149.318Z" fill="#7DD0FF"/>
</svg>
