<svg width="838" height="628" viewBox="0 0 838 628" fill="none" xmlns="http://www.w3.org/2000/svg">
<g clip-path="url(#clip0_34_62)">
<rect opacity="0.2" width="476" height="525" rx="19" transform="matrix(1 0 0 -1 362 525)" fill="url(#paint0_linear_34_62)"/>
<path d="M783.705 243.732H602.489C600.921 243.732 599.418 243.109 598.31 242.001C597.201 240.893 596.579 239.389 596.579 237.822C596.579 236.254 597.201 234.751 598.31 233.643C599.418 232.534 600.921 231.912 602.489 231.912H783.705C785.272 231.912 786.776 232.534 787.884 233.643C788.992 234.751 789.615 236.254 789.615 237.822C789.615 239.389 788.992 240.893 787.884 242.001C786.776 243.109 785.272 243.732 783.705 243.732Z" fill="#E6E6E6"/>
<path d="M783.705 267.085H602.489C600.921 267.085 599.418 266.463 598.309 265.354C597.201 264.246 596.578 262.743 596.578 261.175C596.578 259.608 597.201 258.104 598.309 256.996C599.418 255.887 600.921 255.265 602.489 255.265H783.705C785.273 255.265 786.776 255.887 787.884 256.996C788.993 258.104 789.615 259.608 789.615 261.175C789.615 262.743 788.993 264.246 787.884 265.354C786.776 266.463 785.273 267.085 783.705 267.085Z" fill="#E6E6E6"/>
<path d="M681.042 290.439H602.489C600.921 290.439 599.418 289.816 598.309 288.708C597.201 287.6 596.578 286.096 596.578 284.529C596.578 282.961 597.201 281.458 598.309 280.35C599.418 279.241 600.921 278.618 602.489 278.618H681.042C681.818 278.617 682.588 278.77 683.306 279.066C684.024 279.363 684.676 279.798 685.226 280.347C685.775 280.896 686.212 281.548 686.509 282.265C686.807 282.983 686.96 283.752 686.96 284.529C686.96 285.306 686.807 286.075 686.509 286.792C686.212 287.51 685.775 288.162 685.226 288.711C684.676 289.26 684.024 289.695 683.306 289.991C682.588 290.288 681.818 290.44 681.042 290.439Z" fill="#E6E6E6"/>
<path d="M783.705 383.848H602.489C601.713 383.848 600.944 383.695 600.227 383.398C599.51 383.101 598.858 382.666 598.31 382.117C597.761 381.568 597.326 380.917 597.029 380.2C596.731 379.483 596.579 378.714 596.579 377.938C596.579 377.162 596.731 376.393 597.029 375.676C597.326 374.959 597.761 374.308 598.31 373.759C598.858 373.21 599.51 372.775 600.227 372.478C600.944 372.181 601.713 372.028 602.489 372.028H783.705C784.481 372.028 785.25 372.181 785.967 372.478C786.684 372.775 787.335 373.21 787.884 373.759C788.433 374.308 788.868 374.959 789.165 375.676C789.462 376.393 789.615 377.162 789.615 377.938C789.615 378.714 789.462 379.483 789.165 380.2C788.868 380.917 788.433 381.568 787.884 382.117C787.335 382.666 786.684 383.101 785.967 383.398C785.25 383.695 784.481 383.848 783.705 383.848Z" fill="#E6E6E6"/>
<path d="M783.705 407.202H602.489C600.922 407.2 599.421 406.576 598.314 405.468C597.208 404.36 596.586 402.857 596.586 401.291C596.586 399.725 597.208 398.223 598.314 397.115C599.421 396.006 600.922 395.383 602.489 395.381H783.705C785.271 395.383 786.772 396.006 787.879 397.115C788.986 398.223 789.608 399.725 789.608 401.291C789.608 402.857 788.986 404.36 787.879 405.468C786.772 406.576 785.271 407.2 783.705 407.202Z" fill="#E6E6E6"/>
<path d="M681.042 430.555H602.489C600.921 430.555 599.418 429.933 598.309 428.824C597.201 427.716 596.578 426.212 596.578 424.645C596.578 423.077 597.201 421.574 598.309 420.466C599.418 419.357 600.921 418.735 602.489 418.735H681.042C681.818 418.733 682.588 418.886 683.306 419.182C684.024 419.479 684.676 419.914 685.226 420.463C685.775 421.012 686.212 421.664 686.509 422.381C686.807 423.099 686.96 423.868 686.96 424.645C686.96 425.422 686.807 426.191 686.509 426.908C686.212 427.626 685.775 428.278 685.226 428.827C684.676 429.376 684.024 429.811 683.306 430.108C682.588 430.404 681.818 430.556 681.042 430.555Z" fill="#E6E6E6"/>
<g filter="url(#filter0_dd_34_62)">
<path d="M530.193 307.988H421.097C418.173 307.985 415.37 306.822 413.303 304.754C411.235 302.687 410.072 299.884 410.069 296.96V225.391C410.072 222.467 411.235 219.664 413.303 217.596C415.37 215.529 418.173 214.366 421.097 214.363H530.193C533.117 214.366 535.92 215.529 537.987 217.596C540.055 219.664 541.218 222.467 541.221 225.391V296.96C541.218 299.884 540.055 302.687 537.987 304.754C535.92 306.822 533.117 307.985 530.193 307.988Z" fill="#F74299"/>
</g>
<path d="M522.526 223.306H428.767C426.105 223.308 423.553 224.367 421.67 226.249C419.787 228.131 418.727 230.683 418.723 233.345V289.003C418.727 291.666 419.786 294.219 421.669 296.101C423.552 297.984 426.105 299.044 428.767 299.048H488.554C500.223 299.036 511.411 294.395 519.662 286.144C527.913 277.893 532.554 266.705 532.565 255.036V233.345C532.563 230.683 531.504 228.131 529.622 226.249C527.74 224.367 525.188 223.309 522.526 223.306Z" fill="#06081F"/>
<path d="M496.03 242.122L495.749 242.627C498.243 236.481 495.976 228.906 491.526 224.271C487.077 219.637 480.892 217.518 474.801 216.677C470.28 216.053 465.587 216.071 461.288 217.727C455.063 220.126 450.306 225.677 446.335 231.453C444.518 234.094 442.732 237.106 442.913 240.408C443.081 243.472 444.9 246.072 446.389 248.671C447.879 251.271 449.123 254.496 448.054 257.333C447.417 259.024 446.07 260.242 444.978 261.625C443.886 263.008 442.987 264.877 443.515 266.613C443.749 267.277 444.152 267.869 444.683 268.33C445.214 268.792 445.857 269.108 446.547 269.248C447.883 269.471 449.25 269.438 450.575 269.152L485.29 263.907C487.649 263.551 489.887 262.629 491.813 261.221C493.739 259.813 495.295 257.96 496.35 255.82C497.405 253.68 497.927 251.317 497.871 248.932C497.815 246.547 497.183 244.21 496.03 242.122Z" fill="#2F2E41"/>
<g filter="url(#filter1_i_34_62)">
<path d="M470.207 263.665C479.581 263.665 487.181 256.066 487.181 246.692C487.181 237.318 479.581 229.719 470.207 229.719C460.833 229.719 453.234 237.318 453.234 246.692C453.234 256.066 460.833 263.665 470.207 263.665Z" fill="white"/>
</g>
<g filter="url(#filter2_dd_34_62)">
<path d="M512.542 285.114C513.702 288.348 512.63 292.025 509.616 293.674C503.186 297.193 495.946 299.056 488.554 299.048H436.608C436.519 299.048 436.433 299.018 436.365 298.961C436.242 298.858 436.197 298.688 436.251 298.537L441.018 285.234C442.116 282.827 443.848 280.764 446.029 279.266C448.21 277.768 450.758 276.892 453.399 276.732C455.404 276.609 457.313 275.832 458.834 274.521L463.074 270.864C463.581 270.426 464.213 270.175 464.882 270.15C466.49 270.09 469.771 269.965 473.132 269.818C474.995 269.736 490.666 273.499 492.264 274.461L495.416 276.356C495.426 276.363 495.439 276.353 495.437 276.341C495.435 276.332 495.443 276.324 495.452 276.324L500.161 276.613C502.802 276.772 505.35 277.647 507.531 279.145C509.712 280.643 511.444 282.707 512.542 285.114Z" fill="#EBE6FF"/>
</g>
<path d="M486.307 230.939C485.869 228.621 483.505 227.561 481.48 227.047C475.605 225.549 469.493 225.213 463.49 226.06C459.113 226.684 454.632 228.06 451.457 231.476C448.896 234.353 447.445 238.048 447.365 241.898C447.235 244.2 447.75 246.493 448.85 248.519C449.343 249.463 450.072 250.262 450.966 250.838C451.86 251.415 452.889 251.749 453.952 251.807L454.155 252.516C462.677 251.328 470.593 246.026 475.578 238.166C474.643 241.507 472.781 244.515 470.207 246.843C475.961 244.541 480.962 240.686 484.653 235.709C485.662 234.371 486.64 232.702 486.307 230.939Z" fill="#2F2E41"/>
<g filter="url(#filter3_dd_34_62)">
<path d="M530.193 175.174H421.097C418.173 175.171 415.37 174.008 413.303 171.941C411.235 169.873 410.072 167.07 410.069 164.146V92.5769C410.072 89.6531 411.235 86.85 413.303 84.7826C415.37 82.7152 418.173 81.5523 421.097 81.549H530.193C533.117 81.5523 535.92 82.7152 537.987 84.7826C540.055 86.85 541.218 89.6531 541.221 92.5769V164.146C541.218 167.07 540.055 169.873 537.987 171.941C535.92 174.008 533.117 175.171 530.193 175.174Z" fill="#64C2DB"/>
</g>
<path d="M522.526 90.4921H428.767C426.105 90.4953 423.553 91.5539 421.67 93.4358C419.788 95.3177 418.728 97.8694 418.723 100.531V156.19C418.727 158.852 419.786 161.405 421.669 163.288C423.552 165.171 426.105 166.23 428.767 166.234H488.554C500.224 166.224 511.413 161.584 519.664 153.333C527.916 145.081 532.556 133.892 532.565 122.223V100.531C532.563 97.8697 531.504 95.3178 529.622 93.4356C527.74 91.5535 525.188 90.4949 522.526 90.4921Z" fill="#06081F"/>
<path d="M453.111 101.29C457.527 101.29 461.107 97.7099 461.107 93.2941C461.107 88.8784 457.527 85.2987 453.111 85.2987C448.696 85.2987 445.116 88.8784 445.116 93.2941C445.116 97.7099 448.696 101.29 453.111 101.29Z" fill="#2F2E41"/>
<path d="M465.904 131.672C477.091 131.672 486.159 122.604 486.159 111.417C486.159 100.23 477.091 91.162 465.904 91.162C454.717 91.162 445.649 100.23 445.649 111.417C445.649 122.604 454.717 131.672 465.904 131.672Z" fill="#2F2E41"/>
<g filter="url(#filter4_i_34_62)">
<path d="M467.58 131.667C476.67 131.667 484.04 124.298 484.04 115.208C484.04 106.117 476.67 98.748 467.58 98.748C458.49 98.748 451.121 106.117 451.121 115.208C451.121 124.298 458.49 131.667 467.58 131.667Z" fill="white"/>
</g>
<path d="M478.758 98.4294C475.874 96.6711 472.57 95.7199 469.192 95.6754C465.815 95.6309 462.487 96.4946 459.558 98.1763C456.628 99.858 454.204 102.296 452.539 105.235C450.874 108.174 450.03 111.507 450.093 114.884C458.48 116.99 467.291 118.601 476.236 115.388L478.348 110.218L479.593 115.391C482.317 116.505 485.048 117.447 487.779 115.381C487.89 112.013 487.116 108.675 485.533 105.7C483.95 102.725 481.614 100.218 478.758 98.4294Z" fill="#2F2E41"/>
<path d="M445.667 71.5896C442.86 70.3914 439.774 70.0027 436.757 70.4674C433.741 70.9321 430.914 72.2317 428.598 74.2191C426.332 76.2632 424.608 78.836 423.578 81.7082C422.548 84.5804 422.244 87.6628 422.694 90.6807C423.601 96.8189 427.333 102.105 430.772 107.269C434.212 112.433 437.573 118.092 437.569 124.297C437.566 128.766 435.791 133.051 432.633 136.213C429.475 139.376 425.192 141.157 420.723 141.165C425.968 143.423 431.443 145.726 437.147 145.458C442.851 145.19 448.83 141.523 449.761 135.889C450.431 131.829 448.44 127.871 446.778 124.106C444.073 117.972 442.117 111.534 440.953 104.932C440.399 101.78 440.037 98.4674 441.065 95.4371C441.883 93.1916 443.401 91.2683 445.395 89.9511C447.389 88.6338 449.754 87.9922 452.14 88.1208L454.025 86.4251C454.348 83.3902 453.716 80.3301 452.218 77.671C450.72 75.0119 448.43 72.8861 445.667 71.5896Z" fill="#2F2E41"/>
<g filter="url(#filter5_dd_34_62)">
<path d="M508.423 152.48C509.99 156.848 508.286 161.831 503.94 163.459C499.04 165.294 493.83 166.241 488.554 166.234H432.172C432.146 166.234 432.121 166.225 432.102 166.208C432.066 166.179 432.053 166.13 432.068 166.086L436.9 152.6C437.998 150.193 439.73 148.131 441.911 146.634C444.092 145.137 446.64 144.262 449.281 144.103C451.285 143.98 453.194 143.203 454.715 141.892L458.955 138.235C459.463 137.797 460.094 137.546 460.764 137.521C462.384 137.46 465.705 137.333 469.094 137.183C470.943 137.101 486.491 140.831 488.077 141.785L491.3 143.724C491.309 143.73 491.321 143.721 491.319 143.71C491.317 143.702 491.323 143.695 491.332 143.695L496.043 143.984C498.684 144.141 501.232 145.015 503.413 146.512C505.595 148.009 507.327 150.073 508.423 152.48Z" fill="#EBE6FF"/>
</g>
<g filter="url(#filter6_dd_34_62)">
<path d="M530.193 448.104H421.097C418.173 448.101 415.37 446.938 413.303 444.871C411.235 442.803 410.072 440 410.069 437.076V365.507C410.072 362.583 411.235 359.78 413.303 357.712C415.37 355.645 418.173 354.482 421.097 354.479H530.193C533.117 354.482 535.92 355.645 537.987 357.712C540.055 359.78 541.218 362.583 541.221 365.507V437.076C541.218 440 540.055 442.803 537.987 444.871C535.92 446.938 533.117 448.101 530.193 448.104Z" fill="#6EDB64"/>
</g>
<path d="M522.526 363.422H428.767C426.105 363.425 423.553 364.483 421.67 366.365C419.787 368.247 418.727 370.799 418.723 373.461V429.119C418.727 431.782 419.786 434.335 421.669 436.218C423.552 438.101 426.105 439.16 428.767 439.164H488.554C500.223 439.152 511.411 434.512 519.662 426.26C527.913 418.009 532.554 406.821 532.565 395.152V373.461C532.563 370.8 531.504 368.248 529.622 366.365C527.74 364.483 525.188 363.425 522.526 363.422Z" fill="#06081F"/>
<path d="M475.564 398.829C488.036 398.829 498.147 388.718 498.147 376.246C498.147 363.774 488.036 353.663 475.564 353.663C463.092 353.663 452.981 363.774 452.981 376.246C452.981 388.718 463.092 398.829 475.564 398.829Z" fill="#2F2E41"/>
<g filter="url(#filter7_i_34_62)">
<path d="M475.573 401.795C486.715 401.795 495.747 392.763 495.747 381.621C495.747 370.479 486.715 361.447 475.573 361.447C464.431 361.447 455.399 370.479 455.399 381.621C455.399 392.763 464.431 401.795 475.573 401.795Z" fill="white"/>
</g>
<g filter="url(#filter8_dd_34_62)">
<path d="M514.539 425.73C515.369 428.04 514.656 430.656 512.602 432.001C505.481 436.666 497.126 439.172 488.554 439.164H452.386C445.497 439.164 440.691 432.335 443.015 425.849C444.113 423.442 445.845 421.379 448.026 419.881C450.207 418.384 452.755 417.508 455.396 417.348C457.401 417.225 459.31 416.448 460.831 415.136L465.07 411.479C465.578 411.042 466.21 410.79 466.879 410.766C468.487 410.706 471.768 410.581 475.129 410.433C476.992 410.352 492.663 414.115 494.261 415.076L497.413 416.972C497.423 416.978 497.436 416.969 497.434 416.957C497.432 416.947 497.439 416.939 497.449 416.94L502.158 417.228C504.799 417.387 507.347 418.263 509.528 419.761C511.709 421.258 513.441 423.322 514.539 425.73Z" fill="#EBE6FF"/>
</g>
<path d="M496.857 374.546C496.999 373.04 497.063 371.527 497.051 370.015C497.134 367.023 496.586 364.047 495.442 361.281C494.036 358.218 491.53 355.796 488.42 354.497C485.338 353.254 481.894 353.257 478.814 354.505C476.104 352.64 472.964 351.497 469.69 351.183C468.05 351.052 466.402 351.319 464.887 351.962C463.373 352.604 462.036 353.604 460.991 354.875C460.543 355.576 460.035 356.237 459.471 356.849C457.859 358.342 455.41 358.127 453.268 357.822C454.229 358.645 455.19 359.469 456.151 360.292C454.988 360.596 453.825 360.9 452.661 361.204C454.019 362.027 455.376 362.85 456.733 363.674C452.793 366.039 451.002 371.201 451.475 375.89C451.922 380.328 454.066 384.387 456.627 387.995C457.649 385.839 457.429 383.258 457.412 380.829C457.403 380.041 457.451 379.254 457.556 378.473C466.214 380.548 475.26 381.88 484.434 378.584L486.275 374.078C486.534 374.105 486.792 374.13 487.05 374.157L488.117 378.588C490.535 379.577 492.959 380.441 495.383 379.533C495.501 380.217 495.572 380.916 495.626 381.587C495.834 380.784 496.015 379.975 496.178 379.163C496.498 378.991 496.805 378.795 497.096 378.577C497.154 377.229 497.074 375.878 496.857 374.546Z" fill="#2F2E41"/>
<path d="M835.114 20.775H364.571C363.872 20.7742 363.202 20.4963 362.708 20.0022C362.214 19.5081 361.936 18.8381 361.935 18.1393V2.63567C361.936 1.93688 362.214 1.26693 362.708 0.772812C363.202 0.278695 363.872 0.000764961 364.571 0H835.114C835.813 0.000762319 836.483 0.278695 836.977 0.772812C837.471 1.26693 837.749 1.93688 837.75 2.63567V18.1393C837.749 18.8381 837.471 19.508 836.977 20.0022C836.483 20.4963 835.813 20.7742 835.114 20.775Z" fill="url(#paint1_linear_34_62)"/>
<path d="M377.231 13.3732C379.298 13.3732 380.973 11.6979 380.973 9.63126C380.973 7.56462 379.298 5.88928 377.231 5.88928C375.164 5.88928 373.489 7.56462 373.489 9.63126C373.489 11.6979 375.164 13.3732 377.231 13.3732Z" fill="white"/>
<path d="M391.434 13.3732C393.501 13.3732 395.176 11.6979 395.176 9.63126C395.176 7.56462 393.501 5.88928 391.434 5.88928C389.367 5.88928 387.692 7.56462 387.692 9.63126C387.692 11.6979 389.367 13.3732 391.434 13.3732Z" fill="white"/>
<path d="M405.638 13.3732C407.705 13.3732 409.38 11.6979 409.38 9.63126C409.38 7.56462 407.705 5.88928 405.638 5.88928C403.572 5.88928 401.896 7.56462 401.896 9.63126C401.896 11.6979 403.572 13.3732 405.638 13.3732Z" fill="white"/>
<path d="M821.198 7.05576H804.842C804.521 7.05576 804.212 6.9281 803.985 6.7009C803.758 6.47369 803.63 6.16554 803.63 5.84422C803.63 5.52291 803.758 5.21474 803.985 4.98753C804.212 4.76033 804.521 4.63269 804.842 4.63269H821.198C821.519 4.63269 821.827 4.76033 822.054 4.98753C822.281 5.21474 822.409 5.52291 822.409 5.84422C822.409 6.16554 822.281 6.47369 822.054 6.7009C821.827 6.9281 821.519 7.05576 821.198 7.05576Z" fill="white"/>
<path d="M821.198 11.599H804.842C804.683 11.599 804.525 11.5676 804.378 11.5067C804.231 11.4458 804.098 11.3566 803.985 11.2441C803.873 11.1316 803.783 10.998 803.723 10.8511C803.662 10.7041 803.63 10.5465 803.63 10.3874C803.63 10.2283 803.662 10.0708 803.723 9.9238C803.783 9.77681 803.873 9.64325 803.985 9.53075C804.098 9.41825 804.231 9.32901 804.378 9.26813C804.525 9.20724 804.683 9.1759 804.842 9.1759H821.198C821.357 9.1759 821.514 9.20724 821.661 9.26813C821.808 9.32901 821.942 9.41825 822.054 9.53075C822.167 9.64325 822.256 9.77681 822.317 9.9238C822.378 10.0708 822.409 10.2283 822.409 10.3874C822.409 10.5465 822.378 10.7041 822.317 10.8511C822.256 10.998 822.167 11.1316 822.054 11.2441C821.942 11.3566 821.808 11.4458 821.661 11.5067C821.514 11.5676 821.357 11.599 821.198 11.599Z" fill="white"/>
<path d="M821.198 16.1422H804.842C804.521 16.1422 804.212 16.0145 803.985 15.7873C803.758 15.5601 803.63 15.252 803.63 14.9306C803.63 14.6093 803.758 14.3012 803.985 14.074C804.212 13.8468 804.521 13.7191 804.842 13.7191H821.198C821.519 13.7191 821.827 13.8468 822.054 14.074C822.281 14.3012 822.409 14.6093 822.409 14.9306C822.409 15.252 822.281 15.5601 822.054 15.7873C821.827 16.0145 821.519 16.1422 821.198 16.1422Z" fill="white"/>
<g filter="url(#filter9_dd_34_62)">
<path d="M783.705 110.918H602.489C601.712 110.919 600.942 110.767 600.225 110.47C599.507 110.174 598.854 109.739 598.305 109.19C597.755 108.641 597.319 107.989 597.021 107.272C596.724 106.554 596.571 105.785 596.571 105.008C596.571 104.231 596.724 103.462 597.021 102.745C597.319 102.027 597.755 101.375 598.305 100.826C598.854 100.277 599.507 99.8422 600.225 99.5457C600.942 99.2491 601.712 99.097 602.489 99.098H783.705C784.482 99.097 785.251 99.2491 785.969 99.5457C786.687 99.8422 787.339 100.277 787.889 100.826C788.439 101.375 788.875 102.027 789.172 102.745C789.47 103.462 789.623 104.231 789.623 105.008C789.623 105.785 789.47 106.554 789.172 107.272C788.875 107.989 788.439 108.641 787.889 109.19C787.339 109.739 786.687 110.174 785.969 110.47C785.251 110.767 784.482 110.919 783.705 110.918Z" fill="#64C2DB"/>
<path d="M783.705 134.272H602.489C600.922 134.27 599.421 133.646 598.314 132.538C597.208 131.43 596.586 129.928 596.586 128.361C596.586 126.795 597.208 125.293 598.314 124.185C599.421 123.077 600.922 122.453 602.489 122.451H783.705C785.271 122.453 786.772 123.077 787.879 124.185C788.986 125.293 789.608 126.795 789.608 128.361C789.608 129.928 788.986 131.43 787.879 132.538C786.772 133.646 785.271 134.27 783.705 134.272Z" fill="#64C2DB"/>
<path d="M681.042 157.625H602.489C600.922 157.623 599.421 157 598.314 155.892C597.208 154.783 596.586 153.281 596.586 151.715C596.586 150.149 597.208 148.647 598.314 147.538C599.421 146.43 600.922 145.807 602.489 145.805H681.042C681.818 145.804 682.588 145.956 683.306 146.252C684.024 146.549 684.676 146.984 685.226 147.533C685.775 148.082 686.211 148.734 686.509 149.451C686.806 150.169 686.96 150.938 686.96 151.715C686.96 152.492 686.806 153.261 686.509 153.979C686.211 154.696 685.775 155.348 685.226 155.897C684.676 156.446 684.024 156.881 683.306 157.178C682.588 157.474 681.818 157.626 681.042 157.625Z" fill="#64C2DB"/>
<path d="M739.056 159.234C742.794 159.234 745.824 156.204 745.824 152.467C745.824 148.73 742.794 145.7 739.056 145.7C735.319 145.7 732.289 148.73 732.289 152.467C732.289 156.204 735.319 159.234 739.056 159.234Z" fill="#64C2DB"/>
<path d="M761.032 159.234C764.77 159.234 767.8 156.204 767.8 152.467C767.8 148.73 764.77 145.7 761.032 145.7C757.295 145.7 754.265 148.73 754.265 152.467C754.265 156.204 757.295 159.234 761.032 159.234Z" fill="#64C2DB"/>
<path d="M783.009 159.234C786.746 159.234 789.776 156.204 789.776 152.467C789.776 148.73 786.746 145.7 783.009 145.7C779.271 145.7 776.241 148.73 776.241 152.467C776.241 156.204 779.271 159.234 783.009 159.234Z" fill="#64C2DB"/>
</g>
<path d="M739.056 291.091C742.794 291.091 745.824 288.061 745.824 284.324C745.824 280.587 742.794 277.557 739.056 277.557C735.319 277.557 732.289 280.587 732.289 284.324C732.289 288.061 735.319 291.091 739.056 291.091Z" fill="#E6E6E6"/>
<path d="M761.033 291.091C764.77 291.091 767.8 288.061 767.8 284.324C767.8 280.587 764.77 277.557 761.033 277.557C757.295 277.557 754.265 280.587 754.265 284.324C754.265 288.061 757.295 291.091 761.033 291.091Z" fill="#E6E6E6"/>
<path d="M783.009 291.091C786.746 291.091 789.776 288.061 789.776 284.324C789.776 280.587 786.746 277.557 783.009 277.557C779.271 277.557 776.241 280.587 776.241 284.324C776.241 288.061 779.271 291.091 783.009 291.091Z" fill="#E6E6E6"/>
<path d="M739.056 431.455C742.794 431.455 745.824 428.425 745.824 424.688C745.824 420.95 742.794 417.921 739.056 417.921C735.319 417.921 732.289 420.95 732.289 424.688C732.289 428.425 735.319 431.455 739.056 431.455Z" fill="#E6E6E6"/>
<path d="M761.033 431.455C764.77 431.455 767.8 428.425 767.8 424.688C767.8 420.95 764.77 417.921 761.033 417.921C757.295 417.921 754.265 420.95 754.265 424.688C754.265 428.425 757.295 431.455 761.033 431.455Z" fill="#E6E6E6"/>
<path d="M783.009 431.455C786.746 431.455 789.776 428.425 789.776 424.688C789.776 420.95 786.746 417.921 783.009 417.921C779.271 417.921 776.241 420.95 776.241 424.688C776.241 428.425 779.271 431.455 783.009 431.455Z" fill="#E6E6E6"/>
<g filter="url(#filter10_dd_34_62)">
<path d="M546.436 158.305L511.554 136.219C510.888 135.798 510.121 135.563 509.333 135.541C508.545 135.519 507.765 135.709 507.076 136.092C506.387 136.476 505.814 137.037 505.418 137.719C505.021 138.4 504.816 139.176 504.823 139.964L505.166 178.045C505.175 179.057 505.534 180.035 506.182 180.813C506.83 181.591 507.727 182.12 508.721 182.312C509.715 182.504 510.744 182.346 511.635 181.865C512.525 181.384 513.222 180.609 513.607 179.673L518.146 168.634L530.8 193.581C531.401 194.762 532.446 195.655 533.705 196.066C534.965 196.477 536.336 196.371 537.517 195.772C538.699 195.172 539.594 194.129 540.007 192.87C540.419 191.611 540.316 190.24 539.718 189.058L526.776 163.543L543.362 166.335C544.361 166.503 545.387 166.32 546.266 165.818C547.146 165.315 547.824 164.524 548.186 163.578C548.548 162.632 548.572 161.59 548.253 160.629C547.934 159.668 547.292 158.847 546.436 158.305Z" fill="#EBE6FF"/>
</g>
<path opacity="0.2" d="M258 590.991C258 600.374 190.312 612 134.255 612C78.1985 612 55 600.374 55 590.991C55 581.607 100.443 574 156.5 574C212.557 574 258 581.607 258 590.991Z" fill="url(#paint2_linear_34_62)"/>
<g filter="url(#filter11_i_34_62)">
<path d="M104.777 395.409C105.625 394.487 106.26 393.39 106.637 392.197C107.015 391.003 107.126 389.74 106.964 388.499C106.801 387.257 106.368 386.066 105.695 385.01C105.022 383.954 104.125 383.058 103.069 382.385L110.089 352.764L95.2308 358.193L90.8421 385.489C89.8303 387.339 89.5322 389.496 90.0043 391.551C90.4764 393.606 91.6859 395.416 93.4035 396.639C95.1212 397.861 97.2277 398.412 99.3239 398.185C101.42 397.958 103.36 396.971 104.777 395.409Z" fill="white"/>
</g>
<g filter="url(#filter12_dd_34_62)">
<path d="M139.033 265.873C139.991 269.386 139.796 273.113 138.476 276.507L136.237 282.264C135.13 285.112 134.84 288.201 135.097 291.247C135.501 296.052 135.579 303.167 132.841 305.357C128.582 308.764 130.286 308.764 130.286 311.32C130.139 313.153 129.608 314.935 128.727 316.549C127.847 318.164 126.636 319.575 125.174 320.69C122.475 322.715 112.29 355.752 108.174 369.391C107.13 372.852 103.952 375.21 100.338 375.21C95.4324 375.21 91.6931 370.884 91.3606 365.99C91.2991 365.087 91.2121 364.184 91.0996 363.284C90.2477 357.321 93.6552 341.987 95.3589 339.432C97.0627 336.876 95.3589 333.469 95.3589 328.357C95.3589 323.246 98.7664 320.69 98.7664 312.172C98.7664 303.653 108.989 237.207 108.137 229.54C107.537 224.137 112.013 219.157 114.709 216.687C115.928 215.57 117.546 215.058 119.2 215.058C122.727 215.058 125.818 217.419 126.747 220.823L139.033 265.873Z" fill="#EBE6FF"/>
</g>
<g filter="url(#filter13_i_34_62)">
<path d="M109.39 581.98H120.427L125.68 539.406H109.389L109.39 581.98Z" fill="white"/>
</g>
<path d="M105.787 574.42L123.421 573.368V580.923L140.186 592.501C141.014 593.073 141.638 593.895 141.966 594.846C142.294 595.797 142.31 596.829 142.01 597.789C141.711 598.75 141.112 599.59 140.302 600.186C139.491 600.783 138.511 601.104 137.505 601.104H116.511L112.892 593.631L111.479 601.104H103.564L105.787 574.42Z" fill="url(#paint3_linear_34_62)"/>
<g filter="url(#filter14_i_34_62)">
<path d="M171.39 581.98H182.427L187.68 539.406H171.389L171.39 581.98Z" fill="white"/>
</g>
<path d="M167.787 574.42L185.421 573.368V580.923L202.186 592.501C203.014 593.073 203.638 593.895 203.966 594.846C204.294 595.797 204.31 596.829 204.01 597.789C203.711 598.75 203.112 599.59 202.302 600.186C201.491 600.783 200.511 601.104 199.505 601.104H178.511L174.892 593.631L173.479 601.104H165.564L167.787 574.42Z" fill="url(#paint4_linear_34_62)"/>
<path d="M104.627 545.267H104.747L110.87 476.043C109.496 473.394 108.799 470.445 108.841 467.461C108.882 464.476 109.661 461.549 111.107 458.938L111.411 458.388L110.623 454.735C109.611 450.042 110.076 445.151 111.953 440.732L109.933 376.16C102.858 330.309 136.575 300.406 136.575 300.406H187.083L197.927 337.662C201.998 377.328 214.73 419.049 213.044 457.503C211.761 486.755 197.334 513.009 192.419 541.496L192.729 541.653C193.846 542.039 194.325 543.585 193.799 545.108C193.274 546.631 191.942 547.553 190.826 547.168L164.152 546.24C163.035 545.855 162.556 544.308 163.082 542.785C163.607 541.262 164.939 540.34 166.055 540.725L167.869 541.643L181.001 471.845L181.43 459.644L180.546 445.802L159.457 386.541L143.981 463.104L128.173 546.037C128.609 546.432 128.915 546.95 129.051 547.522C129.186 548.094 129.145 548.694 128.933 549.243C128.72 549.791 128.347 550.262 127.861 550.594C127.375 550.926 126.8 551.102 126.212 551.101H104.627C104.244 551.101 103.865 551.025 103.511 550.879C103.157 550.732 102.835 550.517 102.565 550.246C102.294 549.975 102.079 549.654 101.932 549.3C101.786 548.946 101.71 548.567 101.71 548.184C101.71 547.801 101.786 547.421 101.932 547.067C102.079 546.713 102.294 546.392 102.565 546.121C102.835 545.85 103.157 545.635 103.511 545.489C103.865 545.342 104.244 545.267 104.627 545.267Z" fill="#2F2E41"/>
<g filter="url(#filter15_dd_34_62)">
<path d="M100.442 331.548C98.7834 331.548 97.8415 331.223 97.4768 330.526C96.9416 329.502 97.8703 328.165 98.9455 326.616C99.7433 325.605 100.373 324.472 100.809 323.26C101.452 320.688 105.792 255.713 103.196 242.731C102.595 239.727 103.113 235.876 104.732 231.286C109.156 218.751 115.196 214.899 127.226 207.225C128.203 206.602 129.22 205.951 130.277 205.273C131.645 204.394 131.569 201.48 131.488 198.394C131.399 194.964 131.306 191.417 132.986 189.2C133.057 189.107 133.158 189.041 133.272 189.015C137.336 188.075 151.004 186.331 159.099 189.028C159.172 189.053 159.239 189.094 159.294 189.149C161.217 191.072 161.392 194.796 161.562 198.398C161.7 201.355 161.832 204.147 162.92 205.36C171.237 214.63 180.669 214.449 180.765 214.447C181.028 214.44 181.252 214.637 181.279 214.899C184.896 251.696 190.728 307.237 191.968 309.422C192.032 309.522 192.069 309.638 192.072 309.757C192.076 309.876 192.047 309.994 191.988 310.098C190.169 313.497 106.692 331.548 100.442 331.548Z" fill="#EBE6FF"/>
</g>
<g filter="url(#filter16_i_34_62)">
<path d="M154.765 178.599C168.389 178.599 179.433 167.555 179.433 153.931C179.433 140.308 168.389 129.264 154.765 129.264C141.142 129.264 130.098 140.308 130.098 153.931C130.098 167.555 141.142 178.599 154.765 178.599Z" fill="white"/>
</g>
<path d="M87.0023 142.918C91.1729 138.054 93.1558 131.602 96.4899 126.079C99.824 120.556 105.626 115.613 111.756 116.898C115.981 117.784 119.246 121.512 120.9 125.669C122.552 129.826 122.862 134.41 123.152 138.901C123.05 129.672 129.13 120.725 137.506 117.78C145.881 114.836 155.904 118.12 161.167 125.535C163.464 123.406 166.462 122.194 169.593 122.128C172.724 122.063 175.77 123.148 178.154 125.178C182.861 129.386 183.903 137.394 180.441 142.76C178.703 145.372 176.071 147.258 173.04 148.067C170.009 148.875 166.787 148.549 163.979 147.15L162.034 148.939C162.538 150.852 162.354 152.88 161.513 154.671C160.673 156.461 159.23 157.899 157.437 158.733C154.543 159.902 150.457 159.708 149.374 162.745C148.617 164.867 150.031 167.133 151.536 168.763C153.041 170.394 154.827 172.078 155.008 174.335C155.281 177.74 151.762 180.125 148.564 180.843C144.642 181.627 140.576 181.223 136.886 179.683C133.195 178.143 130.049 175.536 127.848 172.197C127.762 172.066 127.669 171.935 127.569 171.803C125.075 168.614 123.257 164.949 122.227 161.034C121.197 157.118 120.976 153.034 121.578 149.03C121.828 147.457 121.576 146.287 120.491 145.914C115.803 144.304 102.669 147.683 98.6938 150.738C94.7185 153.793 91.5353 157.835 87.7065 161.087C83.8774 164.338 78.9982 166.847 74.1365 165.961C70.2428 165.252 66.9304 162.425 64.7023 159.015C62.6012 155.487 61.0315 151.668 60.0437 147.681C68.6537 152.655 80.4376 150.573 87.0023 142.918Z" fill="#2F2E41"/>
<g filter="url(#filter17_i_34_62)">
<path d="M194.31 395.409C193.463 394.487 192.828 393.39 192.45 392.197C192.073 391.003 191.961 389.74 192.124 388.499C192.287 387.257 192.72 386.066 193.393 385.01C194.066 383.954 194.962 383.058 196.019 382.385L188.998 352.764L203.857 358.193L208.245 385.489C209.257 387.339 209.555 389.496 209.083 391.551C208.611 393.605 207.402 395.416 205.684 396.639C203.966 397.861 201.86 398.412 199.764 398.185C197.667 397.958 195.727 396.971 194.31 395.409Z" fill="white"/>
</g>
<g filter="url(#filter18_dd_34_62)">
<path d="M160.054 265.873C159.096 269.386 159.291 273.113 160.611 276.507L162.85 282.264C163.958 285.112 164.247 288.201 163.991 291.247C163.586 296.052 163.509 303.167 166.246 305.357C170.505 308.764 168.802 308.764 168.802 311.32C168.948 313.153 169.479 314.935 170.36 316.549C171.24 318.164 172.451 319.575 173.913 320.69C176.612 322.715 186.798 355.752 190.913 369.391C191.957 372.852 195.135 375.21 198.75 375.21C203.655 375.21 207.394 370.884 207.727 365.99C207.788 365.087 207.875 364.184 207.988 363.284C208.84 357.321 205.432 341.987 203.728 339.432C202.025 336.876 203.728 333.469 203.728 328.357C203.728 323.246 200.321 320.69 200.321 312.172C200.321 303.653 190.098 237.207 190.95 229.54C191.551 224.137 187.074 219.157 184.378 216.687C183.159 215.57 181.541 215.058 179.888 215.058C176.36 215.058 173.269 217.419 172.341 220.823L160.054 265.873Z" fill="#EBE6FF"/>
</g>
</g>
<defs>
<filter id="filter0_dd_34_62" x="402.069" y="206.363" width="147.152" height="109.625" filterUnits="userSpaceOnUse" color-interpolation-filters="sRGB">
<feFlood flood-opacity="0" result="BackgroundImageFix"/>
<feColorMatrix in="SourceAlpha" type="matrix" values="0 0 0 0 0 0 0 0 0 0 0 0 0 0 0 0 0 0 127 0" result="hardAlpha"/>
<feOffset/>
<feGaussianBlur stdDeviation="4"/>
<feComposite in2="hardAlpha" operator="out"/>
<feColorMatrix type="matrix" values="0 0 0 0 0.968627 0 0 0 0 0.258824 0 0 0 0 0.599529 0 0 0 1 0"/>
<feBlend mode="normal" in2="BackgroundImageFix" result="effect1_dropShadow_34_62"/>
<feColorMatrix in="SourceAlpha" type="matrix" values="0 0 0 0 0 0 0 0 0 0 0 0 0 0 0 0 0 0 127 0" result="hardAlpha"/>
<feOffset/>
<feGaussianBlur stdDeviation="1"/>
<feComposite in2="hardAlpha" operator="out"/>
<feColorMatrix type="matrix" values="0 0 0 0 1 0 0 0 0 1 0 0 0 0 1 0 0 0 1 0"/>
<feBlend mode="normal" in2="effect1_dropShadow_34_62" result="effect2_dropShadow_34_62"/>
<feBlend mode="normal" in="SourceGraphic" in2="effect2_dropShadow_34_62" result="shape"/>
</filter>
<filter id="filter1_i_34_62" x="453.234" y="229.719" width="33.9463" height="37.9462" filterUnits="userSpaceOnUse" color-interpolation-filters="sRGB">
<feFlood flood-opacity="0" result="BackgroundImageFix"/>
<feBlend mode="normal" in="SourceGraphic" in2="BackgroundImageFix" result="shape"/>
<feColorMatrix in="SourceAlpha" type="matrix" values="0 0 0 0 0 0 0 0 0 0 0 0 0 0 0 0 0 0 127 0" result="hardAlpha"/>
<feOffset dy="4"/>
<feGaussianBlur stdDeviation="5"/>
<feComposite in2="hardAlpha" operator="arithmetic" k2="-1" k3="1"/>
<feColorMatrix type="matrix" values="0 0 0 0 0 0 0 0 0 0 0 0 0 0 0 0 0 0 0.25 0"/>
<feBlend mode="normal" in2="shape" result="effect1_innerShadow_34_62"/>
</filter>
<filter id="filter2_dd_34_62" x="422.228" y="257.817" width="104.771" height="57.231" filterUnits="userSpaceOnUse" color-interpolation-filters="sRGB">
<feFlood flood-opacity="0" result="BackgroundImageFix"/>
<feColorMatrix in="SourceAlpha" type="matrix" values="0 0 0 0 0 0 0 0 0 0 0 0 0 0 0 0 0 0 127 0" result="hardAlpha"/>
<feOffset dy="2"/>
<feGaussianBlur stdDeviation="7"/>
<feComposite in2="hardAlpha" operator="out"/>
<feColorMatrix type="matrix" values="0 0 0 0 0.386851 0 0 0 0 0.262552 0 0 0 0 0.8875 0 0 0 0.7 0"/>
<feBlend mode="normal" in2="BackgroundImageFix" result="effect1_dropShadow_34_62"/>
<feColorMatrix in="SourceAlpha" type="matrix" values="0 0 0 0 0 0 0 0 0 0 0 0 0 0 0 0 0 0 127 0" result="hardAlpha"/>
<feOffset dy="4"/>
<feGaussianBlur stdDeviation="2"/>
<feComposite in2="hardAlpha" operator="out"/>
<feColorMatrix type="matrix" values="0 0 0 0 1 0 0 0 0 1 0 0 0 0 1 0 0 0 0.25 0"/>
<feBlend mode="normal" in2="effect1_dropShadow_34_62" result="effect2_dropShadow_34_62"/>
<feBlend mode="normal" in="SourceGraphic" in2="effect2_dropShadow_34_62" result="shape"/>
</filter>
<filter id="filter3_dd_34_62" x="402.069" y="73.549" width="147.152" height="109.625" filterUnits="userSpaceOnUse" color-interpolation-filters="sRGB">
<feFlood flood-opacity="0" result="BackgroundImageFix"/>
<feColorMatrix in="SourceAlpha" type="matrix" values="0 0 0 0 0 0 0 0 0 0 0 0 0 0 0 0 0 0 127 0" result="hardAlpha"/>
<feOffset/>
<feGaussianBlur stdDeviation="4"/>
<feComposite in2="hardAlpha" operator="out"/>
<feColorMatrix type="matrix" values="0 0 0 0 0.392157 0 0 0 0 0.760784 0 0 0 0 0.858824 0 0 0 1 0"/>
<feBlend mode="normal" in2="BackgroundImageFix" result="effect1_dropShadow_34_62"/>
<feColorMatrix in="SourceAlpha" type="matrix" values="0 0 0 0 0 0 0 0 0 0 0 0 0 0 0 0 0 0 127 0" result="hardAlpha"/>
<feOffset/>
<feGaussianBlur stdDeviation="1"/>
<feComposite in2="hardAlpha" operator="out"/>
<feColorMatrix type="matrix" values="0 0 0 0 1 0 0 0 0 1 0 0 0 0 1 0 0 0 1 0"/>
<feBlend mode="normal" in2="effect1_dropShadow_34_62" result="effect2_dropShadow_34_62"/>
<feBlend mode="normal" in="SourceGraphic" in2="effect2_dropShadow_34_62" result="shape"/>
</filter>
<filter id="filter4_i_34_62" x="451.121" y="98.748" width="32.9189" height="36.9191" filterUnits="userSpaceOnUse" color-interpolation-filters="sRGB">
<feFlood flood-opacity="0" result="BackgroundImageFix"/>
<feBlend mode="normal" in="SourceGraphic" in2="BackgroundImageFix" result="shape"/>
<feColorMatrix in="SourceAlpha" type="matrix" values="0 0 0 0 0 0 0 0 0 0 0 0 0 0 0 0 0 0 127 0" result="hardAlpha"/>
<feOffset dy="4"/>
<feGaussianBlur stdDeviation="5"/>
<feComposite in2="hardAlpha" operator="arithmetic" k2="-1" k3="1"/>
<feColorMatrix type="matrix" values="0 0 0 0 0 0 0 0 0 0 0 0 0 0 0 0 0 0 0.25 0"/>
<feBlend mode="normal" in2="shape" result="effect1_innerShadow_34_62"/>
</filter>
<filter id="filter5_dd_34_62" x="418.062" y="125.182" width="104.933" height="57.0521" filterUnits="userSpaceOnUse" color-interpolation-filters="sRGB">
<feFlood flood-opacity="0" result="BackgroundImageFix"/>
<feColorMatrix in="SourceAlpha" type="matrix" values="0 0 0 0 0 0 0 0 0 0 0 0 0 0 0 0 0 0 127 0" result="hardAlpha"/>
<feOffset dy="2"/>
<feGaussianBlur stdDeviation="7"/>
<feComposite in2="hardAlpha" operator="out"/>
<feColorMatrix type="matrix" values="0 0 0 0 0.386851 0 0 0 0 0.262552 0 0 0 0 0.8875 0 0 0 0.7 0"/>
<feBlend mode="normal" in2="BackgroundImageFix" result="effect1_dropShadow_34_62"/>
<feColorMatrix in="SourceAlpha" type="matrix" values="0 0 0 0 0 0 0 0 0 0 0 0 0 0 0 0 0 0 127 0" result="hardAlpha"/>
<feOffset dy="4"/>
<feGaussianBlur stdDeviation="2"/>
<feComposite in2="hardAlpha" operator="out"/>
<feColorMatrix type="matrix" values="0 0 0 0 1 0 0 0 0 1 0 0 0 0 1 0 0 0 0.25 0"/>
<feBlend mode="normal" in2="effect1_dropShadow_34_62" result="effect2_dropShadow_34_62"/>
<feBlend mode="normal" in="SourceGraphic" in2="effect2_dropShadow_34_62" result="shape"/>
</filter>
<filter id="filter6_dd_34_62" x="402.069" y="346.479" width="147.152" height="109.625" filterUnits="userSpaceOnUse" color-interpolation-filters="sRGB">
<feFlood flood-opacity="0" result="BackgroundImageFix"/>
<feColorMatrix in="SourceAlpha" type="matrix" values="0 0 0 0 0 0 0 0 0 0 0 0 0 0 0 0 0 0 127 0" result="hardAlpha"/>
<feOffset/>
<feGaussianBlur stdDeviation="4"/>
<feComposite in2="hardAlpha" operator="out"/>
<feColorMatrix type="matrix" values="0 0 0 0 0.42949 0 0 0 0 0.858824 0 0 0 0 0.392157 0 0 0 1 0"/>
<feBlend mode="normal" in2="BackgroundImageFix" result="effect1_dropShadow_34_62"/>
<feColorMatrix in="SourceAlpha" type="matrix" values="0 0 0 0 0 0 0 0 0 0 0 0 0 0 0 0 0 0 127 0" result="hardAlpha"/>
<feOffset/>
<feGaussianBlur stdDeviation="1"/>
<feComposite in2="hardAlpha" operator="out"/>
<feColorMatrix type="matrix" values="0 0 0 0 1 0 0 0 0 1 0 0 0 0 1 0 0 0 1 0"/>
<feBlend mode="normal" in2="effect1_dropShadow_34_62" result="effect2_dropShadow_34_62"/>
<feBlend mode="normal" in="SourceGraphic" in2="effect2_dropShadow_34_62" result="shape"/>
</filter>
<filter id="filter7_i_34_62" x="455.399" y="361.447" width="40.3484" height="44.3484" filterUnits="userSpaceOnUse" color-interpolation-filters="sRGB">
<feFlood flood-opacity="0" result="BackgroundImageFix"/>
<feBlend mode="normal" in="SourceGraphic" in2="BackgroundImageFix" result="shape"/>
<feColorMatrix in="SourceAlpha" type="matrix" values="0 0 0 0 0 0 0 0 0 0 0 0 0 0 0 0 0 0 127 0" result="hardAlpha"/>
<feOffset dy="4"/>
<feGaussianBlur stdDeviation="5"/>
<feComposite in2="hardAlpha" operator="arithmetic" k2="-1" k3="1"/>
<feColorMatrix type="matrix" values="0 0 0 0 0 0 0 0 0 0 0 0 0 0 0 0 0 0 0.25 0"/>
<feBlend mode="normal" in2="shape" result="effect1_innerShadow_34_62"/>
</filter>
<filter id="filter8_dd_34_62" x="428.423" y="398.432" width="100.455" height="56.7318" filterUnits="userSpaceOnUse" color-interpolation-filters="sRGB">
<feFlood flood-opacity="0" result="BackgroundImageFix"/>
<feColorMatrix in="SourceAlpha" type="matrix" values="0 0 0 0 0 0 0 0 0 0 0 0 0 0 0 0 0 0 127 0" result="hardAlpha"/>
<feOffset dy="2"/>
<feGaussianBlur stdDeviation="7"/>
<feComposite in2="hardAlpha" operator="out"/>
<feColorMatrix type="matrix" values="0 0 0 0 0.386851 0 0 0 0 0.262552 0 0 0 0 0.8875 0 0 0 0.7 0"/>
<feBlend mode="normal" in2="BackgroundImageFix" result="effect1_dropShadow_34_62"/>
<feColorMatrix in="SourceAlpha" type="matrix" values="0 0 0 0 0 0 0 0 0 0 0 0 0 0 0 0 0 0 127 0" result="hardAlpha"/>
<feOffset dy="4"/>
<feGaussianBlur stdDeviation="2"/>
<feComposite in2="hardAlpha" operator="out"/>
<feColorMatrix type="matrix" values="0 0 0 0 1 0 0 0 0 1 0 0 0 0 1 0 0 0 0.25 0"/>
<feBlend mode="normal" in2="effect1_dropShadow_34_62" result="effect2_dropShadow_34_62"/>
<feBlend mode="normal" in="SourceGraphic" in2="effect2_dropShadow_34_62" result="shape"/>
</filter>
<filter id="filter9_dd_34_62" x="588.571" y="91.098" width="209.205" height="76.1362" filterUnits="userSpaceOnUse" color-interpolation-filters="sRGB">
<feFlood flood-opacity="0" result="BackgroundImageFix"/>
<feColorMatrix in="SourceAlpha" type="matrix" values="0 0 0 0 0 0 0 0 0 0 0 0 0 0 0 0 0 0 127 0" result="hardAlpha"/>
<feOffset/>
<feGaussianBlur stdDeviation="4"/>
<feComposite in2="hardAlpha" operator="out"/>
<feColorMatrix type="matrix" values="0 0 0 0 0.392157 0 0 0 0 0.760784 0 0 0 0 0.858824 0 0 0 1 0"/>
<feBlend mode="normal" in2="BackgroundImageFix" result="effect1_dropShadow_34_62"/>
<feColorMatrix in="SourceAlpha" type="matrix" values="0 0 0 0 0 0 0 0 0 0 0 0 0 0 0 0 0 0 127 0" result="hardAlpha"/>
<feOffset/>
<feGaussianBlur stdDeviation="1"/>
<feComposite in2="hardAlpha" operator="out"/>
<feColorMatrix type="matrix" values="0 0 0 0 1 0 0 0 0 1 0 0 0 0 1 0 0 0 1 0"/>
<feBlend mode="normal" in2="effect1_dropShadow_34_62" result="effect2_dropShadow_34_62"/>
<feBlend mode="normal" in="SourceGraphic" in2="effect2_dropShadow_34_62" result="shape"/>
</filter>
<filter id="filter10_dd_34_62" x="490.823" y="123.539" width="71.6531" height="88.7733" filterUnits="userSpaceOnUse" color-interpolation-filters="sRGB">
<feFlood flood-opacity="0" result="BackgroundImageFix"/>
<feColorMatrix in="SourceAlpha" type="matrix" values="0 0 0 0 0 0 0 0 0 0 0 0 0 0 0 0 0 0 127 0" result="hardAlpha"/>
<feOffset dy="2"/>
<feGaussianBlur stdDeviation="7"/>
<feComposite in2="hardAlpha" operator="out"/>
<feColorMatrix type="matrix" values="0 0 0 0 0.386851 0 0 0 0 0.262552 0 0 0 0 0.8875 0 0 0 0.7 0"/>
<feBlend mode="normal" in2="BackgroundImageFix" result="effect1_dropShadow_34_62"/>
<feColorMatrix in="SourceAlpha" type="matrix" values="0 0 0 0 0 0 0 0 0 0 0 0 0 0 0 0 0 0 127 0" result="hardAlpha"/>
<feOffset dy="4"/>
<feGaussianBlur stdDeviation="2"/>
<feComposite in2="hardAlpha" operator="out"/>
<feColorMatrix type="matrix" values="0 0 0 0 1 0 0 0 0 1 0 0 0 0 1 0 0 0 0.25 0"/>
<feBlend mode="normal" in2="effect1_dropShadow_34_62" result="effect2_dropShadow_34_62"/>
<feBlend mode="normal" in="SourceGraphic" in2="effect2_dropShadow_34_62" result="shape"/>
</filter>
<filter id="filter11_i_34_62" x="89.7856" y="352.764" width="20.3037" height="49.4706" filterUnits="userSpaceOnUse" color-interpolation-filters="sRGB">
<feFlood flood-opacity="0" result="BackgroundImageFix"/>
<feBlend mode="normal" in="SourceGraphic" in2="BackgroundImageFix" result="shape"/>
<feColorMatrix in="SourceAlpha" type="matrix" values="0 0 0 0 0 0 0 0 0 0 0 0 0 0 0 0 0 0 127 0" result="hardAlpha"/>
<feOffset dy="4"/>
<feGaussianBlur stdDeviation="5"/>
<feComposite in2="hardAlpha" operator="arithmetic" k2="-1" k3="1"/>
<feColorMatrix type="matrix" values="0 0 0 0 0 0 0 0 0 0 0 0 0 0 0 0 0 0 0.25 0"/>
<feBlend mode="normal" in2="shape" result="effect1_innerShadow_34_62"/>
</filter>
<filter id="filter12_dd_34_62" x="76.9651" y="203.058" width="76.667" height="188.152" filterUnits="userSpaceOnUse" color-interpolation-filters="sRGB">
<feFlood flood-opacity="0" result="BackgroundImageFix"/>
<feColorMatrix in="SourceAlpha" type="matrix" values="0 0 0 0 0 0 0 0 0 0 0 0 0 0 0 0 0 0 127 0" result="hardAlpha"/>
<feOffset dy="2"/>
<feGaussianBlur stdDeviation="7"/>
<feComposite in2="hardAlpha" operator="out"/>
<feColorMatrix type="matrix" values="0 0 0 0 0.386851 0 0 0 0 0.262552 0 0 0 0 0.8875 0 0 0 0.7 0"/>
<feBlend mode="normal" in2="BackgroundImageFix" result="effect1_dropShadow_34_62"/>
<feColorMatrix in="SourceAlpha" type="matrix" values="0 0 0 0 0 0 0 0 0 0 0 0 0 0 0 0 0 0 127 0" result="hardAlpha"/>
<feOffset dy="4"/>
<feGaussianBlur stdDeviation="2"/>
<feComposite in2="hardAlpha" operator="out"/>
<feColorMatrix type="matrix" values="0 0 0 0 1 0 0 0 0 1 0 0 0 0 1 0 0 0 0.25 0"/>
<feBlend mode="normal" in2="effect1_dropShadow_34_62" result="effect2_dropShadow_34_62"/>
<feBlend mode="normal" in="SourceGraphic" in2="effect2_dropShadow_34_62" result="shape"/>
</filter>
<filter id="filter13_i_34_62" x="109.389" y="539.406" width="16.291" height="46.574" filterUnits="userSpaceOnUse" color-interpolation-filters="sRGB">
<feFlood flood-opacity="0" result="BackgroundImageFix"/>
<feBlend mode="normal" in="SourceGraphic" in2="BackgroundImageFix" result="shape"/>
<feColorMatrix in="SourceAlpha" type="matrix" values="0 0 0 0 0 0 0 0 0 0 0 0 0 0 0 0 0 0 127 0" result="hardAlpha"/>
<feOffset dy="4"/>
<feGaussianBlur stdDeviation="5"/>
<feComposite in2="hardAlpha" operator="arithmetic" k2="-1" k3="1"/>
<feColorMatrix type="matrix" values="0 0 0 0 0 0 0 0 0 0 0 0 0 0 0 0 0 0 0.25 0"/>
<feBlend mode="normal" in2="shape" result="effect1_innerShadow_34_62"/>
</filter>
<filter id="filter14_i_34_62" x="171.389" y="539.406" width="16.291" height="46.574" filterUnits="userSpaceOnUse" color-interpolation-filters="sRGB">
<feFlood flood-opacity="0" result="BackgroundImageFix"/>
<feBlend mode="normal" in="SourceGraphic" in2="BackgroundImageFix" result="shape"/>
<feColorMatrix in="SourceAlpha" type="matrix" values="0 0 0 0 0 0 0 0 0 0 0 0 0 0 0 0 0 0 127 0" result="hardAlpha"/>
<feOffset dy="4"/>
<feGaussianBlur stdDeviation="5"/>
<feComposite in2="hardAlpha" operator="arithmetic" k2="-1" k3="1"/>
<feColorMatrix type="matrix" values="0 0 0 0 0 0 0 0 0 0 0 0 0 0 0 0 0 0 0.25 0"/>
<feBlend mode="normal" in2="shape" result="effect1_innerShadow_34_62"/>
</filter>
<filter id="filter15_dd_34_62" x="83.3208" y="175.588" width="122.752" height="171.96" filterUnits="userSpaceOnUse" color-interpolation-filters="sRGB">
<feFlood flood-opacity="0" result="BackgroundImageFix"/>
<feColorMatrix in="SourceAlpha" type="matrix" values="0 0 0 0 0 0 0 0 0 0 0 0 0 0 0 0 0 0 127 0" result="hardAlpha"/>
<feOffset dy="2"/>
<feGaussianBlur stdDeviation="7"/>
<feComposite in2="hardAlpha" operator="out"/>
<feColorMatrix type="matrix" values="0 0 0 0 0.386851 0 0 0 0 0.262552 0 0 0 0 0.8875 0 0 0 0.7 0"/>
<feBlend mode="normal" in2="BackgroundImageFix" result="effect1_dropShadow_34_62"/>
<feColorMatrix in="SourceAlpha" type="matrix" values="0 0 0 0 0 0 0 0 0 0 0 0 0 0 0 0 0 0 127 0" result="hardAlpha"/>
<feOffset dy="4"/>
<feGaussianBlur stdDeviation="2"/>
<feComposite in2="hardAlpha" operator="out"/>
<feColorMatrix type="matrix" values="0 0 0 0 1 0 0 0 0 1 0 0 0 0 1 0 0 0 0.25 0"/>
<feBlend mode="normal" in2="effect1_dropShadow_34_62" result="effect2_dropShadow_34_62"/>
<feBlend mode="normal" in="SourceGraphic" in2="effect2_dropShadow_34_62" result="shape"/>
</filter>
<filter id="filter16_i_34_62" x="130.098" y="129.264" width="49.3347" height="53.3347" filterUnits="userSpaceOnUse" color-interpolation-filters="sRGB">
<feFlood flood-opacity="0" result="BackgroundImageFix"/>
<feBlend mode="normal" in="SourceGraphic" in2="BackgroundImageFix" result="shape"/>
<feColorMatrix in="SourceAlpha" type="matrix" values="0 0 0 0 0 0 0 0 0 0 0 0 0 0 0 0 0 0 127 0" result="hardAlpha"/>
<feOffset dy="4"/>
<feGaussianBlur stdDeviation="5"/>
<feComposite in2="hardAlpha" operator="arithmetic" k2="-1" k3="1"/>
<feColorMatrix type="matrix" values="0 0 0 0 0 0 0 0 0 0 0 0 0 0 0 0 0 0 0.25 0"/>
<feBlend mode="normal" in2="shape" result="effect1_innerShadow_34_62"/>
</filter>
<filter id="filter17_i_34_62" x="188.998" y="352.764" width="20.3037" height="49.4705" filterUnits="userSpaceOnUse" color-interpolation-filters="sRGB">
<feFlood flood-opacity="0" result="BackgroundImageFix"/>
<feBlend mode="normal" in="SourceGraphic" in2="BackgroundImageFix" result="shape"/>
<feColorMatrix in="SourceAlpha" type="matrix" values="0 0 0 0 0 0 0 0 0 0 0 0 0 0 0 0 0 0 127 0" result="hardAlpha"/>
<feOffset dy="4"/>
<feGaussianBlur stdDeviation="5"/>
<feComposite in2="hardAlpha" operator="arithmetic" k2="-1" k3="1"/>
<feColorMatrix type="matrix" values="0 0 0 0 0 0 0 0 0 0 0 0 0 0 0 0 0 0 0.25 0"/>
<feBlend mode="normal" in2="shape" result="effect1_innerShadow_34_62"/>
</filter>
<filter id="filter18_dd_34_62" x="145.455" y="203.058" width="76.667" height="188.152" filterUnits="userSpaceOnUse" color-interpolation-filters="sRGB">
<feFlood flood-opacity="0" result="BackgroundImageFix"/>
<feColorMatrix in="SourceAlpha" type="matrix" values="0 0 0 0 0 0 0 0 0 0 0 0 0 0 0 0 0 0 127 0" result="hardAlpha"/>
<feOffset dy="2"/>
<feGaussianBlur stdDeviation="7"/>
<feComposite in2="hardAlpha" operator="out"/>
<feColorMatrix type="matrix" values="0 0 0 0 0.386851 0 0 0 0 0.262552 0 0 0 0 0.8875 0 0 0 0.7 0"/>
<feBlend mode="normal" in2="BackgroundImageFix" result="effect1_dropShadow_34_62"/>
<feColorMatrix in="SourceAlpha" type="matrix" values="0 0 0 0 0 0 0 0 0 0 0 0 0 0 0 0 0 0 127 0" result="hardAlpha"/>
<feOffset dy="4"/>
<feGaussianBlur stdDeviation="2"/>
<feComposite in2="hardAlpha" operator="out"/>
<feColorMatrix type="matrix" values="0 0 0 0 1 0 0 0 0 1 0 0 0 0 1 0 0 0 0.25 0"/>
<feBlend mode="normal" in2="effect1_dropShadow_34_62" result="effect2_dropShadow_34_62"/>
<feBlend mode="normal" in="SourceGraphic" in2="effect2_dropShadow_34_62" result="shape"/>
</filter>
<linearGradient id="paint0_linear_34_62" x1="238" y1="0" x2="238" y2="525" gradientUnits="userSpaceOnUse">
<stop stop-color="#E4DDFF"/>
<stop offset="1" stop-color="#E4DDFF" stop-opacity="0"/>
</linearGradient>
<linearGradient id="paint1_linear_34_62" x1="361.973" y1="-0.209816" x2="837.831" y2="22.6003" gradientUnits="userSpaceOnUse">
<stop stop-color="#6642F6"/>
<stop offset="1" stop-color="#F74299"/>
</linearGradient>
<linearGradient id="paint2_linear_34_62" x1="147.661" y1="610.308" x2="144.458" y2="572.953" gradientUnits="userSpaceOnUse">
<stop stop-color="#E4DDFF"/>
<stop offset="1" stop-color="#E4DDFF" stop-opacity="0"/>
</linearGradient>
<linearGradient id="paint3_linear_34_62" x1="125.645" y1="574.858" x2="110.592" y2="594.318" gradientUnits="userSpaceOnUse">
<stop stop-color="#2F2E41"/>
<stop offset="1" stop-color="#747476"/>
</linearGradient>
<linearGradient id="paint4_linear_34_62" x1="187.645" y1="574.858" x2="172.592" y2="594.318" gradientUnits="userSpaceOnUse">
<stop stop-color="#2F2E41"/>
<stop offset="1" stop-color="#747476"/>
</linearGradient>
<clipPath id="clip0_34_62">
<rect width="838" height="628" fill="white"/>
</clipPath>
</defs>
</svg>
