<svg width="785" height="715" viewBox="0 0 785 715" fill="none" xmlns="http://www.w3.org/2000/svg">
<rect width="785" height="715" fill="#06081F"/>
<path opacity="0.2" d="M683.522 356.413C683.522 409.992 590.986 476.372 514.35 476.372C437.715 476.372 406 409.992 406 356.413C406 302.834 468.125 259.4 544.761 259.4C621.397 259.4 683.522 302.834 683.522 356.413Z" fill="url(#paint0_linear_82_238)"/>
<path opacity="0.2" d="M749.504 308.333C766.805 376.714 691.314 472.332 633.072 487.068C574.829 501.804 513.589 458.316 496.288 389.935C478.988 321.554 512.177 254.175 570.42 239.439C628.662 224.703 732.203 239.952 749.504 308.333Z" fill="url(#paint1_linear_82_238)"/>
<ellipse opacity="0.1" cx="718.843" cy="488.706" rx="37.003" ry="6.16716" fill="url(#paint2_linear_82_238)"/>
<path d="M608.756 241.612C611.755 248.094 605.401 249.931 598.122 253.405C590.843 256.88 585.396 260.677 582.398 254.194C579.399 247.712 576.966 234.845 587.263 229.93C597.915 224.845 605.757 235.129 608.756 241.612Z" fill="#2F2E41"/>
<g filter="url(#filter0_i_82_238)">
<path d="M593.818 254.354C599.392 254.354 603.91 249.961 603.91 244.543C603.91 239.124 599.392 234.731 593.818 234.731C588.245 234.731 583.727 239.124 583.727 244.543C583.727 249.961 588.245 254.354 593.818 254.354Z" fill="white"/>
</g>
<path d="M643.09 288.633C642.746 288.186 642.402 287.747 642.054 287.32C641.605 286.764 641.153 286.226 640.699 285.705C635.548 279.79 630.07 276.065 624.038 275.667H624.03L623.941 275.659L611.921 287.32L607.834 291.282L607.924 291.499L610.128 296.964H648.762C647.021 294.088 645.128 291.307 643.09 288.633Z" fill="#2F2E41"/>
<path d="M583.043 248.748L586.599 247.033L586.104 241.771L588.482 246.126L590.182 245.307L589.893 242.237L591.28 244.777L603.91 238.689C602.724 236.099 600.583 234.099 597.959 233.129C595.336 232.158 592.443 232.296 589.919 233.513L588.088 234.395C585.564 235.612 583.614 237.808 582.668 240.5C581.722 243.191 581.857 246.158 583.043 248.748Z" fill="#2F2E41"/>
<g filter="url(#filter1_dd_82_238)">
<path d="M665.105 428.156H458.617C456.856 428.154 455.167 427.453 453.922 426.207C452.676 424.961 451.976 423.272 451.974 421.509V303.872C451.974 294.483 459.585 286.872 468.974 286.872L654.749 286.872C664.138 286.872 671.749 294.483 671.749 303.872V421.509C671.747 423.272 671.046 424.961 669.801 426.207C668.555 427.453 666.867 428.154 665.105 428.156Z" fill="#E4DDFF"/>
</g>
<path d="M465.138 421.428H658.584C660.291 421.428 661.928 420.749 663.135 419.54C664.343 418.33 665.021 416.69 665.021 414.98V309.579C665.021 307.869 664.343 306.228 663.135 305.019C661.928 303.81 660.291 303.131 658.584 303.131H465.138C463.431 303.131 461.794 303.81 460.587 305.019C459.379 306.228 458.701 307.869 458.701 309.579V414.98C458.701 416.69 459.379 418.33 460.587 419.54C461.794 420.749 463.431 421.428 465.138 421.428Z" fill="white"/>
<path d="M671.749 296.964H451.974V293.566C451.976 291.791 452.68 290.089 453.93 288.834C455.18 287.579 456.874 286.873 458.641 286.872H665.081C666.848 286.873 668.543 287.579 669.793 288.834C671.043 290.089 671.746 291.791 671.749 293.566V296.964Z" fill="url(#paint3_linear_82_238)"/>
<path d="M463.747 293.6C464.676 293.6 465.429 292.847 465.429 291.918C465.429 290.989 464.676 290.236 463.747 290.236C462.818 290.236 462.065 290.989 462.065 291.918C462.065 292.847 462.818 293.6 463.747 293.6Z" fill="white"/>
<path d="M470.475 293.6C471.404 293.6 472.157 292.847 472.157 291.918C472.157 290.989 471.404 290.236 470.475 290.236C469.546 290.236 468.793 290.989 468.793 291.918C468.793 292.847 469.546 293.6 470.475 293.6Z" fill="white"/>
<path d="M477.203 293.6C478.132 293.6 478.885 292.847 478.885 291.918C478.885 290.989 478.132 290.236 477.203 290.236C476.274 290.236 475.521 290.989 475.521 291.918C475.521 292.847 476.274 293.6 477.203 293.6Z" fill="white"/>
<path d="M568.087 398.441H550.589C549.564 398.44 548.581 398.042 547.857 397.333C547.132 396.624 546.724 395.664 546.723 394.661V377.553C546.724 376.55 547.132 375.59 547.857 374.881C548.581 374.172 549.564 373.774 550.589 373.773H568.087C569.112 373.774 570.094 374.172 570.819 374.881C571.544 375.59 571.951 376.55 571.952 377.553V394.661C571.951 395.664 571.544 396.624 570.819 397.333C570.094 398.042 569.112 398.44 568.087 398.441ZM550.589 374.568C549.78 374.569 549.004 374.884 548.432 375.443C547.86 376.003 547.538 376.761 547.537 377.553V394.661C547.538 395.453 547.86 396.211 548.432 396.771C549.004 397.33 549.78 397.645 550.589 397.646H568.087C568.896 397.645 569.672 397.33 570.244 396.771C570.816 396.211 571.138 395.453 571.139 394.661V377.553C571.138 376.761 570.816 376.003 570.244 375.443C569.672 374.884 568.896 374.569 568.087 374.568H550.589Z" fill="#CCCCCC"/>
<path d="M564.577 393.956H554.1C553.779 393.956 553.472 393.825 553.245 393.593C553.018 393.36 552.891 393.045 552.891 392.717V379.497C552.891 379.169 553.018 378.854 553.245 378.621C553.472 378.389 553.779 378.258 554.1 378.258H561.691C561.967 378.258 562.234 378.355 562.449 378.531L565.334 380.908C565.475 381.024 565.589 381.171 565.667 381.338C565.746 381.506 565.786 381.689 565.786 381.874V392.717C565.785 393.045 565.658 393.36 565.431 393.593C565.204 393.825 564.897 393.956 564.577 393.956ZM554.1 379.084C553.993 379.084 553.89 379.128 553.815 379.205C553.739 379.283 553.697 379.388 553.697 379.497V392.717C553.697 392.826 553.739 392.931 553.815 393.009C553.89 393.086 553.993 393.13 554.1 393.13H564.577C564.684 393.13 564.786 393.086 564.861 393.009C564.937 392.931 564.98 392.826 564.98 392.717V381.874C564.98 381.812 564.966 381.751 564.94 381.696C564.914 381.64 564.876 381.591 564.829 381.552L561.943 379.175C561.872 379.116 561.783 379.084 561.691 379.084H554.1Z" fill="#CCCCCC"/>
<path d="M562.577 384.425H556.099C555.991 384.425 555.888 384.366 555.812 384.261C555.736 384.156 555.694 384.013 555.694 383.864C555.694 383.716 555.736 383.573 555.812 383.468C555.888 383.363 555.991 383.304 556.099 383.304H562.577C562.685 383.304 562.788 383.363 562.864 383.468C562.94 383.573 562.982 383.716 562.982 383.864C562.982 384.013 562.94 384.156 562.864 384.261C562.788 384.366 562.685 384.425 562.577 384.425Z" fill="#CCCCCC"/>
<path d="M562.577 386.668H556.099C555.991 386.668 555.888 386.609 555.812 386.503C555.736 386.398 555.694 386.256 555.694 386.107C555.694 385.958 555.736 385.816 555.812 385.711C555.888 385.605 555.991 385.546 556.099 385.546H562.577C562.685 385.546 562.788 385.605 562.864 385.711C562.94 385.816 562.982 385.958 562.982 386.107C562.982 386.256 562.94 386.398 562.864 386.503C562.788 386.609 562.685 386.668 562.577 386.668Z" fill="#CCCCCC"/>
<path d="M562.577 388.91H556.099C555.991 388.91 555.888 388.881 555.812 388.828C555.736 388.776 555.694 388.704 555.694 388.63C555.694 388.556 555.736 388.484 555.812 388.432C555.888 388.379 555.991 388.35 556.099 388.35H562.577C562.685 388.35 562.788 388.379 562.864 388.432C562.94 388.484 562.982 388.556 562.982 388.63C562.982 388.704 562.94 388.776 562.864 388.828C562.788 388.881 562.685 388.91 562.577 388.91Z" fill="#CCCCCC"/>
<path d="M609.014 398.441H591.517C590.492 398.44 589.509 398.042 588.784 397.333C588.06 396.624 587.652 395.664 587.651 394.661V377.553C587.652 376.55 588.06 375.59 588.784 374.881C589.509 374.172 590.492 373.774 591.517 373.773H609.014C610.039 373.774 611.022 374.172 611.747 374.881C612.471 375.59 612.879 376.55 612.88 377.553V394.661C612.879 395.664 612.471 396.624 611.747 397.333C611.022 398.042 610.039 398.44 609.014 398.441ZM591.517 374.568C590.708 374.569 589.932 374.884 589.36 375.443C588.787 376.003 588.466 376.761 588.465 377.553V394.661C588.466 395.453 588.787 396.211 589.36 396.771C589.932 397.33 590.708 397.645 591.517 397.646H609.014C609.824 397.645 610.599 397.33 611.171 396.771C611.744 396.211 612.065 395.453 612.066 394.661V377.553C612.065 376.761 611.744 376.003 611.171 375.443C610.599 374.884 609.824 374.569 609.014 374.568H591.517Z" fill="#CCCCCC"/>
<path d="M606.037 390.592H594.494C594.166 390.592 593.852 390.463 593.62 390.234C593.388 390.004 593.258 389.693 593.257 389.369V382.845C593.258 382.521 593.388 382.21 593.62 381.98C593.852 381.751 594.166 381.622 594.494 381.622H606.037C606.365 381.622 606.679 381.751 606.911 381.98C607.143 382.21 607.273 382.521 607.274 382.845V389.369C607.273 389.693 607.143 390.004 606.911 390.234C606.679 390.463 606.365 390.592 606.037 390.592ZM594.494 382.437C594.385 382.437 594.28 382.48 594.203 382.557C594.125 382.633 594.082 382.737 594.082 382.845V389.369C594.082 389.477 594.125 389.581 594.203 389.657C594.28 389.734 594.385 389.777 594.494 389.777H606.037C606.146 389.777 606.251 389.734 606.328 389.657C606.406 389.581 606.449 389.477 606.449 389.369V382.845C606.449 382.737 606.406 382.633 606.328 382.557C606.251 382.48 606.146 382.437 606.037 382.437H594.494Z" fill="#CCCCCC"/>
<path d="M600.265 387.228C600.034 387.229 599.807 387.168 599.61 387.054L593.45 383.455C593.358 383.401 593.292 383.314 593.268 383.215C593.243 383.115 593.262 383.011 593.32 382.924C593.378 382.838 593.47 382.776 593.577 382.753C593.683 382.73 593.795 382.747 593.888 382.801L600.047 386.4C600.113 386.438 600.188 386.458 600.266 386.458C600.343 386.458 600.418 386.438 600.484 386.4L606.643 382.801C606.736 382.747 606.848 382.73 606.954 382.753C607.061 382.776 607.153 382.838 607.211 382.924C607.269 383.011 607.288 383.115 607.263 383.215C607.239 383.314 607.173 383.401 607.081 383.455L600.921 387.054C600.724 387.168 600.497 387.229 600.265 387.228Z" fill="#CCCCCC"/>
<path d="M526.684 398.441H509.575C508.573 398.44 507.612 398.042 506.904 397.333C506.195 396.624 505.797 395.664 505.795 394.661V377.553C505.797 376.55 506.195 375.59 506.904 374.881C507.612 374.172 508.573 373.774 509.575 373.773H526.684C527.686 373.774 528.647 374.172 529.356 374.881C530.064 375.59 530.463 376.55 530.464 377.553V394.661C530.463 395.664 530.064 396.624 529.356 397.333C528.647 398.042 527.686 398.44 526.684 398.441ZM509.575 374.568C508.784 374.569 508.026 374.884 507.466 375.443C506.907 376.003 506.592 376.761 506.591 377.553V394.661C506.592 395.453 506.907 396.211 507.466 396.771C508.026 397.33 508.784 397.645 509.575 397.646H526.684C527.475 397.645 528.234 397.33 528.793 396.771C529.353 396.211 529.667 395.453 529.668 394.661V377.553C529.667 376.761 529.353 376.003 528.793 375.443C528.234 374.884 527.475 374.569 526.684 374.568H509.575Z" fill="#CCCCCC"/>
<path d="M523.671 390.592H512.59C512.275 390.592 511.974 390.463 511.751 390.234C511.528 390.004 511.403 389.693 511.403 389.369V382.845C511.403 382.521 511.528 382.21 511.751 381.98C511.974 381.751 512.275 381.622 512.59 381.622H523.671C523.986 381.622 524.288 381.751 524.51 381.98C524.733 382.21 524.858 382.521 524.858 382.845V389.369C524.858 389.693 524.733 390.004 524.51 390.234C524.288 390.463 523.986 390.592 523.671 390.592ZM512.59 382.437C512.485 382.437 512.385 382.48 512.31 382.557C512.236 382.633 512.194 382.737 512.194 382.845V389.369C512.194 389.477 512.236 389.581 512.31 389.657C512.385 389.734 512.485 389.777 512.59 389.777H523.671C523.776 389.777 523.877 389.734 523.951 389.657C524.025 389.581 524.067 389.477 524.067 389.369V382.845C524.067 382.737 524.025 382.633 523.951 382.557C523.877 382.48 523.776 382.437 523.671 382.437H512.59Z" fill="#CCCCCC"/>
<path d="M521.825 390.592H513.875C513.736 390.592 513.6 390.557 513.48 390.489C513.359 390.421 513.26 390.323 513.19 390.206C513.121 390.088 513.084 389.955 513.084 389.819C513.084 389.683 513.121 389.55 513.19 389.432L515.585 385.372C515.655 385.255 515.754 385.157 515.874 385.089C515.995 385.021 516.131 384.986 516.27 384.986C516.408 384.986 516.545 385.021 516.665 385.089C516.785 385.157 516.885 385.255 516.954 385.372L518.501 387.994L519.397 386.475C519.466 386.358 519.566 386.26 519.686 386.192C519.806 386.124 519.942 386.089 520.081 386.089C520.22 386.089 520.356 386.124 520.476 386.192C520.596 386.26 520.696 386.358 520.765 386.475L522.51 389.432C522.579 389.55 522.616 389.683 522.616 389.819C522.616 389.955 522.579 390.088 522.51 390.206C522.44 390.323 522.341 390.421 522.22 390.489C522.1 390.557 521.964 390.592 521.825 390.592ZM521.825 389.819L520.081 386.862L518.843 388.961C518.808 389.02 518.758 389.069 518.698 389.103C518.638 389.137 518.57 389.154 518.501 389.154C518.431 389.154 518.363 389.137 518.303 389.103C518.243 389.069 518.193 389.02 518.158 388.961L516.27 385.759L513.875 389.819H521.825Z" fill="#CCCCCC"/>
<path d="M522.335 384.986C522.8 384.986 523.176 384.609 523.176 384.145C523.176 383.68 522.8 383.304 522.335 383.304C521.871 383.304 521.494 383.68 521.494 384.145C521.494 384.609 521.871 384.986 522.335 384.986Z" fill="#CCCCCC"/>
<path d="M714.918 489.828L709.98 489.827L707.63 470.765L714.919 470.766L714.918 489.828Z" fill="white"/>
<path d="M716.6 489.509C716.6 490.614 715.705 491.509 714.6 491.509L702.884 491.509C701.48 491.509 700.259 490.315 700.823 489.029V489.029C701.142 488.305 701.608 487.646 702.195 487.092C702.783 486.537 703.481 486.097 704.248 485.797C705.016 485.497 705.839 485.342 706.67 485.342H706.671L716.601 485.343L716.6 489.509Z" fill="url(#paint4_linear_82_238)"/>
<path d="M735.102 489.828L730.163 489.827L727.814 470.765L735.102 470.766L735.102 489.828Z" fill="white"/>
<path d="M736.784 489.509C736.784 490.614 735.889 491.509 734.784 491.509L723.067 491.509C721.664 491.509 720.443 490.315 721.007 489.029V489.029C721.325 488.305 721.791 487.646 722.379 487.092C722.967 486.537 723.664 486.097 724.432 485.797C725.2 485.497 726.023 485.342 726.854 485.342H726.854L736.784 485.343L736.784 489.509Z" fill="url(#paint5_linear_82_238)"/>
<path d="M733.916 481.899L729.29 480.505C728.945 480.401 728.639 480.199 728.409 479.924C728.18 479.649 728.037 479.313 728 478.958L723.686 438.461C723.683 438.412 723.661 438.367 723.625 438.333C723.589 438.3 723.541 438.281 723.491 438.281C723.442 438.276 723.392 438.291 723.354 438.322C723.315 438.353 723.29 438.397 723.283 438.446L716.059 477.68C716.015 477.918 715.923 478.145 715.79 478.348C715.656 478.55 715.483 478.724 715.28 478.86C715.078 478.995 714.85 479.089 714.611 479.136C714.371 479.183 714.124 479.182 713.885 479.133L707.972 477.927C707.538 477.837 707.152 477.595 706.884 477.246C706.616 476.896 706.484 476.463 706.513 476.025L710.907 411.719L740.709 408.533L736.28 480.272C736.252 480.733 736.047 481.166 735.707 481.483C735.368 481.8 734.919 481.977 734.453 481.978C734.271 481.978 734.09 481.952 733.916 481.899Z" fill="url(#paint6_linear_82_238)"/>
<path d="M733.701 355.832C739.119 355.832 743.512 351.439 743.512 346.021C743.512 340.602 739.119 336.209 733.701 336.209C728.282 336.209 723.889 340.602 723.889 346.021C723.889 351.439 728.282 355.832 733.701 355.832Z" fill="white"/>
<g filter="url(#filter2_dd_82_238)">
<path d="M728.136 412.642C719.051 412.377 712.272 404.183 713.712 395.209L717.434 372.021C717.776 369.888 718.574 367.851 719.774 366.047C720.974 364.242 722.548 362.711 724.392 361.556C726.236 360.4 728.308 359.647 730.47 359.345C732.631 359.043 734.833 359.201 736.928 359.806C740.592 360.855 743.729 363.217 745.726 366.431C747.724 369.646 748.439 373.481 747.731 377.189L743.37 400.377C742.002 407.657 735.54 412.859 728.136 412.642V412.642Z" fill="#EBE6FF"/>
</g>
<g filter="url(#filter3_i_82_238)">
<path d="M736.566 419.058C737.074 418.733 737.502 418.302 737.82 417.798C738.138 417.294 738.338 416.729 738.407 416.141C738.476 415.554 738.412 414.958 738.219 414.398C738.025 413.837 737.708 413.324 737.289 412.896L744.072 400.123L736.433 400.916L731.163 412.923C730.469 413.656 730.075 414.61 730.057 415.605C730.038 416.601 730.396 417.568 731.062 418.324C731.728 419.081 732.656 419.573 733.671 419.708C734.685 419.844 735.715 419.612 736.566 419.058Z" fill="white"/>
</g>
<g filter="url(#filter4_dd_82_238)">
<path d="M738.077 410.758C737.711 410.707 737.369 410.545 737.097 410.296L734.564 407.967C734.29 407.714 734.101 407.384 734.022 407.02C733.943 406.657 733.978 406.279 734.123 405.936L737.731 397.427C738.69 395.167 739.147 392.726 739.073 390.272L738.511 371.817C738.482 370.878 738.478 369.916 738.826 369.043C738.934 368.772 739.063 368.508 739.211 368.255C739.598 367.594 740.113 367.015 740.725 366.552C741.337 366.088 742.035 365.75 742.779 365.555C743.523 365.36 744.298 365.313 745.061 365.416C745.823 365.52 746.557 365.772 747.221 366.158C747.886 366.544 748.467 367.056 748.932 367.665C749.398 368.275 749.737 368.97 749.933 369.71C749.968 369.843 749.998 369.977 750.023 370.112C750.255 371.338 750.121 372.607 750.224 373.849L751.298 386.81C751.671 391.31 750.388 395.793 747.688 399.424L739.792 410.043C739.64 410.247 739.446 410.417 739.224 410.542C739.002 410.667 738.756 410.744 738.501 410.768C738.36 410.781 738.218 410.778 738.077 410.758Z" fill="#EBE6FF"/>
</g>
<g filter="url(#filter5_i_82_238)">
<path d="M676.867 340.514C676.975 341.099 677.209 341.654 677.552 342.138C677.895 342.623 678.34 343.025 678.854 343.318C679.369 343.611 679.941 343.786 680.53 343.832C681.12 343.878 681.712 343.793 682.265 343.584L691.449 354.711L693.614 347.514L684.561 338.051C684.15 337.139 683.42 336.41 682.511 336.002C681.602 335.595 680.576 335.537 679.628 335.841C678.68 336.144 677.875 336.788 677.366 337.649C676.857 338.51 676.68 339.53 676.867 340.514Z" fill="white"/>
</g>
<g filter="url(#filter6_dd_82_238)">
<path d="M683.782 345.222C683.972 344.907 684.255 344.657 684.592 344.506L687.739 343.096C688.08 342.944 688.46 342.9 688.827 342.969C689.194 343.038 689.531 343.217 689.792 343.483L696.292 350.117C697.996 351.856 700.055 353.21 702.328 354.085L719.714 360.777C720.581 361.111 721.458 361.476 722.125 362.122C722.34 362.33 722.539 362.555 722.72 362.795C723.181 363.406 723.517 364.102 723.707 364.842C723.898 365.582 723.939 366.352 723.829 367.108C723.72 367.864 723.461 368.591 723.067 369.248C722.674 369.904 722.154 370.477 721.537 370.935C720.92 371.392 720.218 371.724 719.472 371.912C718.726 372.1 717.949 372.14 717.187 372.03C717.041 372.009 716.896 371.983 716.752 371.951C715.546 371.684 714.438 371.079 713.264 370.695L700.811 366.625C696.495 365.215 692.843 362.298 690.533 358.417L683.775 347.067C683.645 346.849 683.563 346.606 683.534 346.354C683.505 346.102 683.53 345.847 683.607 345.606C683.65 345.471 683.708 345.342 683.782 345.222Z" fill="#EBE6FF"/>
</g>
<path opacity="0.1" d="M741.83 379.94L741.426 392.833L733.981 405.73L740.197 391.357L741.83 379.94Z" fill="black"/>
<path d="M732.783 347.679C732.161 347.761 731.531 347.612 731.009 347.26C730.488 346.907 730.111 346.376 729.948 345.764C729.791 345.06 729.448 344.412 728.954 343.89C728.461 343.369 727.836 342.992 727.147 342.802C725.33 342.383 723.111 343.246 721.78 341.856C721.495 341.539 721.289 341.157 721.178 340.744C721.068 340.33 721.056 339.896 721.145 339.477C721.39 338.126 722.346 337.105 723.387 336.289C725.578 334.579 728.229 333.578 730.992 333.417C732.423 333.376 733.854 333.448 735.274 333.633C736.76 333.727 738.23 333.999 739.653 334.441C741.274 335.059 742.715 336.08 743.843 337.41C744.97 338.74 745.748 340.335 746.103 342.049C746.429 343.768 746.379 345.538 745.957 347.235C745.535 348.932 744.752 350.516 743.662 351.876C742.357 353.518 740.674 354.813 738.76 355.647C738.304 355.864 737.781 355.891 737.306 355.722C736.114 355.243 736.309 353.751 736.852 352.756C737.434 351.691 738.329 350.66 737.861 349.364C737.627 348.763 737.177 348.273 736.601 347.993C735.415 347.382 734.09 347.527 732.816 347.675L732.783 347.679Z" fill="#2F2E41"/>
<path d="M673.516 353.029H551.124C549.363 353.027 547.674 352.33 546.429 351.091C545.183 349.852 544.483 348.173 544.481 346.421V320.391C544.483 318.639 545.183 316.959 546.429 315.721C547.674 314.482 549.363 313.785 551.124 313.783H673.516C675.277 313.785 676.965 314.482 678.211 315.721C679.456 316.959 680.156 318.639 680.159 320.391V346.421C680.156 348.173 679.456 349.852 678.211 351.091C676.965 352.33 675.277 353.027 673.516 353.029Z" fill="white"/>
<path d="M673.334 353.589H551.305C549.496 353.587 547.761 352.867 546.482 351.585C545.203 350.304 544.483 348.566 544.481 346.754V320.619C544.483 318.806 545.203 317.069 546.482 315.787C547.761 314.506 549.496 313.785 551.305 313.783H673.334C675.144 313.785 676.878 314.506 678.158 315.787C679.437 317.069 680.156 318.806 680.159 320.619V346.754C680.156 348.566 679.437 350.304 678.158 351.585C676.878 352.867 675.144 353.587 673.334 353.589ZM551.305 314.587C549.709 314.589 548.178 315.225 547.049 316.356C545.921 317.487 545.286 319.02 545.284 320.619V346.754C545.286 348.353 545.921 349.886 547.049 351.017C548.178 352.147 549.709 352.783 551.305 352.785H673.334C674.931 352.783 676.461 352.147 677.59 351.017C678.719 349.886 679.354 348.353 679.356 346.754V320.619C679.354 319.02 678.719 317.487 677.59 316.356C676.461 315.225 674.931 314.589 673.334 314.587H551.305Z" fill="#3F3D56"/>
<path d="M658.373 346.862H565.705C563.943 346.86 562.253 346.161 561.007 344.918C559.761 343.676 559.06 341.991 559.058 340.234V326.578C559.06 324.821 559.761 323.136 561.007 321.894C562.253 320.651 563.943 319.952 565.705 319.95H658.373C660.135 319.952 661.825 320.651 663.071 321.894C664.318 323.136 665.019 324.821 665.021 326.578V340.234C665.019 341.991 664.318 343.676 663.071 344.918C661.825 346.161 660.135 346.86 658.373 346.862Z" fill="#E4DDFF"/>
<path d="M585.969 339.573C590.304 339.573 593.818 335.933 593.818 331.444C593.818 326.954 590.304 323.314 585.969 323.314C581.634 323.314 578.12 326.954 578.12 331.444C578.12 335.933 581.634 339.573 585.969 339.573Z" fill="#FF6584"/>
<path d="M653.102 346.064L641.823 336.705L630.739 327.508C630.446 327.265 630.076 327.132 629.694 327.133C629.313 327.134 628.943 327.268 628.652 327.512L617.603 336.751L614.904 339.008L610.835 335.632L598.469 325.371C598.176 325.128 597.807 324.995 597.425 324.996C597.043 324.997 596.674 325.131 596.382 325.375L584.056 335.683L571.536 346.153C571.472 346.206 571.427 346.277 571.406 346.356C571.384 346.436 571.388 346.52 571.417 346.597C571.446 346.674 571.497 346.741 571.566 346.788C571.634 346.834 571.715 346.86 571.798 346.859L597.467 346.81L605.592 346.795L605.513 346.861L629.733 346.815L652.843 346.771C652.926 346.771 653.007 346.746 653.075 346.699C653.143 346.651 653.195 346.585 653.223 346.507C653.251 346.43 653.255 346.346 653.233 346.267C653.212 346.187 653.166 346.116 653.102 346.064Z" fill="#3F3D56"/>
<g filter="url(#filter7_i_82_238)">
<path d="M648.641 282.17C648.322 281.648 647.9 281.198 647.401 280.845C646.903 280.493 646.338 280.246 645.742 280.12C645.523 280.074 645.301 280.046 645.078 280.036L614.611 252.652C614.012 252.034 613.214 251.651 612.359 251.571C612.191 251.552 612.021 251.546 611.852 251.555C611.149 251.587 610.47 251.824 609.899 252.238C609.328 252.651 608.89 253.223 608.637 253.883C608.384 254.543 608.328 255.263 608.476 255.955C608.623 256.647 608.968 257.28 609.468 257.778L621.133 268L640.287 284.783C640.303 285.099 640.35 285.413 640.427 285.72C640.657 286.608 641.149 287.406 641.84 288.007C642.531 288.608 643.386 288.984 644.294 289.084C645.122 289.182 645.961 289.042 646.714 288.682C647.311 288.402 647.84 287.994 648.265 287.488C648.309 287.436 648.349 287.388 648.389 287.332C648.948 286.599 649.272 285.713 649.317 284.79C649.362 283.868 649.126 282.954 648.641 282.17Z" fill="white"/>
</g>
<g filter="url(#filter8_i_82_238)">
<path d="M596.295 308.625L596.016 296.936L595.78 287.235L595.62 280.447L595.302 267.215C595.239 266.506 594.977 265.832 594.55 265.274C594.122 264.717 593.546 264.3 592.892 264.074C592.238 263.849 591.535 263.824 590.868 264.004C590.202 264.185 589.6 264.561 589.137 265.088C589.028 265.209 588.93 265.339 588.843 265.477C588.36 266.191 588.142 267.061 588.231 267.928L588.929 287.235L589.279 296.936L589.726 309.31C589.597 309.492 589.48 309.682 589.377 309.881C589.098 310.427 588.929 311.026 588.881 311.642C588.833 312.257 588.907 312.876 589.098 313.461C589.297 314.075 589.62 314.638 590.046 315.114C590.471 315.589 590.99 315.966 591.566 316.22C592.143 316.473 592.766 316.598 593.393 316.585C594.019 316.573 594.637 316.423 595.204 316.147C595.862 315.825 596.434 315.342 596.868 314.738C597.302 314.135 597.586 313.43 597.694 312.686C597.801 311.943 597.73 311.184 597.486 310.475C597.242 309.767 596.833 309.132 596.295 308.625Z" fill="white"/>
</g>
<g filter="url(#filter9_dd_82_238)">
<path d="M624.185 275.289L621.304 267.624L616.641 255.208C616.305 254.305 615.766 253.488 615.064 252.817C614.361 252.146 613.515 251.639 612.586 251.334C612.513 251.31 612.435 251.286 612.362 251.266C611.462 250.998 610.514 250.924 609.583 251.05C608.651 251.176 607.759 251.498 606.966 251.994L591.263 261.776C589.825 262.67 588.797 264.078 588.396 265.702C587.995 267.327 588.253 269.041 589.115 270.482C591.079 273.817 593.219 277.048 595.526 280.164C595.753 280.468 596.005 280.738 596.273 280.986C599.668 284.128 604.781 286.872 609.407 286.872V286.872C611.679 286.872 613.873 286.043 615.577 284.54L623.653 277.42C624.256 276.889 624.467 276.041 624.185 275.289V275.289Z" fill="#EBE6FF"/>
</g>
<path d="M484.635 362.56H467.526C466.524 362.559 465.564 362.16 464.855 361.451C464.146 360.743 463.748 359.782 463.747 358.78V341.671C463.748 340.669 464.146 339.708 464.855 338.999C465.564 338.291 466.524 337.892 467.526 337.891H484.635C485.637 337.892 486.598 338.291 487.307 338.999C488.015 339.708 488.414 340.669 488.415 341.671V358.78C488.414 359.782 488.015 360.743 487.307 361.451C486.598 362.16 485.637 362.559 484.635 362.56Z" fill="white"/>
<path d="M484.635 362.56H467.526C466.524 362.559 465.564 362.16 464.855 361.451C464.146 360.743 463.748 359.782 463.747 358.78V341.671C463.748 340.669 464.146 339.708 464.855 338.999C465.564 338.291 466.524 337.892 467.526 337.891H484.635C485.637 337.892 486.598 338.291 487.307 338.999C488.015 339.708 488.414 340.669 488.415 341.671V358.78C488.414 359.782 488.015 360.743 487.307 361.451C486.598 362.16 485.637 362.559 484.635 362.56ZM467.526 338.687C466.735 338.688 465.977 339.002 465.417 339.562C464.858 340.121 464.543 340.88 464.542 341.671V358.78C464.543 359.571 464.858 360.33 465.417 360.889C465.977 361.448 466.735 361.763 467.526 361.764H484.635C485.427 361.763 486.185 361.448 486.744 360.889C487.304 360.33 487.619 359.571 487.619 358.78V341.671C487.619 340.88 487.304 340.121 486.744 339.562C486.185 339.002 485.427 338.688 484.635 338.687H467.526Z" fill="#3F3D56"/>
<path d="M481.622 355.832H470.541C470.226 355.832 469.925 355.7 469.702 355.467C469.48 355.233 469.354 354.916 469.354 354.586V345.865C469.354 345.535 469.48 345.218 469.702 344.984C469.925 344.751 470.226 344.619 470.541 344.619H473.661C473.864 344.618 474.063 344.672 474.24 344.776C474.418 344.88 474.566 345.03 474.672 345.212L475.542 346.695H481.622C481.937 346.696 482.239 346.827 482.462 347.061C482.684 347.294 482.809 347.611 482.81 347.941V354.586C482.809 354.916 482.684 355.233 482.462 355.467C482.239 355.7 481.937 355.832 481.622 355.832Z" fill="url(#paint7_linear_82_238)"/>
<defs>
<filter id="filter0_i_82_238" x="583.727" y="228.731" width="20.1836" height="25.6228" filterUnits="userSpaceOnUse" color-interpolation-filters="sRGB">
<feFlood flood-opacity="0" result="BackgroundImageFix"/>
<feBlend mode="normal" in="SourceGraphic" in2="BackgroundImageFix" result="shape"/>
<feColorMatrix in="SourceAlpha" type="matrix" values="0 0 0 0 0 0 0 0 0 0 0 0 0 0 0 0 0 0 127 0" result="hardAlpha"/>
<feOffset dy="-6"/>
<feGaussianBlur stdDeviation="5"/>
<feComposite in2="hardAlpha" operator="arithmetic" k2="-1" k3="1"/>
<feColorMatrix type="matrix" values="0 0 0 0 0 0 0 0 0 0 0 0 0 0 0 0 0 0 0.25 0"/>
<feBlend mode="normal" in2="shape" result="effect1_innerShadow_82_238"/>
</filter>
<filter id="filter1_dd_82_238" x="401.974" y="238.872" width="319.775" height="241.284" filterUnits="userSpaceOnUse" color-interpolation-filters="sRGB">
<feFlood flood-opacity="0" result="BackgroundImageFix"/>
<feColorMatrix in="SourceAlpha" type="matrix" values="0 0 0 0 0 0 0 0 0 0 0 0 0 0 0 0 0 0 127 0" result="hardAlpha"/>
<feOffset dy="2"/>
<feGaussianBlur stdDeviation="25"/>
<feComposite in2="hardAlpha" operator="out"/>
<feColorMatrix type="matrix" values="0 0 0 0 0.386851 0 0 0 0 0.262552 0 0 0 0 0.8875 0 0 0 0.7 0"/>
<feBlend mode="normal" in2="BackgroundImageFix" result="effect1_dropShadow_82_238"/>
<feColorMatrix in="SourceAlpha" type="matrix" values="0 0 0 0 0 0 0 0 0 0 0 0 0 0 0 0 0 0 127 0" result="hardAlpha"/>
<feOffset dy="4"/>
<feGaussianBlur stdDeviation="1"/>
<feComposite in2="hardAlpha" operator="out"/>
<feColorMatrix type="matrix" values="0 0 0 0 1 0 0 0 0 1 0 0 0 0 1 0 0 0 0.25 0"/>
<feBlend mode="normal" in2="effect1_dropShadow_82_238" result="effect2_dropShadow_82_238"/>
<feBlend mode="normal" in="SourceGraphic" in2="effect2_dropShadow_82_238" result="shape"/>
</filter>
<filter id="filter2_dd_82_238" x="699.519" y="347.196" width="62.4785" height="81.453" filterUnits="userSpaceOnUse" color-interpolation-filters="sRGB">
<feFlood flood-opacity="0" result="BackgroundImageFix"/>
<feColorMatrix in="SourceAlpha" type="matrix" values="0 0 0 0 0 0 0 0 0 0 0 0 0 0 0 0 0 0 127 0" result="hardAlpha"/>
<feOffset dy="2"/>
<feGaussianBlur stdDeviation="7"/>
<feComposite in2="hardAlpha" operator="out"/>
<feColorMatrix type="matrix" values="0 0 0 0 0.386851 0 0 0 0 0.262552 0 0 0 0 0.8875 0 0 0 0.7 0"/>
<feBlend mode="normal" in2="BackgroundImageFix" result="effect1_dropShadow_82_238"/>
<feColorMatrix in="SourceAlpha" type="matrix" values="0 0 0 0 0 0 0 0 0 0 0 0 0 0 0 0 0 0 127 0" result="hardAlpha"/>
<feOffset dy="4"/>
<feGaussianBlur stdDeviation="2"/>
<feComposite in2="hardAlpha" operator="out"/>
<feColorMatrix type="matrix" values="0 0 0 0 1 0 0 0 0 1 0 0 0 0 1 0 0 0 0.25 0"/>
<feBlend mode="normal" in2="effect1_dropShadow_82_238" result="effect2_dropShadow_82_238"/>
<feBlend mode="normal" in="SourceGraphic" in2="effect2_dropShadow_82_238" result="shape"/>
</filter>
<filter id="filter3_i_82_238" x="730.056" y="400.123" width="14.0161" height="23.6228" filterUnits="userSpaceOnUse" color-interpolation-filters="sRGB">
<feFlood flood-opacity="0" result="BackgroundImageFix"/>
<feBlend mode="normal" in="SourceGraphic" in2="BackgroundImageFix" result="shape"/>
<feColorMatrix in="SourceAlpha" type="matrix" values="0 0 0 0 0 0 0 0 0 0 0 0 0 0 0 0 0 0 127 0" result="hardAlpha"/>
<feOffset dy="4"/>
<feGaussianBlur stdDeviation="5"/>
<feComposite in2="hardAlpha" operator="arithmetic" k2="-1" k3="1"/>
<feColorMatrix type="matrix" values="0 0 0 0 0 0 0 0 0 0 0 0 0 0 0 0 0 0 0.25 0"/>
<feBlend mode="normal" in2="shape" result="effect1_innerShadow_82_238"/>
</filter>
<filter id="filter4_dd_82_238" x="719.981" y="353.363" width="45.3804" height="73.4127" filterUnits="userSpaceOnUse" color-interpolation-filters="sRGB">
<feFlood flood-opacity="0" result="BackgroundImageFix"/>
<feColorMatrix in="SourceAlpha" type="matrix" values="0 0 0 0 0 0 0 0 0 0 0 0 0 0 0 0 0 0 127 0" result="hardAlpha"/>
<feOffset dy="2"/>
<feGaussianBlur stdDeviation="7"/>
<feComposite in2="hardAlpha" operator="out"/>
<feColorMatrix type="matrix" values="0 0 0 0 0.386851 0 0 0 0 0.262552 0 0 0 0 0.8875 0 0 0 0.7 0"/>
<feBlend mode="normal" in2="BackgroundImageFix" result="effect1_dropShadow_82_238"/>
<feColorMatrix in="SourceAlpha" type="matrix" values="0 0 0 0 0 0 0 0 0 0 0 0 0 0 0 0 0 0 127 0" result="hardAlpha"/>
<feOffset dy="4"/>
<feGaussianBlur stdDeviation="2"/>
<feComposite in2="hardAlpha" operator="out"/>
<feColorMatrix type="matrix" values="0 0 0 0 1 0 0 0 0 1 0 0 0 0 1 0 0 0 0.25 0"/>
<feBlend mode="normal" in2="effect1_dropShadow_82_238" result="effect2_dropShadow_82_238"/>
<feBlend mode="normal" in="SourceGraphic" in2="effect2_dropShadow_82_238" result="shape"/>
</filter>
<filter id="filter5_i_82_238" x="676.794" y="335.648" width="16.8193" height="23.0621" filterUnits="userSpaceOnUse" color-interpolation-filters="sRGB">
<feFlood flood-opacity="0" result="BackgroundImageFix"/>
<feBlend mode="normal" in="SourceGraphic" in2="BackgroundImageFix" result="shape"/>
<feColorMatrix in="SourceAlpha" type="matrix" values="0 0 0 0 0 0 0 0 0 0 0 0 0 0 0 0 0 0 127 0" result="hardAlpha"/>
<feOffset dy="4"/>
<feGaussianBlur stdDeviation="5"/>
<feComposite in2="hardAlpha" operator="arithmetic" k2="-1" k3="1"/>
<feColorMatrix type="matrix" values="0 0 0 0 0 0 0 0 0 0 0 0 0 0 0 0 0 0 0.25 0"/>
<feBlend mode="normal" in2="shape" result="effect1_innerShadow_82_238"/>
</filter>
<filter id="filter6_dd_82_238" x="669.522" y="330.937" width="68.3667" height="57.1538" filterUnits="userSpaceOnUse" color-interpolation-filters="sRGB">
<feFlood flood-opacity="0" result="BackgroundImageFix"/>
<feColorMatrix in="SourceAlpha" type="matrix" values="0 0 0 0 0 0 0 0 0 0 0 0 0 0 0 0 0 0 127 0" result="hardAlpha"/>
<feOffset dy="2"/>
<feGaussianBlur stdDeviation="7"/>
<feComposite in2="hardAlpha" operator="out"/>
<feColorMatrix type="matrix" values="0 0 0 0 0.386851 0 0 0 0 0.262552 0 0 0 0 0.8875 0 0 0 0.7 0"/>
<feBlend mode="normal" in2="BackgroundImageFix" result="effect1_dropShadow_82_238"/>
<feColorMatrix in="SourceAlpha" type="matrix" values="0 0 0 0 0 0 0 0 0 0 0 0 0 0 0 0 0 0 127 0" result="hardAlpha"/>
<feOffset dy="4"/>
<feGaussianBlur stdDeviation="2"/>
<feComposite in2="hardAlpha" operator="out"/>
<feColorMatrix type="matrix" values="0 0 0 0 1 0 0 0 0 1 0 0 0 0 1 0 0 0 0.25 0"/>
<feBlend mode="normal" in2="effect1_dropShadow_82_238" result="effect2_dropShadow_82_238"/>
<feBlend mode="normal" in="SourceGraphic" in2="effect2_dropShadow_82_238" result="shape"/>
</filter>
<filter id="filter7_i_82_238" x="608.395" y="251.551" width="40.9277" height="41.5636" filterUnits="userSpaceOnUse" color-interpolation-filters="sRGB">
<feFlood flood-opacity="0" result="BackgroundImageFix"/>
<feBlend mode="normal" in="SourceGraphic" in2="BackgroundImageFix" result="shape"/>
<feColorMatrix in="SourceAlpha" type="matrix" values="0 0 0 0 0 0 0 0 0 0 0 0 0 0 0 0 0 0 127 0" result="hardAlpha"/>
<feOffset dy="4"/>
<feGaussianBlur stdDeviation="5"/>
<feComposite in2="hardAlpha" operator="arithmetic" k2="-1" k3="1"/>
<feColorMatrix type="matrix" values="0 0 0 0 0 0 0 0 0 0 0 0 0 0 0 0 0 0 0.25 0"/>
<feBlend mode="normal" in2="shape" result="effect1_innerShadow_82_238"/>
</filter>
<filter id="filter8_i_82_238" x="588.211" y="263.885" width="9.53125" height="56.7012" filterUnits="userSpaceOnUse" color-interpolation-filters="sRGB">
<feFlood flood-opacity="0" result="BackgroundImageFix"/>
<feBlend mode="normal" in="SourceGraphic" in2="BackgroundImageFix" result="shape"/>
<feColorMatrix in="SourceAlpha" type="matrix" values="0 0 0 0 0 0 0 0 0 0 0 0 0 0 0 0 0 0 127 0" result="hardAlpha"/>
<feOffset dy="4"/>
<feGaussianBlur stdDeviation="5"/>
<feComposite in2="hardAlpha" operator="arithmetic" k2="-1" k3="1"/>
<feColorMatrix type="matrix" values="0 0 0 0 0 0 0 0 0 0 0 0 0 0 0 0 0 0 0.25 0"/>
<feBlend mode="normal" in2="shape" result="effect1_innerShadow_82_238"/>
</filter>
<filter id="filter9_dd_82_238" x="574.211" y="238.99" width="64.0972" height="63.8817" filterUnits="userSpaceOnUse" color-interpolation-filters="sRGB">
<feFlood flood-opacity="0" result="BackgroundImageFix"/>
<feColorMatrix in="SourceAlpha" type="matrix" values="0 0 0 0 0 0 0 0 0 0 0 0 0 0 0 0 0 0 127 0" result="hardAlpha"/>
<feOffset dy="2"/>
<feGaussianBlur stdDeviation="7"/>
<feComposite in2="hardAlpha" operator="out"/>
<feColorMatrix type="matrix" values="0 0 0 0 0.386851 0 0 0 0 0.262552 0 0 0 0 0.8875 0 0 0 0.7 0"/>
<feBlend mode="normal" in2="BackgroundImageFix" result="effect1_dropShadow_82_238"/>
<feColorMatrix in="SourceAlpha" type="matrix" values="0 0 0 0 0 0 0 0 0 0 0 0 0 0 0 0 0 0 127 0" result="hardAlpha"/>
<feOffset dy="4"/>
<feGaussianBlur stdDeviation="2"/>
<feComposite in2="hardAlpha" operator="out"/>
<feColorMatrix type="matrix" values="0 0 0 0 1 0 0 0 0 1 0 0 0 0 1 0 0 0 0.25 0"/>
<feBlend mode="normal" in2="effect1_dropShadow_82_238" result="effect2_dropShadow_82_238"/>
<feBlend mode="normal" in="SourceGraphic" in2="effect2_dropShadow_82_238" result="shape"/>
</filter>
<linearGradient id="paint0_linear_82_238" x1="532.677" y1="466.711" x2="464.478" y2="276.281" gradientUnits="userSpaceOnUse">
<stop stop-color="#E4DDFF"/>
<stop offset="1" stop-color="#E4DDFF" stop-opacity="0"/>
</linearGradient>
<linearGradient id="paint1_linear_82_238" x1="593.655" y1="233.56" x2="656.307" y2="481.189" gradientUnits="userSpaceOnUse">
<stop stop-color="#E4DDFF"/>
<stop offset="1" stop-color="#E4DDFF" stop-opacity="0"/>
</linearGradient>
<linearGradient id="paint2_linear_82_238" x1="681.846" y1="482.414" x2="756.017" y2="483.346" gradientUnits="userSpaceOnUse">
<stop stop-color="#CEC1FF"/>
<stop offset="1" stop-color="#FFB9DB"/>
</linearGradient>
<linearGradient id="paint3_linear_82_238" x1="451.991" y1="286.77" x2="671.835" y2="296.79" gradientUnits="userSpaceOnUse">
<stop stop-color="#6642F6"/>
<stop offset="1" stop-color="#F74299"/>
</linearGradient>
<linearGradient id="paint4_linear_82_238" x1="709.628" y1="485.674" x2="707.205" y2="491.599" gradientUnits="userSpaceOnUse">
<stop stop-color="#2F2E41"/>
<stop offset="1" stop-color="#747476"/>
</linearGradient>
<linearGradient id="paint5_linear_82_238" x1="729.812" y1="485.674" x2="727.389" y2="491.599" gradientUnits="userSpaceOnUse">
<stop stop-color="#2F2E41"/>
<stop offset="1" stop-color="#747476"/>
</linearGradient>
<linearGradient id="paint6_linear_82_238" x1="723.609" y1="408.533" x2="723.609" y2="481.978" gradientUnits="userSpaceOnUse">
<stop stop-color="#2F2E41"/>
<stop offset="1" stop-color="#B8B8B8"/>
</linearGradient>
<linearGradient id="paint7_linear_82_238" x1="469.355" y1="344.506" x2="482.843" y2="344.54" gradientUnits="userSpaceOnUse">
<stop stop-color="#6642F6"/>
<stop offset="1" stop-color="#F74299"/>
</linearGradient>
</defs>
</svg>
