<svg width="1440" height="602" viewBox="0 0 1440 602" fill="none" xmlns="http://www.w3.org/2000/svg">
<rect width="1440" height="602" fill="url(#paint0_radial_80_139)" fill-opacity="0.2"/>
<rect width="1440" height="602" fill="url(#paint1_radial_80_139)" fill-opacity="0.5"/>
<g opacity="0.7">
<path opacity="0.2" d="M166.31 572.442C166.31 578.189 124.86 585.308 90.533 585.308C56.2059 585.308 42 578.189 42 572.442C42 566.696 69.8276 562.038 104.155 562.038C138.482 562.038 166.31 566.696 166.31 572.442Z" fill="url(#paint2_linear_80_139)"/>
<g filter="url(#filter0_i_80_139)">
<path d="M72.482 452.676C73.0009 452.111 73.3897 451.439 73.6211 450.708C73.8524 449.977 73.9206 449.204 73.8209 448.444C73.7211 447.683 73.4559 446.954 73.0438 446.307C72.6318 445.661 72.0829 445.112 71.4359 444.7L75.7349 426.562L66.6362 429.886L63.9487 446.601C63.3291 447.734 63.1466 449.054 63.4357 450.313C63.7247 451.571 64.4654 452.68 65.5172 453.429C66.569 454.177 67.859 454.514 69.1426 454.375C70.4263 454.237 71.6145 453.632 72.482 452.676Z" fill="white"/>
</g>
<g filter="url(#filter1_dd_80_139)">
<path d="M92.9153 371.361C93.8547 374.806 93.6633 378.461 92.3693 381.788C91.2833 384.581 91.0412 387.613 91.154 390.607C91.2561 393.316 91.0385 396.434 89.6669 397.531C87.0586 399.618 88.1019 399.618 88.1019 401.183C88.0121 402.305 87.6869 403.396 87.1477 404.385C86.6084 405.373 85.8671 406.237 84.972 406.921C83.3188 408.161 77.0817 428.391 74.5616 436.743C73.9222 438.862 71.9762 440.307 69.7628 440.307C66.759 440.307 64.4692 437.657 64.2656 434.661C64.228 434.107 64.1747 433.555 64.1058 433.003C63.5841 429.352 65.6707 419.962 66.7141 418.397C67.7574 416.832 66.7141 414.746 66.7141 411.616C66.7141 408.486 68.8007 406.921 68.8007 401.704C68.8007 396.488 75.0605 355.799 74.5389 351.104C74.1713 347.795 76.9124 344.746 78.5633 343.233C79.3098 342.549 80.3008 342.235 81.3132 342.235C83.4734 342.235 85.3663 343.681 85.9347 345.765L92.9153 371.361Z" fill="#EBE6FF"/>
</g>
<g filter="url(#filter2_i_80_139)">
<path d="M75.3063 566.925H82.0649L85.2817 540.854H75.3057L75.3063 566.925Z" fill="white"/>
</g>
<path d="M73.0999 562.295L83.8982 561.651V566.277L94.1646 573.367C94.6717 573.718 95.0536 574.221 95.2545 574.803C95.4554 575.386 95.4649 576.017 95.2815 576.606C95.0982 577.194 94.7315 577.708 94.2351 578.073C93.7388 578.439 93.1387 578.636 92.5224 578.635H79.6666L77.4507 574.059L76.5855 578.636H71.7383L73.0999 562.295Z" fill="url(#paint3_linear_80_139)"/>
<g filter="url(#filter3_i_80_139)">
<path d="M113.273 566.925H120.031L123.248 540.854H113.272L113.273 566.925Z" fill="white"/>
</g>
<path d="M111.067 562.295L121.865 561.651V566.277L132.131 573.367C132.638 573.718 133.02 574.221 133.221 574.803C133.422 575.386 133.432 576.017 133.248 576.606C133.065 577.194 132.698 577.708 132.202 578.073C131.706 578.439 131.105 578.636 130.489 578.635H117.633L115.417 574.059L114.552 578.636H109.705L111.067 562.295Z" fill="url(#paint4_linear_80_139)"/>
<path d="M72.3898 544.443H72.4633L76.2126 502.053C75.3714 500.43 74.9445 498.625 74.9698 496.797C74.9952 494.97 75.4721 493.177 76.358 491.578L76.5441 491.241L76.0616 489.005C75.4418 486.131 75.7262 483.136 76.8758 480.43L75.639 440.888C71.3066 412.811 91.9535 394.5 91.9535 394.5H122.883L129.523 417.314C132.016 441.604 139.813 467.152 138.78 490.699C137.994 508.612 129.16 524.689 126.15 542.134L126.34 542.23C127.024 542.466 127.317 543.413 126.995 544.346C126.674 545.278 125.858 545.843 125.175 545.607L108.84 545.039C108.157 544.803 107.863 543.855 108.185 542.923C108.507 541.99 109.322 541.426 110.006 541.662L111.117 542.224L119.158 499.482L119.421 492.01L118.88 483.534L105.966 447.245L96.4887 494.13L86.8084 544.914C87.0753 545.156 87.2627 545.473 87.3458 545.824C87.4288 546.174 87.4037 546.542 87.2736 546.878C87.1435 547.213 86.9147 547.502 86.6172 547.705C86.3198 547.908 85.9677 548.016 85.6076 548.015H72.3898C72.1552 548.015 71.9229 547.969 71.7062 547.879C71.4895 547.789 71.2926 547.658 71.1267 547.492C70.9608 547.326 70.8293 547.129 70.7395 546.912C70.6497 546.696 70.6035 546.464 70.6035 546.229C70.6035 545.994 70.6497 545.762 70.7395 545.545C70.8293 545.329 70.9608 545.132 71.1267 544.966C71.2926 544.8 71.4895 544.668 71.7062 544.579C71.9229 544.489 72.1552 544.443 72.3898 544.443Z" fill="#2F2E41"/>
<g filter="url(#filter4_dd_80_139)">
<path d="M69.8266 413.57C68.8112 413.57 68.2344 413.37 68.011 412.943C67.6833 412.317 68.252 411.498 68.9104 410.55C69.399 409.93 69.7843 409.236 70.0514 408.494C70.4452 406.919 73.1031 367.131 71.5133 359.181C71.1455 357.342 71.4622 354.984 72.454 352.173C75.1632 344.497 78.8613 342.138 86.2285 337.439C86.8265 337.057 87.4493 336.659 88.0967 336.243C88.9342 335.705 88.8876 333.921 88.8382 332.031C88.7835 329.931 88.7267 327.759 89.7556 326.401C89.7988 326.344 89.8607 326.304 89.9305 326.288C92.4191 325.712 100.789 324.644 105.746 326.295C105.791 326.311 105.832 326.336 105.866 326.37C107.043 327.547 107.15 329.828 107.254 332.033C107.339 333.844 107.42 335.554 108.086 336.296C113.179 341.973 118.955 341.863 119.014 341.862C119.175 341.857 119.312 341.977 119.328 342.138C121.543 364.671 125.115 398.682 125.874 400.02C125.913 400.082 125.935 400.153 125.938 400.226C125.94 400.299 125.922 400.371 125.886 400.434C124.772 402.516 73.6539 413.57 69.8266 413.57Z" fill="#EBE6FF"/>
</g>
<g filter="url(#filter5_i_80_139)">
<path d="M103.092 319.909C111.435 319.909 118.198 313.146 118.198 304.804C118.198 296.461 111.435 289.698 103.092 289.698C94.7497 289.698 87.9868 296.461 87.9868 304.804C87.9868 313.146 94.7497 319.909 103.092 319.909Z" fill="white"/>
</g>
<path d="M61.5973 298.06C64.1512 295.081 65.3654 291.13 67.4071 287.748C69.4488 284.366 73.0018 281.339 76.7553 282.126C79.3427 282.668 81.3423 284.952 82.3547 287.497C83.3668 290.043 83.5565 292.85 83.734 295.6C83.6713 289.948 87.3947 284.47 92.5237 282.666C97.6523 280.863 103.79 282.875 107.013 287.415C108.42 286.111 110.255 285.369 112.173 285.329C114.09 285.289 115.955 285.953 117.415 287.196C120.298 289.773 120.936 294.677 118.816 297.963C117.751 299.562 116.14 300.718 114.283 301.212C112.427 301.707 110.454 301.508 108.735 300.651L107.544 301.747C107.853 302.918 107.74 304.16 107.225 305.257C106.71 306.353 105.827 307.234 104.729 307.744C102.956 308.46 100.454 308.341 99.7911 310.201C99.3276 311.501 100.194 312.888 101.115 313.886C102.037 314.885 103.131 315.916 103.241 317.298C103.409 319.383 101.254 320.844 99.2952 321.284C96.8939 321.764 94.404 321.516 92.1441 320.573C89.8842 319.63 87.9572 318.034 86.6097 315.989C86.5572 315.909 86.5002 315.828 86.4385 315.748C84.9113 313.795 83.7983 311.551 83.1675 309.153C82.5368 306.755 82.4015 304.254 82.77 301.802C82.9231 300.839 82.7689 300.122 82.1047 299.894C79.2339 298.908 71.1909 300.978 68.7567 302.848C66.3224 304.719 64.3732 307.194 62.0285 309.185C59.6837 311.177 56.6959 312.713 53.7188 312.17C51.3344 311.736 49.306 310.005 47.9416 307.917C46.655 305.756 45.6938 303.418 45.0889 300.977C50.3613 304.022 57.5773 302.747 61.5973 298.06Z" fill="#2F2E41"/>
<g filter="url(#filter6_i_80_139)">
<path d="M127.308 452.676C126.789 452.111 126.4 451.439 126.169 450.708C125.938 449.977 125.87 449.204 125.969 448.444C126.069 447.683 126.334 446.954 126.746 446.307C127.158 445.661 127.707 445.112 128.354 444.7L124.055 426.562L133.154 429.886L135.841 446.601C136.461 447.734 136.644 449.054 136.354 450.313C136.065 451.571 135.325 452.68 134.273 453.428C133.221 454.177 131.931 454.514 130.647 454.375C129.364 454.237 128.176 453.632 127.308 452.676Z" fill="white"/>
</g>
<g filter="url(#filter7_dd_80_139)">
<path d="M106.874 371.361C105.935 374.806 106.126 378.461 107.42 381.788C108.506 384.581 108.748 387.613 108.636 390.607C108.533 393.316 108.751 396.434 110.123 397.531C112.731 399.618 111.688 399.618 111.688 401.183C111.777 402.305 112.103 403.396 112.642 404.385C113.181 405.373 113.922 406.237 114.818 406.921C116.471 408.161 122.708 428.391 125.228 436.743C125.867 438.862 127.813 440.307 130.027 440.307C133.03 440.307 135.32 437.657 135.524 434.661C135.562 434.107 135.615 433.555 135.684 433.003C136.205 429.352 134.119 419.962 133.075 418.397C132.032 416.832 133.075 414.746 133.075 411.616C133.075 408.486 130.989 406.921 130.989 401.704C130.989 396.488 124.729 355.799 125.251 351.104C125.618 347.795 122.877 344.746 121.226 343.233C120.48 342.549 119.489 342.235 118.476 342.235C116.316 342.235 114.423 343.681 113.855 345.765L106.874 371.361Z" fill="#EBE6FF"/>
</g>
</g>
<path opacity="0.2" d="M1190.8 300.78C1190.8 382.033 1050.49 482.697 934.288 482.697C818.088 482.697 770 382.033 770 300.78C770 219.527 864.199 153.659 980.399 153.659C1096.6 153.659 1190.8 219.527 1190.8 300.78Z" fill="url(#paint5_linear_80_139)"/>
<path opacity="0.2" d="M1296.31 223.109C1323.94 332.31 1203.39 485.008 1110.38 508.54C1017.37 532.073 919.57 462.624 891.942 353.424C864.313 244.223 917.315 136.621 1010.33 113.089C1103.34 89.5566 1268.69 113.908 1296.31 223.109Z" fill="url(#paint6_linear_80_139)"/>
<path opacity="0.1" d="M1304.8 490.354C1304.8 497.417 1253.39 506.796 1216.28 506.796C1179.17 506.796 1170.41 497.417 1170.41 490.354C1170.41 483.291 1207.74 475.282 1244.85 475.282C1281.96 475.282 1304.8 483.291 1304.8 490.354Z" fill="url(#paint7_linear_80_139)"/>
<path d="M1070.19 128.445C1074.67 138.132 1065.17 140.875 1054.3 146.067C1043.42 151.259 1035.28 156.933 1030.8 147.247C1026.32 137.56 1022.68 118.334 1038.07 110.989C1053.99 103.391 1065.71 118.758 1070.19 128.445Z" fill="#2F2E41"/>
<g filter="url(#filter8_i_80_139)">
<path d="M1047.86 147.485C1056.19 147.485 1062.94 140.921 1062.94 132.824C1062.94 124.727 1056.19 118.163 1047.86 118.163C1039.54 118.163 1032.79 124.727 1032.79 132.824C1032.79 140.921 1039.54 147.485 1047.86 147.485Z" fill="white"/>
</g>
<path d="M1121.49 198.707C1120.98 198.039 1120.46 197.383 1119.94 196.745C1119.27 195.915 1118.6 195.111 1117.92 194.332C1110.22 185.494 1102.03 179.928 1093.02 179.332H1093.01L1092.88 179.32L1074.91 196.745L1068.81 202.666L1068.94 202.991L1072.24 211.156H1129.97C1127.36 206.859 1124.54 202.704 1121.49 198.707Z" fill="#2F2E41"/>
<path d="M1031.76 139.108L1037.08 136.546L1036.34 128.682L1039.89 135.19L1042.43 133.966L1042 129.378L1044.07 133.174L1062.94 124.077C1061.17 120.208 1057.97 117.219 1054.05 115.768C1050.13 114.318 1045.81 114.525 1042.04 116.343L1039.3 117.661C1035.53 119.48 1032.62 122.761 1031.2 126.783C1029.79 130.805 1029.99 135.238 1031.76 139.108Z" fill="#2F2E41"/>
<g filter="url(#filter9_dd_80_139)">
<path d="M1154.39 407.193H845.836C843.204 407.19 840.681 406.143 838.82 404.281C836.959 402.419 835.912 399.894 835.909 397.261V213.076C835.909 203.687 843.52 196.076 852.909 196.076L1147.31 196.076C1156.7 196.076 1164.31 203.687 1164.31 213.076V397.261C1164.31 399.894 1163.26 402.419 1161.4 404.281C1159.54 406.143 1157.02 407.19 1154.39 407.193Z" fill="#E4DDFF"/>
</g>
<path d="M855.581 397.14H1144.64C1147.19 397.14 1149.64 396.125 1151.44 394.318C1153.25 392.511 1154.26 390.06 1154.26 387.505V230.006C1154.26 227.451 1153.25 225 1151.44 223.193C1149.64 221.386 1147.19 220.371 1144.64 220.371H855.581C853.03 220.371 850.583 221.386 848.78 223.193C846.976 225 845.962 227.451 845.962 230.006V387.505C845.962 390.06 846.976 392.511 848.78 394.318C850.583 396.125 853.03 397.14 855.581 397.14Z" fill="white"/>
<path d="M1164.31 211.156H835.909V206.078C835.913 203.426 836.964 200.883 838.832 199.008C840.7 197.132 843.232 196.078 845.873 196.076H1154.35C1156.99 196.078 1159.52 197.132 1161.39 199.007C1163.26 200.883 1164.31 203.426 1164.31 206.078V211.156Z" fill="url(#paint8_linear_80_139)"/>
<path d="M853.503 206.129C854.891 206.129 856.016 205.004 856.016 203.616C856.016 202.228 854.891 201.102 853.503 201.102C852.115 201.102 850.99 202.228 850.99 203.616C850.99 205.004 852.115 206.129 853.503 206.129Z" fill="white"/>
<path d="M863.555 206.129C864.943 206.129 866.069 205.004 866.069 203.616C866.069 202.228 864.943 201.102 863.555 201.102C862.167 201.102 861.042 202.228 861.042 203.616C861.042 205.004 862.167 206.129 863.555 206.129Z" fill="white"/>
<path d="M873.609 206.129C874.997 206.129 876.122 205.004 876.122 203.616C876.122 202.228 874.997 201.102 873.609 201.102C872.221 201.102 871.096 202.228 871.096 203.616C871.096 205.004 872.221 206.129 873.609 206.129Z" fill="white"/>
<path d="M1009.41 362.791H983.268C981.737 362.79 980.268 362.194 979.186 361.135C978.103 360.076 977.493 358.641 977.492 357.143V331.578C977.493 330.08 978.103 328.645 979.186 327.586C980.268 326.527 981.737 325.931 983.268 325.93H1009.41C1010.95 325.931 1012.41 326.527 1013.5 327.586C1014.58 328.645 1015.19 330.08 1015.19 331.578V357.143C1015.19 358.641 1014.58 360.076 1013.5 361.135C1012.41 362.194 1010.95 362.79 1009.41 362.791ZM983.268 327.119C982.059 327.12 980.9 327.59 980.045 328.426C979.19 329.262 978.709 330.396 978.708 331.578V357.143C978.709 358.326 979.19 359.459 980.045 360.295C980.9 361.131 982.059 361.601 983.268 361.602H1009.41C1010.62 361.601 1011.78 361.131 1012.64 360.295C1013.49 359.459 1013.97 358.326 1013.98 357.143V331.578C1013.97 330.396 1013.49 329.262 1012.64 328.426C1011.78 327.59 1010.62 327.12 1009.41 327.119H983.268Z" fill="#CCCCCC"/>
<path d="M1004.17 356.089H988.513C988.035 356.089 987.575 355.894 987.237 355.546C986.898 355.199 986.708 354.728 986.707 354.237V334.484C986.708 333.993 986.898 333.522 987.237 333.175C987.575 332.828 988.035 332.632 988.513 332.632H999.857C1000.27 332.632 1000.67 332.776 1000.99 333.04L1005.3 336.592C1005.51 336.765 1005.68 336.985 1005.8 337.235C1005.92 337.485 1005.98 337.758 1005.98 338.036V354.237C1005.98 354.728 1005.78 355.199 1005.45 355.546C1005.11 355.894 1004.65 356.089 1004.17 356.089ZM988.513 333.866C988.354 333.867 988.201 333.932 988.088 334.048C987.975 334.163 987.912 334.32 987.911 334.484V354.237C987.912 354.401 987.975 354.558 988.088 354.674C988.201 354.789 988.354 354.855 988.513 354.855H1004.17C1004.33 354.855 1004.48 354.789 1004.59 354.674C1004.71 354.558 1004.77 354.401 1004.77 354.237V338.036C1004.77 337.943 1004.75 337.852 1004.71 337.769C1004.67 337.685 1004.62 337.612 1004.55 337.555L1000.23 334.002C1000.13 333.915 999.995 333.867 999.857 333.866H988.513Z" fill="#CCCCCC"/>
<path d="M1001.18 341.847H991.501C991.341 341.847 991.187 341.759 991.073 341.602C990.96 341.445 990.896 341.232 990.896 341.01C990.896 340.787 990.96 340.574 991.073 340.417C991.187 340.26 991.341 340.172 991.501 340.172H1001.18C1001.34 340.172 1001.5 340.26 1001.61 340.417C1001.72 340.574 1001.79 340.787 1001.79 341.01C1001.79 341.232 1001.72 341.445 1001.61 341.602C1001.5 341.759 1001.34 341.847 1001.18 341.847Z" fill="#CCCCCC"/>
<path d="M1001.18 345.198H991.501C991.341 345.198 991.187 345.11 991.073 344.953C990.96 344.796 990.896 344.583 990.896 344.361C990.896 344.138 990.96 343.925 991.073 343.768C991.187 343.611 991.341 343.523 991.501 343.523H1001.18C1001.34 343.523 1001.5 343.611 1001.61 343.768C1001.72 343.925 1001.79 344.138 1001.79 344.361C1001.79 344.583 1001.72 344.796 1001.61 344.953C1001.5 345.11 1001.34 345.198 1001.18 345.198Z" fill="#CCCCCC"/>
<path d="M1001.18 348.549H991.501C991.341 348.549 991.187 348.505 991.073 348.427C990.96 348.348 990.896 348.242 990.896 348.131C990.896 348.019 990.96 347.913 991.073 347.834C991.187 347.756 991.341 347.712 991.501 347.712H1001.18C1001.34 347.712 1001.5 347.756 1001.61 347.834C1001.72 347.913 1001.79 348.019 1001.79 348.131C1001.79 348.242 1001.72 348.348 1001.61 348.427C1001.5 348.505 1001.34 348.549 1001.18 348.549Z" fill="#CCCCCC"/>
<path d="M1070.57 362.791H1044.43C1042.89 362.79 1041.43 362.194 1040.34 361.135C1039.26 360.076 1038.65 358.641 1038.65 357.143V331.578C1038.65 330.08 1039.26 328.645 1040.34 327.586C1041.43 326.527 1042.89 325.931 1044.43 325.93H1070.57C1072.1 325.931 1073.57 326.527 1074.65 327.586C1075.74 328.645 1076.35 330.08 1076.35 331.578V357.143C1076.35 358.641 1075.74 360.076 1074.65 361.135C1073.57 362.194 1072.1 362.79 1070.57 362.791ZM1044.43 327.119C1043.22 327.12 1042.06 327.59 1041.2 328.426C1040.35 329.262 1039.87 330.396 1039.87 331.578V357.143C1039.87 358.326 1040.35 359.459 1041.2 360.295C1042.06 361.131 1043.22 361.601 1044.43 361.602H1070.57C1071.78 361.601 1072.94 361.131 1073.8 360.295C1074.65 359.459 1075.13 358.326 1075.13 357.143V331.578C1075.13 330.396 1074.65 329.262 1073.8 328.426C1072.94 327.59 1071.78 327.12 1070.57 327.119H1044.43Z" fill="#CCCCCC"/>
<path d="M1066.12 351.063H1048.87C1048.38 351.062 1047.92 350.869 1047.57 350.527C1047.22 350.184 1047.03 349.72 1047.03 349.235V339.486C1047.03 339.002 1047.22 338.537 1047.57 338.194C1047.92 337.852 1048.38 337.659 1048.87 337.658H1066.12C1066.61 337.659 1067.08 337.852 1067.43 338.194C1067.78 338.537 1067.97 339.002 1067.97 339.486V349.235C1067.97 349.72 1067.78 350.184 1067.43 350.527C1067.08 350.869 1066.61 351.062 1066.12 351.063ZM1048.87 338.877C1048.71 338.877 1048.55 338.941 1048.44 339.056C1048.32 339.17 1048.26 339.325 1048.26 339.486V349.235C1048.26 349.396 1048.32 349.551 1048.44 349.666C1048.55 349.78 1048.71 349.844 1048.87 349.844H1066.12C1066.29 349.844 1066.44 349.78 1066.56 349.666C1066.67 349.551 1066.74 349.396 1066.74 349.235V339.486C1066.74 339.325 1066.67 339.17 1066.56 339.056C1066.44 338.941 1066.29 338.877 1066.12 338.877H1048.87Z" fill="#CCCCCC"/>
<path d="M1057.5 346.036C1057.15 346.037 1056.81 345.946 1056.52 345.775L1047.32 340.398C1047.18 340.317 1047.08 340.188 1047.04 340.039C1047.01 339.89 1047.03 339.734 1047.12 339.605C1047.21 339.475 1047.35 339.383 1047.5 339.349C1047.66 339.314 1047.83 339.34 1047.97 339.421L1057.17 344.798C1057.27 344.855 1057.38 344.885 1057.5 344.885C1057.61 344.885 1057.73 344.855 1057.83 344.798L1067.03 339.421C1067.17 339.34 1067.33 339.314 1067.49 339.349C1067.65 339.383 1067.79 339.475 1067.88 339.605C1067.96 339.734 1067.99 339.89 1067.96 340.039C1067.92 340.188 1067.82 340.317 1067.68 340.398L1058.48 345.775C1058.18 345.946 1057.85 346.037 1057.5 346.036Z" fill="#CCCCCC"/>
<path d="M947.549 362.791H921.983C920.486 362.79 919.05 362.194 917.991 361.135C916.932 360.076 916.337 358.641 916.335 357.143V331.578C916.337 330.08 916.932 328.645 917.991 327.586C919.05 326.527 920.486 325.931 921.983 325.93H947.549C949.046 325.931 950.482 326.527 951.541 327.586C952.599 328.645 953.195 330.08 953.197 331.578V357.143C953.195 358.641 952.599 360.076 951.541 361.135C950.482 362.194 949.046 362.79 947.549 362.791ZM921.983 327.119C920.801 327.12 919.668 327.59 918.832 328.426C917.996 329.262 917.525 330.396 917.524 331.578V357.143C917.525 358.326 917.996 359.459 918.832 360.295C919.668 361.131 920.801 361.601 921.983 361.602H947.549C948.731 361.601 949.864 361.131 950.7 360.295C951.536 359.459 952.006 358.326 952.008 357.143V331.578C952.006 330.396 951.536 329.262 950.7 328.426C949.864 327.59 948.731 327.12 947.549 327.119H921.983Z" fill="#CCCCCC"/>
<path d="M943.046 351.063H926.487C926.017 351.062 925.566 350.869 925.234 350.527C924.901 350.184 924.714 349.72 924.713 349.235V339.486C924.714 339.002 924.901 338.537 925.234 338.194C925.566 337.852 926.017 337.659 926.487 337.658H943.046C943.516 337.659 943.967 337.852 944.3 338.194C944.632 338.537 944.819 339.002 944.82 339.486V349.235C944.819 349.72 944.632 350.184 944.3 350.527C943.967 350.869 943.516 351.062 943.046 351.063ZM926.487 338.877C926.331 338.877 926.18 338.941 926.07 339.056C925.959 339.17 925.896 339.325 925.896 339.486V349.235C925.896 349.396 925.959 349.551 926.07 349.666C926.18 349.78 926.331 349.844 926.487 349.844H943.046C943.202 349.844 943.353 349.78 943.464 349.666C943.575 349.551 943.637 349.396 943.637 349.235V339.486C943.637 339.325 943.575 339.17 943.464 339.056C943.353 338.941 943.202 338.877 943.046 338.877H926.487Z" fill="#CCCCCC"/>
<path d="M940.287 351.063H928.406C928.199 351.063 927.995 351.009 927.816 350.908C927.636 350.807 927.487 350.661 927.384 350.485C927.28 350.309 927.226 350.11 927.226 349.907C927.226 349.704 927.28 349.505 927.384 349.329L930.962 343.263C931.066 343.087 931.215 342.941 931.395 342.84C931.574 342.738 931.778 342.685 931.985 342.685C932.192 342.685 932.396 342.738 932.575 342.84C932.755 342.941 932.904 343.087 933.008 343.263L935.319 347.181L936.658 344.911C936.761 344.735 936.911 344.589 937.09 344.488C937.27 344.387 937.473 344.333 937.68 344.333C937.888 344.333 938.091 344.387 938.271 344.488C938.45 344.589 938.599 344.735 938.703 344.911L941.309 349.329C941.413 349.505 941.468 349.704 941.468 349.907C941.468 350.11 941.413 350.309 941.309 350.485C941.206 350.661 941.057 350.807 940.877 350.908C940.698 351.009 940.494 351.063 940.287 351.063ZM940.287 349.907L937.68 345.489L935.83 348.625C935.778 348.713 935.704 348.786 935.614 348.837C935.524 348.887 935.423 348.914 935.319 348.914C935.215 348.914 935.113 348.887 935.024 348.837C934.934 348.786 934.859 348.713 934.808 348.625L931.985 343.841L928.406 349.907H940.287Z" fill="#CCCCCC"/>
<path d="M941.049 342.685C941.743 342.685 942.305 342.122 942.305 341.428C942.305 340.734 941.743 340.172 941.049 340.172C940.355 340.172 939.792 340.734 939.792 341.428C939.792 342.122 940.355 342.685 941.049 342.685Z" fill="#CCCCCC"/>
<path d="M1232.53 491.006L1225.15 491.005L1221.64 462.522L1232.53 462.522L1232.53 491.006Z" fill="white"/>
<path d="M1235.04 491.519C1235.04 492.623 1234.15 493.519 1233.04 493.519L1214.55 493.518C1212.45 493.518 1210.62 491.734 1211.47 489.813V489.813C1211.94 488.73 1212.64 487.746 1213.52 486.917C1214.39 486.089 1215.44 485.431 1216.58 484.983C1217.73 484.534 1218.96 484.303 1220.2 484.303H1220.2L1235.04 484.304L1235.04 491.519Z" fill="url(#paint9_linear_80_139)"/>
<path d="M1262.69 491.006L1255.31 491.005L1251.8 462.522L1262.69 462.522L1262.69 491.006Z" fill="white"/>
<path d="M1265.2 491.519C1265.2 492.623 1264.31 493.519 1263.2 493.519L1244.71 493.518C1242.61 493.518 1240.78 491.734 1241.63 489.813V489.813C1242.1 488.73 1242.8 487.746 1243.68 486.917C1244.55 486.089 1245.6 485.431 1246.74 484.983C1247.89 484.534 1249.12 484.303 1250.36 484.303H1250.36L1265.2 484.304L1265.2 491.519Z" fill="url(#paint10_linear_80_139)"/>
<path d="M1260.92 479.159L1254 477.075C1253.49 476.92 1253.03 476.619 1252.69 476.207C1252.35 475.796 1252.13 475.294 1252.08 474.763L1245.63 414.25C1245.63 414.177 1245.59 414.109 1245.54 414.059C1245.49 414.009 1245.41 413.981 1245.34 413.981C1245.27 413.974 1245.19 413.996 1245.13 414.042C1245.08 414.088 1245.04 414.154 1245.03 414.227L1234.23 472.854C1234.17 473.21 1234.03 473.549 1233.83 473.852C1233.63 474.154 1233.37 474.415 1233.07 474.617C1232.77 474.819 1232.43 474.959 1232.07 475.03C1231.71 475.1 1231.34 475.098 1230.99 475.025L1222.15 473.222C1221.5 473.088 1220.92 472.727 1220.52 472.205C1220.12 471.682 1219.93 471.035 1219.97 470.38L1226.54 374.289L1271.07 369.529L1264.45 476.727C1264.41 477.416 1264.1 478.063 1263.59 478.537C1263.09 479.011 1262.42 479.275 1261.72 479.277C1261.45 479.277 1261.18 479.237 1260.92 479.159Z" fill="url(#paint11_linear_80_139)"/>
<path d="M1256.89 299.121C1264.98 299.121 1271.55 292.557 1271.55 284.46C1271.55 276.363 1264.98 269.799 1256.89 269.799C1248.79 269.799 1242.23 276.363 1242.23 284.46C1242.23 292.557 1248.79 299.121 1256.89 299.121Z" fill="white"/>
<g filter="url(#filter10_dd_80_139)">
<path d="M1242.31 383.828C1232.06 383.528 1224.4 374.275 1226.03 364.141L1232.58 323.312C1233.09 320.124 1234.28 317.081 1236.08 314.385C1237.87 311.688 1240.22 309.401 1242.98 307.674C1245.73 305.948 1248.83 304.821 1252.06 304.371C1255.29 303.92 1258.58 304.155 1261.71 305.06C1267.18 306.626 1271.87 310.156 1274.86 314.959C1277.84 319.762 1278.91 325.494 1277.85 331.034L1270.47 370.298C1268.92 378.519 1261.63 384.393 1253.26 384.149L1242.31 383.828Z" fill="#EBE6FF"/>
</g>
<g filter="url(#filter11_i_80_139)">
<path d="M1261.17 393.599C1261.93 393.112 1262.57 392.469 1263.04 391.716C1263.52 390.963 1263.82 390.118 1263.92 389.24C1264.02 388.362 1263.93 387.473 1263.64 386.635C1263.35 385.797 1262.88 385.031 1262.25 384.39L1272.39 365.305L1260.97 366.489L1253.1 384.431C1252.06 385.526 1251.47 386.952 1251.44 388.439C1251.42 389.927 1251.95 391.372 1252.94 392.502C1253.94 393.632 1255.33 394.368 1256.84 394.57C1258.36 394.772 1259.9 394.427 1261.17 393.599Z" fill="white"/>
</g>
<g filter="url(#filter12_dd_80_139)">
<path d="M1263.43 381.196C1262.88 381.119 1262.37 380.878 1261.96 380.505L1258.18 377.025C1257.77 376.647 1257.49 376.153 1257.37 375.611C1257.25 375.068 1257.3 374.503 1257.52 373.991L1263.63 359.58C1264.59 357.32 1265.05 354.879 1264.97 352.425L1264.05 322.309C1264.03 321.37 1264.04 320.418 1264.31 319.52C1264.51 318.881 1264.78 318.265 1265.12 317.685C1265.7 316.697 1266.47 315.832 1267.38 315.139C1268.3 314.447 1269.34 313.941 1270.45 313.65C1271.56 313.359 1272.72 313.288 1273.86 313.443C1275 313.598 1276.1 313.974 1277.09 314.551C1278.08 315.127 1278.95 315.893 1279.65 316.804C1280.34 317.714 1280.85 318.753 1281.14 319.859C1281.27 320.358 1281.36 320.867 1281.4 321.379C1281.5 322.622 1281.4 323.877 1281.5 325.12L1283.18 345.41C1283.74 352.136 1281.82 358.834 1277.79 364.259L1265.99 380.127C1265.76 380.432 1265.47 380.686 1265.14 380.873C1264.81 381.059 1264.44 381.174 1264.06 381.21C1263.85 381.23 1263.64 381.225 1263.43 381.196Z" fill="#EBE6FF"/>
</g>
<g filter="url(#filter13_i_80_139)">
<path d="M1171.96 276.231C1172.12 277.106 1172.47 277.935 1172.99 278.659C1173.5 279.383 1174.16 279.985 1174.93 280.422C1175.7 280.859 1176.56 281.122 1177.44 281.19C1178.32 281.259 1179.2 281.132 1180.03 280.819L1193.75 297.445L1196.99 286.692L1183.46 272.552C1182.84 271.188 1181.75 270.099 1180.4 269.49C1179.04 268.881 1177.5 268.795 1176.09 269.249C1174.67 269.702 1173.47 270.664 1172.71 271.951C1171.95 273.238 1171.68 274.761 1171.96 276.231Z" fill="white"/>
</g>
<g filter="url(#filter14_dd_80_139)">
<path d="M1182.29 283.266C1182.58 282.796 1183 282.423 1183.51 282.196L1188.21 280.09C1188.72 279.863 1189.28 279.797 1189.83 279.9C1190.38 280.003 1190.89 280.271 1191.28 280.668L1202.27 291.886C1203.97 293.626 1206.03 294.979 1208.3 295.854L1236.63 306.759C1237.5 307.093 1238.36 307.468 1239.08 308.06C1239.6 308.492 1240.07 308.983 1240.48 309.525C1241.17 310.439 1241.67 311.478 1241.95 312.584C1242.24 313.69 1242.3 314.841 1242.14 315.97C1241.97 317.1 1241.59 318.186 1241 319.168C1240.41 320.149 1239.63 321.005 1238.71 321.689C1237.79 322.372 1236.74 322.868 1235.63 323.149C1234.51 323.43 1233.35 323.49 1232.21 323.326C1231.69 323.251 1231.17 323.129 1230.68 322.962C1229.5 322.571 1228.4 321.999 1227.22 321.616L1207.74 315.249C1201.29 313.142 1195.83 308.784 1192.38 302.984L1182.28 286.024C1182.09 285.698 1181.97 285.335 1181.92 284.959C1181.88 284.582 1181.92 284.201 1182.03 283.84C1182.1 283.639 1182.18 283.447 1182.29 283.266Z" fill="#EBE6FF"/>
</g>
<path opacity="0.1" d="M1269.03 335.145L1268.43 354.41L1257.31 373.682L1266.6 352.206L1269.03 335.145Z" fill="black"/>
<path d="M1255.52 286.939C1254.59 287.061 1253.64 286.838 1252.87 286.311C1252.09 285.785 1251.52 284.991 1251.28 284.077C1251.05 283.025 1250.53 282.057 1249.79 281.277C1249.06 280.497 1248.12 279.935 1247.09 279.651C1244.38 279.024 1241.06 280.315 1239.07 278.237C1238.65 277.763 1238.34 277.193 1238.18 276.575C1238.01 275.957 1237.99 275.308 1238.13 274.682C1238.49 272.663 1239.92 271.138 1241.48 269.918C1244.75 267.363 1248.71 265.868 1252.84 265.628C1254.98 265.565 1257.12 265.673 1259.24 265.949C1261.46 266.091 1263.66 266.496 1265.78 267.157C1268.2 268.081 1270.36 269.607 1272.04 271.594C1273.73 273.581 1274.89 275.965 1275.42 278.525C1275.91 281.094 1275.83 283.739 1275.2 286.275C1274.57 288.811 1273.4 291.178 1271.77 293.21C1269.82 295.664 1267.31 297.598 1264.45 298.845C1263.77 299.17 1262.99 299.21 1262.27 298.956C1260.49 298.24 1260.78 296.011 1261.6 294.524C1262.47 292.933 1263.8 291.392 1263.1 289.456C1262.75 288.558 1262.08 287.826 1261.22 287.407C1259.45 286.495 1257.47 286.711 1255.57 286.933L1255.52 286.939Z" fill="#2F2E41"/>
<path d="M1166.95 294.932H984.067C981.435 294.929 978.912 293.888 977.051 292.037C975.19 290.186 974.144 287.676 974.141 285.059V246.162C974.144 243.544 975.19 241.035 977.051 239.184C978.912 237.333 981.435 236.291 984.067 236.289H1166.95C1169.59 236.292 1172.11 237.333 1173.97 239.184C1175.83 241.035 1176.88 243.544 1176.88 246.162V285.059C1176.88 287.676 1175.83 290.186 1173.97 292.037C1172.11 293.888 1169.59 294.929 1166.95 294.932Z" fill="white"/>
<path d="M1166.68 295.77H984.338C981.634 295.767 979.042 294.69 977.131 292.775C975.219 290.86 974.144 288.264 974.141 285.556V246.502C974.144 243.795 975.219 241.198 977.131 239.283C979.042 237.369 981.634 236.292 984.338 236.289H1166.68C1169.39 236.292 1171.98 237.369 1173.89 239.283C1175.8 241.198 1176.88 243.795 1176.88 246.502V285.556C1176.88 288.264 1175.8 290.86 1173.89 292.775C1171.98 294.69 1169.39 295.767 1166.68 295.77ZM984.338 237.49C981.952 237.493 979.665 238.443 977.979 240.133C976.292 241.822 975.343 244.113 975.34 246.502V285.556C975.343 287.945 976.292 290.236 977.979 291.926C979.665 293.615 981.952 294.566 984.338 294.568H1166.68C1169.07 294.566 1171.36 293.615 1173.04 291.926C1174.73 290.236 1175.68 287.945 1175.68 285.556V246.502C1175.68 244.113 1174.73 241.822 1173.04 240.133C1171.36 238.443 1169.07 237.493 1166.68 237.49H984.338Z" fill="#3F3D56"/>
<path d="M1144.33 285.717H1005.86C1003.22 285.714 1000.7 284.669 998.836 282.813C996.973 280.956 995.926 278.439 995.923 275.814V255.407C995.926 252.782 996.973 250.264 998.836 248.408C1000.7 246.551 1003.22 245.507 1005.86 245.504H1144.33C1146.96 245.507 1149.49 246.551 1151.35 248.408C1153.21 250.264 1154.26 252.782 1154.26 255.407V275.814C1154.26 278.439 1153.21 280.956 1151.35 282.813C1149.49 284.669 1146.96 285.714 1144.33 285.717Z" fill="#E4DDFF"/>
<path d="M1036.14 274.826C1042.61 274.826 1047.86 269.387 1047.86 262.678C1047.86 255.969 1042.61 250.531 1036.14 250.531C1029.66 250.531 1024.41 255.969 1024.41 262.678C1024.41 269.387 1029.66 274.826 1036.14 274.826Z" fill="#FF6584"/>
<path d="M1136.45 284.525L1119.6 270.54L1103.03 256.797C1102.6 256.434 1102.04 256.236 1101.47 256.237C1100.9 256.238 1100.35 256.438 1099.92 256.803L1083.41 270.609L1079.37 273.981L1073.29 268.936L1054.81 253.604C1054.38 253.241 1053.82 253.043 1053.25 253.044C1052.68 253.045 1052.13 253.245 1051.7 253.61L1033.28 269.012L1014.57 284.658C1014.47 284.737 1014.41 284.843 1014.37 284.962C1014.34 285.081 1014.35 285.206 1014.39 285.321C1014.43 285.437 1014.51 285.536 1014.61 285.606C1014.71 285.676 1014.84 285.714 1014.96 285.714L1053.32 285.641L1065.46 285.617L1065.34 285.717L1101.53 285.648L1136.06 285.582C1136.19 285.582 1136.31 285.544 1136.41 285.473C1136.51 285.403 1136.59 285.303 1136.63 285.187C1136.67 285.072 1136.68 284.947 1136.65 284.828C1136.61 284.709 1136.55 284.603 1136.45 284.525Z" fill="#3F3D56"/>
<g filter="url(#filter15_i_80_139)">
<path d="M1129.78 189.05C1129.31 188.271 1128.68 187.597 1127.93 187.07C1127.19 186.543 1126.34 186.175 1125.45 185.987C1125.13 185.918 1124.79 185.875 1124.46 185.861L1078.93 144.942C1078.04 144.018 1076.85 143.445 1075.57 143.327C1075.32 143.297 1075.06 143.289 1074.81 143.303C1073.76 143.351 1072.75 143.705 1071.89 144.323C1071.04 144.941 1070.39 145.795 1070.01 146.782C1069.63 147.768 1069.55 148.844 1069.77 149.877C1069.99 150.911 1070.5 151.857 1071.25 152.601L1088.68 167.876L1117.3 192.955C1117.33 193.427 1117.4 193.896 1117.51 194.354C1117.85 195.682 1118.59 196.874 1119.62 197.772C1120.65 198.67 1121.93 199.231 1123.29 199.382C1124.53 199.527 1125.78 199.319 1126.9 198.781C1127.8 198.362 1128.59 197.753 1129.22 196.997C1129.29 196.919 1129.35 196.847 1129.41 196.763C1130.24 195.668 1130.73 194.344 1130.79 192.966C1130.86 191.588 1130.51 190.222 1129.78 189.05Z" fill="white"/>
</g>
<g filter="url(#filter16_i_80_139)">
<path d="M1051.57 228.581L1051.15 211.114L1050.8 196.619L1050.56 186.475L1050.08 166.703C1049.99 165.644 1049.6 164.636 1048.96 163.803C1048.32 162.97 1047.46 162.346 1046.48 162.01C1045.5 161.673 1044.45 161.637 1043.46 161.906C1042.46 162.175 1041.56 162.738 1040.87 163.525C1040.71 163.705 1040.56 163.9 1040.43 164.106C1039.71 165.173 1039.38 166.473 1039.52 167.768L1040.56 196.619L1041.08 211.114L1041.75 229.604C1041.56 229.876 1041.38 230.161 1041.23 230.458C1040.81 231.274 1040.56 232.169 1040.49 233.089C1040.42 234.008 1040.53 234.933 1040.81 235.808C1041.11 236.725 1041.59 237.566 1042.23 238.277C1042.86 238.987 1043.64 239.55 1044.5 239.929C1045.36 240.309 1046.29 240.495 1047.23 240.476C1048.17 240.457 1049.09 240.234 1049.93 239.82C1050.92 239.34 1051.77 238.617 1052.42 237.716C1053.07 236.814 1053.49 235.761 1053.66 234.65C1053.82 233.539 1053.71 232.404 1053.35 231.346C1052.98 230.287 1052.37 229.338 1051.57 228.581Z" fill="white"/>
</g>
<g filter="url(#filter17_dd_80_139)">
<path d="M1093.24 178.767L1088.94 167.314L1081.97 148.762C1081.47 147.412 1080.66 146.191 1079.61 145.188C1078.56 144.186 1077.3 143.429 1075.91 142.972C1075.8 142.937 1075.68 142.901 1075.57 142.871C1074.23 142.47 1072.81 142.36 1071.42 142.548C1070.03 142.736 1068.7 143.217 1067.51 143.959L1044.05 158.576C1041.9 159.912 1040.36 162.016 1039.76 164.443C1039.16 166.87 1039.55 169.431 1040.84 171.584C1043.77 176.568 1046.97 181.397 1050.42 186.052C1050.76 186.506 1051.13 186.91 1051.53 187.28C1056.61 191.976 1064.25 196.076 1071.16 196.076V196.076C1074.55 196.076 1077.83 194.837 1080.38 192.592L1092.45 181.951C1093.35 181.158 1093.66 179.891 1093.24 178.767V178.767Z" fill="#EBE6FF"/>
</g>
<path d="M884.716 309.174H859.151C857.653 309.173 856.218 308.577 855.159 307.518C854.1 306.459 853.504 305.024 853.502 303.526V277.961C853.504 276.463 854.1 275.028 855.159 273.969C856.218 272.91 857.653 272.314 859.151 272.313H884.716C886.213 272.314 887.649 272.91 888.708 273.969C889.767 275.028 890.362 276.463 890.364 277.961V303.526C890.362 305.024 889.767 306.459 888.708 307.518C887.649 308.577 886.213 309.173 884.716 309.174Z" fill="white"/>
<path d="M884.716 309.174H859.151C857.653 309.173 856.218 308.577 855.159 307.518C854.1 306.459 853.504 305.024 853.502 303.526V277.961C853.504 276.463 854.1 275.028 855.159 273.969C856.218 272.91 857.653 272.314 859.151 272.313H884.716C886.213 272.314 887.649 272.91 888.708 273.969C889.767 275.028 890.362 276.463 890.364 277.961V303.526C890.362 305.024 889.767 306.459 888.708 307.518C887.649 308.577 886.213 309.173 884.716 309.174ZM859.151 273.502C857.968 273.503 856.835 273.973 855.999 274.809C855.163 275.645 854.693 276.778 854.692 277.961V303.526C854.693 304.708 855.163 305.842 855.999 306.678C856.835 307.514 857.968 307.984 859.151 307.985H884.716C885.898 307.984 887.032 307.514 887.868 306.678C888.704 305.842 889.174 304.708 889.175 303.526V277.961C889.174 276.778 888.704 275.645 887.868 274.809C887.032 273.973 885.898 273.503 884.716 273.502H859.151Z" fill="#3F3D56"/>
<path d="M880.213 299.121H863.655C863.185 299.121 862.734 298.924 862.401 298.575C862.068 298.226 861.881 297.753 861.881 297.259V284.227C861.881 283.734 862.068 283.261 862.401 282.912C862.734 282.563 863.185 282.366 863.655 282.366H868.316C868.619 282.365 868.918 282.445 869.183 282.601C869.447 282.756 869.669 282.98 869.827 283.251L871.127 285.469H880.213C880.684 285.469 881.134 285.665 881.467 286.014C881.8 286.363 881.987 286.837 881.987 287.33V297.259C881.987 297.753 881.8 298.226 881.467 298.575C881.134 298.924 880.684 299.121 880.213 299.121Z" fill="url(#paint12_linear_80_139)"/>
<defs>
<filter id="filter0_i_80_139" x="63.3018" y="426.562" width="12.4331" height="31.8444" filterUnits="userSpaceOnUse" color-interpolation-filters="sRGB">
<feFlood flood-opacity="0" result="BackgroundImageFix"/>
<feBlend mode="normal" in="SourceGraphic" in2="BackgroundImageFix" result="shape"/>
<feColorMatrix in="SourceAlpha" type="matrix" values="0 0 0 0 0 0 0 0 0 0 0 0 0 0 0 0 0 0 127 0" result="hardAlpha"/>
<feOffset dy="4"/>
<feGaussianBlur stdDeviation="5"/>
<feComposite in2="hardAlpha" operator="arithmetic" k2="-1" k3="1"/>
<feColorMatrix type="matrix" values="0 0 0 0 0 0 0 0 0 0 0 0 0 0 0 0 0 0 0.25 0"/>
<feBlend mode="normal" in2="shape" result="effect1_innerShadow_80_139"/>
</filter>
<filter id="filter1_dd_80_139" x="50.0234" y="330.235" width="57.479" height="126.071" filterUnits="userSpaceOnUse" color-interpolation-filters="sRGB">
<feFlood flood-opacity="0" result="BackgroundImageFix"/>
<feColorMatrix in="SourceAlpha" type="matrix" values="0 0 0 0 0 0 0 0 0 0 0 0 0 0 0 0 0 0 127 0" result="hardAlpha"/>
<feOffset dy="2"/>
<feGaussianBlur stdDeviation="7"/>
<feComposite in2="hardAlpha" operator="out"/>
<feColorMatrix type="matrix" values="0 0 0 0 0.386851 0 0 0 0 0.262552 0 0 0 0 0.8875 0 0 0 0.7 0"/>
<feBlend mode="normal" in2="BackgroundImageFix" result="effect1_dropShadow_80_139"/>
<feColorMatrix in="SourceAlpha" type="matrix" values="0 0 0 0 0 0 0 0 0 0 0 0 0 0 0 0 0 0 127 0" result="hardAlpha"/>
<feOffset dy="4"/>
<feGaussianBlur stdDeviation="2"/>
<feComposite in2="hardAlpha" operator="out"/>
<feColorMatrix type="matrix" values="0 0 0 0 1 0 0 0 0 1 0 0 0 0 1 0 0 0 0.25 0"/>
<feBlend mode="normal" in2="effect1_dropShadow_80_139" result="effect2_dropShadow_80_139"/>
<feBlend mode="normal" in="SourceGraphic" in2="effect2_dropShadow_80_139" result="shape"/>
</filter>
<filter id="filter2_i_80_139" x="75.3057" y="540.854" width="9.97607" height="30.0707" filterUnits="userSpaceOnUse" color-interpolation-filters="sRGB">
<feFlood flood-opacity="0" result="BackgroundImageFix"/>
<feBlend mode="normal" in="SourceGraphic" in2="BackgroundImageFix" result="shape"/>
<feColorMatrix in="SourceAlpha" type="matrix" values="0 0 0 0 0 0 0 0 0 0 0 0 0 0 0 0 0 0 127 0" result="hardAlpha"/>
<feOffset dy="4"/>
<feGaussianBlur stdDeviation="5"/>
<feComposite in2="hardAlpha" operator="arithmetic" k2="-1" k3="1"/>
<feColorMatrix type="matrix" values="0 0 0 0 0 0 0 0 0 0 0 0 0 0 0 0 0 0 0.25 0"/>
<feBlend mode="normal" in2="shape" result="effect1_innerShadow_80_139"/>
</filter>
<filter id="filter3_i_80_139" x="113.272" y="540.854" width="9.97607" height="30.0707" filterUnits="userSpaceOnUse" color-interpolation-filters="sRGB">
<feFlood flood-opacity="0" result="BackgroundImageFix"/>
<feBlend mode="normal" in="SourceGraphic" in2="BackgroundImageFix" result="shape"/>
<feColorMatrix in="SourceAlpha" type="matrix" values="0 0 0 0 0 0 0 0 0 0 0 0 0 0 0 0 0 0 127 0" result="hardAlpha"/>
<feOffset dy="4"/>
<feGaussianBlur stdDeviation="5"/>
<feComposite in2="hardAlpha" operator="arithmetic" k2="-1" k3="1"/>
<feColorMatrix type="matrix" values="0 0 0 0 0 0 0 0 0 0 0 0 0 0 0 0 0 0 0.25 0"/>
<feBlend mode="normal" in2="shape" result="effect1_innerShadow_80_139"/>
</filter>
<filter id="filter4_dd_80_139" x="53.9155" y="313.414" width="86.0225" height="116.156" filterUnits="userSpaceOnUse" color-interpolation-filters="sRGB">
<feFlood flood-opacity="0" result="BackgroundImageFix"/>
<feColorMatrix in="SourceAlpha" type="matrix" values="0 0 0 0 0 0 0 0 0 0 0 0 0 0 0 0 0 0 127 0" result="hardAlpha"/>
<feOffset dy="2"/>
<feGaussianBlur stdDeviation="7"/>
<feComposite in2="hardAlpha" operator="out"/>
<feColorMatrix type="matrix" values="0 0 0 0 0.386851 0 0 0 0 0.262552 0 0 0 0 0.8875 0 0 0 0.7 0"/>
<feBlend mode="normal" in2="BackgroundImageFix" result="effect1_dropShadow_80_139"/>
<feColorMatrix in="SourceAlpha" type="matrix" values="0 0 0 0 0 0 0 0 0 0 0 0 0 0 0 0 0 0 127 0" result="hardAlpha"/>
<feOffset dy="4"/>
<feGaussianBlur stdDeviation="2"/>
<feComposite in2="hardAlpha" operator="out"/>
<feColorMatrix type="matrix" values="0 0 0 0 1 0 0 0 0 1 0 0 0 0 1 0 0 0 0.25 0"/>
<feBlend mode="normal" in2="effect1_dropShadow_80_139" result="effect2_dropShadow_80_139"/>
<feBlend mode="normal" in="SourceGraphic" in2="effect2_dropShadow_80_139" result="shape"/>
</filter>
<filter id="filter5_i_80_139" x="87.9868" y="289.698" width="30.2109" height="34.2107" filterUnits="userSpaceOnUse" color-interpolation-filters="sRGB">
<feFlood flood-opacity="0" result="BackgroundImageFix"/>
<feBlend mode="normal" in="SourceGraphic" in2="BackgroundImageFix" result="shape"/>
<feColorMatrix in="SourceAlpha" type="matrix" values="0 0 0 0 0 0 0 0 0 0 0 0 0 0 0 0 0 0 127 0" result="hardAlpha"/>
<feOffset dy="4"/>
<feGaussianBlur stdDeviation="5"/>
<feComposite in2="hardAlpha" operator="arithmetic" k2="-1" k3="1"/>
<feColorMatrix type="matrix" values="0 0 0 0 0 0 0 0 0 0 0 0 0 0 0 0 0 0 0.25 0"/>
<feBlend mode="normal" in2="shape" result="effect1_innerShadow_80_139"/>
</filter>
<filter id="filter6_i_80_139" x="124.055" y="426.562" width="12.4331" height="31.8444" filterUnits="userSpaceOnUse" color-interpolation-filters="sRGB">
<feFlood flood-opacity="0" result="BackgroundImageFix"/>
<feBlend mode="normal" in="SourceGraphic" in2="BackgroundImageFix" result="shape"/>
<feColorMatrix in="SourceAlpha" type="matrix" values="0 0 0 0 0 0 0 0 0 0 0 0 0 0 0 0 0 0 127 0" result="hardAlpha"/>
<feOffset dy="4"/>
<feGaussianBlur stdDeviation="5"/>
<feComposite in2="hardAlpha" operator="arithmetic" k2="-1" k3="1"/>
<feColorMatrix type="matrix" values="0 0 0 0 0 0 0 0 0 0 0 0 0 0 0 0 0 0 0.25 0"/>
<feBlend mode="normal" in2="shape" result="effect1_innerShadow_80_139"/>
</filter>
<filter id="filter7_dd_80_139" x="92.2866" y="330.235" width="57.4795" height="126.071" filterUnits="userSpaceOnUse" color-interpolation-filters="sRGB">
<feFlood flood-opacity="0" result="BackgroundImageFix"/>
<feColorMatrix in="SourceAlpha" type="matrix" values="0 0 0 0 0 0 0 0 0 0 0 0 0 0 0 0 0 0 127 0" result="hardAlpha"/>
<feOffset dy="2"/>
<feGaussianBlur stdDeviation="7"/>
<feComposite in2="hardAlpha" operator="out"/>
<feColorMatrix type="matrix" values="0 0 0 0 0.386851 0 0 0 0 0.262552 0 0 0 0 0.8875 0 0 0 0.7 0"/>
<feBlend mode="normal" in2="BackgroundImageFix" result="effect1_dropShadow_80_139"/>
<feColorMatrix in="SourceAlpha" type="matrix" values="0 0 0 0 0 0 0 0 0 0 0 0 0 0 0 0 0 0 127 0" result="hardAlpha"/>
<feOffset dy="4"/>
<feGaussianBlur stdDeviation="2"/>
<feComposite in2="hardAlpha" operator="out"/>
<feColorMatrix type="matrix" values="0 0 0 0 1 0 0 0 0 1 0 0 0 0 1 0 0 0 0.25 0"/>
<feBlend mode="normal" in2="effect1_dropShadow_80_139" result="effect2_dropShadow_80_139"/>
<feBlend mode="normal" in="SourceGraphic" in2="effect2_dropShadow_80_139" result="shape"/>
</filter>
<filter id="filter8_i_80_139" x="1032.79" y="112.163" width="30.1597" height="35.3218" filterUnits="userSpaceOnUse" color-interpolation-filters="sRGB">
<feFlood flood-opacity="0" result="BackgroundImageFix"/>
<feBlend mode="normal" in="SourceGraphic" in2="BackgroundImageFix" result="shape"/>
<feColorMatrix in="SourceAlpha" type="matrix" values="0 0 0 0 0 0 0 0 0 0 0 0 0 0 0 0 0 0 127 0" result="hardAlpha"/>
<feOffset dy="-6"/>
<feGaussianBlur stdDeviation="5"/>
<feComposite in2="hardAlpha" operator="arithmetic" k2="-1" k3="1"/>
<feColorMatrix type="matrix" values="0 0 0 0 0 0 0 0 0 0 0 0 0 0 0 0 0 0 0.25 0"/>
<feBlend mode="normal" in2="shape" result="effect1_innerShadow_80_139"/>
</filter>
<filter id="filter9_dd_80_139" x="785.909" y="148.076" width="428.405" height="311.117" filterUnits="userSpaceOnUse" color-interpolation-filters="sRGB">
<feFlood flood-opacity="0" result="BackgroundImageFix"/>
<feColorMatrix in="SourceAlpha" type="matrix" values="0 0 0 0 0 0 0 0 0 0 0 0 0 0 0 0 0 0 127 0" result="hardAlpha"/>
<feOffset dy="2"/>
<feGaussianBlur stdDeviation="25"/>
<feComposite in2="hardAlpha" operator="out"/>
<feColorMatrix type="matrix" values="0 0 0 0 0.386851 0 0 0 0 0.262552 0 0 0 0 0.8875 0 0 0 0.7 0"/>
<feBlend mode="normal" in2="BackgroundImageFix" result="effect1_dropShadow_80_139"/>
<feColorMatrix in="SourceAlpha" type="matrix" values="0 0 0 0 0 0 0 0 0 0 0 0 0 0 0 0 0 0 127 0" result="hardAlpha"/>
<feOffset dy="4"/>
<feGaussianBlur stdDeviation="1"/>
<feComposite in2="hardAlpha" operator="out"/>
<feColorMatrix type="matrix" values="0 0 0 0 1 0 0 0 0 1 0 0 0 0 1 0 0 0 0.25 0"/>
<feBlend mode="normal" in2="effect1_dropShadow_80_139" result="effect2_dropShadow_80_139"/>
<feBlend mode="normal" in="SourceGraphic" in2="effect2_dropShadow_80_139" result="shape"/>
</filter>
<filter id="filter10_dd_80_139" x="1211.81" y="292.148" width="80.4419" height="108.008" filterUnits="userSpaceOnUse" color-interpolation-filters="sRGB">
<feFlood flood-opacity="0" result="BackgroundImageFix"/>
<feColorMatrix in="SourceAlpha" type="matrix" values="0 0 0 0 0 0 0 0 0 0 0 0 0 0 0 0 0 0 127 0" result="hardAlpha"/>
<feOffset dy="2"/>
<feGaussianBlur stdDeviation="7"/>
<feComposite in2="hardAlpha" operator="out"/>
<feColorMatrix type="matrix" values="0 0 0 0 0.386851 0 0 0 0 0.262552 0 0 0 0 0.8875 0 0 0 0.7 0"/>
<feBlend mode="normal" in2="BackgroundImageFix" result="effect1_dropShadow_80_139"/>
<feColorMatrix in="SourceAlpha" type="matrix" values="0 0 0 0 0 0 0 0 0 0 0 0 0 0 0 0 0 0 127 0" result="hardAlpha"/>
<feOffset dy="4"/>
<feGaussianBlur stdDeviation="2"/>
<feComposite in2="hardAlpha" operator="out"/>
<feColorMatrix type="matrix" values="0 0 0 0 1 0 0 0 0 1 0 0 0 0 1 0 0 0 0.25 0"/>
<feBlend mode="normal" in2="effect1_dropShadow_80_139" result="effect2_dropShadow_80_139"/>
<feBlend mode="normal" in="SourceGraphic" in2="effect2_dropShadow_80_139" result="shape"/>
</filter>
<filter id="filter11_i_80_139" x="1251.44" y="365.305" width="20.9443" height="33.3218" filterUnits="userSpaceOnUse" color-interpolation-filters="sRGB">
<feFlood flood-opacity="0" result="BackgroundImageFix"/>
<feBlend mode="normal" in="SourceGraphic" in2="BackgroundImageFix" result="shape"/>
<feColorMatrix in="SourceAlpha" type="matrix" values="0 0 0 0 0 0 0 0 0 0 0 0 0 0 0 0 0 0 127 0" result="hardAlpha"/>
<feOffset dy="4"/>
<feGaussianBlur stdDeviation="5"/>
<feComposite in2="hardAlpha" operator="arithmetic" k2="-1" k3="1"/>
<feColorMatrix type="matrix" values="0 0 0 0 0 0 0 0 0 0 0 0 0 0 0 0 0 0 0.25 0"/>
<feBlend mode="normal" in2="shape" result="effect1_innerShadow_80_139"/>
</filter>
<filter id="filter12_dd_80_139" x="1243.31" y="301.363" width="53.9707" height="95.8591" filterUnits="userSpaceOnUse" color-interpolation-filters="sRGB">
<feFlood flood-opacity="0" result="BackgroundImageFix"/>
<feColorMatrix in="SourceAlpha" type="matrix" values="0 0 0 0 0 0 0 0 0 0 0 0 0 0 0 0 0 0 127 0" result="hardAlpha"/>
<feOffset dy="2"/>
<feGaussianBlur stdDeviation="7"/>
<feComposite in2="hardAlpha" operator="out"/>
<feColorMatrix type="matrix" values="0 0 0 0 0.386851 0 0 0 0 0.262552 0 0 0 0 0.8875 0 0 0 0.7 0"/>
<feBlend mode="normal" in2="BackgroundImageFix" result="effect1_dropShadow_80_139"/>
<feColorMatrix in="SourceAlpha" type="matrix" values="0 0 0 0 0 0 0 0 0 0 0 0 0 0 0 0 0 0 127 0" result="hardAlpha"/>
<feOffset dy="4"/>
<feGaussianBlur stdDeviation="2"/>
<feComposite in2="hardAlpha" operator="out"/>
<feColorMatrix type="matrix" values="0 0 0 0 1 0 0 0 0 1 0 0 0 0 1 0 0 0 0.25 0"/>
<feBlend mode="normal" in2="effect1_dropShadow_80_139" result="effect2_dropShadow_80_139"/>
<feBlend mode="normal" in="SourceGraphic" in2="effect2_dropShadow_80_139" result="shape"/>
</filter>
<filter id="filter13_i_80_139" x="1171.85" y="268.961" width="25.1328" height="32.4841" filterUnits="userSpaceOnUse" color-interpolation-filters="sRGB">
<feFlood flood-opacity="0" result="BackgroundImageFix"/>
<feBlend mode="normal" in="SourceGraphic" in2="BackgroundImageFix" result="shape"/>
<feColorMatrix in="SourceAlpha" type="matrix" values="0 0 0 0 0 0 0 0 0 0 0 0 0 0 0 0 0 0 127 0" result="hardAlpha"/>
<feOffset dy="4"/>
<feGaussianBlur stdDeviation="5"/>
<feComposite in2="hardAlpha" operator="arithmetic" k2="-1" k3="1"/>
<feColorMatrix type="matrix" values="0 0 0 0 0 0 0 0 0 0 0 0 0 0 0 0 0 0 0.25 0"/>
<feBlend mode="normal" in2="shape" result="effect1_innerShadow_80_139"/>
</filter>
<filter id="filter14_dd_80_139" x="1167.91" y="267.852" width="88.3193" height="71.5639" filterUnits="userSpaceOnUse" color-interpolation-filters="sRGB">
<feFlood flood-opacity="0" result="BackgroundImageFix"/>
<feColorMatrix in="SourceAlpha" type="matrix" values="0 0 0 0 0 0 0 0 0 0 0 0 0 0 0 0 0 0 127 0" result="hardAlpha"/>
<feOffset dy="2"/>
<feGaussianBlur stdDeviation="7"/>
<feComposite in2="hardAlpha" operator="out"/>
<feColorMatrix type="matrix" values="0 0 0 0 0.386851 0 0 0 0 0.262552 0 0 0 0 0.8875 0 0 0 0.7 0"/>
<feBlend mode="normal" in2="BackgroundImageFix" result="effect1_dropShadow_80_139"/>
<feColorMatrix in="SourceAlpha" type="matrix" values="0 0 0 0 0 0 0 0 0 0 0 0 0 0 0 0 0 0 127 0" result="hardAlpha"/>
<feOffset dy="4"/>
<feGaussianBlur stdDeviation="2"/>
<feComposite in2="hardAlpha" operator="out"/>
<feColorMatrix type="matrix" values="0 0 0 0 1 0 0 0 0 1 0 0 0 0 1 0 0 0 0.25 0"/>
<feBlend mode="normal" in2="effect1_dropShadow_80_139" result="effect2_dropShadow_80_139"/>
<feBlend mode="normal" in="SourceGraphic" in2="effect2_dropShadow_80_139" result="shape"/>
</filter>
<filter id="filter15_i_80_139" x="1069.65" y="143.296" width="61.1567" height="60.1304" filterUnits="userSpaceOnUse" color-interpolation-filters="sRGB">
<feFlood flood-opacity="0" result="BackgroundImageFix"/>
<feBlend mode="normal" in="SourceGraphic" in2="BackgroundImageFix" result="shape"/>
<feColorMatrix in="SourceAlpha" type="matrix" values="0 0 0 0 0 0 0 0 0 0 0 0 0 0 0 0 0 0 127 0" result="hardAlpha"/>
<feOffset dy="4"/>
<feGaussianBlur stdDeviation="5"/>
<feComposite in2="hardAlpha" operator="arithmetic" k2="-1" k3="1"/>
<feColorMatrix type="matrix" values="0 0 0 0 0 0 0 0 0 0 0 0 0 0 0 0 0 0 0.25 0"/>
<feBlend mode="normal" in2="shape" result="effect1_innerShadow_80_139"/>
</filter>
<filter id="filter16_i_80_139" x="1039.49" y="161.727" width="14.2422" height="82.7501" filterUnits="userSpaceOnUse" color-interpolation-filters="sRGB">
<feFlood flood-opacity="0" result="BackgroundImageFix"/>
<feBlend mode="normal" in="SourceGraphic" in2="BackgroundImageFix" result="shape"/>
<feColorMatrix in="SourceAlpha" type="matrix" values="0 0 0 0 0 0 0 0 0 0 0 0 0 0 0 0 0 0 127 0" result="hardAlpha"/>
<feOffset dy="4"/>
<feGaussianBlur stdDeviation="5"/>
<feComposite in2="hardAlpha" operator="arithmetic" k2="-1" k3="1"/>
<feColorMatrix type="matrix" values="0 0 0 0 0 0 0 0 0 0 0 0 0 0 0 0 0 0 0.25 0"/>
<feBlend mode="normal" in2="shape" result="effect1_innerShadow_80_139"/>
</filter>
<filter id="filter17_dd_80_139" x="1025.49" y="130.459" width="81.939" height="81.6171" filterUnits="userSpaceOnUse" color-interpolation-filters="sRGB">
<feFlood flood-opacity="0" result="BackgroundImageFix"/>
<feColorMatrix in="SourceAlpha" type="matrix" values="0 0 0 0 0 0 0 0 0 0 0 0 0 0 0 0 0 0 127 0" result="hardAlpha"/>
<feOffset dy="2"/>
<feGaussianBlur stdDeviation="7"/>
<feComposite in2="hardAlpha" operator="out"/>
<feColorMatrix type="matrix" values="0 0 0 0 0.386851 0 0 0 0 0.262552 0 0 0 0 0.8875 0 0 0 0.7 0"/>
<feBlend mode="normal" in2="BackgroundImageFix" result="effect1_dropShadow_80_139"/>
<feColorMatrix in="SourceAlpha" type="matrix" values="0 0 0 0 0 0 0 0 0 0 0 0 0 0 0 0 0 0 127 0" result="hardAlpha"/>
<feOffset dy="4"/>
<feGaussianBlur stdDeviation="2"/>
<feComposite in2="hardAlpha" operator="out"/>
<feColorMatrix type="matrix" values="0 0 0 0 1 0 0 0 0 1 0 0 0 0 1 0 0 0 0.25 0"/>
<feBlend mode="normal" in2="effect1_dropShadow_80_139" result="effect2_dropShadow_80_139"/>
<feBlend mode="normal" in="SourceGraphic" in2="effect2_dropShadow_80_139" result="shape"/>
</filter>
<radialGradient id="paint0_radial_80_139" cx="0" cy="0" r="1" gradientUnits="userSpaceOnUse" gradientTransform="rotate(28.4324) scale(796.016 781.219)">
<stop stop-color="#6642F7"/>
<stop offset="0.662397" stop-color="#06081F"/>
</radialGradient>
<radialGradient id="paint1_radial_80_139" cx="0" cy="0" r="1" gradientUnits="userSpaceOnUse" gradientTransform="translate(1440 -4.5282e-05) rotate(140.101) scale(938.512 990.269)">
<stop stop-color="#FF449E" stop-opacity="0.35"/>
<stop offset="1" stop-color="#070820" stop-opacity="0"/>
</radialGradient>
<linearGradient id="paint2_linear_80_139" x1="98.7421" y1="584.272" x2="96.7807" y2="561.397" gradientUnits="userSpaceOnUse">
<stop stop-color="#E4DDFF"/>
<stop offset="1" stop-color="#E4DDFF" stop-opacity="0"/>
</linearGradient>
<linearGradient id="paint3_linear_80_139" x1="85.2603" y1="562.563" x2="76.0424" y2="574.48" gradientUnits="userSpaceOnUse">
<stop stop-color="#2F2E41"/>
<stop offset="1" stop-color="#747476"/>
</linearGradient>
<linearGradient id="paint4_linear_80_139" x1="123.227" y1="562.563" x2="114.009" y2="574.48" gradientUnits="userSpaceOnUse">
<stop stop-color="#2F2E41"/>
<stop offset="1" stop-color="#747476"/>
</linearGradient>
<linearGradient id="paint5_linear_80_139" x1="962.077" y1="468.046" x2="858.64" y2="179.269" gradientUnits="userSpaceOnUse">
<stop stop-color="#E4DDFF"/>
<stop offset="1" stop-color="#E4DDFF" stop-opacity="0"/>
</linearGradient>
<linearGradient id="paint6_linear_80_139" x1="1047.43" y1="103.701" x2="1147.48" y2="499.152" gradientUnits="userSpaceOnUse">
<stop stop-color="#E4DDFF"/>
<stop offset="1" stop-color="#E4DDFF" stop-opacity="0"/>
</linearGradient>
<linearGradient id="paint7_linear_80_139" x1="1243.63" y1="472.038" x2="1250.11" y2="515.826" gradientUnits="userSpaceOnUse">
<stop stop-color="#CEC1FF" stop-opacity="0.12"/>
<stop offset="1" stop-color="white"/>
</linearGradient>
<linearGradient id="paint8_linear_80_139" x1="835.936" y1="195.923" x2="1164.44" y2="210.897" gradientUnits="userSpaceOnUse">
<stop stop-color="#6642F6"/>
<stop offset="1" stop-color="#F74299"/>
</linearGradient>
<linearGradient id="paint9_linear_80_139" x1="1224.62" y1="484.799" x2="1221" y2="493.652" gradientUnits="userSpaceOnUse">
<stop stop-color="#2F2E41"/>
<stop offset="1" stop-color="#747476"/>
</linearGradient>
<linearGradient id="paint10_linear_80_139" x1="1254.78" y1="484.799" x2="1251.16" y2="493.652" gradientUnits="userSpaceOnUse">
<stop stop-color="#2F2E41"/>
<stop offset="1" stop-color="#747476"/>
</linearGradient>
<linearGradient id="paint11_linear_80_139" x1="1245.52" y1="369.529" x2="1245.52" y2="479.277" gradientUnits="userSpaceOnUse">
<stop stop-color="#2F2E41"/>
<stop offset="1" stop-color="#B8B8B8"/>
</linearGradient>
<linearGradient id="paint12_linear_80_139" x1="861.882" y1="282.196" x2="882.037" y2="282.247" gradientUnits="userSpaceOnUse">
<stop stop-color="#6642F6"/>
<stop offset="1" stop-color="#F74299"/>
</linearGradient>
</defs>
</svg>
