<svg width="24" height="24" viewBox="0 0 24 24" fill="none" xmlns="http://www.w3.org/2000/svg">
  <path
    d="M14 23H10C9.4 23 9 22.6 9 22V15H7C6.4 15 6 14.6 6 14V10C6 9.4 6.4 9 7 9H9V7C9 3.7 11.7 1 15 1H18C18.6 1 19 1.4 19 2V6C19 6.6 18.6 7 18 7H15V9H18C18.3 9 18.6 9.1 18.8 9.4C19 9.7 19 9.9 19 10.2L18 14.2C17.9 14.6 17.5 15 17 15H15V22C15 22.6 14.6 23 14 23ZM11 21H13V14C13 13.4 13.4 13 14 13H16.2L16.7 11H14C13.4 11 13 10.6 13 10V7C13 5.9 13.9 5 15 5H17V3H15C12.8 3 11 4.8 11 7V10C11 10.6 10.6 11 10 11H8V13H10C10.6 13 11 13.4 11 14V21Z" />
</svg>