<svg width="24" height="24" viewBox="0 0 24 24" fill="none" xmlns="http://www.w3.org/2000/svg">
  <path fill-rule="evenodd" clip-rule="evenodd"
    d="M12 3C10.3431 3 9 4.34315 9 6C9 7.65685 10.3431 9 12 9C13.6569 9 15 7.65685 15 6C15 4.34315 13.6569 3 12 3ZM7 6C7 3.23858 9.23858 1 12 1C14.7614 1 17 3.23858 17 6C17 8.76142 14.7614 11 12 11C9.23858 11 7 8.76142 7 6Z" />
  <path fill-rule="evenodd" clip-rule="evenodd"
    d="M8 13C6.6739 13 5.40216 13.5268 4.46447 14.4645C3.76607 15.1629 3.29564 16.0466 3.101 17L3.04828 18.0114C3.01766 18.5988 3.24712 19.1698 3.67563 19.5727L4.63554 20.4751C6.66857 22.0575 9.22417 23 12 23C14.7758 23 17.3314 22.0575 19.3645 20.4751L20.2941 19.6367C20.7407 19.2338 20.9824 18.6513 20.952 18.0506L20.899 17C20.7044 16.0466 20.2339 15.1628 19.5355 14.4645C18.5978 13.5268 17.3261 13 16 13L8 13ZM18.3737 18.8425C18.7905 18.5033 19.0199 17.9744 18.9016 17.4503C18.7677 16.8566 18.5005 16.2579 18.1213 15.8787C17.5587 15.3161 16.7957 15 16 15L8 15C7.20434 15 6.4413 15.3161 5.87868 15.8787C5.50725 16.2501 5.24328 16.7705 5.10677 17.3103C4.97501 17.8312 5.21002 18.361 5.62377 18.7038C7.35458 20.138 9.57658 21 12 21C14.4222 21 16.6433 20.2505 18.3737 18.8425Z" />
</svg>