<svg width="24" height="24" viewBox="0 0 24 24" fill="none" xmlns="http://www.w3.org/2000/svg">
  <path
    d="M8.3 21.9C5.7 21.9 3 21.2 0.6 19.8C0.2 19.6 0 19.1 0.1 18.7C0.2 18.3 0.6 18 1 18C2.7 18.1 4.4 17.7 5.9 17C2.2 14.7 1.2 11.5 1.1 8.99997C1 6.09997 2 3.69997 2.1 3.59997C2.2 3.29997 2.5 2.99997 2.9 2.99997C3.3 2.99997 3.6 3.09997 3.8 3.39997C5.5 5.79997 8.1 7.29997 11 7.49997C11 5.89997 11.7 4.39997 12.9 3.29997C15 1.49997 18.1 1.49997 20.1 3.39997C20.9 3.09997 21.7 2.69997 22.4 2.19997C22.7 1.99997 23.2 1.99997 23.5 2.19997C23.8 2.39997 24 2.89997 23.9 3.29997C23.6 4.69997 22.9 5.99997 21.9 7.09997C21.9 7.29997 21.9 7.39997 21.9 7.59997C21.9 13.1 19.5 17.7 15.2 20.1C13.2 21.3 10.8 21.9 8.3 21.9ZM5 19.5C8.2 20.3 11.6 19.9 14.4 18.3C18 16.2 20.1 12.2 20.1 7.49997C20.1 7.29997 20.1 7.09997 20 6.89997C19.9 6.59997 20 6.19997 20.3 5.99997C20.5 5.79997 20.7 5.49997 20.9 5.29997C20.7 5.39997 20.4 5.49997 20.2 5.49997C19.8 5.59997 19.4 5.49997 19.2 5.19997C17.9 3.79997 15.7 3.59997 14.3 4.89997C13.4 5.49997 13 6.49997 13 7.49997V8.49997C13 8.99997 12.6 9.49997 12 9.49997C8.7 9.59997 5.6 8.29997 3.4 5.99997C2.8 8.59997 2.6 13.5 8.4 16C8.7 16.2 9 16.5 9 16.9C9 17.3 8.9 17.6 8.6 17.8C7.4 18.6 6.2 19.2 5 19.5Z" />
</svg>