<svg width="24" height="24" viewBox="0 0 24 24" fill="none" xmlns="http://www.w3.org/2000/svg">
  <path
    d="M18 23H6C4.3 23 3 21.7 3 20V12C3 11.4 3.4 11 4 11C4.6 11 5 11.4 5 12V20C5 20.6 5.4 21 6 21H18C18.6 21 19 20.6 19 20V12C19 11.4 19.4 11 20 11C20.6 11 21 11.4 21 12V20C21 21.7 19.7 23 18 23Z" />
  <path
    d="M16.7 5.30002L12.7 1.30002C12.6 1.20002 12.5 1.10002 12.4 1.10002C12.2 1.00002 11.9 1.00002 11.6 1.10002C11.5 1.20002 11.4 1.20002 11.3 1.30002L7.3 5.30002C6.9 5.70002 6.9 6.30002 7.3 6.70002C7.7 7.10002 8.3 7.10002 8.7 6.70002L11 4.40002V15C11 15.6 11.4 16 12 16C12.6 16 13 15.6 13 15V4.40002L15.3 6.70002C15.5 6.90002 15.7 7.00002 16 7.00002C16.3 7.00002 16.5 6.90002 16.7 6.70002C17.1 6.30002 17.1 5.70002 16.7 5.30002Z" />
</svg>