<svg width="24" height="24" viewBox="0 0 24 24" fill="none" xmlns="http://www.w3.org/2000/svg">
  <path fill-rule="evenodd" clip-rule="evenodd"
    d="M4.28707 3.63465C4.59255 3.15018 5.09487 3 5.50087 3H8.30336C9.09287 3 9.63303 3.4908 9.94796 4.04861L9.94963 4.05157L11.6011 7.00018C11.9386 7.60279 11.9413 8.33691 11.6083 8.94199L8.85846 13.9373L8.85425 13.9447C8.54948 14.4768 8.02222 15 7.22434 15H4.42186C3.92172 15 3.45772 14.7592 3.19078 14.2928C2.92682 13.8327 2.95356 13.3281 3.16808 12.9086L3.17523 12.8946L5.88342 7.98458L4.26043 5.10497L4.25497 5.09475C4.05987 4.72901 3.93298 4.16243 4.28707 3.63465ZM6.49706 5H8.18738C8.19298 5.00888 8.19909 5.01906 8.20567 5.03067L8.20635 5.03188L9.85618 7.97752L7.11522 12.9568C7.10552 12.9735 7.09658 12.9878 7.0885 13H5.40114L7.85962 8.54273C7.86127 8.54029 7.8629 8.53784 7.86454 8.53537C7.98677 8.35049 8.03072 8.15251 8.03072 7.98258C8.03072 7.6949 7.90668 7.49596 7.8782 7.45028L7.87687 7.44814L6.49706 5Z" />
  <path fill-rule="evenodd" clip-rule="evenodd"
    d="M16.7247 2.98188C17.0395 2.44505 17.5699 2 18.3195 2H21.0816C21.468 2 21.9576 2.13797 22.2661 2.60399C22.4111 2.81495 22.5 3.07042 22.5 3.35125C22.5 3.63001 22.4127 3.8675 22.3128 4.04876L22.3048 4.06326L16.541 13.7443L20.1015 19.9326L20.1026 19.9344C20.3367 20.3398 20.4003 20.8719 20.0991 21.3611L20.0833 21.3868L20.066 21.4114C19.753 21.8571 19.2782 22 18.8808 22H16.1416C15.3945 22 14.8413 21.581 14.5159 21.0046L10.9233 14.7451C10.5642 14.1195 10.5699 13.3489 10.9381 12.7285L16.7247 2.98188ZM18.446 4.00026L12.6579 13.7496L16.2454 20H17.8329L14.3855 14.0082V13.4553L20.0148 4L18.446 4.00026ZM18.3709 20.9351L18.3694 20.9326L18.3709 20.9351Z" />
</svg>