<svg viewBox="0 0 158 158" xmlns="http://www.w3.org/2000/svg">
  <path fill-rule="evenodd" clip-rule="evenodd"
    d="M79 130C107.167 130 130 107.167 130 79C130 50.8335 107.167 28 79 28C50.8335 28 28 50.8335 28 79C28 107.167 50.8335 130 79 130ZM38 79C38 58.0489 53.7147 40.7682 74 38.3018L74 119.698C53.7147 117.232 38 99.9511 38 79ZM110.703 105C112.238 103.131 113.61 101.124 114.799 99H84V105H110.703ZM98.6376 115H84V119.698C89.2497 119.06 94.1933 117.429 98.6376 115ZM84 89H118.772C119.18 87.3699 119.491 85.701 119.698 84H84V89ZM118.508 68C119.048 69.9456 119.449 71.9495 119.698 74H84V68H118.508ZM114.221 58C113.172 56.244 111.995 54.5731 110.703 53H84V58H114.221ZM84 43H98.6376C94.1933 40.5705 89.2497 38.9401 84 38.3018V43Z"
  />
</svg>
