<svg viewBox="0 0 158 158" xmlns="http://www.w3.org/2000/svg">
  <path
    d="M79 28C50.848 28 28 50.848 28 79C28 107.152 50.848 130 79 130C107.152 130 130 107.152 130 79C130 50.848 107.152 28 79 28ZM73.9 119.443C53.806 116.944 38.2 99.808 38.2 79C38.2 58.192 53.755 41.056 73.9 38.557V119.443ZM84.1 38.557C89.353 39.22 94.3 40.852 98.737 43.3H84.1V38.557ZM84.1 53.5H110.824C112.099 55.081 113.272 56.815 114.292 58.6H84.1V53.5ZM84.1 68.8H118.474C118.882 70.483 119.239 72.166 119.443 73.9H84.1V68.8ZM84.1 119.443V114.7H98.737C94.3 117.148 89.353 118.78 84.1 119.443ZM110.824 104.5H84.1V99.4H114.292C113.272 101.185 112.099 102.919 110.824 104.5ZM118.474 89.2H84.1V84.1H119.443C119.239 85.834 118.882 87.517 118.474 89.2Z"
  />
</svg>
