<svg viewBox="0 0 158 158" fill="none" xmlns="http://www.w3.org/2000/svg">
  <path
    d="M36 43.4998C34.6193 43.4998 33.5 44.6191 33.5 45.9998V122C33.5 123.38 34.6193 124.5 36 124.5H112C113.381 124.5 114.5 123.38 114.5 122V83.9998C114.5 79.8576 117.858 76.4998 122 76.4998C126.142 76.4998 129.5 79.8576 129.5 83.9998V122C129.5 131.665 121.665 139.5 112 139.5H36C26.335 139.5 18.5 131.665 18.5 122V45.9998C18.5 36.3348 26.335 28.4998 36 28.4998H74C78.1421 28.4998 81.5 31.8576 81.5 35.9998C81.5 40.1419 78.1421 43.4998 74 43.4998H36Z"
  />
  <path
    d="M142.569 8.40967C146.711 8.40967 150.069 11.7675 150.069 15.9097V47.7295C150.069 51.8716 146.711 55.2295 142.569 55.2295C138.426 55.2295 135.069 51.8716 135.069 47.7295V34.0163L87.2132 81.8716C84.2843 84.8005 79.5355 84.8005 76.6066 81.8716C73.6777 78.9427 73.6777 74.1939 76.6066 71.265L124.462 23.4097L110.749 23.4097C106.607 23.4097 103.249 20.0518 103.249 15.9097C103.249 11.7675 106.607 8.40967 110.749 8.40967H142.569Z"
  />
</svg>