<svg width="1194" height="533" viewBox="0 0 1194 533" fill="none" xmlns="http://www.w3.org/2000/svg">
<g clip-path="url(#clip0_629_224)">
<rect width="1194" height="533" fill="url(#paint0_linear_629_224)"/>
<g opacity="0.2" filter="url(#filter0_d_629_224)">
<path fill-rule="evenodd" clip-rule="evenodd" d="M-28 307.42L-9.48824 275L27.5353 275L46.047 307.42L27.5353 339.839H-9.48824L-28 307.42ZM-9.48824 349.87L-28 382.289L-9.48824 414.709L27.5353 414.709L46.047 382.289L27.5353 349.87L-9.48824 349.87ZM-9.48824 424.739L-28 457.159L-9.48824 489.579L27.5353 489.579L46.047 457.159L27.5353 424.739H-9.48824ZM-9.48824 499.609L-28 532.029L-9.48824 564.448H27.5353L46.047 532.029L27.5353 499.609H-9.48824ZM221.199 457.159L239.711 424.74H276.734L295.246 457.159L276.734 489.579L239.711 489.579L221.199 457.159ZM239.711 349.87L221.199 382.29L239.711 414.709L276.734 414.709L295.246 382.29L276.734 349.87L239.711 349.87ZM221.199 307.42L239.711 275L276.734 275L295.246 307.42L276.734 339.839H239.711L221.199 307.42ZM239.711 499.609L221.199 532.029L239.711 564.448H276.734L295.246 532.029L276.734 499.609H239.711ZM96.5996 457.159L115.111 424.74H152.135L170.647 457.159L152.135 489.579L115.111 489.579L96.5996 457.159ZM115.111 349.87L96.5996 382.29L115.111 414.709L152.135 414.709L170.647 382.29L152.135 349.87L115.111 349.87ZM96.5996 307.42L115.111 275L152.135 275L170.647 307.42L152.135 339.839H115.111L96.5996 307.42ZM115.111 499.609L96.5996 532.029L115.111 564.448H152.135L170.647 532.029L152.135 499.609H115.111ZM345.798 457.159L364.31 424.74H401.334L419.845 457.159L401.334 489.579L364.31 489.579L345.798 457.159ZM364.31 349.87L345.798 382.29L364.31 414.709L401.334 414.709L419.845 382.29L401.334 349.87L364.31 349.87ZM345.798 307.42L364.31 275L401.334 275L419.845 307.42L401.334 339.839H364.31L345.798 307.42ZM364.31 499.609L345.798 532.029L364.31 564.448H401.334L419.845 532.029L401.334 499.609H364.31ZM470.398 457.159L488.91 424.74H525.933L544.445 457.159L525.933 489.579L488.91 489.579L470.398 457.159ZM488.91 349.87L470.398 382.29L488.91 414.709L525.933 414.709L544.445 382.29L525.933 349.87L488.91 349.87ZM470.398 307.42L488.91 275L525.933 275L544.445 307.42L525.933 339.839H488.91L470.398 307.42ZM488.91 499.609L470.398 532.029L488.91 564.448H525.933L544.445 532.029L525.933 499.609H488.91ZM34.2997 495.005L52.8115 462.586H89.835L108.347 495.005L89.835 527.425H52.8115L34.2997 495.005ZM52.8115 387.716L34.2997 420.136L52.8115 452.555H89.835L108.347 420.136L89.835 387.716H52.8115ZM34.2997 345.266L52.8115 312.846L89.835 312.846L108.347 345.266L89.835 377.685H52.8115L34.2997 345.266ZM52.8115 537.456L34.2997 569.875L52.8115 602.295H89.835L108.347 569.875L89.835 537.456H52.8115ZM283.499 495.005L302.01 462.586H339.034L357.546 495.005L339.034 527.425H302.01L283.499 495.005ZM302.01 387.716L283.499 420.136L302.01 452.555H339.034L357.546 420.136L339.034 387.716H302.01ZM283.499 345.266L302.01 312.846L339.034 312.846L357.546 345.266L339.034 377.685H302.01L283.499 345.266ZM302.01 537.456L283.499 569.875L302.01 602.295H339.034L357.546 569.875L339.034 537.456H302.01ZM158.899 495.005L177.411 462.586H214.434L232.946 495.005L214.434 527.425H177.411L158.899 495.005ZM177.411 387.716L158.899 420.136L177.411 452.555H214.434L232.946 420.136L214.434 387.716H177.411ZM158.899 345.266L177.411 312.846L214.434 312.846L232.946 345.266L214.434 377.685H177.411L158.899 345.266ZM177.411 537.456L158.899 569.875L177.411 602.295H214.434L232.946 569.875L214.434 537.456H177.411ZM408.098 495.005L426.61 462.586H463.633L482.145 495.005L463.633 527.425H426.61L408.098 495.005ZM426.61 387.716L408.098 420.136L426.61 452.555H463.633L482.145 420.136L463.633 387.716H426.61ZM408.098 345.266L426.61 312.846L463.633 312.846L482.145 345.266L463.633 377.685H426.61L408.098 345.266ZM426.61 537.456L408.098 569.875L426.61 602.295H463.633L482.145 569.875L463.633 537.456H426.61ZM532.697 495.005L551.209 462.586H588.233L606.744 495.005L588.233 527.425H551.209L532.697 495.005ZM551.209 387.716L532.697 420.136L551.209 452.555H588.233L606.744 420.136L588.233 387.716H551.209ZM532.697 345.266L551.209 312.846L588.233 312.846L606.744 345.266L588.233 377.685H551.209L532.697 345.266ZM551.209 537.456L532.697 569.875L551.209 602.295H588.233L606.744 569.875L588.233 537.456H551.209Z" fill="url(#paint1_radial_629_224)" shape-rendering="crispEdges"/>
</g>
<g opacity="0.2" filter="url(#filter1_d_629_224)">
<path fill-rule="evenodd" clip-rule="evenodd" d="M1224 233.977L1207.43 263L1174.28 263L1157.71 233.977L1174.28 204.955H1207.43L1224 233.977ZM1207.43 195.975L1224 166.953L1207.43 137.93L1174.28 137.93L1157.71 166.953L1174.28 195.975L1207.43 195.975ZM1207.43 128.951L1224 99.9282L1207.43 70.9056H1174.28L1157.71 99.9282L1174.28 128.951H1207.43ZM1207.43 61.926L1224 32.9035L1207.43 3.88095H1174.28L1157.71 32.9035L1174.28 61.926H1207.43ZM1000.91 99.928L984.341 128.951H951.197L934.625 99.928L951.197 70.9055H984.341L1000.91 99.928ZM984.341 195.975L1000.91 166.953L984.341 137.93L951.197 137.93L934.625 166.953L951.197 195.975L984.341 195.975ZM1000.91 233.977L984.341 263L951.197 263L934.625 233.977L951.197 204.955H984.341L1000.91 233.977ZM984.341 61.9262L1000.91 32.9037L984.341 3.88113H951.197L934.625 32.9037L951.197 61.9262H984.341ZM1112.46 99.928L1095.88 128.951H1062.74L1046.17 99.928L1062.74 70.9055H1095.88L1112.46 99.928ZM1095.88 195.975L1112.46 166.953L1095.88 137.93L1062.74 137.93L1046.17 166.953L1062.74 195.975L1095.88 195.975ZM1112.46 233.977L1095.88 263L1062.74 263L1046.17 233.977L1062.74 204.955H1095.88L1112.46 233.977ZM1095.88 61.9262L1112.46 32.9037L1095.88 3.88113H1062.74L1046.17 32.9037L1062.74 61.9262H1095.88ZM889.369 99.928L872.797 128.95L839.653 128.951L823.081 99.928L839.653 70.9054H872.797L889.369 99.928ZM872.797 195.975L889.369 166.952L872.797 137.93H839.653L823.081 166.952L839.653 195.975H872.797ZM889.369 233.977L872.797 263L839.653 263L823.081 233.977L839.653 204.955H872.797L889.369 233.977ZM872.797 61.9262L889.369 32.9036L872.797 3.88107H839.653L823.081 32.9036L839.653 61.9262L872.797 61.9262ZM777.826 99.928L761.254 128.951H728.11L711.537 99.928L728.11 70.9055H761.254L777.826 99.928ZM761.254 195.975L777.826 166.953L761.254 137.93L728.11 137.93L711.537 166.953L728.11 195.975L761.254 195.975ZM777.826 233.977L761.254 263L728.11 263L711.537 233.977L728.11 204.955H761.254L777.826 233.977ZM761.254 61.9262L777.826 32.9037L761.254 3.88113H728.11L711.537 32.9037L728.11 61.9262H761.254ZM1168.23 66.0475L1151.66 95.0701H1118.51L1101.94 66.0475L1118.51 37.025H1151.66L1168.23 66.0475ZM1151.66 162.095L1168.23 133.072L1151.66 104.05H1118.51L1101.94 133.072L1118.51 162.095H1151.66ZM1168.23 200.097L1151.66 229.12L1118.51 229.12L1101.94 200.097L1118.51 171.075H1151.66L1168.23 200.097ZM1151.66 28.0454L1168.23 -0.977178L1151.66 -29.9997H1118.51L1101.94 -0.977178L1118.51 28.0454H1151.66ZM945.141 66.0475L928.569 95.0701H895.425L878.853 66.0475L895.425 37.025H928.569L945.141 66.0475ZM928.569 162.095L945.141 133.072L928.569 104.05H895.425L878.853 133.072L895.425 162.095H928.569ZM945.141 200.097L928.569 229.12L895.425 229.12L878.853 200.097L895.425 171.075H928.569L945.141 200.097ZM928.569 28.0454L945.141 -0.977178L928.569 -29.9997H895.425L878.853 -0.977178L895.425 28.0454H928.569ZM1056.68 66.0475L1040.11 95.0701H1006.97L990.397 66.0475L1006.97 37.025H1040.11L1056.68 66.0475ZM1040.11 162.095L1056.68 133.072L1040.11 104.05H1006.97L990.397 133.072L1006.97 162.095H1040.11ZM1056.68 200.097L1040.11 229.12L1006.97 229.12L990.397 200.097L1006.97 171.075H1040.11L1056.68 200.097ZM1040.11 28.0454L1056.68 -0.977178L1040.11 -29.9997H1006.97L990.397 -0.977178L1006.97 28.0454H1040.11ZM833.598 66.0475L817.026 95.0701H783.882L767.31 66.0475L783.882 37.025H817.026L833.598 66.0475ZM817.026 162.095L833.598 133.072L817.026 104.05H783.882L767.31 133.072L783.882 162.095H817.026ZM833.598 200.097L817.026 229.12L783.882 229.12L767.31 200.097L783.882 171.075H817.026L833.598 200.097ZM817.026 28.0454L833.598 -0.977178L817.026 -29.9997H783.882L767.31 -0.977178L783.882 28.0454H817.026ZM722.054 66.0475L705.482 95.0701H672.338L655.766 66.0475L672.338 37.025H705.482L722.054 66.0475ZM705.482 162.095L722.054 133.072L705.482 104.05H672.338L655.766 133.072L672.338 162.095H705.482ZM722.054 200.097L705.482 229.12L672.338 229.12L655.766 200.097L672.338 171.075H705.482L722.054 200.097ZM705.482 28.0454L722.054 -0.977178L705.482 -29.9997H672.338L655.766 -0.977178L672.338 28.0454H705.482Z" fill="url(#paint2_radial_629_224)" shape-rendering="crispEdges"/>
</g>
</g>
<defs>
<filter id="filter0_d_629_224" x="-32" y="275" width="642.744" height="335.295" filterUnits="userSpaceOnUse" color-interpolation-filters="sRGB">
<feFlood flood-opacity="0" result="BackgroundImageFix"/>
<feColorMatrix in="SourceAlpha" type="matrix" values="0 0 0 0 0 0 0 0 0 0 0 0 0 0 0 0 0 0 127 0" result="hardAlpha"/>
<feOffset dy="4"/>
<feGaussianBlur stdDeviation="2"/>
<feComposite in2="hardAlpha" operator="out"/>
<feColorMatrix type="matrix" values="0 0 0 0 0 0 0 0 0 0 0 0 0 0 0 0 0 0 0.25 0"/>
<feBlend mode="normal" in2="BackgroundImageFix" result="effect1_dropShadow_629_224"/>
<feBlend mode="normal" in="SourceGraphic" in2="effect1_dropShadow_629_224" result="shape"/>
</filter>
<filter id="filter1_d_629_224" x="651.766" y="-29.9998" width="576.234" height="301" filterUnits="userSpaceOnUse" color-interpolation-filters="sRGB">
<feFlood flood-opacity="0" result="BackgroundImageFix"/>
<feColorMatrix in="SourceAlpha" type="matrix" values="0 0 0 0 0 0 0 0 0 0 0 0 0 0 0 0 0 0 127 0" result="hardAlpha"/>
<feOffset dy="4"/>
<feGaussianBlur stdDeviation="2"/>
<feComposite in2="hardAlpha" operator="out"/>
<feColorMatrix type="matrix" values="0 0 0 0 0 0 0 0 0 0 0 0 0 0 0 0 0 0 0.25 0"/>
<feBlend mode="normal" in2="BackgroundImageFix" result="effect1_dropShadow_629_224"/>
<feBlend mode="normal" in="SourceGraphic" in2="effect1_dropShadow_629_224" result="shape"/>
</filter>
<linearGradient id="paint0_linear_629_224" x1="1194" y1="-6.48042e-05" x2="387.424" y2="885.781" gradientUnits="userSpaceOnUse">
<stop stop-color="#670A82"/>
<stop offset="1" stop-color="#860050"/>
</linearGradient>
<radialGradient id="paint1_radial_629_224" cx="0" cy="0" r="1" gradientUnits="userSpaceOnUse" gradientTransform="translate(-0.90725 547.426) rotate(-0.25465) scale(290.282 291.05)">
<stop stop-color="#D9D9D9"/>
<stop offset="1" stop-color="#D9D9D9" stop-opacity="0"/>
</radialGradient>
<radialGradient id="paint2_radial_629_224" cx="0" cy="0" r="1" gradientUnits="userSpaceOnUse" gradientTransform="translate(1199.75 19.12) rotate(179.745) scale(259.866 260.553)">
<stop stop-color="#D9D9D9"/>
<stop offset="1" stop-color="#D9D9D9" stop-opacity="0"/>
</radialGradient>
<clipPath id="clip0_629_224">
<rect width="1194" height="533" fill="white"/>
</clipPath>
</defs>
</svg>
