<svg viewBox="0 0 140 140" fill="none" xmlns="http://www.w3.org/2000/svg">
  <path
    d="M50.3674 52C49.2629 52 48.3674 52.8954 48.3674 54C48.3674 55.1046 49.2629 56 50.3674 56H55.6749C56.7795 56 57.6749 55.1046 57.6749 54C57.6749 52.8954 56.7795 52 55.6749 52H50.3674Z"
  />
  <path
    d="M61.9547 54C61.9547 52.8954 62.8502 52 63.9547 52L98 52C99.1046 52 100 52.8954 100 54C100 55.1046 99.1046 56 98 56L63.9547 56C62.8502 56 61.9547 55.1046 61.9547 54Z"
  />
  <path
    d="M92.2902 62C91.1857 62 90.2902 62.8954 90.2902 64C90.2902 65.1046 91.1857 66 92.2902 66H97.6525C98.757 66 99.6525 65.1046 99.6525 64C99.6525 62.8954 98.757 62 97.6525 62H92.2902Z"
  />
  <path
    d="M48.3674 64C48.3674 62.8954 49.2629 62 50.3674 62L84.4127 62C85.5173 62 86.4127 62.8954 86.4127 64C86.4127 65.1046 85.5173 66 84.4127 66L50.3674 66C49.2629 66 48.3674 65.1046 48.3674 64Z"
  />
  <path
    d="M50.3674 72C49.2629 72 48.3674 72.8954 48.3674 74C48.3674 75.1046 49.2629 76 50.3674 76H55.6749C56.7795 76 57.6749 75.1046 57.6749 74C57.6749 72.8954 56.7795 72 55.6749 72H50.3674Z"
  />
  <path
    d="M61.9547 74C61.9547 72.8954 62.8502 72 63.9547 72L98 72C99.1046 72 100 72.8954 100 74C100 75.1046 99.1046 76 98 76L63.9547 76C62.8502 76 61.9547 75.1046 61.9547 74Z"
  />
  <path
    d="M92.2902 82C91.1857 82 90.2902 82.8954 90.2902 84C90.2902 85.1046 91.1857 86 92.2902 86H97.6525C98.757 86 99.6525 85.1046 99.6525 84C99.6525 82.8954 98.757 82 97.6525 82H92.2902Z"
  />
  <path
    d="M48.3674 84C48.3674 82.8954 49.2629 82 50.3674 82H84.4127C85.5173 82 86.4127 82.8954 86.4127 84C86.4127 85.1046 85.5173 86 84.4127 86H50.3674C49.2629 86 48.3674 85.1046 48.3674 84Z"
  />
  <path
    d="M50.3674 92C49.2629 92 48.3674 92.8954 48.3674 94C48.3674 95.1046 49.2629 96 50.3674 96H55.6749C56.7795 96 57.6749 95.1046 57.6749 94C57.6749 92.8954 56.7795 92 55.6749 92H50.3674Z"
  />
  <path
    d="M61.9547 94C61.9547 92.8954 62.8502 92 63.9547 92H98C99.1046 92 100 92.8954 100 94C100 95.1046 99.1046 96 98 96H63.9547C62.8502 96 61.9547 95.1046 61.9547 94Z"
  />
  <path fill-rule="evenodd" clip-rule="evenodd"
    d="M51 27C49.3431 27 48 28.3431 48 30V42C48 43.6569 49.3431 45 51 45H63C64.6569 45 66 43.6569 66 42V30C66 28.3431 64.6569 27 63 27H51ZM52 41V31H62V41H52Z"
  />
  <path fill-rule="evenodd" clip-rule="evenodd"
    d="M113 42.8284C113 42.298 112.789 41.7893 112.414 41.4142L88.5858 17.5858C88.2107 17.2107 87.702 17 87.1716 17H39C37.8954 17 37 17.8954 37 19V26H31C29.3431 26 28 27.3431 28 29V119C28 120.657 29.3431 122 31 122H93C94.6569 122 96 120.657 96 119V112H111C112.105 112 113 111.105 113 110V42.8284ZM92 112V118H32V30H37V110C37 111.105 37.8954 112 39 112H92ZM42 22H84V43C84 44.1046 84.8954 45 86 45L108 45V107H42V22ZM89 25.0711L103.929 40L89 40V25.0711Z"
  />
</svg>