<svg viewBox="0 0 140 140" fill="none" xmlns="http://www.w3.org/2000/svg">
  <path fill-rule="evenodd" clip-rule="evenodd"
    d="M12.3708 72.4749C11.004 71.1081 11.004 68.892 12.3708 67.5252L34.2911 45.6048C35.658 44.238 37.8741 44.238 39.2409 45.6048L61.1612 67.5252C62.528 68.892 62.528 71.1081 61.1612 72.4749L39.2409 94.3952C37.874 95.7621 35.658 95.762 34.2911 94.3952L12.3708 72.4749ZM16.967 70L36.766 89.799L56.565 70L36.766 50.201L16.967 70Z" />
  <path fill-rule="evenodd" clip-rule="evenodd"
    d="M45.6048 105.709C44.238 104.342 44.238 102.126 45.6048 100.759L67.5252 78.8389C68.892 77.472 71.1081 77.472 72.4749 78.8389L94.3952 100.759C95.762 102.126 95.762 104.342 94.3952 105.709L72.4749 127.629C71.1081 128.996 68.892 128.996 67.5252 127.629L45.6048 105.709ZM50.201 103.234L70 123.033L89.799 103.234L70 83.4351L50.201 103.234Z" />
  <path fill-rule="evenodd" clip-rule="evenodd"
    d="M45.6048 39.2409C44.238 37.874 44.238 35.658 45.6048 34.2911L67.5252 12.3708C68.892 11.004 71.1081 11.004 72.4749 12.3708L94.3952 34.2911C95.762 35.658 95.762 37.8741 94.3952 39.2409L72.4749 61.1612C71.1081 62.528 68.892 62.528 67.5252 61.1612L45.6048 39.2409ZM50.201 36.766L70 56.565L89.799 36.766L70 16.967L50.201 36.766Z" />
  <path fill-rule="evenodd" clip-rule="evenodd"
    d="M78.8389 72.4749C77.472 71.1081 77.472 68.892 78.8389 67.5252L100.759 45.6048C102.126 44.238 104.342 44.238 105.709 45.6048L127.629 67.5252C128.996 68.892 128.996 71.1081 127.629 72.4749L105.709 94.3952C104.342 95.7621 102.126 95.762 100.759 94.3952L78.8389 72.4749ZM83.4351 70L103.234 89.799L123.033 70L103.234 50.201L83.4351 70Z" />
</svg>