<svg viewBox="0 0 140 140" fill="none" xmlns="http://www.w3.org/2000/svg">
  <path fill-rule="evenodd" clip-rule="evenodd"
    d="M59.6687 46.6603C59.6687 28.0702 74.7414 13 93.3344 13C97.7677 13 102.009 13.8586 105.894 15.4217C106.956 15.8489 107.733 16.7805 107.962 17.902C108.191 19.0234 107.842 20.1849 107.033 20.9942L88.9731 39.0508L91.6763 49.1884L101.815 51.8912L119.481 34.2288C120.309 33.4002 121.506 33.0554 122.648 33.3156C123.791 33.5758 124.72 34.4046 125.108 35.5103C126.335 39.0043 127 42.7583 127 46.6603C127 65.2504 111.927 80.3207 93.3344 80.3207C89.9544 80.3207 86.6858 79.8216 83.6012 78.8915L39.1418 123.344C32.9327 129.552 22.8658 129.552 16.6568 123.344C10.4477 117.136 10.4477 107.071 16.6568 100.863L61.1065 56.4198C60.1709 53.3275 59.6687 50.0499 59.6687 46.6603ZM93.3344 19.8173C78.507 19.8173 66.4871 31.8353 66.4871 46.6603C66.4871 50 67.0955 53.1898 68.2045 56.1301C68.677 57.383 68.3722 58.7963 67.4252 59.7431L21.4781 105.683C17.9318 109.229 17.9318 114.978 21.4781 118.523C25.0244 122.069 30.7741 122.069 34.3205 118.523L80.2758 72.5753C81.2219 71.6293 82.634 71.3242 83.8864 71.795C86.8208 72.8983 90.003 73.5034 93.3344 73.5034C108.162 73.5034 120.182 61.4853 120.182 46.6603C120.182 45.545 120.114 44.4465 119.982 43.3685L105.247 58.1013C104.387 58.9613 103.133 59.2979 101.958 58.9846L88.0125 55.2671C86.8327 54.9526 85.9112 54.0313 85.5966 52.8516L81.8785 38.9082C81.5652 37.733 81.9018 36.4799 82.762 35.6199L98.139 20.2453C96.5814 19.9642 94.976 19.8173 93.3344 19.8173Z"
  />
</svg>