<svg width="500" height="500" viewBox="0 0 500 500" fill="none" xmlns="http://www.w3.org/2000/svg">
<g clip-path="url(#clip0_616_157)">
<path d="M500 0H0V500H500V0Z" fill="url(#paint0_linear_616_157)"/>
<path d="M199.6 245.4C207.2 245.4 214.6 243.4 221.2 239.6C223 245.8 229.6 249.2 235.6 247.4C240.4 246 243.8 241.4 243.8 236.4V168C243.8 161.6 238.6 156.4 232.2 156.4C227.2 156.4 222.6 159.8 221.2 164.6C200.6 152.8 174.2 159.8 162.2 180.6C150.4 201.2 157.4 227.6 178.2 239.6C184.8 243.4 192 245.2 199.6 245.4ZM199.6 181C211.2 181 220.8 190.4 220.8 202.2C220.8 214 211.4 223.4 199.6 223.4C187.8 223.4 178.4 214 178.4 202.2C178.4 190.4 188 181 199.6 181Z" fill="url(#paint1_linear_616_157)"/>
<path d="M302.801 159C295.201 159 287.801 161 281.201 164.8C279.401 158.6 272.801 155.2 266.801 157C262.001 158.4 258.601 163 258.601 168V293.2C258.401 299.6 263.201 305 269.601 305.2C276.001 305.4 281.401 300.6 281.601 294.2C281.601 293.8 281.601 293.6 281.601 293.2V239.6C302.401 251.2 328.801 244 340.401 223.2C352.001 202.4 344.801 176 324.001 164.4C317.601 160.8 310.201 158.8 302.801 159ZM302.801 223.2C291.201 223.2 281.601 213.8 281.601 202C281.601 190.2 291.001 180.8 302.801 180.8C314.601 180.8 324.001 190.2 324.001 202C324.001 213.8 314.601 223.2 302.801 223.2Z" fill="url(#paint2_linear_616_157)"/>
<path d="M225.201 282C207.001 287.6 187.201 282 174.801 267.8C178.001 265.2 179.401 261 178.201 257.2C176.601 252 171.201 249 165.801 250.4C154.201 254 145.201 263 142.001 274.8C140.601 280 143.601 285.6 149.001 287C149.801 287.2 150.801 287.4 151.601 287.4C155.401 287.4 158.801 285.2 160.401 282C167.801 290 177.001 296.2 187.201 300C201.201 305.2 216.601 305.6 230.801 301.2C235.801 299 238.201 293.2 236.001 288C234.401 283.6 229.801 281 225.201 282Z" fill="url(#paint3_linear_616_157)"/>
<path d="M176.601 225.8C171.401 216.2 170.201 205 173.201 194.4C176.201 184.2 182.201 175.2 190.601 169C196.401 164.8 202.801 162 209.801 160.4C206.401 159.6 202.801 159.2 199.401 159C175.601 158.8 156.001 178 156.001 201.8C155.801 224.4 173.001 243.2 195.401 245.2C187.801 240.2 181.401 233.6 176.601 225.8Z" fill="url(#paint4_linear_616_157)"/>
<path d="M270.801 243.4C265.401 232.4 261.601 220.8 259.601 208.6C259.201 206.4 258.801 204.2 258.601 201.8V293.2C258.401 299.6 263.201 305 269.601 305.2C276.001 305.4 281.401 300.6 281.601 294.2C281.601 293.8 281.601 293.6 281.601 293.2V258.2C277.401 253.8 273.601 248.8 270.801 243.4Z" fill="url(#paint5_linear_616_157)"/>
<path d="M304.201 159C309.401 161 314.201 164 318.201 167.6C333.201 181.8 339.401 202.8 334.401 222.6C333.201 227.4 331.401 232 328.801 236.4C347.801 222 351.401 195 337.001 176C329.401 165.6 317.201 159.4 304.201 159Z" fill="url(#paint6_linear_616_157)"/>
<path d="M237.601 288.6C236.201 284.2 232.201 281.4 227.601 281.6C226.001 282.8 224.401 283.8 222.601 284.8C213.601 289.8 203.001 292 193.001 293C186.801 293.8 180.401 293.8 174.001 293C178.201 295.8 182.601 298 187.201 299.6C201.201 304.8 216.601 305.2 230.801 300.8C236.201 299.4 239.201 294 237.601 288.6Z" fill="url(#paint7_linear_616_157)"/>
<path d="M108.4 357V341.2C108.4 340.4 108.6 339.8 109 339.4C109.4 339 109.8 338.8 110.4 338.8C111 338.8 111.6 339 111.8 339.4C112.2 339.8 112.4 340.4 112.4 341.2V357C112.4 357.8 112.2 358.4 111.8 358.8C111.4 359.2 111 359.4 110.4 359.4C109.8 359.4 109.4 359.2 109 358.8C108.6 358.4 108.4 357.8 108.4 357Z" fill="black"/>
<path d="M120.2 346.4V346.8C120.8 346 121.6 345.2 122.4 344.8C123.2 344.4 124 344.2 125 344.2C126 344.2 126.8 344.4 127.6 344.8C128.4 345.2 129 345.8 129.4 346.6C129.6 347 129.8 347.6 129.8 348C129.8 348.6 130 349.2 130 350V357C130 357.8 129.8 358.4 129.4 358.6C129 358.8 128.6 359.2 128 359.2C127.4 359.2 127 359 126.6 358.6C126.2 358.2 126 357.6 126 357V350.8C126 349.6 125.8 348.6 125.4 348C125 347.4 124.4 347 123.4 347C122.8 347 122.2 347.2 121.6 347.6C121 348 120.6 348.6 120.4 349.2C120.2 349.8 120.2 350.8 120.2 352.4V357C120.2 357.8 120 358.4 119.6 358.8C119.2 359.2 118.8 359.4 118.2 359.4C117.6 359.4 117.2 359.2 116.8 358.8C116.4 358.4 116.2 357.8 116.2 357.2V346.4C116.2 345.6 116.4 345.2 116.6 344.8C117 344.4 117.4 344.2 117.8 344.2C118.2 344.2 118.4 344.2 118.6 344.4C118.8 344.6 119 344.8 119.2 345C120 345.6 120.2 346 120.2 346.4Z" fill="black"/>
<path d="M137 346.4V346.8C137.6 346 138.4 345.2 139.2 344.8C140 344.4 140.8 344.2 141.8 344.2C142.8 344.2 143.6 344.4 144.4 344.8C145.2 345.2 145.8 345.8 146.2 346.6C146.4 347 146.6 347.6 146.6 348C146.6 348.6 146.8 349.2 146.8 350V357C146.8 357.8 146.6 358.4 146.2 358.6C145.8 358.8 145.4 359.2 144.8 359.2C144.2 359.2 143.8 359 143.4 358.6C143 358.2 142.8 357.6 142.8 357V350.8C142.8 349.6 142.6 348.6 142.2 348C141.8 347.4 141.2 347 140.2 347C139.6 347 139 347.2 138.4 347.6C137.8 348 137.4 348.6 137.2 349.2C137 349.8 137 350.8 137 352.4V357C137 357.8 136.8 358.4 136.4 358.8C136 359.2 135.6 359.4 135 359.4C134.4 359.4 134 359.2 133.6 358.8C133.2 358.4 133 357.8 133 357.2V346.4C133 345.6 133.2 345.2 133.4 344.8C133.8 344.4 134.2 344.2 134.6 344.2C135 344.2 135.2 344.2 135.4 344.4C135.6 344.6 135.8 344.8 136 345C137 345.6 137 346 137 346.4Z" fill="black"/>
<path d="M164.6 351.8C164.6 353 164.4 354 164 354.8C163.6 355.6 163.2 356.6 162.4 357.2C161.6 357.8 161 358.4 160 358.8C159 359.2 158 359.4 157 359.4C155.8 359.4 154.8 359.2 154 358.8C153.2 358.4 152.4 358 151.6 357.2C151 356.6 150.4 355.8 150 354.8C149.6 353.8 149.4 352.8 149.4 351.8C149.4 350.6 149.6 349.6 150 348.6C150.4 347.6 150.8 346.8 151.4 346.2C152 345.6 152.8 345 153.8 344.6C154.8 344.2 155.8 344 156.8 344C158 344 159 344.2 159.8 344.6C160.6 345 161.6 345.4 162.2 346.2C162.8 347 163.4 347.6 163.6 348.6C163.8 349.6 164.6 350.8 164.6 351.8ZM160.8 351.8C160.8 350.2 160.4 349 159.8 348.2C159.2 347.4 158.2 347 157 347C156.2 347 155.6 347.2 155 347.6C154.4 348 154 348.6 153.8 349.2C153.6 349.8 153.4 350.8 153.4 351.8C153.4 352.8 153.6 353.6 153.8 354.4C154 355.2 154.6 355.6 155 356C155.6 356.4 156.2 356.6 157 356.6C158.2 356.6 159 356.2 159.8 355.4C160.4 354.6 160.8 353.4 160.8 351.8Z" fill="black"/>
<path d="M169.401 346.6L172.401 355L175.601 346.2C175.801 345.4 176.201 345 176.401 344.6C176.601 344.4 177.001 344.2 177.601 344.2C178.001 344.2 178.401 344.4 178.801 344.6C179.201 344.8 179.201 345.2 179.201 345.8C179.201 346 179.201 346.2 179.201 346.4C179.201 346.6 179.001 346.8 179.001 347C179.001 347.2 178.801 347.4 178.801 347.6L175.201 356.4C175.001 356.6 175.001 357 174.801 357.4C174.601 357.8 174.401 358.2 174.201 358.4C174.001 358.6 173.801 358.8 173.401 359C173.001 359.2 172.801 359.2 172.401 359.2C171.801 359.2 171.401 359 171.201 358.8C170.801 358.6 170.601 358.2 170.601 358C170.401 357.8 170.201 357.2 169.801 356.2L166.201 347.4C166.201 347.2 166.001 347 166.001 346.8C166.001 346.6 165.801 346.4 165.801 346.2C165.801 346 165.801 345.8 165.801 345.6C165.801 345.4 165.801 345 166.001 344.8C166.201 344.6 166.401 344.4 166.601 344.2C166.801 344 167.201 344 167.401 344C168.001 344 168.401 344.2 168.601 344.6C168.801 345 169.201 345.8 169.401 346.6Z" fill="black"/>
<path d="M191.4 357.4C190.4 358.2 189.6 358.6 188.8 359C188 359.4 187 359.6 186 359.6C185 359.6 184.2 359.4 183.4 359C182.6 358.6 182.2 358.2 181.8 357.4C181.4 356.6 181.2 356 181.2 355.2C181.2 354.2 181.6 353.4 182.2 352.6C182.8 351.8 183.8 351.4 184.8 351.2C185 351.2 185.6 351 186.6 350.8C187.6 350.6 188.4 350.4 189 350.2C189.6 350 190.4 349.8 191.2 349.6C191.2 348.6 191 347.8 190.6 347.4C190.2 347 189.6 346.8 188.4 346.8C187.4 346.8 186.8 347 186.2 347.2C185.6 347.4 185.4 347.8 185 348.4C184.6 349 184.4 349.2 184.2 349.4C184 349.6 183.8 349.6 183.2 349.6C182.8 349.6 182.4 349.4 182.2 349.2C181.8 349 181.8 348.6 181.8 348.2C181.8 347.6 182 347 182.4 346.2C182.8 345.4 183.6 345 184.6 344.6C185.6 344.2 186.8 344 188.2 344C189.8 344 191.2 344.2 192 344.6C193 345 193.6 345.6 194 346.4C194.4 347.2 194.6 348.4 194.6 349.8C194.6 350.6 194.6 351.4 194.6 352C194.6 352.6 194.6 353.2 194.6 354C194.6 354.8 194.8 355.4 195 356.2C195.2 357 195.4 357.4 195.4 357.6C195.4 358 195.2 358.4 194.8 358.6C194.4 359 194 359 193.6 359C193.2 359 192.8 358.8 192.4 358.4C192.2 358.6 191.8 358 191.4 357.4ZM191.2 352C190.6 352.2 189.8 352.4 188.8 352.6C187.8 352.8 187 353 186.6 353C186.2 353.2 185.8 353.4 185.4 353.6C185 354 184.8 354.4 184.8 354.8C184.8 355.4 185 355.8 185.4 356.2C185.8 356.6 186.4 356.8 187 356.8C187.8 356.8 188.4 356.6 189 356.4C189.6 356 190 355.6 190.4 355.2C190.8 354.6 191 353.8 191 352.4V352H191.2Z" fill="black"/>
<path d="M198 344.6H198.4V342.4C198.4 341.8 198.4 341.4 198.4 341C198.4 340.6 198.6 340.4 198.6 340.2C198.8 340 199 339.8 199.2 339.6C199.4 339.4 199.8 339.4 200.2 339.4C200.6 339.4 201.2 339.6 201.4 340C201.6 340.2 201.8 340.6 201.8 340.8C201.8 341.2 202 341.6 202 342.2V344.8H203.4C204 344.8 204.4 345 204.6 345.2C204.8 345.4 205 345.8 205 346.2C205 346.8 204.8 347 204.4 347.2C204 347.4 203.4 347.6 202.6 347.6H202V354.4C202 355 202 355.4 202 355.8C202 356.2 202.2 356.4 202.4 356.6C202.6 356.8 202.8 356.8 203.2 356.8C203.4 356.8 203.8 356.8 204 356.6C204.4 356.6 204.6 356.4 204.8 356.4C205.2 356.4 205.4 356.6 205.6 356.8C205.8 357 206 357.4 206 357.6C206 358.2 205.6 358.6 205 359C204.4 359.4 203.4 359.4 202.2 359.4C201 359.4 200.2 359.2 199.6 358.8C199 358.4 198.6 357.8 198.4 357.2C198.2 356.6 198.2 355.6 198.2 354.4V347.2H198C197.4 347.2 197 347 196.8 346.8C196.6 346.6 196.4 346.2 196.4 345.8C196.4 345.4 196.6 345 196.8 344.8C197 344.8 197.6 344.6 198 344.6Z" fill="black"/>
<path d="M209.601 342.6C209.001 342.6 208.601 342.4 208.201 342.2C207.801 342 207.601 341.4 207.601 340.8C207.601 340.2 207.801 339.8 208.201 339.4C208.601 339 209.001 338.8 209.601 338.8C210.001 338.8 210.601 339 210.801 339.2C211.201 339.6 211.401 340 211.401 340.6C211.401 341.2 211.201 341.6 210.801 342C210.601 342.4 210.201 342.6 209.601 342.6ZM211.601 346.4V357.2C211.601 358 211.401 358.6 211.001 358.8C210.601 359 210.201 359.4 209.601 359.4C209.001 359.4 208.601 359.2 208.201 358.8C207.801 358.4 207.601 357.8 207.601 357.2V346.6C207.601 345.8 207.801 345.4 208.201 345C208.601 344.6 209.001 344.4 209.601 344.4C210.201 344.4 210.601 344.6 211.001 345C211.401 345.4 211.601 345.8 211.601 346.4Z" fill="black"/>
<path d="M229.4 351.8C229.4 353 229.2 354 228.8 354.8C228.4 355.8 228 356.6 227.2 357.2C226.4 357.8 225.8 358.4 224.8 358.8C223.8 359.2 222.8 359.4 221.8 359.4C220.6 359.4 219.6 359.2 218.8 358.8C218 358.4 217.2 358 216.4 357.2C215.8 356.6 215.2 355.8 214.8 354.8C214.4 353.8 214.2 352.8 214.2 351.8C214.2 350.6 214.4 349.6 214.8 348.6C215.2 347.6 215.6 346.8 216.2 346.2C216.8 345.6 217.6 345 218.6 344.6C219.6 344.2 220.6 344 221.6 344C222.8 344 223.8 344.2 224.6 344.6C225.6 345 226.4 345.4 227 346.2C227.6 347 228.2 347.6 228.4 348.6C228.6 349.6 229.4 350.8 229.4 351.8ZM225.6 351.8C225.6 350.2 225.2 349 224.6 348.2C224 347.4 223 347 221.8 347C221 347 220.4 347.2 219.8 347.6C219.2 348 218.8 348.6 218.6 349.2C218.4 349.8 218.2 350.8 218.2 351.8C218.2 352.8 218.4 353.6 218.6 354.4C218.8 355.2 219.4 355.6 219.8 356C220.4 356.4 221 356.6 221.8 356.6C223 356.6 223.8 356.2 224.6 355.4C225.2 354.6 225.6 353.4 225.6 351.8Z" fill="black"/>
<path d="M235.601 346.4V346.8C236.201 346 237.001 345.2 237.801 344.8C238.601 344.4 239.401 344.2 240.401 344.2C241.401 344.2 242.201 344.4 243.001 344.8C243.801 345.2 244.401 345.8 244.801 346.6C245.001 347 245.201 347.6 245.201 348C245.201 348.6 245.401 349.2 245.401 350V357C245.401 357.8 245.201 358.4 244.801 358.6C244.401 358.8 244.001 359.2 243.401 359.2C242.801 359.2 242.401 359 242.001 358.6C241.601 358.2 241.401 357.6 241.401 357V350.8C241.401 349.6 241.201 348.6 240.801 348C240.401 347.4 239.801 347 238.801 347C238.201 347 237.601 347.2 237.001 347.6C236.401 348 236.001 348.6 235.801 349.2C235.601 349.8 235.601 350.8 235.601 352.4V357C235.601 357.8 235.401 358.4 235.001 358.8C234.601 359.2 234.201 359.4 233.601 359.4C233.001 359.4 232.601 359.2 232.201 358.8C231.801 358.4 231.601 357.8 231.601 357.2V346.4C231.601 345.6 231.801 345.2 232.001 344.8C232.401 344.4 232.801 344.2 233.201 344.2C233.601 344.2 233.801 344.2 234.001 344.4C234.201 344.6 234.401 344.8 234.601 345C235.601 345.6 235.601 346 235.601 346.4Z" fill="black"/>
<path d="M258.601 343.4C258.601 342.6 258.801 341.8 259.201 341C259.601 340.4 260.201 339.8 261.201 339.4C262.001 339 263.001 338.8 264.201 338.8C265.401 338.8 266.401 339 267.201 339.4C268.001 339.8 268.601 340.4 269.001 341C269.401 341.6 269.601 342.4 269.601 343.2C269.601 344.2 269.201 345.2 268.601 345.8C268.001 346.6 267.001 347.4 265.601 348.2C266.001 348.8 266.401 349.2 266.801 349.8C267.201 350.2 267.601 350.8 268.001 351.2C268.401 351.6 268.601 352 269.001 352.2C269.201 352 269.401 351.4 269.601 350.8C269.801 350.2 270.201 349.6 270.401 349.2C270.601 348.8 271.001 348.8 271.401 348.8C271.801 348.8 272.201 349 272.601 349.2C273.001 349.6 273.001 349.8 273.001 350.4C273.001 350.8 272.801 351.4 272.601 352.2C272.401 353 272.001 353.8 271.401 354.6C271.801 354.8 272.201 355.4 273.001 356C273.801 356.6 274.201 357 274.401 357.2C274.601 357.4 274.601 357.6 274.601 358C274.601 358.4 274.401 358.8 274.001 359.2C273.601 359.6 273.201 359.6 272.801 359.6C272.401 359.6 272.001 359.4 271.601 359.2C271.201 359 270.401 358.2 269.001 357.2C268.401 357.8 267.801 358.2 267.201 358.6C266.601 359 265.801 359.2 265.201 359.4C264.601 359.6 263.601 359.6 262.801 359.6C261.601 359.6 260.601 359.4 259.801 359.2C258.801 358.8 258.201 358.4 257.601 357.8C257.001 357.2 256.601 356.6 256.201 356C256.001 355.4 255.801 354.6 255.801 354C255.801 353.4 256.001 352.6 256.201 352.2C256.401 351.6 256.801 351.2 257.201 350.6C257.601 350.2 258.001 349.8 258.601 349.2C259.201 348.8 259.801 348.4 260.601 348C260.001 347.2 259.401 346.4 259.001 345.8C258.801 344.8 258.601 344 258.601 343.4ZM262.401 349.8C261.401 350.4 260.801 350.8 260.401 351.4C260.001 352 259.801 352.6 259.801 353.4C259.801 353.8 259.801 354.2 260.001 354.6C260.201 355 260.401 355.4 260.801 355.6C261.201 356 261.401 356.2 262.001 356.4C262.401 356.6 262.801 356.6 263.401 356.6C263.801 356.6 264.401 356.6 264.801 356.4C265.201 356.2 265.601 356 266.001 355.8C266.401 355.6 266.801 355.2 267.201 354.8C266.401 354 265.601 353.4 265.001 352.6C264.201 352 263.401 351 262.401 349.8ZM263.801 346.2C264.801 345.6 265.401 345.2 265.801 344.8C266.201 344.4 266.401 344 266.401 343.4C266.401 342.8 266.201 342.4 265.801 342C265.401 341.6 264.801 341.4 264.201 341.4C263.601 341.4 263.001 341.6 262.601 342C262.201 342.4 262.001 342.8 262.001 343.4C262.001 343.6 262.001 344 262.201 344.2C262.401 344.6 262.601 344.8 262.801 345.2C263.201 345.2 263.401 345.6 263.801 346.2Z" fill="black"/>
<path d="M300 353.2C300 354.4 299.6 355.6 299 356.4C298.4 357.4 297.4 358.2 296.2 358.6C295 359 293.6 359.4 292 359.4C290 359.4 288.4 359 287.2 358.2C286.2 357.6 285.6 357 285 356C284.4 355.2 284.2 354.2 284.2 353.4C284.2 353 284.4 352.4 284.8 352.2C285.2 351.8 285.6 351.6 286.2 351.6C286.6 351.6 287 351.8 287.2 352C287.4 352.2 287.8 352.6 288 353.2C288.2 353.8 288.6 354.4 288.8 354.8C289 355.2 289.6 355.6 290 355.8C290.6 356 291.2 356.2 292.2 356.2C293.4 356.2 294.4 356 295.2 355.4C296 354.8 296.4 354.2 296.4 353.4C296.4 352.8 296.2 352.2 295.8 351.8C295.4 351.4 294.8 351 294.2 350.8C293.6 350.6 292.6 350.4 291.6 350.2C290.2 349.8 289 349.4 288 349C287 348.6 286.2 348 285.6 347.2C285 346.4 284.8 345.4 284.8 344.2C284.8 343 285.2 342.2 285.8 341.2C286.4 340.2 287.2 339.6 288.4 339.2C289.6 338.8 290.8 338.6 292.4 338.6C293.6 338.6 294.6 338.8 295.6 339C296.4 339.4 297.2 339.8 297.8 340.2C298.4 340.8 298.8 341.2 299 341.8C299.2 342.4 299.4 342.8 299.4 343.4C299.4 343.8 299.2 344.4 298.8 344.8C298.4 345.2 298 345.4 297.6 345.4C297.2 345.4 296.8 345.2 296.6 345C296.4 344.8 296 344.4 295.8 343.8C295.4 343 295 342.4 294.4 342C293.8 341.6 293 341.4 292 341.4C291 341.4 290.2 341.6 289.4 342C288.8 342.4 288.4 343 288.4 343.6C288.4 344 288.6 344.4 288.8 344.6C289 344.8 289.4 345.2 289.8 345.4C290.2 345.6 290.6 345.8 291 345.8C291.4 346 292 346 293 346.4C294.2 346.6 295.2 347 296 347.2C296.8 347.4 297.6 348 298.4 348.4C299.2 348.8 299.6 349.4 300 350.2C299.8 351.2 300 352.2 300 353.2Z" fill="black"/>
<path d="M317.2 351.8C317.2 353 317 354 316.6 354.8C316.2 355.8 315.8 356.6 315 357.2C314.2 357.8 313.6 358.4 312.6 358.8C311.6 359.2 310.6 359.4 309.6 359.4C308.4 359.4 307.4 359.2 306.6 358.8C305.8 358.4 305 358 304.2 357.2C303.6 356.6 303 355.8 302.6 354.8C302.2 353.8 302 352.8 302 351.8C302 350.6 302.2 349.6 302.6 348.6C303 347.6 303.4 346.8 304 346.2C304.6 345.6 305.4 345 306.4 344.6C307.4 344.2 308.4 344 309.4 344C310.6 344 311.6 344.2 312.4 344.6C313.4 345 314.2 345.4 314.8 346.2C315.4 347 316 347.6 316.2 348.6C316.4 349.6 317.2 350.8 317.2 351.8ZM313.4 351.8C313.4 350.2 313 349 312.4 348.2C311.8 347.4 310.8 347 309.6 347C308.8 347 308.2 347.2 307.6 347.6C307 348 306.6 348.6 306.4 349.2C306.2 349.8 306 350.8 306 351.8C306 352.8 306.2 353.6 306.4 354.4C306.6 355.2 307.2 355.6 307.6 356C308.2 356.4 308.8 356.6 309.6 356.6C310.8 356.6 311.6 356.2 312.4 355.4C313 354.6 313.4 353.4 313.4 351.8Z" fill="black"/>
<path d="M320 357.2V341C320 340.2 320.2 339.6 320.4 339.4C320.8 339 321.2 338.8 321.8 338.8C322.4 338.8 322.8 339 323.2 339.4C323.6 339.8 323.8 340.4 323.8 341.2V357.4C323.8 358.2 323.6 358.8 323.2 359.2C322.8 359.6 322.4 359.8 321.8 359.8C321.2 359.8 320.8 359.6 320.4 359.2C320 358.8 320 358 320 357.2Z" fill="black"/>
<path d="M337.401 357.4V357C337.001 357.6 336.401 358 336.001 358.4C335.601 358.8 335.001 359 334.401 359.2C333.801 359.4 333.201 359.4 332.401 359.4C331.401 359.4 330.601 359.2 330.001 358.8C329.201 358.4 328.801 358 328.401 357.2C328.001 356.4 327.801 355.2 327.801 353.8V346.4C327.801 345.6 328.001 345 328.401 344.8C328.801 344.4 329.201 344.2 329.801 344.2C330.401 344.2 330.801 344.4 331.201 344.8C331.601 345.2 331.801 345.8 331.801 346.4V352.4C331.801 353.2 331.801 354 332.001 354.6C332.201 355.2 332.401 355.6 332.801 356C333.201 356.4 333.601 356.4 334.401 356.4C335.001 356.4 335.601 356.2 336.201 355.8C336.801 355.4 337.201 355 337.401 354.4C337.601 353.8 337.801 352.8 337.801 351V346.4C337.801 345.6 338.001 345.2 338.401 344.8C338.801 344.4 339.201 344.2 339.801 344.2C340.401 344.2 340.801 344.4 341.201 344.8C341.601 345.2 341.801 345.8 341.801 346.4V357.2C341.801 358 341.601 358.4 341.401 358.8C341.001 359.2 340.601 359.4 340.201 359.4C339.601 359.4 339.201 359.2 339.001 358.8C337.601 358.6 337.401 358 337.401 357.4Z" fill="black"/>
<path d="M344.8 344.6H345.2V342.4C345.2 341.8 345.2 341.4 345.2 341C345.2 340.6 345.4 340.4 345.4 340.2C345.6 340 345.8 339.8 346 339.6C346.2 339.4 346.6 339.4 347 339.4C347.4 339.4 348 339.6 348.2 340C348.4 340.2 348.6 340.6 348.6 340.8C348.6 341.2 348.8 341.6 348.8 342.2V344.8H350.2C350.8 344.8 351.2 345 351.4 345.2C351.6 345.4 351.8 345.8 351.8 346.2C351.8 346.8 351.6 347 351.2 347.2C350.8 347.4 350.2 347.6 349.4 347.6H348.8V354.4C348.8 355 348.8 355.4 348.8 355.8C348.8 356.2 349 356.4 349.2 356.6C349.4 356.8 349.6 356.8 350 356.8C350.2 356.8 350.6 356.8 350.8 356.6C351.2 356.6 351.4 356.4 351.6 356.4C352 356.4 352.2 356.6 352.4 356.8C352.6 357 352.8 357.4 352.8 357.6C352.8 358.2 352.4 358.6 351.8 359C351.2 359.4 350.2 359.4 349 359.4C347.8 359.4 347 359.2 346.4 358.8C345.8 358.4 345.4 357.8 345.2 357.2C345 356.6 345 355.6 345 354.4V347.2H344.6C344 347.2 343.6 347 343.4 346.8C343.2 346.6 343 346.2 343 345.8C343 345.4 343.2 345 343.4 344.8C343.8 344.8 344.2 344.6 344.8 344.6Z" fill="black"/>
<path d="M356.4 342.6C355.8 342.6 355.4 342.4 355 342.2C354.6 342 354.4 341.4 354.4 340.8C354.4 340.2 354.6 339.8 355 339.4C355.4 339 355.8 338.8 356.4 338.8C356.8 338.8 357.4 339 357.6 339.2C358 339.6 358.2 340 358.2 340.6C358.2 341.2 358 341.6 357.6 342C357.2 342.4 356.8 342.6 356.4 342.6ZM358.2 346.4V357.2C358.2 358 358 358.6 357.6 358.8C357.2 359 356.8 359.4 356.2 359.4C355.6 359.4 355.2 359.2 354.8 358.8C354.4 358.4 354.2 357.8 354.2 357.2V346.6C354.2 345.8 354.4 345.4 354.8 345C355.2 344.6 355.6 344.4 356.2 344.4C356.8 344.4 357.2 344.6 357.6 345C358 345.4 358.2 345.8 358.2 346.4Z" fill="black"/>
<path d="M376.001 351.8C376.001 353 375.801 354 375.401 354.8C375.001 355.8 374.601 356.6 373.801 357.2C373.001 357.8 372.401 358.4 371.401 358.8C370.401 359.2 369.401 359.4 368.401 359.4C367.201 359.4 366.201 359.2 365.401 358.8C364.601 358.4 363.801 358 363.001 357.2C362.401 356.6 361.801 355.8 361.401 354.8C361.001 353.8 360.801 352.8 360.801 351.8C360.801 350.6 361.001 349.6 361.401 348.6C361.801 347.6 362.201 346.8 362.801 346.2C363.401 345.6 364.201 345 365.201 344.6C366.201 344.2 367.201 344 368.201 344C369.401 344 370.401 344.2 371.201 344.6C372.201 345 373.001 345.4 373.601 346.2C374.201 347 374.801 347.6 375.001 348.6C375.201 349.6 376.001 350.8 376.001 351.8ZM372.201 351.8C372.201 350.2 371.801 349 371.201 348.2C370.601 347.4 369.601 347 368.401 347C367.601 347 367.001 347.2 366.401 347.6C365.801 348 365.401 348.6 365.201 349.2C365.001 349.8 364.801 350.8 364.801 351.8C364.801 352.8 365.001 353.6 365.201 354.4C365.401 355.2 366.001 355.6 366.401 356C367.001 356.4 367.601 356.6 368.401 356.6C369.601 356.6 370.401 356.2 371.201 355.4C372.001 354.6 372.201 353.4 372.201 351.8Z" fill="black"/>
<path d="M382.4 346.4V346.8C383 346 383.8 345.2 384.6 344.8C385.4 344.4 386.2 344.2 387.2 344.2C388.2 344.2 389 344.4 389.8 344.8C390.6 345.2 391.2 345.8 391.6 346.6C391.8 347 392 347.6 392 348C392 348.6 392.2 349.2 392.2 350V357C392.2 357.8 392 358.4 391.6 358.6C391.2 358.8 390.8 359.2 390.2 359.2C389.6 359.2 389.2 359 388.8 358.6C388.4 358.2 388.2 357.6 388.2 357V350.8C388.2 349.6 388 348.6 387.6 348C387.2 347.4 386.6 347 385.6 347C385 347 384.4 347.2 383.8 347.6C383.2 348 382.8 348.6 382.6 349.2C382.4 349.8 382.4 350.8 382.4 352.4V357C382.4 357.8 382.2 358.4 381.8 358.8C381.4 359.2 381 359.4 380.4 359.4C379.8 359.4 379.4 359.2 379 358.8C378.6 358.4 378.4 357.8 378.4 357.2V346.4C378.4 345.6 378.6 345.2 378.8 344.8C379.2 344.4 379.6 344.2 380 344.2C380.4 344.2 380.6 344.2 380.8 344.4C381 344.6 381.2 344.8 381.4 345C382.2 345.6 382.4 346 382.4 346.4Z" fill="black"/>
</g>
<defs>
<linearGradient id="paint0_linear_616_157" x1="626.559" y1="65.5982" x2="-128.921" y2="435.558" gradientUnits="userSpaceOnUse">
<stop stop-color="#FBB17C"/>
<stop offset="0.14" stop-color="#E4A9AD"/>
<stop offset="0.26" stop-color="#D4A4D1"/>
<stop offset="0.32" stop-color="#CEA2DE"/>
<stop offset="0.44" stop-color="#E5BAE1"/>
<stop offset="0.55" stop-color="#FFD6E5"/>
<stop offset="0.69" stop-color="#ECE2EB"/>
<stop offset="0.87" stop-color="#DAEFF1"/>
<stop offset="1" stop-color="#D3F3F3"/>
</linearGradient>
<linearGradient id="paint1_linear_616_157" x1="140.959" y1="166.442" x2="343.239" y2="263.962" gradientUnits="userSpaceOnUse">
<stop offset="0.02" stop-color="#2D2D2D"/>
<stop offset="0.09" stop-color="#282828"/>
<stop offset="0.35" stop-color="#1B1B1B"/>
<stop offset="0.74" stop-color="#2D2D2D"/>
<stop offset="0.82" stop-color="#282828"/>
<stop offset="1" stop-color="#212121"/>
</linearGradient>
<linearGradient id="paint2_linear_616_157" x1="215.817" y1="196.253" x2="418.157" y2="293.813" gradientUnits="userSpaceOnUse">
<stop offset="0.02" stop-color="#2D2D2D"/>
<stop offset="0.09" stop-color="#282828"/>
<stop offset="0.35" stop-color="#1B1B1B"/>
<stop offset="0.74" stop-color="#2D2D2D"/>
<stop offset="0.82" stop-color="#282828"/>
<stop offset="1" stop-color="#212121"/>
</linearGradient>
<linearGradient id="paint3_linear_616_157" x1="125.326" y1="252.145" x2="321.275" y2="344.61" gradientUnits="userSpaceOnUse">
<stop offset="0.02" stop-color="#2D2D2D"/>
<stop offset="0.09" stop-color="#282828"/>
<stop offset="0.35" stop-color="#1B1B1B"/>
<stop offset="0.74" stop-color="#2D2D2D"/>
<stop offset="0.82" stop-color="#282828"/>
<stop offset="1" stop-color="#212121"/>
</linearGradient>
<linearGradient id="paint4_linear_616_157" x1="137.836" y1="172.912" x2="340.136" y2="270.452" gradientUnits="userSpaceOnUse">
<stop stop-color="white"/>
<stop offset="0.64"/>
</linearGradient>
<linearGradient id="paint5_linear_616_157" x1="202.286" y1="224.338" x2="404.625" y2="321.898" gradientUnits="userSpaceOnUse">
<stop stop-color="white"/>
<stop offset="0.64"/>
</linearGradient>
<linearGradient id="paint6_linear_616_157" x1="235.049" y1="156.364" x2="437.409" y2="253.904" gradientUnits="userSpaceOnUse">
<stop stop-color="white"/>
<stop offset="0.64"/>
</linearGradient>
<linearGradient id="paint7_linear_616_157" x1="125.594" y1="251.58" x2="321.542" y2="344.025" gradientUnits="userSpaceOnUse">
<stop stop-color="white"/>
<stop offset="0.64"/>
</linearGradient>
<clipPath id="clip0_616_157">
<rect width="500" height="500" fill="white"/>
</clipPath>
</defs>
</svg>
