<svg width="500" height="500" viewBox="0 0 500 500" fill="none" xmlns="http://www.w3.org/2000/svg">
<g clip-path="url(#clip0_616_129)">
<path d="M500 0H0V500H500V0Z" fill="url(#paint0_radial_616_129)"/>
<path d="M195.26 290.61L176.71 295.61L157.08 300.86L162.35 281.23L167.4 262.31C174.45 273.711 183.971 283.382 195.26 290.61Z" fill="url(#paint1_linear_616_129)"/>
<path d="M195.25 290.61L182.15 294.11L176.71 295.58L157.08 300.83L162.34 281.21L166.16 266.91L167.4 262.28C169.519 265.731 171.878 269.03 174.46 272.15C180.382 279.353 187.397 285.582 195.25 290.61Z" fill="url(#paint2_linear_616_129)"/>
<path style="mix-blend-mode:multiply" opacity="0.5" d="M195.25 290.61L182.15 294.11C174.851 286.353 169.384 277.059 166.15 266.91L174.45 272.15C180.375 279.354 187.394 285.583 195.25 290.61Z" fill="url(#paint3_linear_616_129)"/>
<path d="M317.58 209.45H281.3V222.98H317.58" fill="url(#paint4_linear_616_129)"/>
<path d="M236.46 153.22H249.99V115.11H236.46V153.22Z" fill="url(#paint5_linear_616_129)"/>
<path style="mix-blend-mode:multiply" opacity="0.5" d="M236.45 128.12C236.45 128.12 245.99 128.6 249.99 135.91V122.35L236.45 125V128.12Z" fill="url(#paint6_linear_616_129)"/>
<path style="mix-blend-mode:multiply" opacity="0.5" d="M304.181 223C304.181 223 303.711 213.47 296.391 209.47H310.001L307.331 223H304.181Z" fill="url(#paint7_linear_616_129)"/>
<path d="M236.451 194.87C228.999 194.873 221.853 197.834 216.584 203.103C211.315 208.373 208.353 215.518 208.351 222.97C208.351 238.5 236.451 262.28 236.451 262.28C236.451 262.28 264.571 238.5 264.571 223C264.572 219.307 263.846 215.649 262.433 212.236C261.02 208.823 258.949 205.722 256.338 203.11C253.727 200.498 250.626 198.425 247.214 197.012C243.802 195.598 240.144 194.87 236.451 194.87ZM236.451 235.99C233.879 235.99 231.366 235.228 229.228 233.799C227.09 232.371 225.424 230.34 224.44 227.965C223.456 225.59 223.199 222.976 223.7 220.454C224.202 217.932 225.44 215.616 227.258 213.798C229.076 211.98 231.393 210.742 233.914 210.24C236.436 209.738 239.05 209.996 241.425 210.98C243.801 211.964 245.831 213.63 247.26 215.768C248.688 217.906 249.451 220.419 249.451 222.99C249.452 224.698 249.117 226.39 248.464 227.968C247.811 229.546 246.854 230.981 245.646 232.189C244.439 233.397 243.006 234.356 241.428 235.01C239.85 235.664 238.159 236 236.451 236V235.99Z" fill="url(#paint8_linear_616_129)"/>
<path d="M331.32 223C331.283 197.851 321.276 173.743 303.492 155.961C285.708 138.179 261.599 128.174 236.45 128.14V113C265.618 113.021 293.584 124.617 314.209 145.242C334.833 165.866 346.429 193.833 346.45 223" fill="url(#paint9_linear_616_129)"/>
<path d="M319.31 223C319.284 201.034 310.545 179.976 295.011 164.446C279.477 148.915 258.416 140.181 236.45 140.16V155.25C254.415 155.269 271.639 162.412 284.343 175.113C297.048 187.814 304.196 205.036 304.22 223H319.31Z" fill="url(#paint10_linear_616_129)"/>
<path d="M292.21 223H277.12C277.107 212.219 272.818 201.883 265.193 194.26C257.568 186.637 247.232 182.351 236.45 182.34V167.23C251.236 167.246 265.411 173.127 275.864 183.583C286.318 194.039 292.197 208.215 292.21 223Z" fill="url(#paint11_linear_616_129)"/>
<path d="M318.21 236.52C315.005 255.889 305.026 273.49 290.052 286.188C275.078 298.885 256.083 305.853 236.45 305.85C230.794 305.857 225.151 305.287 219.61 304.15C200.833 300.224 183.998 289.908 171.974 274.96C159.951 260.012 153.483 241.357 153.673 222.174C153.863 202.992 160.699 184.469 173.016 169.762C185.333 155.054 202.369 145.074 221.22 141.52L222.93 141.23V156.57C211.249 158.951 200.402 164.371 191.485 172.284C182.567 180.197 175.895 190.322 172.142 201.638C168.388 212.953 167.686 225.059 170.106 236.732C172.526 248.406 177.983 259.234 185.926 268.125C193.869 277.016 204.016 283.654 215.344 287.369C226.672 291.085 238.78 291.746 250.445 289.287C262.11 286.828 272.921 281.335 281.785 273.362C290.649 265.39 297.253 255.22 300.93 243.88C301.716 241.466 302.361 239.009 302.86 236.52H318.19" fill="url(#paint12_linear_616_129)"/>
<path style="mix-blend-mode:multiply" d="M221.22 141.52C204.369 144.689 188.918 153.012 177 165.34C174.523 170.435 172.462 175.722 170.84 181.15C164.887 200.99 165.069 222.165 171.36 241.9C168.757 232.903 168.045 223.465 169.268 214.18C170.491 204.894 173.624 195.963 178.468 187.947C183.312 179.932 189.763 173.006 197.416 167.606C205.068 162.206 213.755 158.448 222.93 156.57V141.23L221.22 141.52Z" fill="url(#paint13_linear_616_129)"/>
<path style="mix-blend-mode:multiply" d="M318.21 236.52C315.005 255.889 305.026 273.49 290.052 286.188C275.078 298.885 256.083 305.853 236.45 305.85C230.794 305.857 225.151 305.287 219.61 304.15H219.94C238.125 304.138 255.822 298.27 270.411 287.415C285 276.559 295.705 261.294 300.94 243.88C301.726 241.466 302.371 239.009 302.87 236.52H318.2" fill="url(#paint14_linear_616_129)"/>
<path d="M163.81 346.78C164.683 345.18 165.99 343.859 167.58 342.97C169.252 342.042 171.139 341.57 173.05 341.6C175.352 341.544 177.608 342.247 179.47 343.6C181.24 344.934 182.489 346.844 183 349H177.4C177.022 348.17 176.401 347.473 175.62 347C174.824 346.532 173.914 346.293 172.99 346.31C172.268 346.285 171.55 346.42 170.886 346.705C170.222 346.991 169.629 347.419 169.15 347.96C168.196 349.233 167.68 350.78 167.68 352.37C167.68 353.961 168.196 355.508 169.15 356.78C169.633 357.317 170.229 357.741 170.894 358.021C171.56 358.301 172.279 358.431 173 358.4C173.924 358.418 174.834 358.179 175.63 357.71C176.411 357.238 177.032 356.541 177.41 355.71H183C182.481 357.871 181.217 359.779 179.43 361.1C177.567 362.451 175.311 363.153 173.01 363.1C171.099 363.134 169.213 362.665 167.54 361.74C165.952 360.852 164.646 359.536 163.77 357.94C162.883 356.223 162.42 354.318 162.42 352.385C162.42 350.452 162.883 348.548 163.77 346.83L163.81 346.78Z" fill="#4776E6"/>
<path d="M199.301 359.18H191.441L190.181 362.9H184.811L192.431 341.84H198.371L206.001 362.9H200.571L199.301 359.18ZM197.981 355.18L195.371 347.47L192.791 355.18H197.981Z" fill="#4776E6"/>
<path d="M211.78 362.36C210.62 361.905 209.609 361.136 208.86 360.14C208.108 359.113 207.701 357.873 207.7 356.6H213.16C213.192 357.278 213.482 357.919 213.97 358.39C214.472 358.813 215.115 359.031 215.77 359C216.412 359.038 217.047 358.854 217.57 358.48C217.787 358.306 217.96 358.083 218.075 357.829C218.19 357.575 218.243 357.298 218.23 357.02C218.238 356.781 218.196 356.542 218.106 356.32C218.017 356.098 217.882 355.897 217.71 355.73C217.335 355.374 216.898 355.089 216.42 354.89C215.708 354.6 214.98 354.35 214.24 354.14C213.1 353.804 211.987 353.383 210.91 352.88C210.033 352.446 209.272 351.808 208.69 351.02C208.034 350.082 207.707 348.954 207.76 347.81C207.721 346.929 207.894 346.051 208.265 345.251C208.635 344.45 209.193 343.75 209.89 343.21C211.497 342.039 213.454 341.45 215.44 341.54C217.445 341.445 219.423 342.034 221.05 343.21C221.751 343.764 222.319 344.467 222.713 345.268C223.108 346.069 223.319 346.947 223.33 347.84H217.78C217.775 347.536 217.706 347.236 217.576 346.96C217.447 346.684 217.261 346.439 217.03 346.24C216.532 345.835 215.902 345.625 215.26 345.65C214.716 345.626 214.181 345.804 213.76 346.15C213.552 346.356 213.394 346.607 213.299 346.884C213.203 347.161 213.173 347.456 213.211 347.747C213.249 348.037 213.353 348.315 213.516 348.559C213.679 348.802 213.896 349.004 214.15 349.15C215.105 349.662 216.111 350.075 217.15 350.38C218.284 350.749 219.393 351.19 220.47 351.7C221.334 352.133 222.087 352.76 222.67 353.53C223.32 354.426 223.648 355.515 223.6 356.62C223.615 357.775 223.299 358.909 222.69 359.89C222.041 360.904 221.119 361.715 220.03 362.23C218.747 362.837 217.339 363.135 215.92 363.1C214.505 363.126 213.099 362.875 211.78 362.36Z" fill="#4776E6"/>
<path d="M241.9 341.84V346H236.32V362.9H231.19V346H225.61V341.89L241.9 341.84Z" fill="#4776E6"/>
<path d="M257.591 359.18H249.731L248.471 362.9H243.101L250.721 341.84H256.661L264.281 362.9H258.851L257.591 359.18ZM256.271 355.18L253.661 347.47L251.081 355.18H256.271Z" fill="#4776E6"/>
<path d="M295.57 341.84L290.08 362.9H283.87L280.51 349L277 362.9H270.79L265.45 341.84H271L274 357.17L277.75 341.84H283.39L286.99 357.17L290.05 341.84H295.57Z" fill="#4776E6"/>
<path d="M311.261 359.18H303.401L302.141 362.9H296.771L304.391 341.84H310.331L318.001 362.9H312.571L311.261 359.18ZM309.941 355.18L307.331 347.47L304.751 355.18H309.941Z" fill="#4776E6"/>
<path d="M338.32 341.84L331 355.94V362.94H325.9V355.94L318.61 341.84H324.43L328.51 350.66L332.56 341.84H338.32Z" fill="#4776E6"/>
</g>
<defs>
<radialGradient id="paint0_radial_616_129" cx="0" cy="0" r="1" gradientUnits="userSpaceOnUse" gradientTransform="translate(250 250) scale(320.58)">
<stop offset="0.13" stop-color="white"/>
<stop offset="0.37" stop-color="#FBFBFB"/>
<stop offset="0.61" stop-color="#E7E5E5"/>
<stop offset="0.86" stop-color="#CCCCCC"/>
<stop offset="1" stop-color="#C0C0C0"/>
</radialGradient>
<linearGradient id="paint1_linear_616_129" x1="127.73" y1="312.01" x2="307.57" y2="192.68" gradientUnits="userSpaceOnUse">
<stop stop-color="#8E54E9"/>
<stop offset="0.59" stop-color="#6567E7"/>
<stop offset="1" stop-color="#4776E6"/>
</linearGradient>
<linearGradient id="paint2_linear_616_129" x1="127.73" y1="312.01" x2="307.54" y2="192.7" gradientUnits="userSpaceOnUse">
<stop stop-color="#8E54E9"/>
<stop offset="0.59" stop-color="#6567E7"/>
<stop offset="1" stop-color="#4776E6"/>
</linearGradient>
<linearGradient id="paint3_linear_616_129" x1="169.23" y1="286.37" x2="186.58" y2="274.86" gradientUnits="userSpaceOnUse">
<stop stop-color="#4776E6"/>
<stop offset="0.48" stop-color="#479FE6"/>
<stop offset="1" stop-color="#47CFE6"/>
</linearGradient>
<linearGradient id="paint4_linear_616_129" x1="314.87" y1="232.92" x2="225.37" y2="136.03" gradientUnits="userSpaceOnUse">
<stop stop-color="#4776E6"/>
<stop offset="0.48" stop-color="#479FE6"/>
<stop offset="1" stop-color="#47CFE6"/>
</linearGradient>
<linearGradient id="paint5_linear_616_129" x1="223.96" y1="115.85" x2="316.01" y2="203.35" gradientUnits="userSpaceOnUse">
<stop stop-color="#4776E6"/>
<stop offset="0.48" stop-color="#479FE6"/>
<stop offset="1" stop-color="#47CFE6"/>
</linearGradient>
<linearGradient id="paint6_linear_616_129" x1="263.03" y1="112.49" x2="233.03" y2="139.68" gradientUnits="userSpaceOnUse">
<stop stop-color="#4776E6"/>
<stop offset="0.48" stop-color="#479FE6"/>
<stop offset="1" stop-color="#47CFE6"/>
</linearGradient>
<linearGradient id="paint7_linear_616_129" x1="319.811" y1="196.4" x2="292.621" y2="226.4" gradientUnits="userSpaceOnUse">
<stop stop-color="#4776E6"/>
<stop offset="0.48" stop-color="#479FE6"/>
<stop offset="1" stop-color="#47CFE6"/>
</linearGradient>
<linearGradient id="paint8_linear_616_129" x1="208.351" y1="228.58" x2="264.571" y2="228.58" gradientUnits="userSpaceOnUse">
<stop stop-color="#8E54E9"/>
<stop offset="0.59" stop-color="#6567E7"/>
<stop offset="1" stop-color="#4776E6"/>
</linearGradient>
<linearGradient id="paint9_linear_616_129" x1="236.77" y1="102.37" x2="328.82" y2="189.88" gradientUnits="userSpaceOnUse">
<stop stop-color="#4776E6"/>
<stop offset="0.48" stop-color="#479FE6"/>
<stop offset="1" stop-color="#47CFE6"/>
</linearGradient>
<linearGradient id="paint10_linear_616_129" x1="324.81" y1="223.73" x2="235.32" y2="126.85" gradientUnits="userSpaceOnUse">
<stop stop-color="#4776E6"/>
<stop offset="0.48" stop-color="#479FE6"/>
<stop offset="1" stop-color="#47CFE6"/>
</linearGradient>
<linearGradient id="paint11_linear_616_129" x1="232.3" y1="156.65" x2="297.36" y2="228.24" gradientUnits="userSpaceOnUse">
<stop stop-color="#4776E6"/>
<stop offset="0.48" stop-color="#479FE6"/>
<stop offset="1" stop-color="#47CFE6"/>
</linearGradient>
<linearGradient id="paint12_linear_616_129" x1="153.59" y1="223.54" x2="318.21" y2="223.54" gradientUnits="userSpaceOnUse">
<stop stop-color="#8E54E9"/>
<stop offset="0.59" stop-color="#6567E7"/>
<stop offset="1" stop-color="#4776E6"/>
</linearGradient>
<linearGradient id="paint13_linear_616_129" x1="236.49" y1="174.29" x2="136.77" y2="215.2" gradientUnits="userSpaceOnUse">
<stop stop-color="#8E54E9" stop-opacity="0"/>
<stop offset="0.2" stop-color="#815AE8" stop-opacity="0.18"/>
<stop offset="0.65" stop-color="#6269E7" stop-opacity="0.63"/>
<stop offset="1" stop-color="#4776E6"/>
</linearGradient>
<linearGradient id="paint14_linear_616_129" x1="327.17" y1="268.54" x2="199.61" y2="274.51" gradientUnits="userSpaceOnUse">
<stop stop-color="#8E54E9" stop-opacity="0"/>
<stop offset="0.2" stop-color="#815AE8" stop-opacity="0.18"/>
<stop offset="0.65" stop-color="#6269E7" stop-opacity="0.63"/>
<stop offset="1" stop-color="#4776E6"/>
</linearGradient>
<clipPath id="clip0_616_129">
<rect width="500" height="500" fill="white"/>
</clipPath>
</defs>
</svg>
