<svg width="500" height="500" viewBox="0 0 500 500" fill="none" xmlns="http://www.w3.org/2000/svg">
<g clip-path="url(#clip0_616_226)">
<path d="M500 0H0V500H500V0Z" fill="url(#paint0_linear_616_226)"/>
<path d="M328.85 236.11C309.919 235.12 292.025 227.154 278.62 213.75C265.215 200.345 257.25 182.451 256.26 163.52C256.19 162.19 256.16 160.86 256.16 159.52H196.16C189.887 159.52 183.872 162.012 179.437 166.447C175.001 170.882 172.51 176.898 172.51 183.17V236.91C172.51 243.182 175.001 249.198 179.437 253.633C183.872 258.068 189.887 260.56 196.16 260.56H211.7V278.1C211.701 278.853 211.907 279.592 212.297 280.237C212.687 280.882 213.245 281.408 213.912 281.758C214.578 282.109 215.328 282.272 216.08 282.228C216.832 282.184 217.558 281.936 218.18 281.51L248.64 260.56H309.2C315.472 260.56 321.488 258.068 325.923 253.633C330.358 249.198 332.85 243.182 332.85 236.91V236.21C331.51 236.21 330.18 236.18 328.85 236.11ZM217.46 210C217.46 212.037 216.856 214.029 215.724 215.722C214.592 217.416 212.983 218.736 211.101 219.516C209.219 220.296 207.148 220.5 205.15 220.102C203.152 219.705 201.317 218.724 199.877 217.283C198.436 215.843 197.455 214.007 197.058 212.009C196.66 210.011 196.864 207.94 197.644 206.058C198.423 204.176 199.744 202.568 201.437 201.436C203.131 200.304 205.123 199.7 207.16 199.7C209.892 199.7 212.511 200.785 214.443 202.717C216.375 204.648 217.46 207.268 217.46 210ZM234.76 210C234.758 207.96 235.361 205.966 236.492 204.269C237.624 202.573 239.234 201.25 241.117 200.468C243.001 199.686 245.074 199.48 247.075 199.877C249.076 200.274 250.914 201.255 252.357 202.696C253.799 204.138 254.782 205.975 255.181 207.975C255.58 209.975 255.376 212.049 254.596 213.933C253.816 215.818 252.494 217.428 250.799 218.562C249.103 219.695 247.109 220.3 245.07 220.3C242.337 220.3 239.716 219.215 237.783 217.284C235.85 215.352 234.762 212.733 234.76 210Z" fill="white"/>
<path d="M256.26 163.52H196.26C191.05 163.525 186.055 165.597 182.371 169.281C178.687 172.965 176.615 177.96 176.61 183.17V236.91C176.615 242.12 178.687 247.115 182.371 250.799C186.055 254.483 191.05 256.555 196.26 256.56H215.8V278.1C215.8 278.24 215.95 278.25 215.95 278.25H216.01L247.49 256.6H309.2C314.409 256.592 319.402 254.519 323.086 250.836C326.769 247.153 328.842 242.159 328.85 236.95V236.15C309.912 235.159 292.013 227.188 278.607 213.775C265.202 200.362 257.24 182.458 256.26 163.52ZM245.07 220.34C243.033 220.34 241.041 219.736 239.347 218.604C237.654 217.472 236.333 215.864 235.554 213.982C234.774 212.1 234.57 210.029 234.968 208.031C235.365 206.033 236.346 204.197 237.787 202.757C239.227 201.316 241.062 200.335 243.06 199.938C245.058 199.541 247.129 199.744 249.012 200.524C250.894 201.304 252.502 202.624 253.634 204.318C254.766 206.011 255.37 208.003 255.37 210.04C255.367 212.771 254.281 215.389 252.35 217.32C250.419 219.251 247.801 220.337 245.07 220.34ZM207.16 220.34C205.123 220.34 203.131 219.736 201.437 218.604C199.744 217.472 198.423 215.864 197.644 213.982C196.864 212.1 196.66 210.029 197.058 208.031C197.455 206.033 198.436 204.197 199.877 202.757C201.317 201.316 203.152 200.335 205.15 199.938C207.148 199.541 209.219 199.744 211.102 200.524C212.984 201.304 214.592 202.624 215.724 204.318C216.856 206.011 217.46 208.003 217.46 210.04C217.46 211.393 217.193 212.732 216.676 213.982C216.158 215.231 215.4 216.367 214.443 217.323C213.487 218.28 212.351 219.038 211.102 219.556C209.852 220.074 208.512 220.34 207.16 220.34Z" fill="url(#paint1_linear_616_226)"/>
<path d="M207.16 196.74C204.529 196.74 201.958 197.52 199.771 198.981C197.584 200.443 195.879 202.52 194.872 204.95C193.866 207.38 193.602 210.054 194.115 212.634C194.629 215.214 195.895 217.584 197.755 219.444C199.615 221.304 201.985 222.571 204.565 223.084C207.145 223.597 209.819 223.334 212.25 222.327C214.68 221.321 216.757 219.616 218.218 217.429C219.68 215.242 220.46 212.67 220.46 210.04C220.457 206.513 219.055 203.132 216.561 200.638C214.068 198.144 210.686 196.742 207.16 196.74ZM207.16 220.34C205.123 220.34 203.131 219.736 201.437 218.604C199.744 217.472 198.423 215.863 197.644 213.981C196.864 212.099 196.66 210.028 197.058 208.03C197.455 206.032 198.436 204.197 199.877 202.757C201.317 201.316 203.152 200.335 205.15 199.938C207.148 199.54 209.219 199.744 211.102 200.524C212.984 201.303 214.592 202.624 215.724 204.317C216.856 206.011 217.46 208.003 217.46 210.04C217.46 211.392 217.193 212.732 216.676 213.981C216.158 215.231 215.4 216.366 214.443 217.323C213.487 218.279 212.351 219.038 211.102 219.556C209.852 220.073 208.512 220.34 207.16 220.34Z" fill="white"/>
<path d="M245.07 196.74C242.439 196.74 239.868 197.52 237.68 198.981C235.493 200.443 233.789 202.52 232.782 204.95C231.775 207.38 231.512 210.054 232.025 212.634C232.538 215.214 233.805 217.584 235.665 219.444C237.525 221.304 239.895 222.571 242.475 223.084C245.055 223.597 247.729 223.334 250.159 222.327C252.589 221.321 254.667 219.616 256.128 217.429C257.589 215.242 258.37 212.67 258.37 210.04C258.364 206.514 256.961 203.134 254.468 200.641C251.975 198.148 248.595 196.745 245.07 196.74ZM245.07 220.34C243.032 220.34 241.041 219.736 239.347 218.604C237.653 217.472 236.333 215.863 235.554 213.981C234.774 212.099 234.57 210.028 234.967 208.03C235.365 206.032 236.346 204.197 237.786 202.757C239.227 201.316 241.062 200.335 243.06 199.938C245.058 199.54 247.129 199.744 249.011 200.524C250.893 201.303 252.502 202.624 253.634 204.317C254.765 206.011 255.37 208.003 255.37 210.04C255.367 212.771 254.281 215.389 252.35 217.32C250.419 219.251 247.8 220.337 245.07 220.34Z" fill="white"/>
<path d="M332.85 168.99C338.08 168.99 342.32 164.75 342.32 159.52C342.32 154.29 338.08 150.05 332.85 150.05C327.62 150.05 323.38 154.29 323.38 159.52C323.38 164.75 327.62 168.99 332.85 168.99Z" fill="url(#paint2_radial_616_226)"/>
<path d="M313.62 205.05C304.673 201.264 297.04 194.928 291.673 186.83C286.305 178.733 283.442 169.235 283.44 159.52H268.44C268.439 167.979 270.104 176.355 273.34 184.17C276.577 191.985 281.321 199.086 287.302 205.068C293.284 211.049 300.385 215.793 308.2 219.03C316.015 222.266 324.391 223.931 332.85 223.93V208.93C326.244 208.941 319.704 207.622 313.62 205.05Z" fill="url(#paint3_linear_616_226)"/>
<path d="M312 190.48C318.167 194.643 325.439 196.866 332.88 196.86V183.17C332.88 182.73 332.88 182.29 332.88 181.86C326.967 181.857 321.298 179.506 317.118 175.325C312.938 171.143 310.59 165.472 310.59 159.56C310.15 159.56 309.71 159.56 309.27 159.56H295.51C295.499 165.681 296.995 171.71 299.866 177.117C302.736 182.523 306.893 187.14 311.97 190.56L312 190.48Z" fill="url(#paint4_linear_616_226)"/>
<path fill-rule="evenodd" clip-rule="evenodd" d="M258.26 163.468V159.5H254.26V163.572L254.262 163.623C255.268 183.056 263.437 201.426 277.193 215.189C290.948 228.951 309.314 237.131 328.745 238.147L328.797 238.15H332.813V234.15H328.902C310.478 233.173 293.066 225.412 280.022 212.361C266.978 199.31 259.226 181.893 258.26 163.468Z" fill="white"/>
<path d="M120.21 315.82C120.21 308.54 125.8 303.42 133.43 303.42C138.07 303.42 141.73 305.11 144.07 308.16L139.07 312.67C138.489 311.826 137.715 311.133 136.812 310.65C135.91 310.166 134.904 309.906 133.88 309.89C130.56 309.89 128.32 312.2 128.32 315.82C128.32 319.44 130.56 321.75 133.88 321.75C134.89 321.729 135.881 321.469 136.771 320.991C137.661 320.513 138.425 319.83 139 319L144 323.51C141.66 326.51 138 328.26 133.36 328.26C125.8 328.23 120.21 323.11 120.21 315.82Z" fill="white"/>
<path d="M144.64 318.4C144.64 312.77 149.15 308.81 155.42 308.81C161.69 308.81 166.19 312.81 166.19 318.4C166.19 323.99 161.72 328 155.42 328C149.12 328 144.64 324 144.64 318.4ZM158.43 318.4C158.43 315.99 157.11 314.77 155.43 314.77C153.75 314.77 152.43 315.99 152.43 318.4C152.43 320.81 153.75 322.06 155.43 322.06C157.11 322.06 158.43 320.8 158.43 318.4Z" fill="white"/>
<path d="M200.52 317.11V327.68H192.86V318.43C192.86 316.13 192.01 315.25 190.79 315.25C189.57 315.25 188.39 316.16 188.39 318.64V327.64H180.73V318.39C180.73 316.09 179.95 315.21 178.66 315.21C177.37 315.21 176.25 316.12 176.25 318.6V327.6H168.59V309.15H175.88V310.88C176.571 310.201 177.393 309.667 178.295 309.312C179.196 308.956 180.161 308.785 181.13 308.81C182.256 308.747 183.379 308.973 184.394 309.464C185.408 309.956 186.281 310.698 186.93 311.62C187.686 310.716 188.636 309.994 189.709 309.507C190.782 309.021 191.952 308.782 193.13 308.81C197.33 308.81 200.52 311.28 200.52 317.11Z" fill="white"/>
<path d="M235.76 317.11V327.68H228.1V318.43C228.1 316.13 227.25 315.25 226.03 315.25C224.81 315.25 223.63 316.16 223.63 318.64V327.64H216V318.39C216 316.09 215.22 315.21 213.93 315.21C212.64 315.21 211.52 316.12 211.52 318.6V327.6H203.86V309.15H211.15V310.88C211.841 310.201 212.663 309.667 213.565 309.312C214.466 308.956 215.431 308.785 216.4 308.81C217.526 308.747 218.649 308.973 219.664 309.464C220.678 309.956 221.551 310.698 222.2 311.62C222.956 310.716 223.906 309.994 224.979 309.507C226.052 309.021 227.222 308.782 228.4 308.81C232.57 308.81 235.76 311.28 235.76 317.11Z" fill="white"/>
<path d="M259.34 309.15V327.68H252.05V325.92C251.364 326.609 250.544 327.15 249.641 327.511C248.739 327.872 247.772 328.045 246.8 328.02C242.36 328.02 239 325.41 239 319.38V309.15H246.66V318.06C246.66 320.7 247.58 321.58 249.07 321.58C250.39 321.58 251.68 320.58 251.68 317.86V309.15H259.34Z" fill="white"/>
<path d="M283.19 317.11V327.68H275.53V318.43C275.53 316.13 274.65 315.25 273.26 315.25C271.7 315.25 270.38 316.25 270.38 318.97V327.68H262.72V309.15H270V311C270.739 310.283 271.615 309.722 272.575 309.349C273.535 308.977 274.56 308.8 275.59 308.83C279.87 308.81 283.19 311.28 283.19 317.11Z" fill="white"/>
<path d="M285.73 303.76C285.73 301.56 287.53 299.86 290.34 299.86C293.15 299.86 294.95 301.42 294.95 303.62C294.95 305.82 293.15 307.62 290.34 307.62C287.53 307.62 285.73 306 285.73 303.76ZM286.51 309.15H294.17V327.68H286.51V309.15Z" fill="white"/>
<path d="M313.48 315.18H320.43V325.18C317.345 327.149 313.759 328.19 310.1 328.18C302.44 328.18 296.84 323.06 296.84 315.77C296.84 308.48 302.44 303.37 310.26 303.37C314.94 303.37 318.7 305 321.11 307.94L316 312.5C315.37 311.69 314.563 311.033 313.641 310.581C312.719 310.129 311.707 309.893 310.68 309.89C307.16 309.89 304.92 312.16 304.92 315.82C304.92 319.48 307.16 321.75 310.58 321.75C311.578 321.755 312.567 321.561 313.49 321.18L313.48 315.18Z" fill="white"/>
<path d="M342 317.72V327.72H334.88V325.28C334 327.15 332.24 328.06 329.63 328.06C325.09 328.06 322.75 325.49 322.75 322.3C322.75 318.71 325.46 316.71 331.22 316.71H334.3C334.07 315.29 332.98 314.54 330.81 314.54C329.094 314.519 327.414 315.029 326 316L323.56 311C326.11 309.587 328.985 308.863 331.9 308.9C338.29 308.81 342 311.55 342 317.72ZM334.34 321.65V320.36H332.44C330.81 320.36 330.1 320.91 330.1 321.92C330.1 322.77 330.78 323.41 331.93 323.41C332.462 323.415 332.981 323.246 333.407 322.928C333.833 322.61 334.143 322.161 334.29 321.65H334.34Z" fill="white"/>
<path d="M358.92 327C357.457 327.718 355.838 328.062 354.21 328C349.09 328 346.11 325.6 346.11 320.48V315.74H343.57V310.14H346.11V305H353.77V310.18H357.57V315.78H353.77V320.45C353.741 320.675 353.761 320.904 353.828 321.121C353.895 321.339 354.008 321.539 354.158 321.709C354.309 321.88 354.494 322.016 354.701 322.109C354.908 322.202 355.133 322.25 355.36 322.25C355.974 322.253 356.576 322.076 357.09 321.74L358.92 327Z" fill="white"/>
<path d="M380 320.2H367.09C367.63 321.62 368.92 322.36 370.81 322.36C372.223 322.406 373.602 321.925 374.68 321.01L378.68 325.01C376.88 327.01 374.27 328.01 370.58 328.01C363.76 328.01 359.36 323.91 359.36 318.39C359.36 312.87 363.87 308.8 369.86 308.8C375.35 308.8 380.07 312.12 380.07 318.39C380.07 318.94 380 319.65 380 320.2ZM367 316.5H373C372.898 315.788 372.534 315.14 371.979 314.683C371.424 314.226 370.718 313.993 370 314.03C369.28 313.986 368.57 314.216 368.014 314.674C367.457 315.133 367.095 315.785 367 316.5Z" fill="white"/>
</g>
<defs>
<linearGradient id="paint0_linear_616_226" x1="91.6645" y1="-34.1672" x2="437.457" y2="417.158" gradientUnits="userSpaceOnUse">
<stop stop-color="#1D4DDA"/>
<stop offset="0.3" stop-color="#3887FE"/>
<stop offset="1" stop-color="#5100BD"/>
</linearGradient>
<linearGradient id="paint1_linear_616_226" x1="204.52" y1="155.68" x2="275.69" y2="278.94" gradientUnits="userSpaceOnUse">
<stop stop-color="#1D4DDA"/>
<stop offset="0.3" stop-color="#3887FE"/>
<stop offset="1" stop-color="#5100BD"/>
</linearGradient>
<radialGradient id="paint2_radial_616_226" cx="0" cy="0" r="1" gradientUnits="userSpaceOnUse" gradientTransform="translate(329.08 155.34) scale(13.98)">
<stop stop-color="#FFBF0B"/>
<stop offset="1" stop-color="#FB5507"/>
</radialGradient>
<linearGradient id="paint3_linear_616_226" x1="271.2" y1="157.38" x2="326.66" y2="228.74" gradientUnits="userSpaceOnUse">
<stop stop-color="#FB5507"/>
<stop offset="0.31" stop-color="#FE9C0A"/>
<stop offset="1" stop-color="#FF006C"/>
</linearGradient>
<linearGradient id="paint4_linear_616_226" x1="298.63" y1="157.1" x2="330.78" y2="198.47" gradientUnits="userSpaceOnUse">
<stop stop-color="#FB5507"/>
<stop offset="0.31" stop-color="#FE9C0A"/>
<stop offset="1" stop-color="#FF006C"/>
</linearGradient>
<clipPath id="clip0_616_226">
<rect width="500" height="500" fill="white"/>
</clipPath>
</defs>
</svg>
