<svg width="500" height="500" viewBox="0 0 500 500" fill="none" xmlns="http://www.w3.org/2000/svg">
<g clip-path="url(#clip0_616_193)">
<path d="M500 0H0V500H500V0Z" fill="url(#paint0_radial_616_193)"/>
<path d="M204.88 258.22V278.93H184.88V253.83H174.88V288.93H214.88V252.38L204.88 258.22Z" fill="url(#paint1_linear_616_193)"/>
<path style="mix-blend-mode:multiply" d="M184.88 253.83H182.21C179.847 254.777 177.39 255.471 174.88 255.9V266C178.296 265.533 181.65 264.688 184.88 263.48V253.83Z" fill="url(#paint2_linear_616_193)"/>
<path d="M302.83 260.39H286.1V199.23C285.52 199.53 284.94 199.84 284.37 200.17L192.13 254C184.997 258.162 176.888 260.357 168.63 260.36C148.35 260.36 130.83 243.53 130.39 223.62C130.282 218.612 131.175 213.634 133.016 208.976C134.858 204.318 137.611 200.074 141.114 196.494C144.617 192.913 148.799 190.069 153.416 188.126C158.033 186.183 162.991 185.182 168 185.18H179.9V195.18H168C164.322 195.185 160.683 195.923 157.294 197.352C153.906 198.78 150.836 200.871 148.266 203.501C145.696 206.131 143.676 209.247 142.325 212.668C140.974 216.088 140.32 219.744 140.4 223.42C140.73 238.04 153.67 250.42 168.65 250.42C175.133 250.414 181.5 248.689 187.1 245.42L279.35 191.56C286.482 187.397 294.591 185.202 302.85 185.2H303.5C313.354 185.245 322.8 189.139 329.823 196.052C336.846 202.965 340.889 212.348 341.09 222.2C341.17 227.144 340.258 232.054 338.406 236.638C336.554 241.223 333.801 245.389 330.31 248.89C326.714 252.525 322.435 255.413 317.719 257.386C313.002 259.36 307.942 260.381 302.83 260.39ZM296.1 250.39H302.83C306.616 250.375 310.362 249.609 313.852 248.138C317.341 246.667 320.504 244.52 323.16 241.82C325.717 239.263 327.735 236.219 329.096 232.867C330.456 229.516 331.131 225.926 331.08 222.31C330.921 215.083 327.947 208.204 322.792 203.137C317.637 198.07 310.708 195.215 303.48 195.18H302.83C300.571 195.179 298.318 195.39 296.1 195.81V250.39Z" fill="url(#paint3_linear_616_193)"/>
<path d="M303.48 156.64H256.1V193.29L266.1 187.45V166.64H303.48C318.24 166.837 332.33 172.839 342.698 183.347C353.067 193.855 358.88 208.023 358.88 222.785C358.88 237.547 353.067 251.716 342.698 262.223C332.33 272.731 318.24 278.733 303.48 278.93H266.1V222.48L256.1 228.32V288.93H303.48C320.881 288.716 337.498 281.653 349.728 269.272C361.958 256.89 368.816 240.188 368.816 222.785C368.816 205.382 361.958 188.68 349.728 176.298C337.498 163.917 320.881 156.854 303.48 156.64Z" fill="url(#paint4_linear_616_193)"/>
<path style="mix-blend-mode:multiply" d="M165.43 195.3C166.27 195.23 167.12 195.18 167.98 195.18H179.88V185.18H169.14L165.43 195.3Z" fill="url(#paint5_linear_616_193)"/>
<path d="M184.88 234.76V166.64H204.88V223.19L214.88 217.35V156.64H174.88V238C178.352 237.41 181.721 236.319 184.88 234.76Z" fill="url(#paint6_linear_616_193)"/>
<path style="mix-blend-mode:multiply" d="M296.1 203.35V195.81C292.1 196.32 286.1 199.23 286.1 199.23V202.91L296.1 203.35Z" fill="url(#paint7_linear_616_193)"/>
<path style="mix-blend-mode:screen" d="M303.479 156.64C312.094 157.022 320.566 158.974 328.479 162.4C352.369 172.55 368.739 196.87 369.619 222.79C369.601 205.253 362.627 188.44 350.228 176.039C337.828 163.638 321.016 156.661 303.479 156.64Z" fill="url(#paint8_linear_616_193)"/>
<path style="mix-blend-mode:screen" d="M303.479 185.18C310.65 185.706 317.555 188.12 323.491 192.177C329.427 196.235 334.184 201.79 337.279 208.28C339.316 212.653 340.597 217.339 341.069 222.14C340.858 212.295 336.811 202.922 329.789 196.018C322.767 189.114 313.327 185.225 303.479 185.18Z" fill="url(#paint9_linear_616_193)"/>
<path style="mix-blend-mode:screen" d="M187.079 245.4C218.506 228.633 249.256 210.68 279.329 191.54L187.079 245.4Z" fill="url(#paint10_linear_616_193)"/>
<path style="mix-blend-mode:screen" d="M153.69 188.83C158.213 186.795 163.055 185.56 168 185.18C162.99 185.184 158.031 186.189 153.415 188.134C148.799 190.08 144.617 192.928 141.116 196.511C137.615 200.095 134.864 204.341 133.026 209.001C131.187 213.661 130.298 218.642 130.41 223.65C130.733 216.272 133.074 209.123 137.179 202.984C141.284 196.844 146.995 191.949 153.69 188.83Z" fill="url(#paint11_linear_616_193)"/>
<path style="mix-blend-mode:screen" d="M331.079 222.31C331.13 225.926 330.456 229.516 329.095 232.867C327.735 236.218 325.716 239.263 323.159 241.82C320.504 244.52 317.34 246.667 313.851 248.138C310.362 249.609 306.616 250.374 302.829 250.39C318.139 252.18 333.169 237.8 331.079 222.31Z" fill="url(#paint12_linear_616_193)"/>
<path style="mix-blend-mode:screen" d="M351.089 252.49C346.048 260.574 339.033 267.243 330.704 271.868C322.376 276.494 313.007 278.924 303.479 278.93C322.689 280.56 342.389 269.53 351.169 252.39L351.089 252.49Z" fill="url(#paint13_linear_616_193)"/>
<path style="mix-blend-mode:screen" d="M174.88 217.79C178.213 216.19 181.547 214.67 184.88 213.23V166.64H204.88V205.72C208.213 204.653 211.547 203.653 214.88 202.72V156.64H174.88V217.79Z" fill="url(#paint14_linear_616_193)"/>
<path style="mix-blend-mode:screen" d="M303.48 156.64H256.1V193.29L266.1 187.45V166.64H303.48C314.339 166.65 324.964 169.806 334.068 175.726C343.172 181.646 350.366 190.078 354.78 200C358.68 200.767 362.563 201.593 366.43 202.48C362.121 189.171 353.71 177.568 342.402 169.333C331.094 161.098 317.469 156.655 303.48 156.64Z" fill="url(#paint15_linear_616_193)"/>
<path style="mix-blend-mode:screen" d="M302.829 185.18C294.571 185.182 286.462 187.377 279.329 191.54L276.189 193.37C294.059 192.745 311.95 193.598 329.679 195.92C322.687 189.051 313.281 185.195 303.479 185.18H302.829Z" fill="url(#paint16_linear_616_193)"/>
<path style="mix-blend-mode:screen" d="M174.88 185.18H168C162.99 185.184 158.031 186.189 153.415 188.134C148.799 190.08 144.617 192.928 141.116 196.511C137.615 200.095 134.864 204.341 133.026 209.001C131.187 213.661 130.298 218.642 130.41 223.65C130.579 230.16 132.511 236.502 136 242C138.606 239.947 141.273 237.947 144 236C141.749 232.174 140.507 227.838 140.39 223.4C140.313 219.724 140.97 216.07 142.322 212.652C143.675 209.233 145.696 206.118 148.267 203.49C150.838 200.862 153.908 198.774 157.296 197.347C160.684 195.92 164.323 195.183 168 195.18H174.9L174.88 185.18Z" fill="url(#paint17_linear_616_193)"/>
<path d="M154.38 318.08V343.08H151.11V331.76H138.36V343.11H135.1V318.11H138.36V329.11H151.11V318.11L154.38 318.08Z" fill="white"/>
<path d="M163.209 318.08V343.08H159.939V318.08H163.209Z" fill="white"/>
<path d="M187.739 325.34C187.095 323.937 186.051 322.754 184.739 321.94C183.347 321.12 181.754 320.705 180.139 320.74C178.488 320.716 176.859 321.131 175.419 321.94C174.013 322.752 172.868 323.949 172.119 325.39C171.295 326.994 170.882 328.777 170.919 330.58C170.88 332.377 171.293 334.154 172.119 335.75C172.871 337.184 174.016 338.373 175.419 339.18C176.859 339.989 178.488 340.403 180.139 340.38C182.347 340.452 184.497 339.668 186.139 338.19C187.768 336.632 188.753 334.519 188.899 332.27H178.899V329.61H192.399V332.12C192.227 334.136 191.564 336.079 190.469 337.78C189.359 339.509 187.825 340.926 186.014 341.897C184.203 342.869 182.174 343.362 180.119 343.33C177.895 343.353 175.704 342.788 173.769 341.69C171.87 340.62 170.299 339.05 169.229 337.15C168.134 335.13 167.56 332.868 167.56 330.57C167.56 328.272 168.134 326.01 169.229 323.99C170.296 322.082 171.866 320.505 173.769 319.43C175.705 318.335 177.896 317.773 180.119 317.8C182.618 317.76 185.073 318.455 187.179 319.8C189.234 321.122 190.803 323.077 191.649 325.37L187.739 325.34Z" fill="white"/>
<path d="M215.999 318.08V343.08H212.729V331.76H199.999V343.11H196.729V318.11H199.999V329.11H212.749V318.11L215.999 318.08Z" fill="white"/>
<path d="M245.999 319.61C247.935 320.569 249.538 322.088 250.599 323.97C251.651 326.036 252.199 328.322 252.199 330.64C252.199 332.958 251.651 335.244 250.599 337.31C249.541 339.182 247.936 340.686 245.999 341.62C243.783 342.659 241.356 343.169 238.909 343.11H231.119V318.11H238.909C241.358 318.039 243.789 318.553 245.999 319.61ZM246.309 337.85C247.196 336.883 247.879 335.747 248.317 334.509C248.755 333.272 248.939 331.96 248.859 330.65C248.936 329.325 248.748 327.998 248.307 326.747C247.866 325.495 247.18 324.344 246.289 323.36C244.582 321.613 242.122 320.74 238.909 320.74H234.389V340.42H238.909C242.156 340.42 244.632 339.563 246.339 337.85H246.309Z" fill="white"/>
<path d="M259.8 320.74V329.11H268.92V331.8H259.8V340.42H270V343.11H256.54V318.05H270V320.74H259.8Z" fill="white"/>
<path d="M294.63 343.11H291.37L278.22 323.18V343.11H275V318.05H278.26L291.41 337.94V318.05H294.67L294.63 343.11Z" fill="white"/>
<path d="M303.699 342.48C302.473 341.962 301.411 341.118 300.629 340.04C299.881 338.985 299.479 337.724 299.479 336.43H302.999C303.093 337.578 303.614 338.649 304.459 339.43C305.491 340.302 306.822 340.736 308.169 340.64C309.498 340.717 310.809 340.3 311.849 339.47C312.285 339.103 312.633 338.643 312.867 338.124C313.101 337.605 313.214 337.039 313.199 336.47C313.239 335.621 312.957 334.789 312.409 334.14C311.865 333.526 311.178 333.056 310.409 332.77C309.361 332.381 308.293 332.047 307.209 331.77C305.845 331.441 304.507 331.006 303.209 330.47C302.202 330.032 301.324 329.344 300.659 328.47C299.905 327.381 299.532 326.073 299.599 324.75C299.579 323.462 299.944 322.198 300.649 321.12C301.37 320.045 302.383 319.198 303.569 318.68C304.935 318.086 306.411 317.793 307.899 317.82C309.964 317.733 311.996 318.354 313.659 319.58C314.387 320.135 314.989 320.839 315.425 321.644C315.861 322.449 316.122 323.337 316.189 324.25H312.599C312.452 323.24 311.908 322.33 311.089 321.72C310.087 320.948 308.843 320.558 307.579 320.62C306.376 320.565 305.191 320.941 304.239 321.68C303.801 322.042 303.455 322.502 303.229 323.024C303.003 323.545 302.904 324.113 302.939 324.68C302.907 325.495 303.185 326.293 303.719 326.91C304.241 327.491 304.892 327.939 305.619 328.22C306.662 328.608 307.723 328.942 308.799 329.22C310.162 329.578 311.499 330.029 312.799 330.57C313.824 331.021 314.715 331.727 315.389 332.62C316.159 333.714 316.536 335.035 316.459 336.37C316.448 337.59 316.102 338.783 315.459 339.82C314.758 340.941 313.762 341.847 312.579 342.44C311.188 343.137 309.646 343.481 308.089 343.44C306.574 343.437 305.078 343.109 303.699 342.48Z" fill="white"/>
<path d="M324.539 318.08V343.08H321.279V318.08H324.539Z" fill="white"/>
<path d="M345.51 318.08V320.74H338.69V343.11H335.42V320.74H328.56V318.08H345.51Z" fill="white"/>
<path d="M367.059 318.08L358.909 333.67V343.11H355.639V333.67L347.449 318.08H351.079L357.249 330.76L363.429 318.08H367.059Z" fill="white"/>
</g>
<defs>
<radialGradient id="paint0_radial_616_193" cx="0" cy="0" r="1" gradientUnits="userSpaceOnUse" gradientTransform="translate(250 250) scale(250)">
<stop stop-color="#001555"/>
<stop offset="1" stop-color="#00081F"/>
</radialGradient>
<linearGradient id="paint1_linear_616_193" x1="194.88" y1="288.93" x2="194.88" y2="252.38" gradientUnits="userSpaceOnUse">
<stop stop-color="#171CC2"/>
<stop offset="0.44" stop-color="#1BB3FF"/>
<stop offset="1" stop-color="#C61BFF"/>
</linearGradient>
<linearGradient id="paint2_linear_616_193" x1="179.88" y1="266.03" x2="179.88" y2="253.83" gradientUnits="userSpaceOnUse">
<stop stop-color="white"/>
<stop offset="0.2" stop-color="#DCDCDC"/>
<stop offset="0.4" stop-color="#BFBFBF"/>
<stop offset="0.61" stop-color="#AAAAAA"/>
<stop offset="0.81" stop-color="#9D9D9D"/>
<stop offset="1" stop-color="#999999"/>
</linearGradient>
<linearGradient id="paint3_linear_616_193" x1="235.73" y1="260.39" x2="235.73" y2="185.18" gradientUnits="userSpaceOnUse">
<stop stop-color="#171CC2"/>
<stop offset="0.44" stop-color="#1BB3FF"/>
<stop offset="1" stop-color="#C61BFF"/>
</linearGradient>
<linearGradient id="paint4_linear_616_193" x1="312.86" y1="288.93" x2="312.86" y2="156.64" gradientUnits="userSpaceOnUse">
<stop stop-color="#171CC2"/>
<stop offset="0.44" stop-color="#1BB3FF"/>
<stop offset="1" stop-color="#C61BFF"/>
</linearGradient>
<linearGradient id="paint5_linear_616_193" x1="172.66" y1="195.3" x2="172.66" y2="185.18" gradientUnits="userSpaceOnUse">
<stop stop-color="white"/>
<stop offset="1" stop-color="#999999"/>
</linearGradient>
<linearGradient id="paint6_linear_616_193" x1="194.88" y1="238.01" x2="194.88" y2="156.64" gradientUnits="userSpaceOnUse">
<stop stop-color="#171CC2"/>
<stop offset="0.44" stop-color="#1BB3FF"/>
<stop offset="1" stop-color="#C61BFF"/>
</linearGradient>
<linearGradient id="paint7_linear_616_193" x1="291.1" y1="203.35" x2="291.1" y2="195.81" gradientUnits="userSpaceOnUse">
<stop stop-color="white"/>
<stop offset="1" stop-color="#999999"/>
</linearGradient>
<linearGradient id="paint8_linear_616_193" x1="303.479" y1="189.71" x2="369.619" y2="189.71" gradientUnits="userSpaceOnUse">
<stop/>
<stop offset="0.46" stop-color="#1BB3FF"/>
<stop offset="1" stop-color="#020D13"/>
</linearGradient>
<linearGradient id="paint9_linear_616_193" x1="303.479" y1="203.66" x2="341.069" y2="203.66" gradientUnits="userSpaceOnUse">
<stop/>
<stop offset="0.46" stop-color="#1BB3FF"/>
<stop offset="1" stop-color="#020D13"/>
</linearGradient>
<linearGradient id="paint10_linear_616_193" x1="187.079" y1="218.47" x2="279.329" y2="218.47" gradientUnits="userSpaceOnUse">
<stop/>
<stop offset="0.46" stop-color="#1BB3FF"/>
<stop offset="1" stop-color="#020D13"/>
</linearGradient>
<linearGradient id="paint11_linear_616_193" x1="130.38" y1="204.41" x2="167.98" y2="204.41" gradientUnits="userSpaceOnUse">
<stop/>
<stop offset="0.46" stop-color="#1BB3FF"/>
<stop offset="1" stop-color="#020D13"/>
</linearGradient>
<linearGradient id="paint12_linear_616_193" x1="302.829" y1="236.42" x2="331.269" y2="236.42" gradientUnits="userSpaceOnUse">
<stop/>
<stop offset="0.46" stop-color="#1BB3FF"/>
<stop offset="1" stop-color="#020D13"/>
</linearGradient>
<linearGradient id="paint13_linear_616_193" x1="303.479" y1="265.74" x2="351.169" y2="265.74" gradientUnits="userSpaceOnUse">
<stop/>
<stop offset="0.46" stop-color="#1BB3FF"/>
<stop offset="1" stop-color="#020D13"/>
</linearGradient>
<linearGradient id="paint14_linear_616_193" x1="206.59" y1="227.96" x2="188.74" y2="165.83" gradientUnits="userSpaceOnUse">
<stop stop-color="#8AFCFF"/>
<stop offset="0.04" stop-color="#74D3D6"/>
<stop offset="0.1" stop-color="#5CA7A9"/>
<stop offset="0.16" stop-color="#467F81"/>
<stop offset="0.23" stop-color="#335D5E"/>
<stop offset="0.3" stop-color="#234041"/>
<stop offset="0.37" stop-color="#162829"/>
<stop offset="0.46" stop-color="#0C1616"/>
<stop offset="0.57" stop-color="#05090A"/>
<stop offset="0.7" stop-color="#010202"/>
<stop offset="1"/>
</linearGradient>
<linearGradient id="paint15_linear_616_193" x1="311.26" y1="197.89" x2="293.42" y2="135.76" gradientUnits="userSpaceOnUse">
<stop stop-color="#8AFCFF"/>
<stop offset="0.04" stop-color="#74D3D6"/>
<stop offset="0.1" stop-color="#5CA7A9"/>
<stop offset="0.16" stop-color="#467F81"/>
<stop offset="0.23" stop-color="#335D5E"/>
<stop offset="0.3" stop-color="#234041"/>
<stop offset="0.37" stop-color="#162829"/>
<stop offset="0.46" stop-color="#0C1616"/>
<stop offset="0.57" stop-color="#05090A"/>
<stop offset="0.7" stop-color="#010202"/>
<stop offset="1"/>
</linearGradient>
<linearGradient id="paint16_linear_616_193" x1="304.429" y1="199.85" x2="286.589" y2="137.72" gradientUnits="userSpaceOnUse">
<stop stop-color="#8AFCFF"/>
<stop offset="0.04" stop-color="#74D3D6"/>
<stop offset="0.1" stop-color="#5CA7A9"/>
<stop offset="0.16" stop-color="#467F81"/>
<stop offset="0.23" stop-color="#335D5E"/>
<stop offset="0.3" stop-color="#234041"/>
<stop offset="0.37" stop-color="#162829"/>
<stop offset="0.46" stop-color="#0C1616"/>
<stop offset="0.57" stop-color="#05090A"/>
<stop offset="0.7" stop-color="#010202"/>
<stop offset="1"/>
</linearGradient>
<linearGradient id="paint17_linear_616_193" x1="162.44" y1="240.64" x2="144.6" y2="178.51" gradientUnits="userSpaceOnUse">
<stop stop-color="#8AFCFF"/>
<stop offset="0.04" stop-color="#74D3D6"/>
<stop offset="0.1" stop-color="#5CA7A9"/>
<stop offset="0.16" stop-color="#467F81"/>
<stop offset="0.23" stop-color="#335D5E"/>
<stop offset="0.3" stop-color="#234041"/>
<stop offset="0.37" stop-color="#162829"/>
<stop offset="0.46" stop-color="#0C1616"/>
<stop offset="0.57" stop-color="#05090A"/>
<stop offset="0.7" stop-color="#010202"/>
<stop offset="1"/>
</linearGradient>
<clipPath id="clip0_616_193">
<rect width="500" height="500" fill="white"/>
</clipPath>
</defs>
</svg>
