<svg width="155" height="40" viewBox="0 0 155 40" fill="none" xmlns="http://www.w3.org/2000/svg">
<g clip-path="url(#clip0_33_136)">
<path d="M51.5821 10.2839H48V26.4472H57.9164V23.2801H51.5821V10.2839Z" fill="white"/>
<path d="M58.2585 20.9648C58.2585 24.4159 60.5738 26.7093 64.0685 26.7093C67.5414 26.7093 69.8567 24.4159 69.8567 20.9648C69.8567 17.5137 67.5414 15.1984 64.0685 15.1984C60.5738 15.1984 58.2585 17.5137 58.2585 20.9648ZM61.644 20.9429C61.644 19.3048 62.6051 18.2127 64.0685 18.2127C65.5101 18.2127 66.4712 19.3048 66.4712 20.9429C66.4712 22.603 65.5101 23.6951 64.0685 23.6951C62.6051 23.6951 61.644 22.603 61.644 20.9429Z" fill="white"/>
<path d="M70.3978 20.7901C70.3978 24.0882 72.5384 26.3161 75.5744 26.3161C77.0379 26.3161 78.3047 25.7919 78.9381 24.9401V26.4472C78.9381 27.9543 77.9989 28.959 76.3389 28.959C74.8536 28.959 73.827 28.2601 73.7615 27.0151H70.3541C70.6599 30.0075 72.9752 32.0169 76.1423 32.0169C79.8773 32.0169 82.2363 29.5925 82.2363 25.7482V15.5261H79.2002L79.0255 16.64C78.4139 15.7445 77.1252 15.1548 75.64 15.1548C72.582 15.1548 70.3978 17.4482 70.3978 20.7901ZM73.8052 20.7027C73.8052 19.13 74.8536 18.0816 76.186 18.0816C77.7368 18.0816 78.8726 19.1082 78.8726 20.7027C78.8726 22.2972 77.7586 23.3893 76.2078 23.3893C74.8755 23.3893 73.8052 22.2972 73.8052 20.7027Z" fill="white"/>
<path d="M83.2166 20.9648C83.2166 24.4159 85.5319 26.7093 89.0267 26.7093C92.4996 26.7093 94.8148 24.4159 94.8148 20.9648C94.8148 17.5137 92.4996 15.1984 89.0267 15.1984C85.5319 15.1984 83.2166 17.5137 83.2166 20.9648ZM86.6022 20.9429C86.6022 19.3048 87.5632 18.2127 89.0267 18.2127C90.4682 18.2127 91.4293 19.3048 91.4293 20.9429C91.4293 22.603 90.4682 23.6951 89.0267 23.6951C87.5632 23.6951 86.6022 22.603 86.6022 20.9429Z" fill="white"/>
<path d="M97.7149 13.8224C98.7633 13.8224 99.6152 12.9705 99.6152 11.9003C99.6152 10.83 98.7633 10 97.7149 10C96.6446 10 95.7928 10.83 95.7928 11.9003C95.7928 12.9705 96.6446 13.8224 97.7149 13.8224ZM96.0112 26.4472H99.3968V15.5261H96.0112V26.4472Z" fill="white"/>
<path d="M101.368 31.6893H104.688V25.3551C105.321 26.1851 106.763 26.753 108.27 26.753C111.524 26.753 113.49 24.263 113.403 20.8119C113.315 17.2953 111.284 15.1766 108.248 15.1766C106.697 15.1766 105.234 15.8537 104.622 16.8585L104.447 15.5261H101.368V31.6893ZM104.753 20.9866C104.753 19.3485 105.845 18.2564 107.418 18.2564C109.012 18.2564 110.017 19.3703 110.017 20.9866C110.017 22.603 109.012 23.7169 107.418 23.7169C105.845 23.7169 104.753 22.6248 104.753 20.9866Z" fill="white"/>
<path d="M113.761 22.9961C113.848 25.2022 115.596 26.7311 118.348 26.7311C120.991 26.7311 122.826 25.3332 122.826 23.0835C122.826 21.4672 121.865 20.3969 120.073 19.96L118.13 19.4795C117.431 19.3048 116.994 19.13 116.994 18.5621C116.994 17.9942 117.452 17.6229 118.13 17.6229C118.894 17.6229 119.396 18.1253 119.375 18.8679H122.411C122.323 16.5963 120.598 15.1766 118.195 15.1766C115.771 15.1766 113.958 16.6182 113.958 18.8024C113.958 20.2658 114.766 21.4672 116.928 22.0351L118.85 22.5374C119.418 22.6903 119.658 22.9524 119.658 23.3237C119.658 23.8698 119.156 24.2193 118.304 24.2193C117.321 24.2193 116.797 23.7606 116.797 22.9961H113.761Z" fill="white"/>
<path d="M127.974 26.7311C129.307 26.7311 130.639 26.1195 131.316 25.224L131.535 26.4472H134.702V15.5261H131.338V21.2051C131.338 22.8432 130.858 23.7387 129.307 23.7387C128.105 23.7387 127.319 23.1927 127.319 21.1614V15.5261H123.955V22.3845C123.955 24.9838 125.397 26.7311 127.974 26.7311Z" fill="white"/>
<path d="M140.036 26.4472V20.4843C140.036 18.6495 141.019 18.1253 141.98 18.1253C143.05 18.1253 143.749 18.7806 143.749 20.1348V26.4472H147.069V20.4843C147.069 18.6277 148.03 18.1035 148.991 18.1035C150.061 18.1035 150.782 18.7587 150.782 20.1348V26.4472H154.059V19.3048C154.059 16.8148 152.748 15.1548 149.93 15.1548C148.358 15.1548 147.069 15.9192 146.501 17.0987C145.846 15.9192 144.71 15.1548 142.897 15.1548C141.696 15.1548 140.582 15.7008 139.927 16.5745L139.796 15.5261H136.65V26.4472H140.036Z" fill="white"/>
<path fill-rule="evenodd" clip-rule="evenodd" d="M2.92893 2.92893C0 5.85786 0 10.5719 0 20C0 29.4281 0 34.1421 2.92893 37.0711C5.85786 40 10.5719 40 20 40C29.4281 40 34.1421 40 37.0711 37.0711C40 34.1421 40 29.4281 40 20C40 10.5719 40 5.85786 37.0711 2.92893C34.1421 0 29.4281 0 20 0C10.5719 0 5.85786 0 2.92893 2.92893ZM14.4874 18.959C14.7579 18.4775 14.4312 17.9194 13.8977 17.7765L13.3319 17.6249C12.4714 17.3943 12.3192 16.2384 13.0907 15.7929L13.598 15.5C14.0763 15.2239 14.2475 14.6002 13.8616 14.2051C13.4554 13.7893 12.9605 13.464 12.409 13.2564C11.5429 12.9304 10.5905 12.9148 9.71425 13.2123C8.83794 13.5098 8.09188 14.1019 7.6032 14.8877C7.11451 15.6736 6.91344 16.6046 7.03423 17.5221C7.15502 18.4396 7.59021 19.2869 8.26564 19.9195C8.94107 20.5521 9.81496 20.9309 10.7384 20.9914C11.6618 21.052 12.5777 20.7904 13.3299 20.2514C13.8089 19.9081 14.2027 19.4658 14.4874 18.959ZM23.9999 26C24.5522 26 25.01 26.4521 24.9003 26.9934C24.7064 27.9494 24.2354 28.8355 23.5354 29.5355C22.5978 30.4732 21.326 31 19.9999 31C18.6738 31 17.4021 30.4732 16.4644 29.5355C15.7644 28.8355 15.2934 27.9494 15.0996 26.9934C14.9898 26.4521 15.4476 26 15.9999 26H23.9999ZM25.5125 18.959C25.242 18.4775 25.5687 17.9194 26.1022 17.7765L26.668 17.6249C27.5286 17.3943 27.6807 16.2384 26.9092 15.7929L26.4019 15.5C25.9236 15.2239 25.7525 14.6002 26.1384 14.2051C26.5446 13.7893 27.0394 13.464 27.591 13.2564C28.4571 12.9304 29.4094 12.9148 30.2857 13.2123C31.162 13.5098 31.9081 14.1019 32.3968 14.8877C32.8855 15.6736 33.0865 16.6046 32.9657 17.5221C32.8449 18.4396 32.4098 19.2869 31.7343 19.9195C31.0589 20.5521 30.185 20.9309 29.2616 20.9914C28.3381 21.052 27.4223 20.7904 26.6701 20.2514C26.191 19.9081 25.7972 19.4658 25.5125 18.959Z" fill="white"/>
</g>
<defs>
<clipPath id="clip0_33_136">
<rect width="155" height="40" fill="white"/>
</clipPath>
</defs>
</svg>
