<svg width="171" height="32" viewBox="0 0 171 32" fill="none" xmlns="http://www.w3.org/2000/svg">
<g clip-path="url(#clip0_33_150)">
<path d="M67.5821 6.28395H64V22.4472H73.9164V19.2801H67.5821V6.28395Z" fill="white"/>
<path d="M74.2585 16.9648C74.2585 20.4159 76.5738 22.7093 80.0685 22.7093C83.5414 22.7093 85.8567 20.4159 85.8567 16.9648C85.8567 13.5137 83.5414 11.1984 80.0685 11.1984C76.5738 11.1984 74.2585 13.5137 74.2585 16.9648ZM77.644 16.9429C77.644 15.3048 78.6051 14.2127 80.0685 14.2127C81.5101 14.2127 82.4712 15.3048 82.4712 16.9429C82.4712 18.603 81.5101 19.6951 80.0685 19.6951C78.6051 19.6951 77.644 18.603 77.644 16.9429Z" fill="white"/>
<path d="M86.3977 16.7901C86.3977 20.0882 88.5383 22.3161 91.5743 22.3161C93.0378 22.3161 94.3046 21.7919 94.938 20.9401V22.4472C94.938 23.9543 93.9988 24.959 92.3388 24.959C90.8535 24.959 89.8269 24.2601 89.7614 23.0151H86.354C86.6598 26.0075 88.9751 28.0169 92.1422 28.0169C95.8772 28.0169 98.2362 25.5925 98.2362 21.7482V11.5261H95.2001L95.0254 12.64C94.4138 11.7445 93.1251 11.1548 91.6399 11.1548C88.5819 11.1548 86.3977 13.4482 86.3977 16.7901ZM89.8051 16.7027C89.8051 15.13 90.8535 14.0816 92.1859 14.0816C93.7367 14.0816 94.8725 15.1082 94.8725 16.7027C94.8725 18.2972 93.7585 19.3893 92.2077 19.3893C90.8754 19.3893 89.8051 18.2972 89.8051 16.7027Z" fill="white"/>
<path d="M99.2166 16.9648C99.2166 20.4159 101.532 22.7093 105.027 22.7093C108.5 22.7093 110.815 20.4159 110.815 16.9648C110.815 13.5137 108.5 11.1984 105.027 11.1984C101.532 11.1984 99.2166 13.5137 99.2166 16.9648ZM102.602 16.9429C102.602 15.3048 103.563 14.2127 105.027 14.2127C106.468 14.2127 107.429 15.3048 107.429 16.9429C107.429 18.603 106.468 19.6951 105.027 19.6951C103.563 19.6951 102.602 18.603 102.602 16.9429Z" fill="white"/>
<path d="M113.715 9.82239C114.763 9.82239 115.615 8.97054 115.615 7.90027C115.615 6.83 114.763 6 113.715 6C112.645 6 111.793 6.83 111.793 7.90027C111.793 8.97054 112.645 9.82239 113.715 9.82239ZM112.011 22.4472H115.397V11.5261H112.011V22.4472Z" fill="white"/>
<path d="M117.368 27.6893H120.688V21.3551C121.321 22.1851 122.763 22.753 124.27 22.753C127.524 22.753 129.49 20.263 129.403 16.8119C129.315 13.2953 127.284 11.1766 124.248 11.1766C122.697 11.1766 121.234 11.8537 120.622 12.8585L120.447 11.5261H117.368V27.6893ZM120.753 16.9866C120.753 15.3485 121.845 14.2564 123.418 14.2564C125.012 14.2564 126.017 15.3703 126.017 16.9866C126.017 18.603 125.012 19.7169 123.418 19.7169C121.845 19.7169 120.753 18.6248 120.753 16.9866Z" fill="white"/>
<path d="M129.761 18.9961C129.848 21.2022 131.596 22.7311 134.348 22.7311C136.991 22.7311 138.826 21.3332 138.826 19.0835C138.826 17.4672 137.865 16.3969 136.073 15.96L134.13 15.4795C133.431 15.3048 132.994 15.13 132.994 14.5621C132.994 13.9942 133.452 13.6229 134.13 13.6229C134.894 13.6229 135.396 14.1253 135.375 14.8679H138.411C138.323 12.5963 136.598 11.1766 134.195 11.1766C131.771 11.1766 129.958 12.6182 129.958 14.8024C129.958 16.2658 130.766 17.4672 132.928 18.0351L134.85 18.5374C135.418 18.6903 135.658 18.9524 135.658 19.3237C135.658 19.8698 135.156 20.2193 134.304 20.2193C133.321 20.2193 132.797 19.7606 132.797 18.9961H129.761Z" fill="white"/>
<path d="M143.974 22.7311C145.307 22.7311 146.639 22.1195 147.316 21.224L147.535 22.4472H150.702V11.5261H147.338V17.2051C147.338 18.8432 146.858 19.7387 145.307 19.7387C144.105 19.7387 143.319 19.1927 143.319 17.1614V11.5261H139.955V18.3845C139.955 20.9838 141.397 22.7311 143.974 22.7311Z" fill="white"/>
<path d="M156.036 22.4472V16.4843C156.036 14.6495 157.019 14.1253 157.98 14.1253C159.05 14.1253 159.749 14.7806 159.749 16.1348V22.4472H163.069V16.4843C163.069 14.6277 164.03 14.1035 164.991 14.1035C166.061 14.1035 166.782 14.7587 166.782 16.1348V22.4472H170.059V15.3048C170.059 12.8148 168.748 11.1548 165.93 11.1548C164.358 11.1548 163.069 11.9192 162.501 13.0987C161.846 11.9192 160.71 11.1548 158.897 11.1548C157.696 11.1548 156.582 11.7008 155.927 12.5745L155.796 11.5261H152.65V22.4472H156.036Z" fill="white"/>
<path fill-rule="evenodd" clip-rule="evenodd" d="M16 0C7.16344 0 0 7.16344 0 16C0 24.8366 7.16344 32 16 32H53V16C53 7.16344 45.8366 0 37 0H16ZM16 6H37C42.5228 6 47 10.4772 47 16C47 21.5228 42.5228 26 37 26H16C10.4772 26 6 21.5228 6 16C6 10.4772 10.4772 6 16 6Z" fill="white"/>
<path fill-rule="evenodd" clip-rule="evenodd" d="M21 16C21 18.7614 18.7614 21 16 21C13.2386 21 11 18.7614 11 16C11 13.2386 13.2386 11 16 11C18.7614 11 21 13.2386 21 16ZM15 14C15 14.5523 14.5523 15 14 15C13.4477 15 13 14.5523 13 14C13 13.4477 13.4477 13 14 13C14.5523 13 15 13.4477 15 14Z" fill="white"/>
<path fill-rule="evenodd" clip-rule="evenodd" d="M43 16C43 18.7614 40.7614 21 38 21C35.2386 21 33 18.7614 33 16C33 13.2386 35.2386 11 38 11C40.7614 11 43 13.2386 43 16ZM37 14C37 14.5523 36.5523 15 36 15C35.4477 15 35 14.5523 35 14C35 13.4477 35.4477 13 36 13C36.5523 13 37 13.4477 37 14Z" fill="white"/>
</g>
<defs>
<clipPath id="clip0_33_150">
<rect width="171" height="32" fill="white"/>
</clipPath>
</defs>
</svg>
