<svg width="500" height="500" viewBox="0 0 500 500" fill="none" xmlns="http://www.w3.org/2000/svg">
<g clip-path="url(#clip0_616_249)">
<path d="M500.27 0H1.23047V500H500.27V0Z" fill="#F2F2F2"/>
<g style="mix-blend-mode:multiply" opacity="0.46">
<path d="M500.271 0H421.761L89.0605 500H381.171L500.271 321V0Z" fill="#EAEAEA"/>
</g>
<g style="mix-blend-mode:multiply" opacity="0.46">
<path d="M191.36 0H1.23047V285.75L191.36 0Z" fill="#EAEAEA"/>
</g>
<path d="M191.001 308.56V325.86H188.721V313L183.001 325.86H181.401L175.631 312.94V325.86H173.351V308.56H175.801L182.201 322.86L188.601 308.56H191.001Z" fill="#212121"/>
<path d="M210.191 322H202.591L201.191 325.87H198.791L205.091 308.55H207.711L214.001 325.86H211.601L210.191 322ZM209.541 320.15L206.391 311.35L203.241 320.15H209.541Z" fill="#212121"/>
<path d="M230.511 308.44V321.31C230.541 321.943 230.439 322.576 230.212 323.169C229.985 323.761 229.637 324.299 229.191 324.75C228.507 325.466 227.619 325.956 226.648 326.153C225.677 326.35 224.669 326.245 223.759 325.852C222.85 325.458 222.083 324.796 221.561 323.954C221.039 323.111 220.788 322.129 220.841 321.14H223.111C223.095 321.886 223.331 322.615 223.781 323.21C224.013 323.485 224.307 323.701 224.639 323.84C224.972 323.98 225.332 324.038 225.691 324.01C226.045 324.038 226.4 323.984 226.73 323.852C227.059 323.72 227.354 323.514 227.591 323.25C228.018 322.695 228.237 322.009 228.211 321.31V308.44H230.511Z" fill="#212121"/>
<path d="M243.461 324.9C242.141 324.147 241.05 323.052 240.301 321.73C239.539 320.32 239.141 318.742 239.141 317.14C239.141 315.537 239.539 313.96 240.301 312.55C241.047 311.226 242.139 310.13 243.461 309.38C244.821 308.632 246.348 308.24 247.901 308.24C249.453 308.24 250.98 308.632 252.341 309.38C253.659 310.126 254.748 311.219 255.491 312.54C256.245 313.956 256.64 315.535 256.64 317.14C256.64 318.744 256.245 320.324 255.491 321.74C254.748 323.061 253.659 324.153 252.341 324.9C250.98 325.647 249.453 326.039 247.901 326.039C246.348 326.039 244.821 325.647 243.461 324.9ZM251.181 323.21C252.161 322.637 252.958 321.798 253.481 320.79C254.027 319.649 254.311 318.4 254.311 317.135C254.311 315.87 254.027 314.621 253.481 313.48C252.955 312.477 252.163 311.64 251.191 311.06C250.18 310.502 249.045 310.21 247.891 310.21C246.737 310.21 245.601 310.502 244.591 311.06C243.617 311.637 242.824 312.476 242.301 313.48C241.748 314.619 241.461 315.869 241.461 317.135C241.461 318.401 241.748 319.651 242.301 320.79C242.823 321.798 243.621 322.637 244.601 323.21C245.608 323.767 246.74 324.06 247.891 324.06C249.042 324.06 250.174 323.767 251.181 323.21Z" fill="#212121"/>
<path d="M273.811 325.86L269.661 318.74H266.911V325.86H264.641V308.44H270.261C271.411 308.403 272.554 308.633 273.601 309.11C274.433 309.51 275.129 310.146 275.601 310.94C276.057 311.737 276.288 312.642 276.271 313.56C276.299 314.701 275.947 315.82 275.271 316.74C274.489 317.709 273.379 318.357 272.151 318.56L276.531 325.86H273.811ZM266.911 316.91H270.261C271.258 316.979 272.243 316.652 273.001 316C273.312 315.677 273.554 315.294 273.712 314.875C273.87 314.455 273.941 314.008 273.921 313.56C273.948 313.118 273.881 312.676 273.724 312.262C273.567 311.848 273.324 311.472 273.011 311.16C272.221 310.535 271.224 310.232 270.221 310.31H266.871L266.911 316.91Z" fill="#212121"/>
<path d="M284.46 325.56C284.314 325.417 284.198 325.246 284.121 325.057C284.043 324.867 284.006 324.664 284.01 324.46C284.009 324.256 284.048 324.054 284.125 323.865C284.203 323.676 284.317 323.505 284.461 323.361C284.605 323.217 284.777 323.102 284.965 323.025C285.154 322.948 285.356 322.908 285.56 322.91C285.76 322.907 285.958 322.946 286.142 323.023C286.326 323.1 286.492 323.215 286.63 323.36C286.772 323.505 286.882 323.677 286.956 323.866C287.03 324.055 287.065 324.257 287.06 324.46C287.066 324.663 287.031 324.865 286.957 325.054C286.883 325.243 286.772 325.415 286.63 325.56C286.492 325.704 286.326 325.819 286.142 325.897C285.958 325.974 285.76 326.013 285.56 326.01C285.356 326.014 285.153 325.976 284.964 325.898C284.774 325.821 284.603 325.706 284.46 325.56Z" fill="#212121"/>
<path d="M297.361 324H303.461V325.85H295.091V308.44H297.361V324Z" fill="#212121"/>
<path d="M323.09 308.44L317.41 319.29V325.86H315.14V319.29L309.44 308.44H312L316.3 317.26L320.6 308.44H323.09Z" fill="#212121"/>
<path d="M251.001 289.84C246.321 289.901 241.678 289.016 237.349 287.237C233.02 285.459 229.095 282.823 225.811 279.49L228.131 276.29C231.073 279.521 234.673 282.084 238.688 283.809C242.704 285.534 247.041 286.38 251.411 286.29C260.744 286.29 267.961 283.51 273.061 277.95C278.161 272.39 280.704 264.547 280.691 254.42V187.29H284.501V256.07C284.501 266.637 281.551 274.907 275.651 280.88C269.751 286.853 261.534 289.84 251.001 289.84Z" fill="black"/>
<path d="M287.131 254.2V189.64H291.001V254.2H287.131Z" fill="black"/>
<path d="M181.28 249.79V167.49H206V176.57C209.503 172.963 213.591 169.974 218.09 167.73C222.208 165.831 226.696 164.871 231.23 164.92C237.17 164.847 243.027 166.315 248.23 169.18C253.021 171.712 256.876 175.71 259.23 180.59C262.692 175.847 267.081 171.857 272.13 168.86C276.934 166.19 282.355 164.831 287.85 164.92C293.352 164.816 298.792 166.084 303.68 168.61C308.261 171.01 312.078 174.643 314.7 179.1C317.471 184.011 318.854 189.583 318.7 195.22V249.79H294V201.89C294 196.557 292.61 192.35 289.83 189.27C287.05 186.19 283.297 184.663 278.57 184.69C275.647 184.644 272.759 185.331 270.17 186.69C267.824 187.921 265.844 189.749 264.43 191.99C263.026 194.244 262.3 196.855 262.34 199.51V249.82H237.7V201.41C237.7 196.317 236.347 192.257 233.64 189.23C230.934 186.203 227.197 184.69 222.43 184.69C219.482 184.652 216.571 185.339 213.95 186.69C211.545 187.909 209.528 189.774 208.123 192.075C206.719 194.377 205.984 197.024 206 199.72V249.79H181.28Z" fill="#212121"/>
<path d="M181.28 244.71V162.41H206V171.5C209.503 167.89 213.591 164.898 218.09 162.65C222.208 160.751 226.696 159.791 231.23 159.84C237.17 159.767 243.027 161.235 248.23 164.1C253.019 166.635 256.873 170.632 259.23 175.51C262.698 170.773 267.085 166.783 272.13 163.78C276.935 161.114 282.356 159.756 287.85 159.84C293.353 159.734 298.795 161.006 303.68 163.54C308.261 165.925 312.08 169.55 314.7 174C317.47 178.908 318.853 184.477 318.7 190.11V244.68H294V196.78C294 191.447 292.61 187.24 289.83 184.16C287.05 181.08 283.297 179.553 278.57 179.58C275.647 179.534 272.759 180.221 270.17 181.58C267.824 182.815 265.844 184.647 264.43 186.89C263.026 189.14 262.3 191.748 262.34 194.4V244.71H237.7V196.33C237.7 191.237 236.347 187.177 233.64 184.15C230.934 181.123 227.197 179.61 222.43 179.61C219.482 179.572 216.571 180.259 213.95 181.61C211.545 182.846 209.53 184.726 208.13 187.04C206.735 189.338 206.011 191.982 206.04 194.67V244.74L181.28 244.71Z" fill="url(#paint0_linear_616_249)"/>
<path d="M181.28 254.22V171.92H206V181C209.501 177.39 213.589 174.401 218.09 172.16C222.205 170.253 226.695 169.289 231.23 169.34C237.17 169.267 243.027 170.735 248.23 173.6C253.022 176.135 256.876 180.137 259.23 185.02C262.695 180.277 267.083 176.284 272.13 173.28C276.935 170.614 282.356 169.256 287.85 169.34C293.352 169.239 298.793 170.511 303.68 173.04C308.23 175.45 312.015 179.083 314.61 183.53C317.381 188.441 318.764 194.013 318.61 199.65V254.22H294V206.32C294 200.987 292.61 196.78 289.83 193.7C287.05 190.62 283.297 189.093 278.57 189.12C275.647 189.069 272.757 189.757 270.17 191.12C267.824 192.351 265.844 194.179 264.43 196.42C263.024 198.673 262.299 201.284 262.34 203.94V254.25H237.7V205.83C237.7 200.737 236.347 196.68 233.64 193.66C230.934 190.64 227.197 189.127 222.43 189.12C219.482 189.076 216.568 189.764 213.95 191.12C211.545 192.352 209.531 194.229 208.13 196.54C206.734 198.841 206.01 201.488 206.04 204.18V254.25L181.28 254.22Z" fill="black"/>
<path d="M181.28 249.79V167.49H206V176.57C209.503 172.963 213.591 169.974 218.09 167.73C222.208 165.831 226.696 164.871 231.23 164.92C237.17 164.847 243.027 166.315 248.23 169.18C253.021 171.712 256.876 175.71 259.23 180.59C262.692 175.847 267.081 171.857 272.13 168.86C276.934 166.19 282.355 164.831 287.85 164.92C293.352 164.816 298.792 166.084 303.68 168.61C308.261 171.01 312.078 174.643 314.7 179.1C317.471 184.011 318.854 189.583 318.7 195.22V249.79H294V201.89C294 196.557 292.61 192.35 289.83 189.27C287.05 186.19 283.297 184.663 278.57 184.69C275.647 184.644 272.759 185.331 270.17 186.69C267.824 187.921 265.844 189.749 264.43 191.99C263.026 194.244 262.3 196.855 262.34 199.51V249.82H237.7V201.41C237.7 196.317 236.347 192.257 233.64 189.23C230.934 186.203 227.197 184.69 222.43 184.69C219.482 184.652 216.571 185.339 213.95 186.69C211.545 187.909 209.528 189.774 208.123 192.075C206.719 194.377 205.984 197.024 206 199.72V249.79H181.28Z" fill="url(#paint1_linear_616_249)"/>
<g style="mix-blend-mode:overlay" opacity="0.6">
<path d="M206.04 162.41H181.28V167.49H206.04V162.41Z" fill="#EAEAEA"/>
<path d="M314.7 174C312.105 169.553 308.319 165.92 303.77 163.51C298.882 160.984 293.441 159.715 287.94 159.82C282.446 159.733 277.026 161.088 272.22 163.75C267.173 166.754 262.785 170.747 259.32 175.49C256.965 170.61 253.111 166.612 248.32 164.08C243.117 161.215 237.26 159.747 231.32 159.82C226.785 159.766 222.296 160.726 218.18 162.63C213.647 164.872 209.529 167.868 206 171.49V176.57C209.5 172.96 213.589 169.971 218.09 167.73C222.205 165.823 226.695 164.859 231.23 164.91C237.17 164.837 243.027 166.305 248.23 169.17C253.018 171.704 256.872 175.702 259.23 180.58C262.698 175.842 267.085 171.853 272.13 168.85C276.935 166.184 282.356 164.826 287.85 164.91C293.352 164.809 298.793 166.081 303.68 168.61C308.265 171.003 312.084 174.639 314.7 179.1C317.47 184.008 318.852 189.577 318.7 195.21V190.14C318.857 184.496 317.475 178.917 314.7 174Z" fill="#EAEAEA"/>
</g>
</g>
<defs>
<linearGradient id="paint0_linear_616_249" x1="181.28" y1="202.28" x2="318.72" y2="202.28" gradientUnits="userSpaceOnUse">
<stop stop-color="#7C4DFF"/>
<stop offset="1" stop-color="#448AFF"/>
</linearGradient>
<linearGradient id="paint1_linear_616_249" x1="181.28" y1="207.35" x2="318.72" y2="207.35" gradientUnits="userSpaceOnUse">
<stop stop-color="#7C4DFF"/>
<stop offset="1" stop-color="#448AFF"/>
</linearGradient>
<clipPath id="clip0_616_249">
<rect width="500" height="500" fill="white"/>
</clipPath>
</defs>
</svg>
