<svg width="500" height="500" viewBox="0 0 500 500" fill="none" xmlns="http://www.w3.org/2000/svg">
<rect width="500" height="500" fill="url(#paint0_radial_616_273)"/>
<path d="M295.64 215.82C277.774 238.874 257.063 259.575 234 277.43C242.265 278.114 250.58 276.99 258.367 274.136C266.154 271.283 273.227 266.767 279.093 260.904C284.958 255.041 289.477 247.971 292.335 240.186C295.192 232.4 296.32 224.085 295.64 215.82Z" fill="#400AB3"/>
<path d="M307.53 151.59C298.16 142.22 278.47 152.43 267.06 159.39C270.592 161.038 273.975 162.988 277.17 165.22C281.59 162.77 296.78 155.17 300.37 158.76C305.17 163.56 291.98 185.6 288.04 191.59C269.45 159.59 224.88 153.37 198.23 180.02C190.721 187.519 185.452 196.964 183.014 207.292C180.576 217.621 181.067 228.425 184.43 238.49C174.55 252.49 158.77 278.29 169.8 289.32C197.61 317.13 335.37 179.43 307.53 151.59ZM177 282.16C172.3 277.46 184.81 256.16 189.32 249.34C194.251 257.834 201.314 264.893 209.81 269.82C192 281.52 179.77 285 177 282.16Z" fill="#400AB3"/>
<path d="M73.1401 328.84V313.23H81.1401V328.6C81.1401 333.43 83.1401 335.36 86.4901 335.36C89.8401 335.36 91.8001 333.43 91.8001 328.6V313.23H99.6401V328.84C99.6401 337.25 94.7401 341.96 86.4101 341.96C78.0801 341.96 73.1401 337.25 73.1401 328.84Z" fill="black"/>
<path d="M131.8 313.23V341.39H125.24L112.81 326.39V341.39H105V313.23H111.56L123.99 328.23V313.23H131.8Z" fill="black"/>
<path d="M137.43 313.23H145.43V341.39H137.43V313.23Z" fill="black"/>
<path d="M179.56 313.23L167.49 341.39H159.64L147.64 313.23H156.25L163.89 331.58L171.7 313.23H179.56Z" fill="black"/>
<path d="M203.82 335.24V341.39H181.2V313.23H203.29V319.38H189.09V324.13H201.6V330.13H189.09V335.28L203.82 335.24Z" fill="black"/>
<path d="M220.55 333.91H216.21V341.39H208.21V313.23H221.08C228.77 313.23 233.6 317.23 233.6 323.65C233.672 325.512 233.186 327.353 232.204 328.937C231.222 330.521 229.79 331.776 228.09 332.54L234.16 341.39H225.63L220.55 333.91ZM220.63 319.51H216.21V327.75H220.63C223.93 327.75 225.63 326.22 225.63 323.65C225.63 321.08 223.93 319.51 220.63 319.51Z" fill="black"/>
<path d="M236 338.86L238.61 332.99C241.395 334.753 244.614 335.711 247.91 335.76C251.21 335.76 252.5 334.84 252.5 333.47C252.5 329 236.5 332.26 236.5 321.8C236.5 316.8 240.61 312.67 248.98 312.67C252.539 312.611 256.055 313.454 259.2 315.12L256.76 321C254.38 319.641 251.7 318.892 248.96 318.82C245.62 318.82 244.41 319.95 244.41 321.36C244.41 325.66 260.41 322.44 260.41 332.83C260.41 337.73 256.31 341.92 247.94 341.92C243.28 342 238.69 340.71 236 338.86Z" fill="black"/>
<path d="M282.91 335.92H271L268.79 341.39H260.66L273.09 313.23H280.94L293.41 341.39H285.12L282.91 335.92ZM280.58 330.05L277 321L273.38 330L280.58 330.05Z" fill="black"/>
<path d="M295.66 313.23H303.66V335.08H317.1V341.39H295.66V313.23Z" fill="black"/>
<path d="M323.59 319.55H314.94V313.23H340.16V319.55H331.55V341.39H323.55L323.59 319.55Z" fill="#400AB3"/>
<path d="M365.75 335.24V341.39H343.14V313.23H365.23V319.38H351V324.13H363.52V330.13H351V335.28L365.75 335.24Z" fill="#400AB3"/>
<path d="M368.69 327.31C368.69 318.74 375.24 312.67 384.18 312.67C389.37 312.67 393.55 314.56 396.29 317.98L391.22 322.56C390.443 321.534 389.439 320.703 388.287 320.13C387.135 319.558 385.866 319.26 384.58 319.26C379.95 319.26 376.73 322.48 376.73 327.31C376.73 332.14 379.95 335.36 384.58 335.36C385.866 335.36 387.135 335.062 388.287 334.489C389.439 333.917 390.443 333.085 391.22 332.06L396.29 336.65C393.55 340.07 389.37 341.96 384.18 341.96C375.24 342 368.69 335.88 368.69 327.31Z" fill="#400AB3"/>
<path d="M426.62 313.23V341.39H418.62V330.39H407.79V341.39H399.79V313.23H407.79V323.81H418.66V313.23H426.62Z" fill="#400AB3"/>
<defs>
<radialGradient id="paint0_radial_616_273" cx="0" cy="0" r="1" gradientUnits="userSpaceOnUse" gradientTransform="translate(250 250) rotate(90) scale(250)">
<stop stop-color="#C5F1FF"/>
<stop offset="1" stop-color="#87B0FF"/>
</radialGradient>
</defs>
</svg>
