<svg width="24" height="24" viewBox="0 0 24 24" fill="none" xmlns="http://www.w3.org/2000/svg">
  <path
    d="M12 23C5.9 23 1 18.1 1 12C1 5.9 5.9 1 12 1C18.1 1 23 5.9 23 12C23 18.1 18.1 23 12 23ZM12 3C7 3 3 7 3 12C3 17 7 21 12 21C17 21 21 17 21 12C21 7 17 3 12 3Z" />
  <circle cx="12.0822" cy="7.47945" r="1.47945" />
  <path
    d="M7.24165 9.18C7.29939 9.1225 7.3884 9.0575 7.44132 9.0375C7.49425 9.0175 7.56882 9.0025 7.60972 9.0025C7.65061 9 7.73722 9.0175 7.80217 9.035C7.86953 9.055 8.06198 9.1125 8.23518 9.1625C8.40839 9.21 8.74758 9.3 8.99296 9.3625C9.23833 9.4225 9.60158 9.505 9.79884 9.5475C9.99851 9.5875 10.3377 9.65 10.5566 9.685C10.7755 9.72 11.0714 9.7625 11.2182 9.78C11.3649 9.7975 11.7161 9.81 12 9.81C12.3344 9.81 12.6399 9.795 12.866 9.7675C13.0585 9.7425 13.4097 9.69 13.6479 9.6475C13.886 9.605 14.2276 9.54 14.4056 9.5C14.5837 9.46 14.8723 9.3925 15.0431 9.35C15.2139 9.3075 15.5724 9.2125 15.837 9.1375C16.1016 9.0625 16.3446 9 16.3783 9C16.4119 9 16.4817 9.0125 16.5346 9.0275C16.5875 9.045 16.679 9.105 16.7391 9.1625C16.7992 9.2225 16.8762 9.3325 16.9123 9.415C16.9508 9.5 16.9845 9.6325 16.9941 9.725C17.0061 9.85 17.0013 9.92 16.9652 10.025C16.9364 10.12 16.8858 10.1975 16.8113 10.275C16.7511 10.3375 16.626 10.4275 16.5346 10.4775C16.4408 10.53 15.8201 10.7675 15.1514 11.0125C14.4826 11.255 13.8836 11.4825 13.8211 11.52C13.7561 11.5575 13.6839 11.61 13.6575 11.6375C13.6334 11.665 13.5997 11.755 13.5853 11.8375C13.5709 11.925 13.5637 12.0725 13.5733 12.1875C13.5805 12.2975 13.6262 12.69 13.6719 13.0625C13.7272 13.5025 13.9005 14.53 14.1675 16.025C14.5644 18.2425 14.5764 18.3175 14.5476 18.45C14.5307 18.53 14.485 18.63 14.4417 18.6875C14.4008 18.7425 14.319 18.8225 14.2613 18.865C14.2012 18.9075 14.0953 18.955 14.0255 18.97C13.9582 18.9875 13.8499 19 13.785 19C13.7224 19 13.6166 18.9825 13.5516 18.9625C13.4843 18.9425 13.3953 18.8975 13.352 18.8625C13.3111 18.8275 13.2437 18.7525 13.2052 18.695C13.1691 18.635 13.1138 18.52 13.0873 18.4375C13.0585 18.355 12.9863 18.0225 12.9262 17.7C12.8636 17.3775 12.7554 16.8325 12.6832 16.4875C12.611 16.145 12.5076 15.6875 12.4523 15.475C12.3993 15.2625 12.3628 15.1385 12.2916 14.9125C12.2916 14.9125 12.137 14.2825 11.9639 14.2825C11.7908 14.2825 11.6663 14.9125 11.6663 14.9125C11.6663 14.9125 11.5381 15.42 11.4804 15.675C11.4202 15.93 11.2735 16.6425 11.1556 17.2625C10.992 18.11 10.9223 18.425 10.8718 18.5375C10.8357 18.62 10.7731 18.725 10.7346 18.7725C10.6961 18.82 10.6119 18.8875 10.5446 18.9225C10.4387 18.98 10.3954 18.9875 10.1958 18.9875C10.0057 18.985 9.94559 18.975 9.83733 18.925C9.76517 18.89 9.66172 18.8125 9.60639 18.75C9.55106 18.6875 9.49092 18.5925 9.47408 18.5375C9.45484 18.4825 9.4404 18.375 9.4404 18.3C9.44281 18.225 9.61842 17.1725 9.83252 15.9625C10.0442 14.7525 10.2583 13.465 10.3064 13.1C10.3545 12.735 10.3978 12.2925 10.4051 12.1125C10.4147 11.8775 10.4099 11.76 10.3858 11.6875C10.369 11.6325 10.3305 11.56 10.3016 11.525C10.2728 11.49 10.1982 11.4375 10.1332 11.4075C10.0683 11.375 9.50776 11.185 8.8847 10.985C8.16301 10.7525 7.67467 10.58 7.53274 10.51C7.38599 10.4375 7.27052 10.36 7.19354 10.2825C7.11416 10.2 7.06604 10.12 7.03477 10.025C6.99869 9.92 6.99387 9.85 7.0059 9.725C7.01312 9.635 7.0492 9.5 7.08048 9.425C7.11416 9.35 7.18633 9.24 7.24165 9.18Z" />
</svg>