<svg width="24" height="24" viewBox="0 0 24 24" fill="none" xmlns="http://www.w3.org/2000/svg">
  <path fill-rule="evenodd" clip-rule="evenodd"
    d="M10.5021 1.40276C10.9577 1.14026 11.4742 1.00208 12 1.00208C12.5258 1.00208 13.0424 1.14027 13.4979 1.4028L13.5 1.404L20.5 5.40399C20.87 5.61759 21.189 5.90713 21.4369 6.25231C21.4972 6.31269 21.5508 6.38186 21.5956 6.45928C21.6342 6.52597 21.6642 6.59526 21.686 6.66587C21.8917 7.07933 21.9995 7.53552 22 7.999V16.0011C21.9995 16.5271 21.8606 17.0438 21.5973 17.4993C21.334 17.9548 20.9556 18.333 20.5 18.5961L20.4961 18.5983L13.5 22.5961L13.4982 22.5971C13.0426 22.8597 12.5259 22.998 12 22.998C11.4741 22.998 10.9575 22.8597 10.5019 22.5971L10.5 22.5961L3.50386 18.5983L3.5 18.5961C3.04439 18.333 2.66597 17.9548 2.40269 17.4993C2.13941 17.0438 2.00054 16.5271 2 16.0011V7.999C2.00048 7.53551 2.10832 7.07932 2.31401 6.66585C2.33581 6.59524 2.36582 6.52596 2.4044 6.45928C2.44918 6.38187 2.50275 6.3127 2.56312 6.25232C2.81097 5.90714 3.13004 5.6176 3.5 5.404L3.50386 5.40177L10.5021 1.40276ZM12.5 3.13606L18.961 6.82805L12 10.8547L5.039 6.82805L11.4961 3.13828L11.5 3.13605C11.652 3.04828 11.8245 3.00208 12 3.00208C12.1755 3.00208 12.348 3.04829 12.5 3.13606ZM4 15.9994V8.53754L11 12.5868V20.5783L4.5 16.864L4.49842 16.8631C4.34726 16.7754 4.22169 16.6497 4.13423 16.4984C4.04654 16.3467 4.00025 16.1746 4 15.9994ZM13 20.5783L19.5 16.864L19.5016 16.8631C19.6527 16.7754 19.7783 16.6497 19.8658 16.4984C19.9535 16.3466 19.9998 16.1744 20 15.999V8.53754L13 12.5868V20.5783Z" />
</svg>