<svg width="24" height="24" viewBox="0 0 24 24" fill="none" xmlns="http://www.w3.org/2000/svg">
  <g clip-path="url(#clip0_3_1366)">
    <path fill-rule="evenodd" clip-rule="evenodd"
      d="M0.292893 12.7071C-0.0976311 12.3166 -0.0976311 11.6834 0.292893 11.2929L4.29289 7.29289C4.68342 6.90237 5.31658 6.90237 5.70711 7.29289L9.70711 11.2929C10.0976 11.6834 10.0976 12.3166 9.70711 12.7071C9.31658 13.0976 8.68342 13.0976 8.29289 12.7071L5 9.41421L1.70711 12.7071C1.31658 13.0976 0.683418 13.0976 0.292893 12.7071Z" />
    <path fill-rule="evenodd" clip-rule="evenodd"
      d="M6 18C6 18.7957 6.31607 19.5587 6.87868 20.1213C7.44129 20.6839 8.20435 21 9 21H12C12.5523 21 13 21.4477 13 22C13 22.5523 12.5523 23 12 23H9C7.67392 23 6.40215 22.4732 5.46447 21.5355C4.52678 20.5979 4 19.3261 4 18L4 8C4 7.44772 4.44772 7 5 7C5.55228 7 6 7.44772 6 8L6 18Z" />
    <path fill-rule="evenodd" clip-rule="evenodd"
      d="M14.2929 12.7071C14.6834 13.0976 15.3166 13.0976 15.7071 12.7071L19 9.41421L22.2929 12.7071C22.6834 13.0976 23.3166 13.0976 23.7071 12.7071C24.0976 12.3166 24.0976 11.6834 23.7071 11.2929L19.7071 7.29289C19.3166 6.90237 18.6834 6.90237 18.2929 7.29289L14.2929 11.2929C13.9024 11.6834 13.9024 12.3166 14.2929 12.7071Z" />
    <path fill-rule="evenodd" clip-rule="evenodd"
      d="M11 22C11 22.5523 11.4477 23 12 23H15C16.3261 23 17.5979 22.4732 18.5355 21.5355C19.4732 20.5979 20 19.3261 20 18V8C20 7.44772 19.5523 7 19 7C18.4477 7 18 7.44772 18 8L18 18C18 18.7956 17.6839 19.5587 17.1213 20.1213C16.5587 20.6839 15.7956 21 15 21H12C11.4477 21 11 21.4477 11 22Z" />
    <path fill-rule="evenodd" clip-rule="evenodd"
      d="M7.29289 6.70711C7.68342 7.09763 8.31658 7.09763 8.70711 6.70711L12 3.41421L15.2929 6.70711C15.6834 7.09763 16.3166 7.09763 16.7071 6.70711C17.0976 6.31658 17.0976 5.68342 16.7071 5.29289L12.7071 1.29289C12.3166 0.902369 11.6834 0.902369 11.2929 1.29289L7.29289 5.29289C6.90237 5.68342 6.90237 6.31658 7.29289 6.70711Z" />
    <path
      d="M11 4C11 3.44772 11.4477 3 12 3C12.5523 3 13 3.44772 13 4L13 22C13 22.5523 12.5523 23 12 23C11.4477 23 11 22.5523 11 22L11 4Z" />
  </g>
  <defs>
    <clipPath id="clip0_3_1366">
      <rect width="24" height="24" fill="white" />
    </clipPath>
  </defs>
</svg>