<svg width="24" height="24" viewBox="0 0 24 24" fill="none" xmlns="http://www.w3.org/2000/svg">
  <path fill-rule="evenodd" clip-rule="evenodd"
    d="M5.70711 14.7071C6.09763 14.3166 6.09763 13.6834 5.70711 13.2929L3.41421 11L5.70711 8.70711C6.09763 8.31658 6.09763 7.68342 5.70711 7.29289C5.31658 6.90237 4.68342 6.90237 4.29289 7.29289L1.29289 10.2929C0.902369 10.6834 0.902369 11.3166 1.29289 11.7071L4.29289 14.7071C4.68342 15.0976 5.31658 15.0976 5.70711 14.7071Z" />
  <path fill-rule="evenodd" clip-rule="evenodd"
    d="M10 19C10.5523 19 11 18.5523 11 18V15C11 13.6739 10.4732 12.4021 9.53553 11.4645C8.59785 10.5268 7.32608 10 6 10H3C2.44772 10 2 10.4477 2 11C2 11.5523 2.44772 12 3 12H6C6.79565 12 7.55871 12.3161 8.12132 12.8787C8.68393 13.4413 9 14.2044 9 15V18C9 18.5523 9.44772 19 10 19Z" />
  <path fill-rule="evenodd" clip-rule="evenodd"
    d="M18.2929 7.29289C17.9024 7.68342 17.9024 8.31658 18.2929 8.70711L20.5858 11L18.2929 13.2929C17.9024 13.6834 17.9024 14.3166 18.2929 14.7071C18.6834 15.0976 19.3166 15.0976 19.7071 14.7071L22.7071 11.7071C23.0976 11.3166 23.0976 10.6834 22.7071 10.2929L19.7071 7.29289C19.3166 6.90237 18.6834 6.90237 18.2929 7.29289Z" />
  <path fill-rule="evenodd" clip-rule="evenodd"
    d="M22 11C22 10.4477 21.5523 10 21 10H18C16.6739 10 15.4021 10.5268 14.4645 11.4645C13.5268 12.4021 13 13.6739 13 15V18C13 18.5523 13.4477 19 14 19C14.5523 19 15 18.5523 15 18V15C15 14.2044 15.3161 13.4413 15.8787 12.8787C16.4413 12.3161 17.2044 12 18 12H21C21.5523 12 22 11.5523 22 11Z" />
  <path fill-rule="evenodd" clip-rule="evenodd"
    d="M8.29289 6.70711C8.68342 7.09763 9.31658 7.09763 9.70711 6.70711L12 4.41421L14.2929 6.70711C14.6834 7.09763 15.3166 7.09763 15.7071 6.70711C16.0976 6.31658 16.0976 5.68342 15.7071 5.29289L12.7071 2.29289C12.3166 1.90237 11.6834 1.90237 11.2929 2.29289L8.29289 5.29289C7.90237 5.68342 7.90237 6.31658 8.29289 6.70711Z" />
  <path
    d="M11 5C11 4.44772 11.4477 4 12 4C12.5523 4 13 4.44772 13 5V12C13 12.5523 12.5523 13 12 13C11.4477 13 11 12.5523 11 12V5Z" />
  <path
    d="M6 21C6 20.4477 6.44772 20 7 20H17C17.5523 20 18 20.4477 18 21C18 21.5523 17.5523 22 17 22H7C6.44772 22 6 21.5523 6 21Z" />
</svg>