<svg width="24" height="24" viewBox="0 0 24 24" fill="none" xmlns="http://www.w3.org/2000/svg">
  <path fill-rule="evenodd" clip-rule="evenodd"
    d="M16.7417 11.7778C15.9006 11.7778 15.1675 11.2228 14.9632 10.4317C14.67 9.29574 14.0658 8.27178 13.2267 7.47314C12.3881 6.67498 11.3488 6.13374 10.2295 5.90329C9.11055 5.6729 7.94923 5.7607 6.87524 6.1584C5.80072 6.55629 4.85122 7.25069 4.13959 8.17036C3.4276 9.0905 2.98397 10.1975 2.86539 11.3664C2.7468 12.5354 2.95885 13.7122 3.47409 14.7619C3.98914 15.8111 4.78417 16.6869 5.76174 17.2956C6.73871 17.904 7.86129 18.2231 9.00239 18.2222L9.0038 18.2222H13.5026L18.0014 18.2222C18.8222 18.2222 19.6213 17.8966 20.2196 17.2981C20.8198 16.6978 21.1667 15.8721 21.1667 15C21.1667 14.1279 20.8198 13.3022 20.2196 12.7019C19.6213 12.1034 18.8222 11.7778 18.0014 11.7778H16.7417ZM9.0038 20C7.50768 20.0011 6.04125 19.5824 4.77113 18.7916C3.50101 18.0007 2.47813 16.8693 1.81872 15.526C1.15932 14.1826 0.889824 12.6812 1.04087 11.1924C1.19191 9.70348 1.75743 8.28683 2.67317 7.10338C3.58891 5.91993 4.81815 5.01714 6.22121 4.49759C7.62427 3.97804 9.14489 3.86256 10.6103 4.16428C12.0757 4.46599 13.4271 5.1728 14.511 6.2044C15.5948 7.23599 16.3677 8.551 16.7417 10H18.0014C19.3271 10 20.5985 10.5268 21.5359 11.4645C22.4734 12.4021 23 13.6739 23 15C23 16.3261 22.4734 17.5979 21.5359 18.5355C20.5985 19.4732 19.3271 20 18.0014 20H9.0038Z" />
</svg>