<svg width="24" height="24" viewBox="0 0 24 24" fill="none" xmlns="http://www.w3.org/2000/svg">
  <path fill-rule="evenodd" clip-rule="evenodd"
    d="M13 1C13.5523 1 14 2.94772 14 3.5V8H20C20.5523 8 21 8.44772 21 9C21 9.55228 20.5523 10 20 10H13C12.4477 10 12 9.55228 12 9V3C12 2.44772 12.4477 1 13 1Z" />
  <path
    d="M6 1C5.20435 1 4.44129 1.31607 3.87868 1.87868C3.31607 2.44129 3 3.20435 3 4V9C3 9.55228 3.44772 10 4 10C4.55228 10 5 9.55228 5 9V4C5 3.73478 5.10536 3.48043 5.29289 3.29289C5.48043 3.10536 5.73478 3 6 3H12.5858L19 9.41421V20C19 20.2652 18.8946 20.5196 18.7071 20.7071C18.5196 20.8946 18.2652 21 18 21H9C8.44772 21 8 21.4477 8 22C8 22.5523 8.44772 23 9 23H18C18.7957 23 19.5587 22.6839 20.1213 22.1213C20.6839 21.5587 21 20.7957 21 20V9C21 8.73478 20.8946 8.48043 20.7071 8.29289L13.7071 1.29289C13.5196 1.10536 13.2652 1 13 1H6Z" />
  <path fill-rule="evenodd" clip-rule="evenodd"
    d="M2.58579 12.5858C2.96086 12.2107 3.46957 12 4 12C4.55228 12 5 12.4477 5 13C5 13.5523 4.55228 14 4 14V15C4 15.3541 3.90609 15.6985 3.73206 16C3.90609 16.3015 4 16.6459 4 17V18C4.55228 18 5 18.4477 5 19C5 19.5523 4.55228 20 4 20C3.46957 20 2.96086 19.7893 2.58579 19.4142C2.21071 19.0391 2 18.5304 2 18V17C1.44772 17 1 16.5523 1 16C1 15.4477 1.44772 15 2 15V14C2 13.4696 2.21071 12.9609 2.58579 12.5858Z" />
  <path fill-rule="evenodd" clip-rule="evenodd"
    d="M7 13C7 12.4477 7.44772 12 8 12C8.53043 12 9.03914 12.2107 9.41421 12.5858C9.78929 12.9609 10 13.4696 10 14V15C10.5523 15 11 15.4477 11 16C11 16.5523 10.5523 17 10 17V18C10 18.5304 9.78929 19.0391 9.41421 19.4142C9.03914 19.7893 8.53043 20 8 20C7.44772 20 7 19.5523 7 19C7 18.4477 7.44772 18 8 18V17C8 16.6459 8.09391 16.3015 8.26794 16C8.09391 15.6985 8 15.3541 8 15V14C7.44772 14 7 13.5523 7 13Z" />
</svg>