<svg width="24" height="24" viewBox="0 0 24 24" fill="none" xmlns="http://www.w3.org/2000/svg">
  <path
    d="M7.41666 18.4167C7.41666 19.4292 6.59585 20.25 5.58333 20.25C4.57081 20.25 3.75 19.4292 3.75 18.4167C3.75 17.4041 4.57081 16.5833 5.58333 16.5833C6.59585 16.5833 7.41666 17.4041 7.41666 18.4167Z" />
  <path fill-rule="evenodd" clip-rule="evenodd"
    d="M1 2.83333C1 1.82081 1.82081 1 2.83333 1H8.33333C9.34585 1 10.1667 1.82081 10.1667 2.83333L10.1667 17.7606L17.9639 9.96332C18.3219 9.60534 18.3219 9.02494 17.9639 8.66696L15.3712 6.07424C15.0132 5.71626 14.4328 5.71626 14.0749 6.07424L10.1667 9.98242V7.3897L13.4267 4.1297C14.1426 3.41374 15.3034 3.41374 16.0194 4.1297L19.9085 8.01878C20.6245 8.73474 20.6245 9.89554 19.9085 10.6115L16.6867 13.8333H21.1667C22.1792 13.8333 23 14.6541 23 15.6667V21.1667C23 22.1792 22.1792 23 21.1667 23H5.58333C3.05203 23 1 20.948 1 18.4167V2.83333ZM2.83333 3.75C2.83333 3.24374 3.24374 2.83333 3.75 2.83333H7.41666C7.92292 2.83333 8.33333 3.24374 8.33333 3.75V6.5H2.83333V3.75ZM2.83333 8.33333V11.0833H8.33333V8.33333H2.83333ZM2.83333 18.4167V12.9167H8.33333V18.4167C8.33333 19.9354 7.10211 21.1667 5.58333 21.1667C4.06455 21.1667 2.83333 19.9354 2.83333 18.4167ZM9.35334 21.1666L14.8533 15.6667L20.25 15.6667C20.7563 15.6667 21.1667 16.0771 21.1667 16.5833V20.25C21.1667 20.7562 20.7563 21.1667 20.25 21.1667L9.35334 21.1666Z" />
</svg>