<svg width="24" height="24" viewBox="0 0 24 24" fill="none" xmlns="http://www.w3.org/2000/svg">
  <path fill-rule="evenodd" clip-rule="evenodd"
    d="M1.87868 3.87868C2.44129 3.31607 3.20435 3 4 3H11C11.5523 3 12 3.44772 12 4C12 4.55228 11.5523 5 11 5H4C3.73478 5 3.48043 5.10536 3.29289 5.29289C3.10536 5.48043 3 5.73478 3 6V20C3 20.2652 3.10536 20.5196 3.29289 20.7071C3.48043 20.8946 3.73478 21 4 21H18C18.2652 21 18.5196 20.8946 18.7071 20.7071C18.8946 20.5196 19 20.2652 19 20V13C19 12.4477 19.4477 12 20 12C20.5523 12 21 12.4477 21 13V20C21 20.7957 20.6839 21.5587 20.1213 22.1213C19.5587 22.6839 18.7957 23 18 23H4C3.20435 23 2.44129 22.6839 1.87868 22.1213C1.31607 21.5587 1 20.7957 1 20V6C1 5.20435 1.31607 4.44129 1.87868 3.87868Z" />
  <path fill-rule="evenodd" clip-rule="evenodd"
    d="M20 2.87868C19.7026 2.87868 19.4174 2.99682 19.2071 3.2071L9.90296 12.5112L9.37437 14.6256L11.4887 14.097L20.7929 4.79289C21.0032 4.5826 21.1213 4.29739 21.1213 4C21.1213 3.70261 21.0032 3.41739 20.7929 3.2071C20.5826 2.99682 20.2974 2.87868 20 2.87868ZM17.7929 1.79289C18.3783 1.20753 19.1722 0.878677 20 0.878677C20.8278 0.878677 21.6217 1.20753 22.2071 1.79289C22.7925 2.37825 23.1213 3.17217 23.1213 4C23.1213 4.82782 22.7925 5.62174 22.2071 6.2071L12.7071 15.7071C12.5789 15.8353 12.4184 15.9262 12.2425 15.9701L8.24253 16.9701C7.90176 17.0553 7.54127 16.9555 7.29289 16.7071C7.04451 16.4587 6.94466 16.0982 7.02986 15.7575L8.02986 11.7575C8.07381 11.5816 8.16473 11.4211 8.29289 11.2929L17.7929 1.79289Z" />
</svg>