<svg width="24" height="24" viewBox="0 0 24 24" fill="none" xmlns="http://www.w3.org/2000/svg">
  <path
    d="M12 10H8.5C6 10 4 8 4 5.5C4 3 6 1 8.5 1H12C12.6 1 13 1.4 13 2V9C13 9.6 12.6 10 12 10ZM8.5 3C7.1 3 6 4.1 6 5.5C6 6.9 7.1 8 8.5 8H11V3H8.5Z" />
  <path
    d="M15.5 10H12C11.4 10 11 9.6 11 9V2C11 1.4 11.4 1 12 1H15.5C18 1 20 3 20 5.5C20 8 18 10 15.5 10ZM13 8H15.5C16.9 8 18 6.9 18 5.5C18 4.1 16.9 3 15.5 3H13V8Z" />
  <path
    d="M15.5 17C13 17 11 15 11 12.5C11 10 13 8 15.5 8C18 8 20 10 20 12.5C20 15 18 17 15.5 17ZM15.5 10C14.1 10 13 11.1 13 12.5C13 13.9 14.1 15 15.5 15C16.9 15 18 13.9 18 12.5C18 11.1 16.9 10 15.5 10Z" />
  <path
    d="M8.5 24C6 24 4 22 4 19.5C4 17 6 15 8.5 15H12C12.6 15 13 15.4 13 16V19.5C13 22 11 24 8.5 24ZM8.5 17C7.1 17 6 18.1 6 19.5C6 20.9 7.1 22 8.5 22C9.9 22 11 20.9 11 19.5V17H8.5Z" />
  <path
    d="M12 17H8.5C6 17 4 15 4 12.5C4 10 6 8 8.5 8H12C12.6 8 13 8.4 13 9V16C13 16.6 12.6 17 12 17ZM8.5 10C7.1 10 6 11.1 6 12.5C6 13.9 7.1 15 8.5 15H11V10H8.5Z" />
</svg>