<svg width="24" height="24" viewBox="0 0 24 24" fill="none" xmlns="http://www.w3.org/2000/svg">
  <g clip-path="url(#clip0_3_1418)">
    <path
      d="M16 23C15.4 23 15 22.6 15 22V18.1C15.1 17.3 14.8 16.7 14.3 16.2C14 15.9 13.9 15.5 14.1 15.2C14.2 14.8 14.6 14.6 14.9 14.5C17.8 14.2 20.5 13.2 20.5 8.5C20.5 7.4 20.1 6.3 19.3 5.4C19 5.1 19 4.7 19.1 4.4C19.4 3.6 19.4 2.8 19.2 2C18.7 2.1 17.9 2.4 16.6 3.3C16.4 3.5 16.1 3.5 15.8 3.4C13.7 2.8 11.4 2.8 9.3 3.4C9 3.5 8.7 3.5 8.4 3.3C7.2 2.4 6.3 2.1 5.8 2C5.6 2.8 5.6 3.6 5.9 4.4C6 4.8 6 5.2 5.7 5.4C4.9 6.3 4.5 7.4 4.5 8.5C4.5 13.2 7.2 14.2 10.1 14.5C10.5 14.5 10.8 14.8 10.9 15.2C11 15.6 10.9 16 10.7 16.2C10.2 16.7 10 17.3 10 18V18.9V19V21.9C10 22.5 9.6 22.9 9 22.9C8.4 22.9 8 22.5 8 21.9V20.2C5 20.7 3.7 19 2.8 17.9C2.4 17.4 2.1 17 1.7 16.9C1.2 16.8 0.799999 16.2 0.999999 15.7C1.1 15.2 1.7 14.8 2.2 15C3.2 15.3 3.8 16 4.4 16.7C5.2 17.8 5.9 18.6 8 18.2V18.1C8 17.5 8.1 16.8 8.3 16.3C5.5 15.7 2.5 13.9 2.5 8.6C2.5 7.1 3 5.7 3.9 4.6C3.5 3.2 3.6 1.9 4.2 0.599999C4.3 0.299999 4.5 0.0999994 4.8 -6.48201e-07C5.2 -0.100001 6.5 -0.300001 9.2 1.4C11.4 0.899999 13.7 0.899999 15.8 1.4C18.4 -0.300001 19.8 -0.100001 20.2 -6.48201e-07C20.5 0.0999994 20.7 0.299999 20.8 0.599999C21.3 1.9 21.4 3.2 21.1 4.5C22 5.6 22.5 7 22.5 8.5C22.5 14.2 19.1 15.7 16.7 16.3C16.9 16.9 17 17.6 17 18.2V22C17 22.6 16.6 23 16 23Z" />
  </g>
  <defs>
    <clipPath id="clip0_3_1418">
      <rect width="24" height="24" fill="white" />
    </clipPath>
  </defs>
</svg>