<svg width="24" height="24" viewBox="0 0 24 24" fill="none" xmlns="http://www.w3.org/2000/svg">
  <path fill-rule="evenodd" clip-rule="evenodd"
    d="M12 1.00208C11.4742 1.00208 10.9577 1.14026 10.5021 1.40276L7.30637 3.22891C7.09619 3.27048 6.90013 3.37905 6.75253 3.54539L3.50386 5.40177L3.5 5.404C3.13004 5.6176 2.81097 5.90714 2.56312 6.25232C2.50275 6.3127 2.44918 6.38187 2.4044 6.45928C2.36582 6.52596 2.33581 6.59524 2.31401 6.66585C2.10832 7.07932 2.00048 7.53551 2 7.999V16.0011C2.00054 16.5271 2.13941 17.0438 2.40269 17.4993C2.66597 17.9548 3.04439 18.333 3.5 18.5961L3.50386 18.5983L10.5 22.5961L10.5019 22.5971C10.8191 22.78 11.1659 22.9025 11.5248 22.9601C11.6662 23.0366 11.828 23.08 12 23.08C12.172 23.08 12.3338 23.0366 12.4752 22.9601C12.8341 22.9025 13.181 22.7799 13.4982 22.5971L13.5 22.5961L20.4961 18.5983L20.5 18.5961C20.9556 18.333 21.334 17.9548 21.5973 17.4993C21.8606 17.0438 21.9995 16.5271 22 16.0011V7.999C21.9995 7.53552 21.8917 7.07933 21.686 6.66587C21.6642 6.59526 21.6342 6.52597 21.5956 6.45928C21.5508 6.38186 21.4972 6.31269 21.4369 6.25231C21.189 5.90713 20.87 5.61759 20.5 5.40399L13.5 1.404L13.4979 1.4028C13.0424 1.14027 12.5258 1.00208 12 1.00208ZM13 20.5783L19.5 16.864L19.5016 16.8631C19.6527 16.7754 19.7783 16.6497 19.8658 16.4984C19.9535 16.3466 19.9998 16.1744 20 15.999V8.53754L13 12.5868V20.5783ZM11 12.5868L4 8.53754V15.9994C4.00025 16.1746 4.04654 16.3467 4.13423 16.4984C4.22169 16.6497 4.34726 16.7754 4.49842 16.8631L4.5 16.864L11 20.5783V12.5868ZM12.5 3.13606L18.961 6.82805L16.5052 8.24865L9.56091 4.24412L11.4961 3.13828L11.5 3.13605C11.652 3.04828 11.8245 3.00208 12 3.00208C12.1755 3.00208 12.348 3.04829 12.5 3.13606ZM12 10.8547L14.5065 9.40481L7.55 5.39321L5.039 6.82805L12 10.8547Z" />
</svg>