<svg width="24" height="24" viewBox="0 0 24 24" fill="none" xmlns="http://www.w3.org/2000/svg">
  <path fill-rule="evenodd" clip-rule="evenodd"
    d="M10.5021 1.40274C10.9577 1.14024 11.4742 1.00205 12 1.00205C12.5258 1.00205 13.0424 1.14025 13.4979 1.40277C13.4986 1.40317 13.4993 1.40357 13.5 1.40398L20.5 5.40397C20.9556 5.66702 21.334 6.04525 21.5973 6.50072C21.8606 6.95619 21.9995 7.47289 22 7.99898V16.001C21.9995 16.5271 21.8606 17.0438 21.5973 17.4993C21.334 17.9548 20.9556 18.333 20.5 18.596L20.4961 18.5982L13.5 22.596C13.4994 22.5964 13.4988 22.5967 13.4982 22.5971C13.0426 22.8597 12.5259 22.998 12 22.998C11.4741 22.998 10.9575 22.8597 10.5019 22.5971C10.5012 22.5967 10.5006 22.5964 10.5 22.596L3.50386 18.5982L3.5 18.596C3.04439 18.333 2.66597 17.9548 2.40269 17.4993C2.13941 17.0438 2.00054 16.5271 2 16.001V7.99898C2.00054 7.47289 2.13941 6.95619 2.40269 6.50072C2.66597 6.04525 3.04439 5.66702 3.5 5.40398L3.50386 5.40175L10.5021 1.40274ZM12 3.00205C11.8245 3.00205 11.652 3.04826 11.5 3.13603L11.4961 3.13825L4.5 7.13603C4.49947 7.13633 4.49895 7.13663 4.49842 7.13694C4.34726 7.22458 4.22169 7.35031 4.13423 7.50161C4.04654 7.65331 4.00025 7.82538 4 8.0006V15.9994C4.00025 16.1746 4.04654 16.3467 4.13423 16.4984C4.22169 16.6497 4.34726 16.7754 4.49842 16.8631C4.49895 16.8634 4.49947 16.8637 4.5 16.864L11.5 20.864C11.652 20.9517 11.8245 20.998 12 20.998C12.1755 20.998 12.348 20.9517 12.5 20.864L12.5039 20.8618L19.5 16.864C19.5005 16.8637 19.5011 16.8634 19.5016 16.8631C19.6527 16.7754 19.7783 16.6497 19.8658 16.4984C19.9535 16.3466 19.9998 16.1743 20 15.999V8.00103C19.9998 7.82566 19.9535 7.65343 19.8658 7.50161C19.7783 7.35031 19.6527 7.22459 19.5016 7.13694C19.5011 7.13664 19.5005 7.13633 19.5 7.13603L12.5 3.13604C12.348 3.04827 12.1755 3.00205 12 3.00205Z" />
</svg>