<svg width="24" height="24" viewBox="0 0 24 24" fill="none" xmlns="http://www.w3.org/2000/svg">
  <path fill-rule="evenodd" clip-rule="evenodd"
    d="M12 3C7.02944 3 3 7.02944 3 12C3 16.9706 7.02944 21 12 21C16.9706 21 21 16.9706 21 12C21 7.02944 16.9706 3 12 3ZM1 12C1 5.92487 5.92487 1 12 1C18.0751 1 23 5.92487 23 12C23 18.0751 18.0751 23 12 23C5.92487 23 1 18.0751 1 12Z" />
  <path fill-rule="evenodd" clip-rule="evenodd"
    d="M10.5 7.5C10.5 6.67157 11.1682 6 11.9925 6H12.0075C12.8318 6 13.5 6.67157 13.5 7.5C13.5 8.32843 12.8318 9 12.0075 9H11.9925C11.1682 9 10.5 8.32843 10.5 7.5Z" />
  <path fill-rule="evenodd" clip-rule="evenodd"
    d="M11 12V16H10.8571C10.3838 16 10 16.4477 10 17C10 17.5523 10.3838 18 10.8571 18H12H13.1429C13.6162 18 14 17.5523 14 17C14 16.4477 13.6162 16 13.1429 16H13V12H13.1429C13.6162 12 14 11.5523 14 11C14 10.4477 13.6162 10 13.1429 10H12H10.8571C10.3838 10 10 10.4477 10 11C10 11.5523 10.3838 12 10.8571 12H11Z" />
</svg>