<svg width="24" height="24" viewBox="0 0 24 24" fill="none" xmlns="http://www.w3.org/2000/svg">
  <path fill-rule="evenodd" clip-rule="evenodd"
    d="M7 3C4.79086 3 3 4.79086 3 7V17C3 19.2091 4.79086 21 7 21H17C19.2091 21 21 19.2091 21 17V7C21 4.79086 19.2091 3 17 3H7ZM1 7C1 3.68629 3.68629 1 7 1H17C20.3137 1 23 3.68629 23 7V17C23 20.3137 20.3137 23 17 23H7C3.68629 23 1 20.3137 1 17V7Z" />
  <path fill-rule="evenodd" clip-rule="evenodd"
    d="M12.4833 8.98918C11.8591 8.89663 11.2217 9.00324 10.6616 9.29387C10.1015 9.58449 9.64726 10.0443 9.36356 10.608C9.07986 11.1716 8.98112 11.8103 9.08137 12.4333C9.18161 13.0563 9.47575 13.6319 9.92194 14.0781C10.3681 14.5242 10.9437 14.8184 11.5667 14.9186C12.1896 15.0189 12.8284 14.9201 13.392 14.6364C13.9557 14.3527 14.4155 13.8985 14.7061 13.3384C14.9968 12.7783 15.1034 12.1409 15.0108 11.5167C14.9164 10.88 14.6197 10.2905 14.1646 9.83541C13.7095 9.38028 13.12 9.0836 12.4833 8.98918ZM9.74041 7.51862C10.6739 7.03425 11.7364 6.85655 12.7767 7.01082C13.8378 7.16817 14.8202 7.66265 15.5788 8.4212C16.3374 9.17975 16.8318 10.1622 16.9892 11.2233C17.1434 12.2636 16.9658 13.3261 16.4814 14.2596C15.997 15.1931 15.2306 15.9501 14.2912 16.4229C13.3518 16.8957 12.2872 17.0603 11.2489 16.8932C10.2106 16.7262 9.25138 16.2359 8.50773 15.4923C7.76408 14.7486 7.27385 13.7894 7.10677 12.7511C6.93969 11.7128 7.10426 10.6482 7.57709 9.70879C8.04992 8.76938 8.80691 8.00299 9.74041 7.51862Z" />
  <path fill-rule="evenodd" clip-rule="evenodd"
    d="M16.5 6.5C16.5 5.94772 16.9477 5.5 17.5 5.5H17.51C18.0623 5.5 18.51 5.94772 18.51 6.5C18.51 7.05228 18.0623 7.5 17.51 7.5H17.5C16.9477 7.5 16.5 7.05228 16.5 6.5Z" />
</svg>