<svg viewBox="0 0 158 158" xmlns="http://www.w3.org/2000/svg">
  <path fill-rule="evenodd" clip-rule="evenodd"
    d="M79 139C112.137 139 139 112.137 139 79C139 45.8629 112.137 19 79 19C45.8629 19 19 45.8629 19 79C19 112.137 45.8629 139 79 139ZM30.7647 79C30.7647 54.3517 49.2526 34.0214 73.1176 31.1198L73.1177 126.88C49.2526 123.979 30.7647 103.648 30.7647 79ZM116.298 109.588C118.103 107.389 119.718 105.028 121.117 102.529H84.8824V109.588H116.298ZM102.103 121.353H84.8824V126.88C91.0585 126.129 96.8744 124.211 102.103 121.353ZM84.8824 90.7647H125.79C126.271 88.8469 126.637 86.8835 126.88 84.8824H84.8824V90.7647ZM125.48 66.0588C126.116 68.3478 126.587 70.7052 126.88 73.1176H84.8824V66.0588H125.48ZM120.436 54.2941C119.202 52.2283 117.818 50.2625 116.298 48.4118H84.8824V54.2941H120.436ZM84.8824 36.6471H102.103C96.8744 33.7889 91.0585 31.8707 84.8824 31.1198V36.6471Z"
  />
</svg>