<svg width="24" height="24" viewBox="0 0 24 24" fill="none" xmlns="http://www.w3.org/2000/svg">
  <path fill-rule="evenodd" clip-rule="evenodd"
    d="M11.7811 4.15327C12.8436 3.12859 14.2622 2.55601 15.7383 2.55601C17.2145 2.55601 18.6331 3.12859 19.6956 4.15327L19.6969 4.15457C20.7817 5.20478 21.4053 6.64252 21.4309 8.15213C21.4555 9.59776 20.9297 10.9961 19.9643 12.0661C19.9285 12.121 19.8866 12.1727 19.8388 12.2202L16.3079 15.7416C15.9361 16.1112 15.3352 16.1095 14.9656 15.7377C14.596 15.366 14.5977 14.765 14.9695 14.3954L18.3781 10.9956C18.405 10.9579 18.4348 10.922 18.4676 10.888C19.1668 10.1635 19.5499 9.19109 19.5329 8.18435C19.5158 7.17793 19.1001 6.21941 18.3772 5.51909C17.6685 4.83602 16.7226 4.45435 15.7383 4.45435C14.756 4.45435 13.812 4.8345 13.1038 5.51499L12.4258 6.18352C12.054 6.55311 11.4531 6.55136 11.0835 6.17961C10.7139 5.80785 10.7156 5.20688 11.0874 4.83729L11.7708 4.16338L11.7811 4.15327Z" />
  <path fill-rule="evenodd" clip-rule="evenodd"
    d="M9.02973 8.22778C9.4004 8.59845 9.4004 9.19943 9.02973 9.5701L5.51461 13.0852C4.81891 13.8091 4.43785 14.779 4.4549 15.7831C4.47198 16.7895 4.88761 17.7481 5.61058 18.4484C6.31922 19.1314 7.26513 19.5131 8.24941 19.5131C9.23128 19.5131 10.175 19.1333 10.883 18.4534L11.5505 17.7859C11.9212 17.4152 12.5222 17.4152 12.8928 17.7859C13.2635 18.1566 13.2635 18.7576 12.8928 19.1282L12.2189 19.8021L12.2067 19.8142C11.1441 20.8389 9.72553 21.4115 8.24941 21.4115C6.77328 21.4115 5.3547 20.8389 4.29216 19.8142L4.29082 19.8129C3.20609 18.7627 2.58245 17.3249 2.55683 15.8153C2.53121 14.3057 3.1057 12.8476 4.15416 11.7612L4.16598 11.7492L7.6874 8.22778C8.05807 7.8571 8.65905 7.8571 9.02973 8.22778Z" />
  <path
    d="M18.4139 5.58612C18.0432 5.21545 18.0432 4.61447 18.4139 4.2438L20.3797 2.27801C20.7503 1.90733 21.3513 1.90733 21.722 2.278C22.0927 2.64868 22.0927 3.24966 21.722 3.62033L19.7562 5.58612C19.3855 5.9568 18.7845 5.9568 18.4139 5.58612Z" />
  <path
    d="M2.27801 21.722C1.90733 21.3513 1.90733 20.7503 2.27801 20.3797L4.2438 18.4139C4.61447 18.0432 5.21545 18.0432 5.58613 18.4139C5.9568 18.7845 5.9568 19.3855 5.58613 19.7562L3.62033 21.722C3.24966 22.0927 2.64868 22.0927 2.27801 21.722Z" />
  <path fill-rule="evenodd" clip-rule="evenodd"
    d="M18.3185 21.4917C17.9478 21.8624 17.3468 21.8624 16.9762 21.4917L14.9627 19.4782C14.592 19.1075 14.592 18.5065 14.9627 18.1359C15.3333 17.7652 15.9343 17.7652 16.305 18.1359L18.3185 20.1494C18.6892 20.52 18.6892 21.121 18.3185 21.4917Z" />
  <path fill-rule="evenodd" clip-rule="evenodd"
    d="M9.13274 5.95953C8.76206 6.3302 8.16108 6.3302 7.79041 5.95953L5.77692 3.94604C5.40624 3.57536 5.40624 2.97438 5.77692 2.60371C6.14759 2.23304 6.74857 2.23304 7.11924 2.60371L9.13274 4.6172C9.50341 4.98787 9.50341 5.58885 9.13274 5.95953Z" />
</svg>