<svg width="24" height="24" viewBox="0 0 24 24" fill="none" xmlns="http://www.w3.org/2000/svg">
  <path
    d="M14 15.925C12.2 15.925 10.4 15.125 9.20001 13.525C8.90001 13.125 9.00001 12.425 9.40001 12.125C9.80001 11.825 10.5 11.925 10.8 12.325C12.1 14.125 14.6 14.425 16.4 13.125C16.6 13.025 16.7 12.925 16.8 12.725L19.8 9.725C21.3 8.125 21.3 5.625 19.7 4.125C18.1 2.625 15.7 2.625 14.1 4.125L12.4 5.825C12 6.225 11.4 6.225 11 5.825C10.6 5.425 10.6 4.825 11 4.425L12.7 2.725C15 0.425 18.7 0.425 21 2.725C23.4 5.025 23.4 8.825 21.1 11.225L18.1 14.225C17.9 14.425 17.7 14.625 17.4 14.825C16.5 15.525 15.3 15.925 14 15.925Z" />
  <path
    d="M7.1 22.9C5.6 22.9 4.1 22.3 2.9 21.2C0.499999 18.9 0.499999 15.1 2.8 12.7L5.8 9.7C6 9.6 6.2 9.4 6.4 9.2C7.7 8.2 9.3 7.8 10.8 8.1C12.4 8.3 13.8 9.2 14.7 10.4C15 10.8 14.9 11.5 14.5 11.8C14.1 12.1 13.4 12 13.1 11.6C12.5 10.7 11.5 10.2 10.5 10C9.4 9.8 8.4 10.1 7.5 10.8C7.3 10.9 7.2 11 7.1 11.2L4.1 14.2C2.6 15.8 2.6 18.3 4.2 19.8C5.8 21.3 8.2 21.3 9.8 19.8L11.5 18.1C11.9 17.7 12.5 17.7 12.9 18.1C13.3 18.5 13.3 19.1 12.9 19.5L11.2 21.2C10.1 22.4 8.6 22.9 7.1 22.9Z" />
</svg>