<svg width="24" height="24" viewBox="0 0 24 24" fill="none" xmlns="http://www.w3.org/2000/svg">
  <path fill-rule="evenodd" clip-rule="evenodd"
    d="M12 19C11.4477 19 11 19.4477 11 20C11 20.5523 11.4477 21 12 21C12.5523 21 13 20.5523 13 20C13 19.4477 12.5523 19 12 19ZM9 20C9 18.3431 10.3431 17 12 17C13.6569 17 15 18.3431 15 20C15 21.6569 13.6569 23 12 23C10.3431 23 9 21.6569 9 20Z" />
  <path fill-rule="evenodd" clip-rule="evenodd"
    d="M12 3C11.4477 3 11 3.44772 11 4C11 4.55228 11.4477 5 12 5C12.5523 5 13 4.55228 13 4C13 3.44772 12.5523 3 12 3ZM9 4C9 2.34315 10.3431 1 12 1C13.6569 1 15 2.34315 15 4C15 5.65685 13.6569 7 12 7C10.3431 7 9 5.65685 9 4Z" />
  <path fill-rule="evenodd" clip-rule="evenodd"
    d="M4 8V10H6V8H4ZM3 6C2.44772 6 2 6.44772 2 7V11C2 11.5523 2.44772 12 3 12H7C7.55228 12 8 11.5523 8 11V7C8 6.44772 7.55228 6 7 6H3Z" />
  <path fill-rule="evenodd" clip-rule="evenodd"
    d="M19 5.77359L17.6085 8H20.3915L19 5.77359ZM19.848 3.3568C19.4563 2.73013 18.5437 2.73013 18.152 3.3568L14.9562 8.47C14.54 9.13605 15.0188 10 15.8042 10H22.1958C22.9812 10 23.46 9.13605 23.0438 8.47L19.848 3.3568Z" />
  <path fill-rule="evenodd" clip-rule="evenodd"
    d="M4.01077 11.4953C4.0148 11.3188 4.01868 11.1485 4.0197 10.9934L6.01966 11.0066C6.01811 11.2421 6.01309 11.4494 6.00846 11.6401C6.0009 11.9523 5.9944 12.2203 6.00594 12.4963C6.02343 12.9146 6.08243 13.1584 6.16684 13.3153C6.26898 13.5052 6.61303 13.9375 8.5 13.9375C9.50036 13.9375 10.2976 13.9919 10.9194 14.1333C11.5462 14.2759 12.1141 14.5338 12.5034 15.0349C12.8848 15.5256 12.9688 16.0922 12.9919 16.5481C13.0061 16.828 12.9977 17.1758 12.9895 17.5127C12.9854 17.6835 12.9813 17.8516 12.9803 18.0066L10.9803 17.9934C10.982 17.7379 10.9876 17.5278 10.9925 17.3447C10.9996 17.0742 11.0053 16.8623 10.9945 16.6492C10.9783 16.3296 10.9266 16.265 10.9242 16.2621C10.924 16.2618 10.9101 16.2418 10.8507 16.2098C10.7856 16.1746 10.6705 16.1278 10.4758 16.0835C10.0757 15.9925 9.45731 15.9375 8.5 15.9375C6.4716 15.9375 5.06831 15.4948 4.40553 14.2628C4.10748 13.7088 4.02964 13.1049 4.00769 12.5799C3.99368 12.2447 4.00252 11.8571 4.01077 11.4953Z" />
  <path fill-rule="evenodd" clip-rule="evenodd"
    d="M19.9889 10.5098C19.985 10.3255 19.9813 10.1506 19.9803 9.99353L17.9803 10.0065C17.9818 10.2289 17.9864 10.4361 17.9908 10.6353C17.9986 10.9907 18.0059 11.3207 17.9938 11.6664C17.9756 12.1843 17.9135 12.5898 17.7869 12.9024C17.6713 13.1879 17.5005 13.4025 17.2108 13.564C16.8978 13.7384 16.3752 13.8889 15.5 13.8889C14.4993 13.8889 13.7006 13.9441 13.0773 14.0882C12.4474 14.2337 11.8795 14.4969 11.4919 15.0036C11.1142 15.4974 11.031 16.0666 11.0081 16.5266C10.9939 16.8099 11.0023 17.1608 11.0104 17.5022C11.0146 17.6761 11.0187 17.8476 11.0197 18.0065L13.0197 17.9935C13.018 17.7357 13.0124 17.5229 13.0076 17.3368C13.0004 17.0608 12.9947 16.8437 13.0056 16.6261C13.0221 16.295 13.0756 16.2251 13.0804 16.2187C13.0825 16.216 13.0978 16.1956 13.1551 16.1642C13.2196 16.1289 13.3338 16.0816 13.5275 16.0368C13.9261 15.9447 14.5431 15.8889 15.5 15.8889C16.5825 15.8889 17.4756 15.706 18.1844 15.311C18.9166 14.903 19.3738 14.3121 19.6407 13.6531C19.8966 13.0213 19.9713 12.3434 19.9926 11.7364C20.0065 11.3379 19.9973 10.9024 19.9889 10.5098Z" />
  <path
    d="M12 5C12.5523 5 13 5.48502 13 6.08333L13 16.9167C13 17.515 12.5523 18 12 18C11.4477 18 11 17.515 11 16.9167L11 6.08333C11 5.48502 11.4477 5 12 5Z" />
</svg>