<svg width="24" height="24" viewBox="0 0 24 24" fill="none" xmlns="http://www.w3.org/2000/svg">
  <path fill-rule="evenodd" clip-rule="evenodd"
    d="M16.7071 16.7071C16.3166 17.0976 15.6834 17.0976 15.2929 16.7071L7.29289 8.70711C6.90237 8.31658 6.90237 7.68342 7.29289 7.29289C7.68342 6.90237 8.31658 6.90237 8.70711 7.29289L16.7071 15.2929C17.0976 15.6834 17.0976 16.3166 16.7071 16.7071Z" />
  <path fill-rule="evenodd" clip-rule="evenodd"
    d="M9 8C9.26522 8 9.51957 8.10536 9.70711 8.29289L15.7071 14.2929C15.8946 14.4804 16 14.7348 16 15C16 15.2652 15.8946 15.5196 15.7071 15.7071L13.4083 18.0059C13.4082 18.006 13.4085 18.0057 13.4083 18.0059C13.0926 18.3226 12.7169 18.5744 12.3039 18.746C11.8906 18.9176 11.4475 19.0059 11 19.0059C10.5525 19.0059 10.1094 18.9176 9.69615 18.746C9.2831 18.5744 8.90795 18.3231 8.59218 18.0064C8.59201 18.0062 8.59235 18.0066 8.59218 18.0064L5.99412 15.4083C5.99392 15.4081 5.99433 15.4085 5.99412 15.4083C5.67745 15.0926 5.42554 14.7169 5.25405 14.3039C5.08245 13.8906 4.99411 13.4475 4.99411 13C4.99411 12.5525 5.08245 12.1094 5.25405 11.6962C5.42553 11.2832 5.6768 10.9081 5.99345 10.5923C5.99322 10.5926 5.99367 10.5921 5.99345 10.5923L8.2929 8.29289C8.48043 8.10536 8.73479 8 9 8ZM9 10.4142L7.40588 12.0083C7.27536 12.1384 7.17181 12.2929 7.10114 12.4631C7.03048 12.6333 6.99411 12.8157 6.99411 13C6.99411 13.1843 7.03048 13.3667 7.10114 13.5369C7.17181 13.7071 7.27536 13.8616 7.40588 13.9917L7.40711 13.9929L10.0083 16.5941C10.1384 16.7246 10.293 16.8282 10.4631 16.8989C10.6333 16.9695 10.8157 17.0059 11 17.0059C11.1843 17.0059 11.3667 16.9695 11.5369 16.8989C11.7071 16.8282 11.8616 16.7246 11.9917 16.5941L13.5858 15L9 10.4142Z" />
  <path fill-rule="evenodd" clip-rule="evenodd"
    d="M11.6962 5.25402C12.1094 5.08241 12.5525 4.99408 13 4.99408C13.4475 4.99408 13.8906 5.08241 14.3039 5.25402C14.7169 5.42551 15.092 5.67679 15.4077 5.99347C15.4075 5.99326 15.4079 5.99368 15.4077 5.99347L18.0059 8.59164C18.0057 8.59147 18.006 8.59181 18.0059 8.59164C18.3226 8.9074 18.5744 9.28307 18.746 9.69612C18.9176 10.1094 19.0059 10.5525 19.0059 11C19.0059 11.4475 18.9176 11.8905 18.746 12.3038C18.5744 12.7169 18.3231 13.0921 18.0063 13.4079C18.0062 13.408 18.0065 13.4077 18.0063 13.4079L15.7071 15.7071C15.5196 15.8946 15.2652 16 15 16C14.7348 16 14.4804 15.8946 14.2929 15.7071L8.29289 9.70708C8.10536 9.51954 8 9.26519 8 8.99997C8 8.73476 8.10536 8.48043 8.2929 8.29289L10.5917 5.99409C10.5914 5.99432 10.5919 5.99387 10.5917 5.99409C10.9074 5.67744 11.2832 5.4255 11.6962 5.25402ZM13 6.99408C12.8157 6.99408 12.6333 7.03045 12.4631 7.10111C12.2929 7.17177 12.1384 7.27533 12.0083 7.40585L10.4142 8.99997L15 13.5858L16.5941 11.9916C16.7246 11.8616 16.8282 11.707 16.8989 11.5369C16.9695 11.3667 17.0059 11.1842 17.0059 11C17.0059 10.8157 16.9695 10.6333 16.8989 10.4631C16.8282 10.2929 16.7246 10.1384 16.5941 10.0083L13.9917 7.40585C13.8616 7.27533 13.7071 7.17177 13.5369 7.10111C13.3667 7.03045 13.1843 6.99408 13 6.99408Z" />
  <path fill-rule="evenodd" clip-rule="evenodd"
    d="M20.7071 3.29289C21.0976 3.68342 21.0976 4.31658 20.7071 4.70711L16.7071 8.70711C16.3166 9.09763 15.6834 9.09763 15.2929 8.70711C14.9024 8.31658 14.9024 7.68342 15.2929 7.29289L19.2929 3.29289C19.6834 2.90237 20.3166 2.90237 20.7071 3.29289Z" />
  <path fill-rule="evenodd" clip-rule="evenodd"
    d="M8.70711 15.2929C9.09763 15.6834 9.09763 16.3166 8.70711 16.7071L4.70711 20.7071C4.31658 21.0976 3.68342 21.0976 3.29289 20.7071C2.90237 20.3166 2.90237 19.6834 3.29289 19.2929L7.29289 15.2929C7.68342 14.9024 8.31658 14.9024 8.70711 15.2929Z" />
</svg>