<svg width="24" height="24" viewBox="0 0 24 24" fill="none" xmlns="http://www.w3.org/2000/svg">
  <path fill-rule="evenodd" clip-rule="evenodd"
    d="M19.1624 13.3335C19.6405 13.057 20.2522 13.2205 20.5287 13.6986L21.7565 15.8217C21.9983 16.2433 22.1255 16.7208 22.1255 17.2067C22.1255 17.6926 21.9983 18.1701 21.7565 18.5917L21.7471 18.6078C21.4977 19.0244 21.1454 19.3698 20.724 19.6108C20.3026 19.8518 19.8263 19.9804 19.3408 19.9842L19.3331 19.9842L11.1301 19.9842C10.5778 19.9842 10.1301 19.5365 10.1301 18.9842C10.1301 18.4319 10.5778 17.9842 11.1301 17.9842H19.3284C19.4697 17.9826 19.6083 17.9449 19.731 17.8747C19.8519 17.8056 19.9534 17.7072 20.0262 17.5886C20.0913 17.4719 20.1255 17.3404 20.1255 17.2067C20.1255 17.0703 20.0899 16.9364 20.0223 16.818C20.0221 16.8175 20.0218 16.8171 20.0216 16.8167L18.7974 14.6998C18.5209 14.2217 18.6843 13.61 19.1624 13.3335Z" />
  <path fill-rule="evenodd" clip-rule="evenodd"
    d="M14.8372 15.2771C15.2277 15.6676 15.2277 16.3008 14.8372 16.6913L12.5443 18.9842L14.8372 21.2771C15.2277 21.6676 15.2277 22.3008 14.8372 22.6913C14.4466 23.0818 13.8135 23.0818 13.423 22.6913L10.423 19.6913C10.0324 19.3008 10.0324 18.6676 10.423 18.2771L13.423 15.2771C13.8135 14.8866 14.4466 14.8866 14.8372 15.2771Z" />
  <path fill-rule="evenodd" clip-rule="evenodd"
    d="M8.67975 6.87561C8.20126 6.59981 8.03695 5.98833 8.31275 5.50985L9.53753 3.38496C9.78174 2.96483 10.1317 2.61593 10.5525 2.37296C10.9733 2.12999 11.4504 2.0014 11.9364 1.99998L11.9551 2.0001C12.4405 2.00778 12.9158 2.1402 13.3352 2.38463C13.7547 2.62907 14.1042 2.97729 14.3502 3.39583L14.3541 3.4025L18.4556 10.5065C18.7317 10.9848 18.5679 11.5964 18.0896 11.8725C17.6113 12.1487 16.9997 11.9848 16.7235 11.5065L12.6243 4.40651C12.5523 4.28496 12.4504 4.1838 12.3283 4.11263C12.208 4.04253 12.072 4.00384 11.9329 4.00006C11.7993 4.00203 11.6683 4.03814 11.5525 4.10501C11.4344 4.17319 11.3362 4.27098 11.2674 4.38872C11.2672 4.38914 11.2669 4.38957 11.2667 4.39L10.0455 6.50861C9.76971 6.9871 9.15824 7.15141 8.67975 6.87561Z" />
  <path fill-rule="evenodd" clip-rule="evenodd"
    d="M12.5256 9.64963C12.6685 9.11617 13.2168 8.79958 13.7503 8.94253L16.8824 9.78178L17.7217 6.64963C17.8646 6.11617 18.413 5.79958 18.9465 5.94253C19.4799 6.08547 19.7965 6.63381 19.6536 7.16727L18.5555 11.2653C18.4125 11.7988 17.8642 12.1154 17.3307 11.9725L13.2327 10.8744C12.6992 10.7314 12.3826 10.1831 12.5256 9.64963Z" />
  <path fill-rule="evenodd" clip-rule="evenodd"
    d="M4.10091 17.6434C4.17474 17.7619 4.27733 17.86 4.3992 17.9284C4.52395 17.9984 4.66469 18.035 4.80775 18.0346L4.8108 18.0346L6.99582 18.0351C7.5481 18.0353 7.9957 18.4831 7.99556 19.0354C7.99542 19.5877 7.54758 20.0353 6.9953 20.0351L4.81163 20.0346C4.32443 20.0357 3.8452 19.9109 3.42032 19.6725C2.99496 19.4337 2.63852 19.0891 2.38559 18.672L2.37557 18.6551C2.13061 18.2326 2.00108 17.7531 1.99999 17.2648C1.9989 16.7764 2.12629 16.2964 2.36937 15.8728L2.37109 15.8699L6.32581 9.03362C6.60236 8.55556 7.21409 8.39221 7.69214 8.66876C8.1702 8.94531 8.33355 9.55704 8.057 10.0351L4.10401 16.8684C4.10378 16.8688 4.10355 16.8692 4.10332 16.8696C4.03531 16.9885 3.99968 17.1233 3.99999 17.2603C4.00029 17.3946 4.03506 17.5265 4.10091 17.6434Z" />
  <path fill-rule="evenodd" clip-rule="evenodd"
    d="M2.1298 10.8913C1.98679 10.3578 2.30331 9.80944 2.83676 9.66644L6.9325 8.56847C7.18871 8.49978 7.46243 8.53614 7.69214 8.66876C7.92186 8.80139 8.08876 9.01942 8.15739 9.27565L9.25449 13.3719C9.39737 13.9054 9.08073 14.4537 8.54725 14.5966C8.01377 14.7394 7.46547 14.4228 7.32258 13.8893L6.48425 10.7592L3.35463 11.5982C2.82118 11.7412 2.2728 11.4247 2.1298 10.8913Z" />
</svg>