<svg width="24" height="24" viewBox="0 0 24 24" fill="none" xmlns="http://www.w3.org/2000/svg">
  <path fill-rule="evenodd" clip-rule="evenodd"
    d="M19 12C18.4477 12 18 12.4477 18 13V19C18 19.5523 18.4477 20 19 20H21C21.5523 20 22 19.5523 22 19V13C22 12.4477 21.5523 12 21 12H19ZM16 13C16 11.3431 17.3431 10 19 10H21C22.6569 10 24 11.3431 24 13V19C24 20.6569 22.6569 22 21 22H19C17.3431 22 16 20.6569 16 19V13Z" />
  <path
    d="M2 5C2 4.44772 2.44772 4 3 4H17C17.5523 4 18 4.44772 18 5V8C18 8.55228 18.4477 9 19 9C19.5523 9 20 8.55228 20 8V5C20 3.34315 18.6569 2 17 2H3C1.34315 2 0 3.34315 0 5V13C0 14.6569 1.34315 16 3 16H9V18H7C6.44772 18 6 18.4477 6 19C6 19.5523 6.44772 20 7 20H13C13.5523 20 14 19.5523 14 19C14 18.4477 13.5523 18 13 18H11V16H13C13.5523 16 14 15.5523 14 15C14 14.4477 13.5523 14 13 14H3C2.44772 14 2 13.5523 2 13V5Z" />
</svg>