<svg width="24" height="24" viewBox="0 0 24 24" fill="none" xmlns="http://www.w3.org/2000/svg">
  <path fill-rule="evenodd" clip-rule="evenodd"
    d="M3 3.90058C3 3.40936 3.40928 3 3.92088 3H19.9851C20.4967 3 20.7832 3.42982 20.7832 3.92105V19.9883C20.7832 20.5 20.4763 20.807 19.9851 20.807H9.22105L6.27424 24V20.7865H3.90042C3.40928 20.7865 3 20.4795 3 19.9883V3.90058ZM15.6025 6.48115C15.2753 6.29706 14.9275 6.21524 14.5185 6.21524H6.29692V17.6698H13.5369C14.089 17.6698 14.6208 17.5676 15.1116 17.4448C15.6025 17.3425 16.0319 17.1175 16.4205 16.872C16.7886 16.647 17.0954 16.3403 17.3 15.972C17.493 15.6299 17.5863 15.1744 17.5863 14.663C17.5863 13.8653 17.4022 13.2311 17.0341 12.7402C16.6455 12.2698 16.1342 11.9425 15.4798 11.7584C15.9997 11.5361 16.4312 11.1477 16.7068 10.6539C16.9727 10.163 17.1159 9.65161 17.1159 9.11979C17.125 8.39716 16.8787 7.69451 16.4205 7.13569C16.1955 6.86979 15.9092 6.64479 15.6025 6.48115ZM9.24504 12.617H13.3439C13.5804 12.617 13.7578 12.7332 13.9154 12.9266C14.0619 13.13 14.1379 13.3743 14.1322 13.6233C14.1322 13.9135 14.0337 14.1457 13.876 14.3004C13.6986 14.4553 13.4819 14.552 13.2454 14.552H9.24504V12.617ZM9.24504 8.74725H13.009C13.206 8.74725 13.3833 8.82465 13.5213 8.94074C13.6592 9.07619 13.7381 9.28903 13.7381 9.57926C13.7381 9.9082 13.6592 10.1597 13.4819 10.2758C13.3242 10.3919 13.1272 10.4887 12.9301 10.4887H9.24504V8.74725Z" />
</svg>