<svg viewBox="0 0 158 158" xmlns="http://www.w3.org/2000/svg">
  <path fill-rule="evenodd" clip-rule="evenodd"
    d="M31.0039 29.7122L34.7501 130.423C34.8076 131.962 35.436 133.416 36.5105 134.509C37.585 135.601 39.0271 136.246 40.5506 136.316L121.65 139.994C122.469 140.031 123.288 139.9 124.057 139.609C124.825 139.318 125.527 138.873 126.12 138.301C126.714 137.728 127.186 137.041 127.509 136.279C127.832 135.518 127.999 134.698 128 133.869V24.1368C128.001 23.2983 127.831 22.4686 127.502 21.6989C127.172 20.9292 126.69 20.2359 126.085 19.6619C125.479 19.0878 124.764 18.6453 123.982 18.3616C123.201 18.0779 122.37 17.959 121.541 18.0124L114.875 18.4333L115.446 33.0182C115.453 33.1905 115.409 33.3609 115.321 33.5094C115.233 33.6578 115.105 33.7781 114.95 33.8559C114.796 33.9338 114.623 33.966 114.45 33.9487C114.278 33.9314 114.115 33.8653 113.979 33.7583L109.487 30.2321L104.173 34.2518C104.036 34.3544 103.872 34.4162 103.701 34.4299C103.531 34.4437 103.359 34.4088 103.208 34.3294C103.056 34.25 102.93 34.1293 102.844 33.9814C102.758 33.8334 102.717 33.6642 102.724 33.4936L103.206 19.17L36.7077 23.3682C35.1253 23.4659 33.6432 24.1838 32.5776 25.369C31.5121 26.5541 30.9473 28.1127 31.0039 29.7122ZM87.8268 65.2298C87.8268 67.5827 103.744 66.4574 105.876 64.8026C105.876 48.772 97.2468 40.3475 81.4382 40.3475C65.6297 40.3475 56.7774 48.9044 56.7774 61.7337C56.7774 74.5931 66.7891 80.1954 75.2972 84.9552C81.5831 88.4694 87.0419 91.5263 87.0419 96.7074C87.0419 100.125 85.3632 102.159 81.6616 102.159C76.843 102.159 74.9349 99.7041 75.1643 91.3638C75.1643 89.5586 56.7774 88.9929 56.2158 91.3638C54.7908 111.577 67.4291 117.408 81.8911 117.408C95.9002 117.408 106.89 109.97 106.89 96.4907C106.89 82.4351 96.3066 76.8446 87.5694 72.2294L87.5672 72.2282C81.4141 68.9787 76.1727 66.2107 76.1727 61.3064C76.1727 56.4924 79.7595 55.8546 81.8851 55.8546C84.1313 55.8546 88.165 56.2457 87.8268 65.2298Z"
  />
</svg>