<svg width="24" height="24" viewBox="0 0 24 24" fill="none" xmlns="http://www.w3.org/2000/svg">
  <path fill-rule="evenodd" clip-rule="evenodd"
    d="M16.5578 3.02798C16.0748 2.9734 15.5837 2.98922 15.1001 3.07734C14.1002 3.25953 13.1795 3.74213 12.4608 4.46082C11.7421 5.17952 11.2595 6.10017 11.0773 7.1001C10.8951 8.10003 11.022 9.13173 11.4411 10.0577C11.6127 10.4369 11.5314 10.8828 11.2371 11.1771L4.3271 18.0871C4.11681 18.2974 3.99867 18.5826 3.99867 18.88C3.99867 19.1774 4.11681 19.4626 4.3271 19.6729C4.53739 19.8832 4.8226 20.0013 5.11999 20.0013C5.41738 20.0013 5.7026 19.8832 5.91289 19.6729L12.8229 12.7629C13.1172 12.4686 13.5631 12.3873 13.9423 12.5589C14.8683 12.978 15.9 13.1048 16.8999 12.9227C17.8998 12.7405 18.8205 12.2579 19.5392 11.5392C20.2579 10.8205 20.7405 9.89982 20.9226 8.89989C21.0108 8.41624 21.0266 7.92515 20.972 7.44219L18.4 10.0142C18.0262 10.3806 17.5235 10.5859 17 10.5859C16.4765 10.5859 15.9739 10.3806 15.6 10.0141L15.5928 10.0071L13.9858 8.40003C13.6194 8.02618 13.4141 7.5235 13.4141 7C13.4141 6.47649 13.6194 5.97385 13.9859 5.6L13.9929 5.59285L16.5578 3.02798ZM14.7416 1.10973C16.1415 0.85467 17.5859 1.03229 18.8823 1.61894C19.1813 1.75427 19.395 2.02778 19.4538 2.35074C19.5126 2.6737 19.4092 3.00498 19.1771 3.2371L15.4142 7L17 8.58578L20.7629 4.82289C20.995 4.59076 21.3263 4.48735 21.6492 4.54619C21.9722 4.60504 22.2457 4.81864 22.3811 5.11772C22.9677 6.41411 23.1453 7.8585 22.8903 9.25839C22.6352 10.6583 21.9596 11.9472 20.9534 12.9534C19.9472 13.9596 18.6583 14.6352 17.2584 14.8903C16.0909 15.103 14.8925 15.0148 13.7749 14.6393L7.3271 21.0871C6.74174 21.6725 5.94782 22.0013 5.11999 22.0013C4.29217 22.0013 3.49825 21.6725 2.91289 21.0871C2.32752 20.5017 1.99867 19.7078 1.99867 18.88C1.99867 18.0522 2.32753 17.2582 2.91289 16.6729L9.36064 10.2251C8.98523 9.10744 8.89702 7.90905 9.10973 6.7416C9.3648 5.3417 10.0404 4.05278 11.0466 3.04661C12.0528 2.04044 13.3417 1.3648 14.7416 1.10973Z" />
</svg>