<svg viewBox="0 0 158 158" fill="none" xmlns="http://www.w3.org/2000/svg">
  <path
    d="M29 29V49H19V24C19 21.3 21.2 19 24 19H49V29H29ZM19 99V59H29V99H19ZM19 109V134C19 136.8 21.2 139 24 139H49V129H29V109H19ZM109 139H134C135.326 139 136.598 138.473 137.536 137.536C138.473 136.598 139 135.326 139 134V109H129V129H109V139ZM129 49H139V24C139 22.6739 138.473 21.4021 137.536 20.4645C136.598 19.5268 135.326 19 134 19H109V29H129V49ZM99 129V139H59V129H99ZM99 19V29H59V19H99ZM139 99H129V59H139V99ZM79 89C81.6522 89 84.1957 87.9464 86.0711 86.0711C87.9464 84.1957 89 81.6522 89 79C89 76.3478 87.9464 73.8043 86.0711 71.9289C84.1957 70.0536 81.6522 69 79 69C76.3478 69 73.8043 70.0536 71.9289 71.9289C70.0536 73.8043 69 76.3478 69 79C69 81.6522 70.0536 84.1957 71.9289 86.0711C73.8043 87.9464 76.3478 89 79 89Z"
  />
</svg>