<svg width="24" height="24" viewBox="0 0 24 24" fill="none" xmlns="http://www.w3.org/2000/svg">
  <path
    d="M12 20.5C11.3 20.5 4.9 20.5 3.1 20C1.8 19.7 0.8 18.7 0.5 17.4C0.1 15.4 0 13.6 0 11.7C0 9.9 0.2 8 0.5 6.2C0.8 4.8 1.9 3.8 3.2 3.4C4.9 3 11.3 3 12 3C12.7 3 19.1 3 20.8 3.4C22.1 3.8 23.1 4.8 23.5 6.1C23.5 6.1 23.5 6.1 23.5 6.2C23.8 8 24 9.9 24 11.7C24 13.5 23.8 15.3 23.5 17.1C23.2 18.5 22.1 19.5 20.8 19.9C19.1 20.4 12.7 20.5 12 20.5ZM12 5C9.3 5 4.8 5.1 3.7 5.4C3.1 5.6 2.6 6.1 2.4 6.7C2.1 8.3 2 10 2 11.7C2 13.4 2.1 15.2 2.4 16.9C2.5 17.4 3 17.9 3.6 18C4.8 18.3 9.2 18.4 11.9 18.4C14.6 18.4 19.1 18.3 20.2 18C20.8 17.8 21.3 17.3 21.4 16.7C21.7 15.1 21.8 13.4 21.8 11.7C21.8 10 21.7 8.3 21.4 6.6C21.2 6 20.8 5.5 20.2 5.3C19 5.1 13.9 5 12 5Z" />
  <path
    d="M9.8 16C9.6 16 9.5 16 9.3 15.9C9 15.7 8.8 15.4 8.8 15V8.50001C8.8 8.10001 9 7.80001 9.3 7.60001C9.6 7.40001 10 7.40001 10.3 7.60001L16.1 10.9C16.4 11.1 16.6 11.4 16.6 11.8C16.6 12.2 16.4 12.5 16.1 12.7L10.3 16C10.1 16 9.9 16 9.8 16ZM10.8 10.2V13.3L13.5 11.7L10.8 10.2Z" />
</svg>