<svg width="342" height="80" viewBox="0 0 342 80" fill="none" xmlns="http://www.w3.org/2000/svg">
<g clip-path="url(#clip0_472_3)">
<path d="M129.4 42.45H111.25V41.15L112.2 40.95C114 40.6 114.15 40.5 114.15 39.8C114.2 39.05 114.2 37.65 114.2 36.1V25.5C114.2 23.95 114.2 22.55 114.15 21.8C114.1 21.1 114 21 112.2 20.65L111.25 20.45V19.15H122.2V20.45L121.25 20.65C119.4 21 119.3 21.1 119.3 21.8C119.25 22.55 119.25 23.95 119.25 25.5V40.15C119.9 40.3 121.25 40.5 123 40.5C126.55 40.5 127 40.3 127.5 39.3C128 38.3 128.25 37.65 128.75 36.25H130.25C130.1 39.3 129.4 42.45 129.4 42.45Z" fill="white"/>
<path d="M157.95 20.45L157 20.7C155.2 21.1 155.05 21.25 155.05 22C155 22.75 155 24 155 25.55V32C155 39.75 151.6 42.9 145.15 42.9C139.2 42.9 136.05 40.4 135.55 35.25C135.5 34.45 135.45 33.35 135.45 32.35V25.5C135.45 23.95 135.45 22.55 135.4 21.8C135.35 21.1 135.25 21 133.45 20.65L132.5 20.45V19.15H143.4V20.45L142.45 20.65C140.65 21 140.5 21.1 140.5 21.8C140.45 22.55 140.45 23.95 140.45 25.5V31.15C140.45 32.2 140.5 33.25 140.55 34.1C140.9 38.1 142.9 40.15 146.55 40.15C151.3 40.15 152.85 37.7 152.85 31.9V25.5C152.85 23.95 152.85 22.7 152.8 21.95C152.75 21.25 152.6 21.05 150.85 20.65L149.9 20.4V19.1H157.95V20.45ZM142.05 16.65C140.75 16.65 140.05 15.65 140.05 14.5C140.05 13.3 140.85 12.35 142.15 12.35C143.45 12.35 144.2 13.35 144.2 14.55C144.15 15.8 143.3 16.65 142.05 16.65ZM148.9 16.65C147.6 16.65 146.9 15.65 146.9 14.5C146.9 13.3 147.7 12.35 148.95 12.35C150.25 12.35 151 13.35 151 14.55C151.05 15.8 150.15 16.65 148.9 16.65Z" fill="white"/>
<path d="M185.4 33.15C183.55 33.5 183.45 33.65 183.45 34.4C183.4 35.15 183.4 36.5 183.4 38.05V38.6C183.4 38.95 183.4 40.55 183.55 41.05C181.15 42.05 177.3 42.75 174.25 42.75C171 42.75 167.9 42 165.7 40.4C162.8 38.35 161.1 35.05 161.1 30.55C161.1 25.7 163.2 22.7 166.25 20.8C168.3 19.5 171.05 18.75 174.85 18.75C178.15 18.75 180.4 19.25 183.1 19.45C183.15 21.5 183 23.7 182.85 26.35H181.35C181.1 24.85 181 24.25 180.8 23.55C180.3 21.5 178.15 20.75 174.5 20.75C171.55 20.75 169.85 21.4 168.65 22.6C167.2 24.05 166.5 26.45 166.5 29.9C166.5 36.15 169.5 40.55 175.3 40.6C176.45 40.6 177.55 40.45 178.6 40.1V38.05C178.6 36.5 178.6 35.1 178.55 34.35C178.5 33.65 178.4 33.45 176.6 33.1L175.9 32.95V31.65H186.2V33L185.4 33.15Z" fill="white"/>
<path d="M205.55 42.45V41.15L206.5 40.95C208.35 40.6 208.45 40.5 208.45 39.8C208.5 39.05 208.5 37.65 208.5 36.1V31.85H197.5V36.1C197.5 37.65 197.5 39.05 197.55 39.8C197.6 40.5 197.7 40.6 199.5 40.95L200.45 41.15V42.45H189.5V41.15L190.45 40.95C192.25 40.6 192.4 40.5 192.4 39.8C192.45 39.05 192.45 37.65 192.45 36.1V25.5C192.45 23.95 192.45 22.55 192.4 21.8C192.35 21.1 192.25 21 190.45 20.65L189.5 20.45V19.15H200.45V20.45L199.5 20.65C197.65 21 197.55 21.1 197.55 21.8C197.5 22.55 197.5 23.95 197.5 25.5V29.45H208.5V25.5C208.5 23.95 208.5 22.55 208.45 21.8C208.4 21.1 208.3 21 206.5 20.65L205.55 20.45V19.15H216.5V20.45L215.55 20.65C213.75 21 213.6 21.1 213.6 21.8C213.55 22.55 213.55 23.95 213.55 25.5V36.05C213.55 37.6 213.55 39 213.6 39.75C213.65 40.45 213.75 40.55 215.55 40.9L216.5 41.1V42.4L205.55 42.45Z" fill="white"/>
<path d="M243.25 42.45H232.45V41.2L234.6 40.7C235.05 40.6 235.25 40.3 235.1 39.9L233.6 35.75H226.1L224.95 39.9C224.85 40.3 224.9 40.55 225.75 40.7L227.85 41.15V42.4H219.4V41.15L221.45 40.65C222 40.5 222.25 40.4 222.45 39.85L228.6 21.6C229.3 19.55 230.25 19.1 232.45 18.45C232.7 19.3 232.8 19.65 233.25 20.9L240.5 39.9C240.7 40.4 240.8 40.5 241.3 40.65L243.2 41.25L243.25 42.45ZM226.75 33.55H232.85L229.4 23.95C229.4 23.95 229.05 25.45 228.5 27.3L226.75 33.55Z" fill="white"/>
<path d="M269.3 20.45L268.35 20.7C266.55 21.1 266.4 21.25 266.4 22C266.35 22.75 266.35 24 266.35 25.55V32C266.35 39.75 262.95 42.9 256.5 42.9C250.55 42.9 247.4 40.4 246.9 35.25C246.85 34.45 246.8 33.35 246.8 32.35V25.5C246.8 23.95 246.8 22.55 246.75 21.8C246.7 21.1 246.6 21 244.8 20.65L243.85 20.45V19.15H254.8V20.45L253.85 20.65C252.05 21 251.9 21.1 251.9 21.8C251.85 22.55 251.85 23.95 251.85 25.5V31.15C251.85 32.2 251.9 33.25 251.95 34.1C252.3 38.1 254.3 40.15 257.95 40.15C262.7 40.15 264.25 37.7 264.25 31.9V25.5C264.25 23.95 264.25 22.7 264.2 21.95C264.15 21.25 264 21.05 262.25 20.65L261.3 20.4V19.1H269.3V20.45Z" fill="white"/>
<path d="M273.3 41.9C273.3 41.9 272.6 39 272.55 35.75L274.1 35.7C274.45 37.05 274.6 37.75 275.1 38.7C275.65 39.9 276.7 40.7 280 40.7C282.45 40.7 283.75 39.4 283.75 37.35C283.75 35.9 282.85 34.55 280.75 33.5L277.4 31.85C274.65 30.5 273.25 28.3 273.25 25.6C273.25 21.8 276.35 18.85 281.5 18.85C283.5 18.85 285.35 19.15 287 19.2C287.25 21.95 287.15 25.15 287.15 25.15H285.85C285.85 25.15 285.35 23.5 285.05 22.75C284.85 22.25 284.7 21.95 284.45 21.65C284.05 21.2 283.05 20.85 281.3 20.85C279.05 20.85 277.65 22.05 277.65 23.8C277.65 25.25 278.45 26.5 280.75 27.6L284.05 29.25C287.5 31 288.65 33.3 288.65 35.7C288.65 39.65 285.35 42.85 279.8 42.85C277.25 42.8 274.75 42.35 273.3 41.9Z" fill="white"/>
<path d="M311 42.45H292.75V41.15L293.7 40.95C295.55 40.6 295.65 40.5 295.65 39.8C295.7 39.05 295.7 37.65 295.7 36.1V25.5C295.7 23.95 295.7 22.55 295.65 21.8C295.6 21.1 295.4 21.05 293.3 20.6L292.35 20.45V19.15H309.95C310 20.75 310 22.75 309.8 24.95H308.4C308.2 23.8 308.1 23.3 307.9 22.45C307.65 21.3 307.3 21 300.7 21V29.55C302.75 29.5 304.75 29.5 305.45 29.4C306.05 29.35 306.25 29.3 306.35 28.9C306.55 28.2 306.65 27.9 306.85 26.95H308.15V34.3H306.85C306.7 33.5 306.6 33.2 306.35 32.25C306.2 31.65 306.1 31.55 305.45 31.45C304.85 31.4 302.85 31.35 300.7 31.3V40.2C301.35 40.35 302.65 40.55 304.45 40.55C308.1 40.55 308.5 40.35 309.05 39.35C309.55 38.35 309.8 37.7 310.3 36.3H311.8C311.7 39.3 311 42.45 311 42.45Z" fill="white"/>
<path d="M341.8 20.45L340.85 20.65C339.05 21 338.9 21.1 338.9 21.8C338.85 22.55 338.85 23.95 338.85 25.5V42.4H335.95L321.35 23.5V36C321.35 37.55 321.35 38.95 321.4 39.7C321.45 40.4 321.55 40.5 323.35 40.85L324.3 41.05V42.35H316.35V41.05L317.3 40.85C319.1 40.5 319.25 40.4 319.25 39.7C319.3 38.95 319.3 37.55 319.3 36V25.5C319.3 23.95 319.3 22.6 319.25 21.85C319.2 21.15 319.1 21.05 317.3 20.65L316.35 20.45V19.15H324.1L336.9 35.3V25.5C336.9 23.95 336.9 22.55 336.85 21.8C336.8 21.1 336.7 21 334.9 20.65L333.95 20.45V19.15H341.8V20.45Z" fill="white"/>
<path d="M121.2 65.65C120.35 65.15 119.75 64.8 119 64.25C117.95 65.05 116.65 65.5 115.3 65.5C112.35 65.5 110.8 63.75 110.8 61.9C110.8 60.8 111.3 59.7 112.9 58.85C112.05 57.95 111.65 57.1 111.65 56.35C111.65 54.65 113.05 53.45 115.1 53.45C117.25 53.45 118.35 54.75 118.35 56.2C118.35 57.2 117.85 58.35 116.05 59.15C117.1 60.1 117.9 60.75 118.9 61.55C119.6 60.7 119.75 59.6 119.75 58.55C119.75 58 119.7 57.45 119.6 56.95H121.65C121.8 57.45 121.9 58.1 121.9 58.5C121.9 59.75 121.7 61.3 120.6 62.7C121.35 63.25 122.05 63.7 123 64.25L121.2 65.65ZM114 60.05C113.25 60.5 113.05 61.1 113.05 61.6C113.05 62.65 113.85 63.65 115.4 63.65C116.15 63.65 116.8 63.45 117.4 63C116.35 62.15 115.35 61.3 114 60.05ZM115.05 55.1C114.25 55.1 113.75 55.55 113.75 56.25C113.75 56.75 114 57.25 114.85 58.05C116.15 57.45 116.4 56.75 116.4 56.25C116.35 55.6 115.8 55.1 115.05 55.1Z" fill="white"/>
<path d="M128.75 65.35V53.65H131.35C133.25 53.65 134.5 53.9 135.55 54.7C136.45 55.45 136.95 56.45 136.95 57.65C136.95 59.2 136.15 60.6 134.7 61.25C134 61.55 133.1 61.7 132.15 61.6V59.7C132.7 59.75 133.15 59.7 133.55 59.45C134.15 59.15 134.45 58.55 134.45 57.85C134.45 57.15 134.2 56.6 133.75 56.25C133.25 55.85 132.55 55.65 131.55 55.65H131.15V65.3L128.75 65.35Z" fill="white"/>
<path d="M147.3 65.35L146.35 62.75H142L141.15 65.35H138.7L142.8 53.65L145.6 53.6L150 65.35H147.3ZM144.6 57.6C144.3 56.8 144.1 56.2 144.1 56.15C144.1 56.2 143.95 56.8 143.7 57.6L142.65 60.85H145.75L144.6 57.6Z" fill="white"/>
<path d="M162.75 65.45C160.5 65.55 159.65 65.25 157.7 62.7L156.55 61.2H154.95V65.3H152.5V53.6H155.35C157.25 53.6 158.5 53.9 159.5 54.65C160.35 55.35 160.75 56.3 160.75 57.35C160.75 58.55 160.2 59.7 158.95 60.35L160.15 61.8C161.35 63.25 161.9 63.5 163.05 63.7L162.75 65.45ZM157.45 56.05C156.9 55.65 156.25 55.55 155.4 55.55H154.95V59.45C154.95 59.45 155.75 59.5 156.3 59.5C156.75 59.5 157.15 59.4 157.5 59.15C157.95 58.8 158.25 58.35 158.25 57.65C158.25 57.05 158 56.45 157.45 56.05Z" fill="white"/>
<path d="M173.55 55.65H170.15V65.35H167.7V55.65H164.35V53.6H173.7L173.55 55.65Z" fill="white"/>
<path d="M186.8 65.35H184.1L178.35 57.15C178.4 57.5 178.4 58.15 178.4 58.95V65.35H176.1V53.65H178.8L184.6 61.8C184.6 61.45 184.55 60.95 184.55 60.4V53.65H186.85L186.8 65.35Z" fill="white"/>
<path d="M197 65.35H190.05V53.65H196.7V55.65H192.5V58.45H196.45V60.4H192.5V63.3H197.15L197 65.35Z" fill="white"/>
<path d="M210.45 65.45C208.2 65.55 207.35 65.25 205.4 62.7L204.25 61.2H202.65V65.3H200.2V53.6H203.05C204.95 53.6 206.2 53.9 207.2 54.65C208.05 55.35 208.45 56.3 208.45 57.35C208.45 58.55 207.9 59.7 206.65 60.35L207.85 61.8C209.05 63.25 209.6 63.5 210.75 63.7L210.45 65.45ZM205.2 56.05C204.65 55.65 204 55.55 203.15 55.55H202.7V59.45C202.7 59.45 203.5 59.5 204.05 59.5C204.5 59.5 204.9 59.4 205.25 59.15C205.7 58.8 206 58.35 206 57.65C206 57.05 205.75 56.45 205.2 56.05Z" fill="white"/>
<path d="M72.7 32.85C64.4 28.7 61.75 33.7 61.4 34.5C61.05 35.3 59.7 39.8 63.65 41.7C69.45 44.6 69.7 35.55 75.6 38.3C75.6 38.3 84.25 43.4 84.25 53.15C84.25 65.75 74.3 72.65 66.35 72.55C62.5 72.5 57.55 71 51.35 67.6L41.3 60.9C42.9 57.7 59.3 24.85 60.05 23.45C66.1 11.7 70.7 5.3 77.7 5.25C78.25 5.25 78.85 5.3 79.45 5.35C81.15 5.55 82.3 6 82.3 6C82.9 6.2 83.35 5.5 83.55 5.1C83.75 4.7 84.1 3.85 83.35 3.4C83.25 3.35 83.2 3.3 83.1 3.25C82.95 3.15 82.75 3.05 82.6 2.95C82.2 2.7 81.75 2.5 81.3 2.25C81.05 2.15 80.85 2 80.6 1.9C78.65 1 76.7 0.45 74.85 0.2C74.2 0.1 73.6 0.05 72.95 0.05C71 0 68.95 0.25 66.85 0.8C66.65 0.85 66.4 0.9 66.2 1C62.95 2 60.05 3.8 57.6 6.35C57.45 6.5 57.25 6.7 57.1 6.9C54.5 9.85 52.45 14.05 49.05 21.45L46.3 27.35L32.5 54.7L29.25 52.5C27.5 51.3 26.3 50.6 24.9 49.8C2.4 36.85 -7.05 62.35 5.65 74.45C6.95 75.75 8.4 76.8 10.1 77.65C10.7 77.95 11.35 78.25 12.05 78.5C12.35 78.6 12.65 78.7 13 78.85C15.15 79.55 17.35 79.9 19.55 79.85C31.2 79.85 37.45 68.8 38.8 65.75C42.4 68.75 45.75 71.65 46.9 72.5C51.6 76.3 58.05 80 66.15 80C83.15 80 89.45 68.15 89.45 56C89.45 42 79.15 36.15 72.7 32.85ZM4.5 66.95C-0.2 56.8 13.25 48.05 28.05 57.4C29 58 29.95 58.7 30.2 59.05C23.6 73.75 9.15 77.05 4.5 66.95Z" fill="#018093"/>
</g>
<defs>
<clipPath id="clip0_472_3">
<rect width="342" height="80" fill="white"/>
</clipPath>
</defs>
</svg>
