<svg width="177" height="48" viewBox="0 0 177 48" fill="none" xmlns="http://www.w3.org/2000/svg">
<g clip-path="url(#clip0_42_124)">
<path d="M38.3486 16.0809C37.5983 14.3647 36.6052 12.7653 35.3997 11.3318C33.6179 9.14951 31.3941 7.36943 28.8749 6.10873C26.3556 4.84805 23.598 4.13532 20.7836 4.01746C17.9692 3.89961 15.1617 4.37929 12.5459 5.42497C9.93018 6.47063 7.56547 8.05857 5.60745 10.0843C3.64942 12.1099 2.14247 14.5275 1.18578 17.1777C0.229089 19.8279 -0.155666 22.6508 0.0568596 25.4604C0.2694 28.2702 1.07437 31.0029 2.41883 33.4789C3.76328 35.9551 5.61673 38.1182 7.85717 39.8261C9.29475 40.9439 10.8832 41.8526 12.5754 42.5251C14.9477 43.4977 17.4869 43.9985 20.0508 44C25.3431 43.9883 30.4149 41.8781 34.1546 38.132C37.894 34.3858 39.9961 29.3095 40 24.0156C40.0038 21.2849 39.4416 18.5831 38.3486 16.0809ZM20.036 8.07235C22.3385 8.07211 24.6132 8.57548 26.7005 9.54721C26.1915 9.76721 25.6563 9.92088 25.1081 10.0044C23.3043 10.2656 21.6333 11.1033 20.3445 12.3925C19.0557 13.6816 18.2182 15.3532 17.9571 17.1575C17.8425 18.1694 17.3823 19.1108 16.6544 19.8229C15.9265 20.5349 14.9753 20.9739 13.9613 21.0659C12.1575 21.3271 10.4865 22.1648 9.19769 23.454C7.90889 24.7432 7.07143 26.4146 6.81032 28.219C6.72191 29.1812 6.3115 30.0854 5.64551 30.7852C4.4964 28.3566 3.9802 25.6765 4.14493 22.9946C4.30965 20.3127 5.14995 17.716 6.58763 15.4462C8.0253 13.1765 10.0136 11.3075 12.3676 10.013C14.7216 8.7186 17.3646 8.04086 20.0508 8.04285L20.036 8.07235ZM7.84243 34.3397C8.01936 34.1774 8.19629 34.0299 8.37323 33.853C9.68496 32.5809 10.527 30.9016 10.7618 29.0891C10.857 28.0703 11.3118 27.1187 12.0446 26.4049C12.7498 25.6707 13.6989 25.2195 14.7133 25.1365C16.5171 24.8753 18.1881 24.0376 19.4769 22.7484C20.7657 21.4592 21.6032 19.7878 21.8643 17.9834C21.9282 16.9178 22.3853 15.9139 23.1471 15.1664C23.8697 14.4465 24.8278 14.0118 25.8453 13.9423C27.5025 13.7142 29.048 12.9773 30.2687 11.8333C31.6586 12.9867 32.8361 14.3743 33.7483 15.9334C33.6923 16.009 33.628 16.0784 33.5567 16.1399C32.8529 16.8805 31.905 17.3416 30.8879 17.4377C29.0822 17.6944 27.4087 18.5306 26.119 19.8205C24.8295 21.1106 23.9934 22.7846 23.7369 24.5908C23.6329 25.6061 23.1813 26.5543 22.4585 27.2746C21.7356 27.9951 20.7861 28.4433 19.7706 28.5434C17.9615 28.8026 16.2843 29.6387 14.988 30.9273C13.6918 32.216 12.8456 33.8885 12.5754 35.6965C12.496 36.4173 12.2485 37.1094 11.8529 37.7171C10.3401 36.8186 8.98525 35.6776 7.84243 34.3397ZM20.036 40.0326C18.5399 40.0342 17.0509 39.8257 15.6127 39.4132C16.1047 38.4958 16.4245 37.496 16.5564 36.4635C16.6597 35.4504 17.1093 34.504 17.8291 33.7839C18.5489 33.0639 19.4951 32.6142 20.5079 32.5108C22.3143 32.2526 23.9887 31.4162 25.2805 30.1267C26.5721 28.8374 27.4118 27.1642 27.6736 25.3577C27.777 24.3447 28.2266 23.3982 28.9464 22.6782C29.6662 21.9582 30.6124 21.5085 31.6252 21.4051C32.9846 21.2283 34.2803 20.722 35.3997 19.9303C36.0213 22.2869 36.0949 24.7547 35.615 27.1442C35.1351 29.5338 34.1142 31.7818 32.6309 33.7155C31.1476 35.649 29.2413 37.2173 27.0579 38.2995C24.8747 39.3818 22.4727 39.9494 20.036 39.9589V40.0326Z" fill="white"/>
<path d="M55.556 31.848C55.036 31.848 54.486 31.788 53.906 31.668C53.326 31.568 52.766 31.418 52.226 31.218C51.686 30.998 51.216 30.748 50.816 30.468C50.436 30.168 50.196 29.838 50.096 29.478C50.016 29.278 49.986 29.088 50.006 28.908C50.026 28.708 50.086 28.508 50.186 28.308C50.286 28.088 50.436 27.868 50.636 27.648C50.816 27.428 50.996 27.308 51.176 27.288C51.376 27.248 51.626 27.308 51.926 27.468C52.186 27.568 52.466 27.698 52.766 27.858C53.086 28.018 53.406 28.178 53.726 28.338C54.066 28.498 54.406 28.628 54.746 28.728C55.106 28.828 55.456 28.878 55.796 28.878C56.536 28.878 57.126 28.758 57.566 28.518C58.006 28.258 58.226 27.898 58.226 27.438C58.226 27.178 58.156 26.948 58.016 26.748C57.876 26.548 57.686 26.388 57.446 26.268C57.226 26.128 56.956 26.008 56.636 25.908C56.336 25.788 56.006 25.688 55.646 25.608C55.306 25.508 54.946 25.398 54.566 25.278C54.066 25.138 53.566 24.968 53.066 24.768C52.566 24.568 52.116 24.308 51.716 23.988C51.336 23.668 51.026 23.268 50.786 22.788C50.546 22.308 50.426 21.708 50.426 20.988C50.426 20.088 50.636 19.328 51.056 18.708C51.496 18.068 52.126 17.578 52.946 17.238C53.766 16.898 54.756 16.728 55.916 16.728C56.316 16.728 56.696 16.758 57.056 16.818C57.436 16.878 57.796 16.968 58.136 17.088C58.496 17.188 58.836 17.318 59.156 17.478C59.496 17.638 59.816 17.818 60.116 18.018C60.616 18.298 60.876 18.628 60.896 19.008C60.916 19.368 60.776 19.758 60.476 20.178C60.256 20.458 60.036 20.658 59.816 20.778C59.596 20.878 59.366 20.878 59.126 20.778C58.806 20.618 58.456 20.448 58.076 20.268C57.716 20.068 57.336 19.898 56.936 19.758C56.556 19.618 56.156 19.548 55.736 19.548C55.336 19.548 54.976 19.608 54.656 19.728C54.336 19.848 54.096 20.018 53.936 20.238C53.776 20.458 53.696 20.718 53.696 21.018C53.696 21.298 53.776 21.528 53.936 21.708C54.096 21.888 54.306 22.038 54.566 22.158C54.826 22.278 55.136 22.388 55.496 22.488C55.856 22.568 56.236 22.648 56.636 22.728C57.196 22.848 57.766 22.998 58.346 23.178C58.926 23.358 59.456 23.608 59.936 23.928C60.436 24.248 60.836 24.678 61.136 25.218C61.436 25.738 61.586 26.418 61.586 27.258C61.586 28.718 61.046 29.848 59.966 30.648C58.906 31.448 57.436 31.848 55.556 31.848Z" fill="white"/>
<path d="M66.7144 37.578C66.0744 37.298 65.7044 36.978 65.6044 36.618C65.5044 36.278 65.5944 35.818 65.8744 35.238L73.6144 17.898C73.8944 17.258 74.1944 16.878 74.5144 16.758C74.8344 16.618 75.3244 16.688 75.9844 16.968C76.6044 17.248 76.9644 17.558 77.0644 17.898C77.1844 18.238 77.1144 18.698 76.8544 19.278L69.0544 36.708C68.7944 37.348 68.5044 37.718 68.1844 37.818C67.8644 37.938 67.3744 37.858 66.7144 37.578ZM69.5044 30.228L62.5744 19.578C62.2144 19.038 62.0644 18.588 62.1244 18.228C62.2044 17.868 62.5244 17.518 63.0844 17.178C63.7044 16.798 64.1844 16.648 64.5244 16.728C64.8844 16.808 65.2444 17.128 65.6044 17.688L71.0944 26.238L69.5044 30.228Z" fill="white"/>
<path d="M83.6517 31.848C83.1317 31.848 82.5817 31.788 82.0017 31.668C81.4217 31.568 80.8617 31.418 80.3217 31.218C79.7817 30.998 79.3117 30.748 78.9117 30.468C78.5317 30.168 78.2917 29.838 78.1917 29.478C78.1117 29.278 78.0817 29.088 78.1017 28.908C78.1217 28.708 78.1817 28.508 78.2817 28.308C78.3817 28.088 78.5317 27.868 78.7317 27.648C78.9117 27.428 79.0917 27.308 79.2717 27.288C79.4717 27.248 79.7217 27.308 80.0217 27.468C80.2817 27.568 80.5617 27.698 80.8617 27.858C81.1817 28.018 81.5017 28.178 81.8217 28.338C82.1617 28.498 82.5017 28.628 82.8417 28.728C83.2017 28.828 83.5517 28.878 83.8917 28.878C84.6317 28.878 85.2217 28.758 85.6617 28.518C86.1017 28.258 86.3217 27.898 86.3217 27.438C86.3217 27.178 86.2517 26.948 86.1117 26.748C85.9717 26.548 85.7817 26.388 85.5417 26.268C85.3217 26.128 85.0517 26.008 84.7317 25.908C84.4317 25.788 84.1017 25.688 83.7417 25.608C83.4017 25.508 83.0417 25.398 82.6617 25.278C82.1617 25.138 81.6617 24.968 81.1617 24.768C80.6617 24.568 80.2117 24.308 79.8117 23.988C79.4317 23.668 79.1217 23.268 78.8817 22.788C78.6417 22.308 78.5217 21.708 78.5217 20.988C78.5217 20.088 78.7317 19.328 79.1517 18.708C79.5917 18.068 80.2217 17.578 81.0417 17.238C81.8617 16.898 82.8517 16.728 84.0117 16.728C84.4117 16.728 84.7917 16.758 85.1517 16.818C85.5317 16.878 85.8917 16.968 86.2317 17.088C86.5917 17.188 86.9317 17.318 87.2517 17.478C87.5917 17.638 87.9117 17.818 88.2117 18.018C88.7117 18.298 88.9717 18.628 88.9917 19.008C89.0117 19.368 88.8717 19.758 88.5717 20.178C88.3517 20.458 88.1317 20.658 87.9117 20.778C87.6917 20.878 87.4617 20.878 87.2217 20.778C86.9017 20.618 86.5517 20.448 86.1717 20.268C85.8117 20.068 85.4317 19.898 85.0317 19.758C84.6517 19.618 84.2517 19.548 83.8317 19.548C83.4317 19.548 83.0717 19.608 82.7517 19.728C82.4317 19.848 82.1917 20.018 82.0317 20.238C81.8717 20.458 81.7917 20.718 81.7917 21.018C81.7917 21.298 81.8717 21.528 82.0317 21.708C82.1917 21.888 82.4017 22.038 82.6617 22.158C82.9217 22.278 83.2317 22.388 83.5917 22.488C83.9517 22.568 84.3317 22.648 84.7317 22.728C85.2917 22.848 85.8617 22.998 86.4417 23.178C87.0217 23.358 87.5517 23.608 88.0317 23.928C88.5317 24.248 88.9317 24.678 89.2317 25.218C89.5317 25.738 89.6817 26.418 89.6817 27.258C89.6817 28.718 89.1417 29.848 88.0617 30.648C87.0017 31.448 85.5317 31.848 83.6517 31.848Z" fill="white"/>
<path d="M99.1125 31.668C98.1325 31.668 97.2925 31.568 96.5925 31.368C95.8925 31.168 95.3225 30.858 94.8825 30.438C94.4425 30.018 94.1125 29.478 93.8925 28.818C93.6925 28.138 93.5925 27.338 93.5925 26.418V13.698C93.5925 13.338 93.6225 13.028 93.6825 12.768C93.7625 12.508 93.9225 12.308 94.1625 12.168C94.4225 12.008 94.8225 11.928 95.3625 11.928C95.9225 11.928 96.3225 12.008 96.5625 12.168C96.8225 12.328 96.9825 12.548 97.0425 12.828C97.1225 13.088 97.1625 13.378 97.1625 13.698V26.298C97.1625 26.718 97.1925 27.058 97.2525 27.318C97.3325 27.578 97.4425 27.778 97.5825 27.918C97.7425 28.038 97.9425 28.128 98.1825 28.188C98.4425 28.228 98.7525 28.248 99.1125 28.248C99.4925 28.248 99.8125 28.278 100.072 28.338C100.352 28.398 100.562 28.548 100.702 28.788C100.842 29.008 100.912 29.378 100.912 29.898C100.912 30.458 100.822 30.868 100.642 31.128C100.482 31.368 100.262 31.518 99.9825 31.578C99.7225 31.638 99.4325 31.668 99.1125 31.668ZM92.3625 17.178L95.4525 17.208L99.5925 17.088C99.9325 17.088 100.232 17.128 100.492 17.208C100.772 17.268 100.992 17.428 101.152 17.688C101.312 17.928 101.392 18.328 101.392 18.888C101.392 19.408 101.312 19.798 101.152 20.058C100.992 20.318 100.782 20.488 100.522 20.568C100.262 20.628 99.9625 20.658 99.6225 20.658L95.6025 20.598L92.2725 20.628C91.7725 20.608 91.4225 20.468 91.2225 20.208C91.0425 19.928 90.9525 19.478 90.9525 18.858C90.9525 18.278 91.0625 17.858 91.2825 17.598C91.5225 17.318 91.8825 17.178 92.3625 17.178Z" fill="white"/>
<path d="M110.769 31.848C109.469 31.848 108.329 31.638 107.349 31.218C106.389 30.798 105.579 30.228 104.919 29.508C104.279 28.768 103.789 27.948 103.449 27.048C103.129 26.128 102.969 25.178 102.969 24.198C102.969 22.758 103.299 21.478 103.959 20.358C104.619 19.238 105.529 18.358 106.689 17.718C107.869 17.078 109.219 16.758 110.739 16.758C111.819 16.758 112.769 16.928 113.589 17.268C114.409 17.608 115.089 18.058 115.629 18.618C116.189 19.158 116.609 19.758 116.889 20.418C117.189 21.078 117.339 21.718 117.339 22.338C117.339 23.398 117.079 24.168 116.559 24.648C116.059 25.128 115.429 25.368 114.669 25.368H106.749C106.769 26.048 106.979 26.638 107.379 27.138C107.799 27.638 108.319 28.028 108.939 28.308C109.579 28.568 110.229 28.698 110.889 28.698C111.389 28.698 111.829 28.668 112.209 28.608C112.609 28.548 112.949 28.478 113.229 28.398C113.509 28.298 113.749 28.198 113.949 28.098C114.169 27.998 114.369 27.908 114.549 27.828C114.729 27.748 114.899 27.698 115.059 27.678C115.279 27.658 115.499 27.708 115.719 27.828C115.939 27.948 116.119 28.158 116.259 28.458C116.379 28.658 116.459 28.848 116.499 29.028C116.559 29.188 116.589 29.348 116.589 29.508C116.589 29.908 116.349 30.288 115.869 30.648C115.389 30.988 114.709 31.268 113.829 31.488C112.969 31.728 111.949 31.848 110.769 31.848ZM106.749 23.238H112.899C113.239 23.238 113.499 23.188 113.679 23.088C113.859 22.968 113.949 22.728 113.949 22.368C113.949 21.908 113.809 21.498 113.529 21.138C113.249 20.758 112.869 20.468 112.389 20.268C111.909 20.048 111.349 19.938 110.709 19.938C109.969 19.938 109.299 20.088 108.699 20.388C108.099 20.668 107.619 21.058 107.259 21.558C106.919 22.058 106.749 22.618 106.749 23.238Z" fill="white"/>
<path d="M121.541 31.638C121.001 31.638 120.601 31.558 120.341 31.398C120.101 31.238 119.951 31.018 119.891 30.738C119.831 30.458 119.801 30.158 119.801 29.838V18.618C119.801 18.298 119.831 18.008 119.891 17.748C119.951 17.488 120.111 17.278 120.371 17.118C120.631 16.958 121.041 16.878 121.601 16.878C122.181 16.878 122.601 16.998 122.861 17.238C123.141 17.478 123.281 17.858 123.281 18.378L123.011 19.218C123.111 18.998 123.281 18.758 123.521 18.498C123.761 18.238 124.051 17.978 124.391 17.718C124.751 17.458 125.151 17.248 125.591 17.088C126.031 16.928 126.491 16.848 126.971 16.848C127.631 16.848 128.231 16.958 128.771 17.178C129.331 17.398 129.821 17.718 130.241 18.138C130.681 18.558 131.061 19.068 131.381 19.668C131.721 19.148 132.101 18.678 132.521 18.258C132.941 17.818 133.431 17.478 133.991 17.238C134.551 16.978 135.181 16.848 135.881 16.848C137.041 16.848 138.011 17.138 138.791 17.718C139.591 18.298 140.191 19.128 140.591 20.208C141.011 21.268 141.221 22.538 141.221 24.018V29.838C141.221 30.178 141.181 30.488 141.101 30.768C141.041 31.028 140.881 31.238 140.621 31.398C140.381 31.558 139.981 31.638 139.421 31.638C138.861 31.638 138.451 31.548 138.191 31.368C137.931 31.208 137.771 30.998 137.711 30.738C137.651 30.458 137.621 30.148 137.621 29.808V23.988C137.621 23.248 137.531 22.608 137.351 22.068C137.171 21.528 136.901 21.108 136.541 20.808C136.201 20.508 135.751 20.358 135.191 20.358C134.591 20.358 134.071 20.508 133.631 20.808C133.211 21.088 132.881 21.498 132.641 22.038C132.401 22.578 132.281 23.238 132.281 24.018V29.868C132.281 30.208 132.231 30.528 132.131 30.828C132.031 31.108 131.831 31.318 131.531 31.458C131.251 31.618 130.841 31.678 130.301 31.638C129.801 31.618 129.431 31.518 129.191 31.338C128.971 31.158 128.831 30.938 128.771 30.678C128.731 30.398 128.711 30.108 128.711 29.808V23.988C128.711 23.248 128.621 22.608 128.441 22.068C128.261 21.508 127.991 21.088 127.631 20.808C127.291 20.508 126.831 20.358 126.251 20.358C125.631 20.358 125.101 20.518 124.661 20.838C124.241 21.158 123.921 21.588 123.701 22.128C123.481 22.668 123.371 23.288 123.371 23.988V29.868C123.371 30.188 123.331 30.488 123.251 30.768C123.191 31.048 123.031 31.258 122.771 31.398C122.531 31.558 122.121 31.638 121.541 31.638Z" fill="white"/>
<path d="M146.155 31.668C145.615 31.668 145.215 31.578 144.955 31.398C144.695 31.238 144.535 31.028 144.475 30.768C144.415 30.488 144.385 30.178 144.385 29.838V18.678C144.385 18.358 144.415 18.068 144.475 17.808C144.555 17.528 144.715 17.308 144.955 17.148C145.215 16.988 145.625 16.908 146.185 16.908C146.745 16.908 147.145 16.988 147.385 17.148C147.645 17.308 147.805 17.528 147.865 17.808C147.925 18.088 147.955 18.398 147.955 18.738V29.868C147.955 30.208 147.925 30.518 147.865 30.798C147.805 31.058 147.645 31.268 147.385 31.428C147.145 31.588 146.735 31.668 146.155 31.668ZM146.155 13.998C145.575 13.998 145.145 13.918 144.865 13.758C144.605 13.578 144.435 13.338 144.355 13.038C144.295 12.738 144.265 12.408 144.265 12.048C144.265 11.668 144.295 11.338 144.355 11.058C144.435 10.778 144.615 10.558 144.895 10.398C145.175 10.218 145.605 10.128 146.185 10.128C146.785 10.128 147.215 10.218 147.475 10.398C147.735 10.578 147.905 10.818 147.985 11.118C148.065 11.398 148.105 11.728 148.105 12.108C148.105 12.448 148.065 12.768 147.985 13.068C147.905 13.368 147.735 13.598 147.475 13.758C147.215 13.918 146.775 13.998 146.155 13.998Z" fill="white"/>
<path d="M157.761 31.728C156.801 31.728 155.861 31.568 154.941 31.248C154.041 30.908 153.221 30.418 152.481 29.778C151.761 29.138 151.181 28.358 150.741 27.438C150.321 26.498 150.111 25.438 150.111 24.258C150.111 23.078 150.321 22.028 150.741 21.108C151.181 20.188 151.761 19.408 152.481 18.768C153.201 18.128 154.011 17.638 154.911 17.298C155.811 16.958 156.741 16.788 157.701 16.788C158.401 16.788 159.061 16.888 159.681 17.088C160.321 17.288 160.871 17.528 161.331 17.808C161.791 18.088 162.121 18.368 162.321 18.648C162.581 18.888 162.801 19.118 162.981 19.338C163.161 19.558 163.221 19.828 163.161 20.148C163.101 20.348 163.011 20.538 162.891 20.718C162.771 20.878 162.621 21.048 162.441 21.228C161.961 21.768 161.491 21.968 161.031 21.828C160.771 21.688 160.511 21.538 160.251 21.378C159.991 21.218 159.721 21.068 159.441 20.928C159.181 20.768 158.911 20.638 158.631 20.538C158.351 20.438 158.041 20.388 157.701 20.388C156.941 20.388 156.261 20.558 155.661 20.898C155.081 21.218 154.621 21.668 154.281 22.248C153.961 22.828 153.801 23.498 153.801 24.258C153.801 25.018 153.961 25.698 154.281 26.298C154.621 26.878 155.081 27.338 155.661 27.678C156.241 27.998 156.901 28.158 157.641 28.158C158.001 28.158 158.341 28.118 158.661 28.038C159.001 27.938 159.301 27.818 159.561 27.678C159.821 27.518 160.031 27.358 160.191 27.198C160.411 27.058 160.611 26.928 160.791 26.808C160.971 26.688 161.161 26.628 161.361 26.628C161.601 26.628 161.831 26.718 162.051 26.898C162.291 27.058 162.551 27.318 162.831 27.678C163.091 27.978 163.231 28.268 163.251 28.548C163.291 28.828 163.231 29.098 163.071 29.358C162.931 29.618 162.691 29.858 162.351 30.078C162.111 30.318 161.751 30.568 161.271 30.828C160.811 31.068 160.271 31.278 159.651 31.458C159.051 31.638 158.421 31.728 157.761 31.728Z" fill="white"/>
<path d="M170.663 31.848C170.143 31.848 169.593 31.788 169.013 31.668C168.433 31.568 167.873 31.418 167.333 31.218C166.793 30.998 166.323 30.748 165.923 30.468C165.543 30.168 165.303 29.838 165.203 29.478C165.123 29.278 165.093 29.088 165.113 28.908C165.133 28.708 165.193 28.508 165.293 28.308C165.393 28.088 165.543 27.868 165.743 27.648C165.923 27.428 166.103 27.308 166.283 27.288C166.483 27.248 166.733 27.308 167.033 27.468C167.293 27.568 167.573 27.698 167.873 27.858C168.193 28.018 168.513 28.178 168.833 28.338C169.173 28.498 169.513 28.628 169.853 28.728C170.213 28.828 170.563 28.878 170.903 28.878C171.643 28.878 172.233 28.758 172.673 28.518C173.113 28.258 173.333 27.898 173.333 27.438C173.333 27.178 173.263 26.948 173.123 26.748C172.983 26.548 172.793 26.388 172.553 26.268C172.333 26.128 172.063 26.008 171.743 25.908C171.443 25.788 171.113 25.688 170.753 25.608C170.413 25.508 170.053 25.398 169.673 25.278C169.173 25.138 168.673 24.968 168.173 24.768C167.673 24.568 167.223 24.308 166.823 23.988C166.443 23.668 166.133 23.268 165.893 22.788C165.653 22.308 165.533 21.708 165.533 20.988C165.533 20.088 165.743 19.328 166.163 18.708C166.603 18.068 167.233 17.578 168.053 17.238C168.873 16.898 169.863 16.728 171.023 16.728C171.423 16.728 171.803 16.758 172.163 16.818C172.543 16.878 172.903 16.968 173.243 17.088C173.603 17.188 173.943 17.318 174.263 17.478C174.603 17.638 174.923 17.818 175.223 18.018C175.723 18.298 175.983 18.628 176.003 19.008C176.023 19.368 175.883 19.758 175.583 20.178C175.363 20.458 175.143 20.658 174.923 20.778C174.703 20.878 174.473 20.878 174.233 20.778C173.913 20.618 173.563 20.448 173.183 20.268C172.823 20.068 172.443 19.898 172.043 19.758C171.663 19.618 171.263 19.548 170.843 19.548C170.443 19.548 170.083 19.608 169.763 19.728C169.443 19.848 169.203 20.018 169.043 20.238C168.883 20.458 168.803 20.718 168.803 21.018C168.803 21.298 168.883 21.528 169.043 21.708C169.203 21.888 169.413 22.038 169.673 22.158C169.933 22.278 170.243 22.388 170.603 22.488C170.963 22.568 171.343 22.648 171.743 22.728C172.303 22.848 172.873 22.998 173.453 23.178C174.033 23.358 174.563 23.608 175.043 23.928C175.543 24.248 175.943 24.678 176.243 25.218C176.543 25.738 176.693 26.418 176.693 27.258C176.693 28.718 176.153 29.848 175.073 30.648C174.013 31.448 172.543 31.848 170.663 31.848Z" fill="white"/>
</g>
<defs>
<clipPath id="clip0_42_124">
<rect width="176.693" height="48" fill="white"/>
</clipPath>
</defs>
</svg>
