<svg width="124" height="32" viewBox="0 0 124 32" fill="none" xmlns="http://www.w3.org/2000/svg">
<path d="M36.8701 10.07H39.8701V22.2H36.8701V10.07ZM41.0601 17.62C41.0601 14.62 42.9001 12.83 45.7401 12.83C48.5801 12.83 50.4201 14.62 50.4201 17.62C50.4201 20.62 48.6201 22.42 45.7401 22.42C42.8601 22.42 41.0601 20.67 41.0601 17.62ZM47.4101 17.62C47.4101 15.97 46.7601 15 45.7401 15C44.7201 15 44.0801 16 44.0801 17.62C44.0801 19.24 44.7101 20.22 45.7401 20.22C46.7701 20.22 47.4101 19.3 47.4101 17.63V17.62ZM51.5501 22.79H54.4301C54.5672 23.0945 54.7989 23.3466 55.0908 23.5088C55.3827 23.6709 55.7192 23.7345 56.0501 23.69C57.1901 23.69 57.7901 23.07 57.7901 22.17V20.49H57.7301C57.4911 21.0049 57.1032 21.4363 56.6166 21.7287C56.13 22.021 55.5669 22.1608 55.0001 22.13C52.8101 22.13 51.3601 20.46 51.3601 17.59C51.3601 14.72 52.7401 12.91 55.0401 12.91C55.6247 12.8871 56.2023 13.0434 56.6956 13.3579C57.1889 13.6725 57.5743 14.1303 57.8001 14.67V13H60.8001V22.1C60.8001 24.29 58.8701 25.65 56.0201 25.65C53.3701 25.65 51.7201 24.46 51.5501 22.8V22.79ZM57.8001 17.61C57.8001 16.15 57.1301 15.23 56.0701 15.23C55.0101 15.23 54.3601 16.14 54.3601 17.61C54.3601 19.08 55.0001 19.91 56.0701 19.91C57.1401 19.91 57.8001 19.1 57.8001 17.62V17.61ZM61.9301 17.61C61.9301 14.61 63.7701 12.82 66.6101 12.82C69.4501 12.82 71.3001 14.61 71.3001 17.61C71.3001 20.61 69.5001 22.41 66.6101 22.41C63.7201 22.41 61.9301 20.67 61.9301 17.62V17.61ZM68.2801 17.61C68.2801 15.96 67.6301 14.99 66.6101 14.99C65.5901 14.99 65.0001 16 65.0001 17.63C65.0001 19.26 65.6301 20.23 66.6501 20.23C67.6701 20.23 68.2801 19.3 68.2801 17.63V17.61ZM72.4401 10.82C72.4322 10.5171 72.5145 10.2187 72.6764 9.96261C72.8384 9.70651 73.0727 9.50427 73.3497 9.38151C73.6267 9.25875 73.9339 9.221 74.2324 9.27305C74.5309 9.32511 74.8072 9.46462 75.0263 9.67389C75.2455 9.88317 75.3975 10.1528 75.4632 10.4486C75.5289 10.7444 75.5053 11.053 75.3953 11.3354C75.2854 11.6177 75.0941 11.8611 74.8457 12.0346C74.5974 12.2081 74.303 12.304 74.0001 12.31C73.7993 12.3238 73.5978 12.2959 73.4083 12.2281C73.2187 12.1603 73.0453 12.0541 72.8988 11.916C72.7523 11.778 72.6359 11.6111 72.557 11.4259C72.478 11.2408 72.4382 11.0413 72.4401 10.84V10.82ZM72.4401 13.02H75.4401V22.2H72.4401V13.02ZM86.3301 17.61C86.3301 20.61 85.0001 22.32 82.7201 22.32C82.1355 22.3575 81.5534 22.2146 81.0526 21.9106C80.5518 21.6065 80.1565 21.156 79.9201 20.62H79.8601V25.14H76.8601V13H79.8601V14.64H79.9201C80.1455 14.0951 80.5333 13.6329 81.0307 13.3162C81.5281 12.9995 82.111 12.8437 82.7001 12.87C85.0001 12.91 86.3701 14.63 86.3701 17.63L86.3301 17.61ZM83.3301 17.61C83.3301 16.15 82.6601 15.22 81.6101 15.22C80.5601 15.22 79.8901 16.16 79.8801 17.61C79.8701 19.06 80.5601 19.99 81.6101 19.99C82.6601 19.99 83.3301 19.08 83.3301 17.63V17.61ZM91.4801 12.81C93.9701 12.81 95.4801 13.99 95.5501 15.88H92.8201C92.8201 15.23 92.2801 14.82 91.4501 14.82C90.6201 14.82 90.2501 15.14 90.2501 15.61C90.2501 16.08 90.5801 16.23 91.2501 16.37L93.1701 16.76C95.0001 17.15 95.7801 17.89 95.7801 19.28C95.7801 21.18 94.0501 22.4 91.5001 22.4C88.9501 22.4 87.2801 21.18 87.1501 19.31H90.0401C90.1301 19.99 90.6701 20.39 91.5501 20.39C92.4301 20.39 92.8301 20.1 92.8301 19.62C92.8301 19.14 92.5501 19.04 91.8301 18.89L90.1001 18.52C88.3101 18.15 87.3701 17.2 87.3701 15.8C87.3901 14 89.0001 12.83 91.4801 12.83V12.81ZM105.79 22.18H102.9V20.47H102.84C102.681 21.0441 102.331 21.5466 101.847 21.8941C101.363 22.2415 100.775 22.413 100.18 22.38C99.7243 22.4059 99.2683 22.3337 98.8428 22.1682C98.4173 22.0027 98.0323 21.7479 97.7138 21.4208C97.3953 21.0938 97.1506 20.7021 96.9965 20.2724C96.8423 19.8427 96.7822 19.3849 96.8201 18.93V13H99.8201V18.24C99.8201 19.33 100.38 19.91 101.31 19.91C101.528 19.9104 101.744 19.8643 101.943 19.7746C102.141 19.6849 102.319 19.5537 102.463 19.3899C102.606 19.226 102.714 19.0333 102.777 18.8247C102.84 18.616 102.859 18.3962 102.83 18.18V13H105.83L105.79 22.18ZM107.24 13H110.14V14.77H110.2C110.359 14.2035 110.702 13.7057 111.174 13.3547C111.646 13.0037 112.222 12.8191 112.81 12.83C113.409 12.7821 114.003 12.9612 114.476 13.3318C114.948 13.7024 115.264 14.2372 115.36 14.83H115.42C115.601 14.2309 115.977 13.7093 116.488 13.3472C116.998 12.9851 117.615 12.8031 118.24 12.83C118.648 12.8163 119.054 12.8886 119.432 13.0422C119.811 13.1957 120.152 13.4272 120.435 13.7214C120.718 14.0157 120.936 14.3662 121.075 14.7501C121.213 15.134 121.27 15.5429 121.24 15.95V22.2H118.24V16.75C118.24 15.75 117.79 15.29 116.95 15.29C116.763 15.2884 116.577 15.327 116.406 15.4032C116.235 15.4794 116.082 15.5914 115.958 15.7317C115.834 15.872 115.741 16.0372 115.686 16.2163C115.631 16.3955 115.616 16.5843 115.64 16.77V22.2H112.79V16.71C112.79 15.79 112.34 15.29 111.52 15.29C111.331 15.2901 111.143 15.3303 110.971 15.408C110.798 15.4858 110.643 15.5993 110.518 15.741C110.392 15.8827 110.298 16.0495 110.241 16.2304C110.185 16.4112 110.167 16.6019 110.19 16.79V22.2H107.19L107.24 13Z" fill="white"/>
<path d="M28.4801 10.62C27.9712 9.45636 27.2977 8.37193 26.4801 7.4C25.2716 5.92034 23.7634 4.71339 22.0548 3.8586C20.3462 3.00382 18.4759 2.52057 16.5671 2.44066C14.6583 2.36075 12.7542 2.68599 10.9801 3.39499C9.20607 4.10398 7.60226 5.18065 6.27429 6.55413C4.94631 7.9276 3.92426 9.56675 3.27541 11.3637C2.62656 13.1606 2.36561 15.0746 2.50975 16.9796C2.6539 18.8847 3.19985 20.7376 4.11169 22.4164C5.02353 24.0953 6.28059 25.562 7.80011 26.72C8.7751 27.4779 9.85246 28.094 11.0001 28.55C12.6091 29.2094 14.3312 29.549 16.0701 29.55C19.6595 29.5421 23.0993 28.1113 25.6356 25.5713C28.1718 23.0313 29.5975 19.5894 29.6001 16C29.6027 14.1485 29.2214 12.3166 28.4801 10.62ZM16.0601 5.18999C17.6217 5.18983 19.1644 5.53113 20.5801 6.18999C20.2349 6.33916 19.8719 6.44335 19.5001 6.5C18.2767 6.67709 17.1434 7.24507 16.2693 8.11917C15.3952 8.99326 14.8272 10.1266 14.6501 11.35C14.5724 12.0361 14.2603 12.6744 13.7666 13.1572C13.2729 13.64 12.6278 13.9376 11.9401 14C10.7167 14.1771 9.58336 14.7451 8.70927 15.6192C7.83518 16.4933 7.2672 17.6266 7.09011 18.85C7.03015 19.5024 6.7518 20.1155 6.30011 20.59C5.52076 18.9433 5.17065 17.1261 5.28237 15.3077C5.39409 13.4893 5.964 11.7287 6.93907 10.1897C7.91413 8.65079 9.26268 7.38351 10.8592 6.50584C12.4557 5.62817 14.2483 5.16864 16.0701 5.16999L16.0601 5.18999ZM7.7901 23C7.9101 22.89 8.03011 22.79 8.1501 22.67C9.03975 21.8075 9.61082 20.6689 9.7701 19.44C9.83468 18.7492 10.1431 18.104 10.6401 17.62C11.1184 17.1222 11.7621 16.8163 12.4501 16.76C13.6735 16.5829 14.8068 16.0149 15.6809 15.1408C16.555 14.2667 17.123 13.1334 17.3001 11.91C17.3434 11.1875 17.6534 10.5068 18.1701 10C18.6602 9.51185 19.31 9.2171 20.0001 9.16999C21.124 9.01536 22.1722 8.51571 23.0001 7.74C23.9428 8.52207 24.7414 9.46289 25.3601 10.52C25.3221 10.5713 25.2785 10.6183 25.2301 10.66C24.7528 11.1622 24.1099 11.4748 23.4201 11.54C22.1954 11.714 21.0604 12.281 20.1857 13.1556C19.3111 14.0303 18.7441 15.1653 18.5701 16.39C18.4996 17.0784 18.1933 17.7213 17.7031 18.2097C17.2128 18.6982 16.5688 19.0021 15.8801 19.07C14.6531 19.2457 13.5156 19.8126 12.6364 20.6863C11.7573 21.5601 11.1834 22.6941 11.0001 23.92C10.9463 24.4087 10.7784 24.878 10.5101 25.29C9.4841 24.6808 8.5652 23.9072 7.7901 23ZM16.0601 26.86C15.0454 26.8611 14.0355 26.7197 13.0601 26.44C13.3938 25.818 13.6107 25.1401 13.7001 24.44C13.7702 23.7531 14.0751 23.1114 14.5633 22.6232C15.0515 22.135 15.6932 21.8301 16.3801 21.76C17.6053 21.5849 18.7409 21.0178 19.617 20.1435C20.493 19.2693 21.0625 18.1348 21.2401 16.91C21.3102 16.2231 21.6151 15.5814 22.1033 15.0932C22.5915 14.605 23.2332 14.3001 23.9201 14.23C24.8421 14.1101 25.7209 13.7668 26.4801 13.23C26.9017 14.8279 26.9516 16.5011 26.6261 18.1213C26.3006 19.7415 25.6082 21.2657 24.6022 22.5768C23.5962 23.8878 22.3033 24.9511 20.8225 25.6849C19.3418 26.4187 17.7127 26.8036 16.0601 26.81V26.86Z" fill="white"/>
</svg>
