<svg width="176" height="40" viewBox="0 0 176 40" fill="none" xmlns="http://www.w3.org/2000/svg">
<g clip-path="url(#clip0_976_277)">
<path d="M54.5694 27.9204C54.0482 27.9204 53.4969 27.8599 52.9155 27.7388C52.334 27.6378 51.7727 27.4864 51.2314 27.2846C50.6901 27.0626 50.2189 26.8103 49.818 26.5277C49.4371 26.2249 49.1965 25.8919 49.0962 25.5285C49.016 25.3267 48.986 25.1349 49.006 24.9533C49.0261 24.7514 49.0862 24.5496 49.1865 24.3478C49.2867 24.1257 49.4371 23.9037 49.6375 23.6817C49.818 23.4596 49.9984 23.3385 50.1788 23.3183C50.3793 23.278 50.6299 23.3385 50.9307 23.5C51.1913 23.6009 51.472 23.7321 51.7727 23.8936C52.0935 24.0551 52.4142 24.2166 52.735 24.378C53.0758 24.5395 53.4167 24.6707 53.7575 24.7716C54.1184 24.8726 54.4692 24.923 54.81 24.923C55.5518 24.923 56.1432 24.8019 56.5843 24.5597C57.0254 24.2973 57.2459 23.934 57.2459 23.4697C57.2459 23.2073 57.1757 22.9752 57.0354 22.7734C56.8951 22.5715 56.7046 22.41 56.464 22.2889C56.2435 22.1476 55.9728 22.0265 55.6521 21.9256C55.3513 21.8045 55.0205 21.7036 54.6597 21.6228C54.3188 21.5219 53.958 21.4109 53.577 21.2898C53.0758 21.1485 52.5746 20.9769 52.0734 20.7751C51.5722 20.5732 51.1211 20.3108 50.7202 19.9879C50.3392 19.6649 50.0285 19.2612 49.7879 18.7768C49.5473 18.2924 49.427 17.6869 49.427 16.9602C49.427 16.0519 49.6375 15.2849 50.0586 14.6592C50.4996 14.0133 51.1311 13.5187 51.9531 13.1756C52.7751 12.8325 53.7675 12.6609 54.9303 12.6609C55.3313 12.6609 55.7122 12.6912 56.0731 12.7517C56.454 12.8123 56.8149 12.9031 57.1557 13.0242C57.5166 13.1251 57.8574 13.2563 58.1782 13.4178C58.519 13.5793 58.8398 13.761 59.1405 13.9628C59.6417 14.2454 59.9023 14.5784 59.9224 14.9619C59.9424 15.3253 59.8021 15.7189 59.5014 16.1427C59.2808 16.4253 59.0603 16.6272 58.8398 16.7483C58.6192 16.8492 58.3887 16.8492 58.1481 16.7483C57.8273 16.5868 57.4765 16.4152 57.0955 16.2336C56.7347 16.0317 56.3538 15.8601 55.9528 15.7189C55.5719 15.5776 55.1709 15.5069 54.7499 15.5069C54.3489 15.5069 53.988 15.5675 53.6673 15.6886C53.3465 15.8097 53.1059 15.9813 52.9455 16.2033C52.7851 16.4253 52.7049 16.6877 52.7049 16.9905C52.7049 17.2731 52.7851 17.5052 52.9455 17.6869C53.1059 17.8685 53.3164 18.0199 53.577 18.141C53.8377 18.2621 54.1484 18.3731 54.5093 18.474C54.8702 18.5548 55.2511 18.6355 55.6521 18.7163C56.2134 18.8374 56.7848 18.9888 57.3662 19.1704C57.9476 19.3521 58.4789 19.6044 58.96 19.9273C59.4613 20.2503 59.8622 20.6843 60.1629 21.2292C60.4637 21.754 60.614 22.4403 60.614 23.2881C60.614 24.7615 60.0727 25.902 58.9901 26.7093C57.9276 27.5167 56.454 27.9204 54.5694 27.9204Z" fill="black"/>
<path d="M65.7548 33.7033C65.1133 33.4207 64.7424 33.0978 64.6421 32.7344C64.5419 32.3913 64.6321 31.927 64.9128 31.3417L72.6715 13.8417C72.9522 13.1958 73.2529 12.8123 73.5737 12.6912C73.8945 12.5499 74.3856 12.6205 75.0472 12.9031C75.6687 13.1857 76.0296 13.4986 76.1299 13.8417C76.2501 14.1848 76.18 14.6491 75.9193 15.2344L68.1005 32.8253C67.8398 33.4712 67.5491 33.8446 67.2284 33.9455C66.9076 34.0666 66.4164 33.9859 65.7548 33.7033ZM68.5516 26.2855L61.6048 15.5372C61.2439 14.9922 61.0936 14.5381 61.1537 14.1747C61.2339 13.8114 61.5547 13.4582 62.116 13.1151C62.7375 12.7315 63.2187 12.5802 63.5595 12.6609C63.9204 12.7416 64.2812 13.0646 64.6421 13.6298L70.1454 22.2586L68.5516 26.2855Z" fill="black"/>
<path d="M82.7331 27.9204C82.2119 27.9204 81.6605 27.8599 81.0791 27.7388C80.4977 27.6378 79.9364 27.4864 79.3951 27.2846C78.8538 27.0626 78.3826 26.8103 77.9817 26.5277C77.6007 26.2249 77.3602 25.8919 77.2599 25.5285C77.1797 25.3267 77.1497 25.1349 77.1697 24.9533C77.1898 24.7514 77.2499 24.5496 77.3501 24.3478C77.4504 24.1257 77.6007 23.9037 77.8012 23.6817C77.9817 23.4596 78.1621 23.3385 78.3425 23.3183C78.543 23.278 78.7936 23.3385 79.0943 23.5C79.355 23.6009 79.6357 23.7321 79.9364 23.8936C80.2572 24.0551 80.5779 24.2166 80.8987 24.378C81.2395 24.5395 81.5804 24.6707 81.9212 24.7716C82.282 24.8726 82.6329 24.923 82.9737 24.923C83.7155 24.923 84.3069 24.8019 84.748 24.5597C85.1891 24.2973 85.4096 23.934 85.4096 23.4697C85.4096 23.2073 85.3394 22.9752 85.1991 22.7734C85.0588 22.5715 84.8683 22.41 84.6277 22.2889C84.4072 22.1476 84.1365 22.0265 83.8158 21.9256C83.515 21.8045 83.1842 21.7036 82.8234 21.6228C82.4825 21.5219 82.1217 21.4109 81.7407 21.2898C81.2395 21.1485 80.7383 20.9769 80.2371 20.7751C79.7359 20.5732 79.2848 20.3108 78.8838 19.9879C78.5029 19.6649 78.1922 19.2612 77.9516 18.7768C77.711 18.2924 77.5907 17.6869 77.5907 16.9602C77.5907 16.0519 77.8012 15.2849 78.2222 14.6592C78.6633 14.0133 79.2948 13.5187 80.1168 13.1756C80.9388 12.8325 81.9312 12.6609 83.094 12.6609C83.495 12.6609 83.8759 12.6912 84.2368 12.7517C84.6177 12.8123 84.9786 12.9031 85.3194 13.0242C85.6802 13.1251 86.0211 13.2563 86.3418 13.4178C86.6827 13.5793 87.0034 13.761 87.3042 13.9628C87.8054 14.2454 88.066 14.5784 88.0861 14.9619C88.1061 15.3253 87.9658 15.7189 87.665 16.1427C87.4445 16.4253 87.224 16.6272 87.0034 16.7483C86.7829 16.8492 86.5524 16.8492 86.3118 16.7483C85.991 16.5868 85.6402 16.4152 85.2592 16.2336C84.8984 16.0317 84.5174 15.8601 84.1165 15.7189C83.7356 15.5776 83.3346 15.5069 82.9136 15.5069C82.5126 15.5069 82.1517 15.5675 81.831 15.6886C81.5102 15.8097 81.2696 15.9813 81.1092 16.2033C80.9488 16.4253 80.8686 16.6877 80.8686 16.9905C80.8686 17.2731 80.9488 17.5052 81.1092 17.6869C81.2696 17.8685 81.4801 18.0199 81.7407 18.141C82.0014 18.2621 82.3121 18.3731 82.673 18.474C83.0339 18.5548 83.4148 18.6355 83.8158 18.7163C84.3771 18.8374 84.9485 18.9888 85.5299 19.1704C86.1113 19.3521 86.6426 19.6044 87.1237 19.9273C87.6249 20.2503 88.0259 20.6843 88.3266 21.2292C88.6274 21.754 88.7777 22.4403 88.7777 23.2881C88.7777 24.7615 88.2364 25.902 87.1538 26.7093C86.0912 27.5167 84.6177 27.9204 82.7331 27.9204Z" fill="black"/>
<path d="M98.2313 27.7388C97.249 27.7388 96.4069 27.6378 95.7052 27.436C95.0035 27.2341 94.4322 26.9213 93.9911 26.4974C93.55 26.0735 93.2192 25.5285 92.9987 24.8625C92.7982 24.1762 92.698 23.3688 92.698 22.4403V9.60294C92.698 9.23962 92.728 8.92676 92.7882 8.66436C92.8684 8.40196 93.0288 8.20012 93.2694 8.05882C93.53 7.89735 93.9309 7.81661 94.4723 7.81661C95.0336 7.81661 95.4346 7.89735 95.6752 8.05882C95.9358 8.2203 96.0962 8.44233 96.1563 8.72491C96.2365 8.98731 96.2766 9.27999 96.2766 9.60294V22.3192C96.2766 22.7431 96.3067 23.0862 96.3668 23.3486C96.447 23.611 96.5573 23.8129 96.6976 23.9542C96.858 24.0753 97.0585 24.1661 97.2991 24.2266C97.5597 24.267 97.8705 24.2872 98.2313 24.2872C98.6123 24.2872 98.933 24.3175 99.1937 24.378C99.4743 24.4386 99.6848 24.59 99.8252 24.8322C99.9655 25.0542 100.036 25.4276 100.036 25.9524C100.036 26.5176 99.9455 26.9314 99.765 27.1938C99.6046 27.436 99.3841 27.5874 99.1034 27.6479C98.8428 27.7085 98.5521 27.7388 98.2313 27.7388ZM91.465 13.1151L94.5625 13.1453L98.7125 13.0242C99.0533 13.0242 99.354 13.0646 99.6147 13.1453C99.8953 13.2059 100.116 13.3674 100.276 13.6298C100.437 13.872 100.517 14.2757 100.517 14.8408C100.517 15.3656 100.437 15.7592 100.276 16.0216C100.116 16.284 99.9054 16.4556 99.6447 16.5363C99.3841 16.5969 99.0834 16.6272 98.7426 16.6272L94.7128 16.5666L91.3748 16.5969C90.8736 16.5767 90.5227 16.4354 90.3222 16.173C90.1418 15.8904 90.0516 15.4363 90.0516 14.8106C90.0516 14.2252 90.1618 13.8013 90.3824 13.5389C90.623 13.2563 90.9838 13.1151 91.465 13.1151Z" fill="black"/>
<path d="M109.916 27.9204C108.613 27.9204 107.47 27.7085 106.488 27.2846C105.526 26.8607 104.714 26.2855 104.052 25.5588C103.41 24.812 102.919 23.9844 102.578 23.0761C102.258 22.1476 102.097 21.1889 102.097 20.1998C102.097 18.7465 102.428 17.4547 103.09 16.3244C103.751 15.1941 104.663 14.3059 105.826 13.66C107.009 13.0141 108.362 12.6912 109.886 12.6912C110.969 12.6912 111.921 12.8627 112.743 13.2059C113.565 13.549 114.247 14.0032 114.788 14.5683C115.349 15.1133 115.77 15.7189 116.051 16.3849C116.352 17.051 116.502 17.6969 116.502 18.3227C116.502 19.3924 116.241 20.1696 115.72 20.654C115.219 21.1384 114.587 21.3806 113.826 21.3806H105.886C105.906 22.0669 106.117 22.6623 106.518 23.167C106.939 23.6716 107.46 24.0652 108.082 24.3478C108.723 24.6102 109.375 24.7414 110.036 24.7414C110.538 24.7414 110.979 24.7111 111.36 24.6505C111.761 24.59 112.101 24.5193 112.382 24.4386C112.663 24.3377 112.903 24.2367 113.104 24.1358C113.324 24.0349 113.525 23.9441 113.705 23.8633C113.886 23.7826 114.056 23.7321 114.217 23.7119C114.437 23.6918 114.658 23.7422 114.878 23.8633C115.099 23.9844 115.279 24.1964 115.419 24.4991C115.54 24.701 115.62 24.8927 115.66 25.0744C115.72 25.2359 115.75 25.3973 115.75 25.5588C115.75 25.9625 115.51 26.346 115.029 26.7093C114.547 27.0525 113.866 27.3351 112.984 27.5571C112.122 27.7993 111.099 27.9204 109.916 27.9204ZM105.886 19.231H112.051C112.392 19.231 112.653 19.1805 112.833 19.0796C113.014 18.9585 113.104 18.7163 113.104 18.3529C113.104 17.8887 112.964 17.4749 112.683 17.1116C112.402 16.7281 112.021 16.4354 111.54 16.2336C111.059 16.0115 110.498 15.9005 109.856 15.9005C109.114 15.9005 108.443 16.0519 107.841 16.3547C107.24 16.6373 106.759 17.0309 106.398 17.5355C106.057 18.0401 105.886 18.6052 105.886 19.231Z" fill="black"/>
<path d="M120.714 27.7085C120.173 27.7085 119.772 27.6277 119.511 27.4663C119.271 27.3048 119.12 27.0828 119.06 26.8002C119 26.5176 118.97 26.2148 118.97 25.8919V14.5683C118.97 14.2454 119 13.9527 119.06 13.6903C119.12 13.4279 119.281 13.216 119.541 13.0545C119.802 12.893 120.213 12.8123 120.774 12.8123C121.356 12.8123 121.777 12.9334 122.037 13.1756C122.318 13.4178 122.458 13.8013 122.458 14.3261L122.188 15.1739C122.288 14.9518 122.458 14.7096 122.699 14.4472C122.939 14.1848 123.23 13.9224 123.571 13.66C123.932 13.3976 124.333 13.1857 124.774 13.0242C125.215 12.8627 125.676 12.782 126.157 12.782C126.819 12.782 127.42 12.893 127.962 13.1151C128.523 13.3371 129.014 13.66 129.435 14.0839C129.876 14.5078 130.257 15.0225 130.578 15.628C130.919 15.1032 131.3 14.6289 131.721 14.205C132.142 13.761 132.633 13.4178 133.194 13.1756C133.756 12.9132 134.387 12.782 135.089 12.782C136.252 12.782 137.224 13.0747 138.006 13.66C138.808 14.2454 139.409 15.083 139.81 16.173C140.231 17.2428 140.442 18.5245 140.442 20.0182V25.8919C140.442 26.235 140.402 26.5479 140.321 26.8305C140.261 27.0928 140.101 27.3048 139.84 27.4663C139.6 27.6277 139.199 27.7085 138.637 27.7085C138.076 27.7085 137.665 27.6176 137.404 27.436C137.144 27.2745 136.983 27.0626 136.923 26.8002C136.863 26.5176 136.833 26.2047 136.833 25.8616V19.9879C136.833 19.2411 136.743 18.5952 136.562 18.0502C136.382 17.5052 136.111 17.0813 135.75 16.7785C135.41 16.4758 134.958 16.3244 134.397 16.3244C133.796 16.3244 133.274 16.4758 132.833 16.7785C132.412 17.0611 132.082 17.4749 131.841 18.0199C131.6 18.5649 131.48 19.231 131.48 20.0182V25.9221C131.48 26.2653 131.43 26.5882 131.33 26.891C131.23 27.1736 131.029 27.3855 130.728 27.5268C130.448 27.6883 130.037 27.7488 129.495 27.7085C128.994 27.6883 128.623 27.5874 128.383 27.4057C128.162 27.224 128.022 27.002 127.962 26.7396C127.922 26.457 127.901 26.1644 127.901 25.8616V19.9879C127.901 19.2411 127.811 18.5952 127.631 18.0502C127.45 17.485 127.18 17.0611 126.819 16.7785C126.478 16.4758 126.017 16.3244 125.436 16.3244C124.814 16.3244 124.283 16.4859 123.842 16.8088C123.421 17.1318 123.1 17.5657 122.879 18.1107C122.659 18.6557 122.549 19.2814 122.549 19.9879V25.9221C122.549 26.2451 122.508 26.5479 122.428 26.8305C122.368 27.113 122.208 27.325 121.947 27.4663C121.707 27.6277 121.296 27.7085 120.714 27.7085Z" fill="black"/>
<path d="M145.387 27.7388C144.846 27.7388 144.445 27.6479 144.184 27.4663C143.924 27.3048 143.763 27.0928 143.703 26.8305C143.643 26.5479 143.613 26.235 143.613 25.8919V14.6289C143.613 14.3059 143.643 14.0133 143.703 13.7509C143.783 13.4683 143.944 13.2463 144.184 13.0848C144.445 12.9233 144.856 12.8426 145.417 12.8426C145.979 12.8426 146.38 12.9233 146.62 13.0848C146.881 13.2463 147.041 13.4683 147.101 13.7509C147.162 14.0334 147.192 14.3463 147.192 14.6894V25.9221C147.192 26.2653 147.162 26.5781 147.101 26.8607C147.041 27.1231 146.881 27.3351 146.62 27.4965C146.38 27.658 145.969 27.7388 145.387 27.7388ZM145.387 9.90571C144.806 9.90571 144.375 9.82497 144.094 9.66349C143.834 9.48183 143.663 9.23962 143.583 8.93685C143.523 8.63408 143.493 8.30104 143.493 7.93772C143.493 7.55421 143.523 7.22116 143.583 6.93858C143.663 6.656 143.844 6.43397 144.124 6.27249C144.405 6.09083 144.836 6 145.417 6C146.019 6 146.45 6.09083 146.71 6.27249C146.971 6.45415 147.142 6.69637 147.222 6.99913C147.302 7.28172 147.342 7.61476 147.342 7.99827C147.342 8.34141 147.302 8.66436 147.222 8.96713C147.142 9.2699 146.971 9.50202 146.71 9.66349C146.45 9.82497 146.009 9.90571 145.387 9.90571Z" fill="black"/>
<path d="M157.022 27.7993C156.06 27.7993 155.117 27.6378 154.195 27.3149C153.293 26.9717 152.471 26.4772 151.729 25.8313C151.008 25.1854 150.426 24.3982 149.985 23.4697C149.564 22.521 149.354 21.4513 149.354 20.2604C149.354 19.0695 149.564 18.0098 149.985 17.0813C150.426 16.1528 151.008 15.3656 151.729 14.7197C152.451 14.0738 153.263 13.5793 154.165 13.2362C155.067 12.893 156 12.7215 156.962 12.7215C157.664 12.7215 158.325 12.8224 158.947 13.0242C159.588 13.2261 160.14 13.4683 160.601 13.7509C161.062 14.0334 161.393 14.316 161.593 14.5986C161.854 14.8408 162.074 15.073 162.255 15.295C162.435 15.517 162.495 15.7895 162.435 16.1125C162.375 16.3143 162.285 16.5061 162.164 16.6877C162.044 16.8492 161.894 17.0208 161.713 17.2024C161.232 17.7474 160.761 17.9492 160.3 17.808C160.039 17.6667 159.779 17.5153 159.518 17.3538C159.257 17.1923 158.987 17.0409 158.706 16.8997C158.446 16.7382 158.175 16.607 157.894 16.5061C157.614 16.4051 157.303 16.3547 156.962 16.3547C156.2 16.3547 155.518 16.5262 154.917 16.8694C154.336 17.1923 153.874 17.6465 153.534 18.2318C153.213 18.8172 153.052 19.4934 153.052 20.2604C153.052 21.0274 153.213 21.7137 153.534 22.3192C153.874 22.9046 154.336 23.3688 154.917 23.7119C155.498 24.0349 156.16 24.1964 156.902 24.1964C157.263 24.1964 157.603 24.156 157.924 24.0753C158.265 23.9743 158.566 23.8532 158.826 23.7119C159.087 23.5505 159.298 23.389 159.458 23.2275C159.678 23.0862 159.879 22.955 160.059 22.8339C160.24 22.7128 160.43 22.6523 160.631 22.6523C160.871 22.6523 161.102 22.7431 161.322 22.9247C161.563 23.0862 161.824 23.3486 162.104 23.7119C162.365 24.0147 162.505 24.3074 162.525 24.59C162.565 24.8725 162.505 25.145 162.345 25.4074C162.205 25.6698 161.964 25.9121 161.623 26.1341C161.383 26.3763 161.022 26.6286 160.541 26.891C160.079 27.1332 159.538 27.3452 158.917 27.5268C158.315 27.7085 157.684 27.7993 157.022 27.7993Z" fill="black"/>
<path d="M169.955 27.9204C169.434 27.9204 168.883 27.8599 168.301 27.7388C167.72 27.6378 167.159 27.4864 166.617 27.2846C166.076 27.0626 165.605 26.8103 165.204 26.5277C164.823 26.2249 164.582 25.8919 164.482 25.5285C164.402 25.3267 164.372 25.1349 164.392 24.9533C164.412 24.7514 164.472 24.5496 164.572 24.3478C164.673 24.1257 164.823 23.9037 165.023 23.6817C165.204 23.4596 165.384 23.3385 165.565 23.3183C165.765 23.278 166.016 23.3385 166.317 23.5C166.577 23.6009 166.858 23.7321 167.159 23.8936C167.479 24.0551 167.8 24.2166 168.121 24.378C168.462 24.5395 168.803 24.6707 169.143 24.7716C169.504 24.8726 169.855 24.923 170.196 24.923C170.938 24.923 171.529 24.8019 171.97 24.5597C172.411 24.2973 172.632 23.934 172.632 23.4697C172.632 23.2073 172.562 22.9752 172.421 22.7734C172.281 22.5715 172.091 22.41 171.85 22.2889C171.629 22.1476 171.359 22.0265 171.038 21.9256C170.737 21.8045 170.406 21.7036 170.046 21.6228C169.705 21.5219 169.344 21.4109 168.963 21.2898C168.462 21.1485 167.961 20.9769 167.459 20.7751C166.958 20.5732 166.507 20.3108 166.106 19.9879C165.725 19.6649 165.414 19.2612 165.174 18.7768C164.933 18.2924 164.813 17.6869 164.813 16.9602C164.813 16.0519 165.024 15.2849 165.445 14.6592C165.886 14.0133 166.517 13.5187 167.339 13.1756C168.161 12.8325 169.153 12.6609 170.316 12.6609C170.717 12.6609 171.098 12.6912 171.459 12.7517C171.84 12.8123 172.201 12.9031 172.542 13.0242C172.903 13.1251 173.243 13.2563 173.564 13.4178C173.905 13.5793 174.226 13.761 174.526 13.9628C175.028 14.2454 175.288 14.5784 175.308 14.9619C175.328 15.3253 175.188 15.7189 174.887 16.1427C174.667 16.4253 174.446 16.6272 174.226 16.7483C174.005 16.8492 173.775 16.8492 173.534 16.7483C173.213 16.5868 172.862 16.4152 172.481 16.2336C172.121 16.0317 171.74 15.8601 171.339 15.7189C170.958 15.5776 170.557 15.5069 170.136 15.5069C169.735 15.5069 169.374 15.5675 169.053 15.6886C168.732 15.8097 168.492 15.9813 168.331 16.2033C168.171 16.4253 168.091 16.6877 168.091 16.9905C168.091 17.2731 168.171 17.5052 168.331 17.6869C168.492 17.8685 168.702 18.0199 168.963 18.141C169.224 18.2621 169.534 18.3731 169.895 18.474C170.256 18.5548 170.637 18.6355 171.038 18.7163C171.599 18.8374 172.171 18.9888 172.752 19.1704C173.334 19.3521 173.865 19.6044 174.346 19.9273C174.847 20.2503 175.248 20.6843 175.549 21.2292C175.85 21.754 176 22.4403 176 23.2881C176 24.7615 175.459 25.902 174.376 26.7093C173.314 27.5167 171.84 27.9204 169.955 27.9204Z" fill="black"/>
<path d="M40 20C40 31.0457 31.0457 40 20 40C8.9543 40 0 31.0457 0 20C0 8.9543 8.9543 0 20 0C31.0457 0 40 8.9543 40 20Z" fill="url(#paint0_radial_976_277)"/>
<path d="M10.001 15.4C9.35833 16.8003 9 18.3583 9 20C9 26.0972 13.9428 31.04 20.04 31.04C20.5074 31.04 20.9679 31.011 21.42 30.9546C21.7859 30.909 22.1462 30.8454 22.5 30.7649M16.8763 9.42C17.8785 9.12074 18.9405 8.96 20.04 8.96C26.1372 8.96 31.08 13.9028 31.08 20C31.08 20.5088 31.0456 21.0095 30.979 21.5" stroke="white" stroke-width="2" stroke-linecap="round"/>
<circle cx="12.68" cy="11.72" r="1.84" fill="white"/>
<circle cx="28.32" cy="27.36" r="3.68" fill="white"/>
</g>
<defs>
<radialGradient id="paint0_radial_976_277" cx="0" cy="0" r="1" gradientUnits="userSpaceOnUse" gradientTransform="translate(28.2143 8.92857) rotate(129.237) scale(27.6665)">
<stop stop-color="#FF449E"/>
<stop offset="1" stop-color="#6343E2"/>
</radialGradient>
<clipPath id="clip0_976_277">
<rect width="176" height="40" fill="white"/>
</clipPath>
</defs>
</svg>
